<?xml version="1.0" standalone="no"?><!DOCTYPE svg PUBLIC "-//W3C//DTD SVG 1.1//EN" "http://www.w3.org/Graphics/SVG/1.1/DTD/svg11.dtd"><svg class="icon" width="200px" height="200.00px" viewBox="0 0 1024 1024" version="1.1" xmlns="http://www.w3.org/2000/svg"><path fill="#000000" d="M512 0C229.227263 0 0 229.227263 0 512S229.227263 1024 512 1024 1024 794.772737 1024 512 794.772737 0 512 0z m4.004469 855.812291a40.044693 40.044693 0 1 1 40.044693-40.044693 40.044693 40.044693 0 0 1-40.044693 40.044693z m40.044693-196.218995a39.472626 39.472626 0 0 1-39.472626 39.472626h-1.144134a39.472626 39.472626 0 0 1-39.472625-39.472626v-432.482681a39.472626 39.472626 0 0 1 39.472625-39.472626h1.144134a39.472626 39.472626 0 0 1 39.472626 39.472626z" /></svg>