<?xml version="1.0" standalone="no"?><!DOCTYPE svg PUBLIC "-//W3C//DTD SVG 1.1//EN" "http://www.w3.org/Graphics/SVG/1.1/DTD/svg11.dtd"><svg class="icon" width="200px" height="200.00px" viewBox="0 0 1024 1024" version="1.1" xmlns="http://www.w3.org/2000/svg"><path fill="#000000" d="M349.397 12.8h310.955v80.32H349.397zM997.42 994.133v-72.832H862.1L749.312 172.523h25.259v-59.136H252.544v59.136h34.39L174.143 921.3H48v72.832m654.805-555.136L562.07 326.784l110.507-88.128 30.23 200.341z m1.899 71.19l-164.757 131.37V378.816l164.757 131.37zM539.925 172.523h122.752l0.598 3.946-123.35 98.368V172.523zM735.36 921.3H539.925V765.44L735.36 921.301z m-371.712-683.05l111.104 88.618-141.44 112.747 30.336-201.365zM311.68 583.424l150.635 120.085-191.723 152.875 41.088-272.96z m182.144 337.877H296.832l196.992-157.098V921.3z m0-278.442L329.771 512.043l164.053-130.816v261.632z m0-370.518l-120.81-96.298 0.511-3.456h120.278v99.754z m76.075 431.19l154.218-122.987 42.134 279.53-196.352-156.543z m0 0" /></svg>