<?xml version="1.0" standalone="no"?><!DOCTYPE svg PUBLIC "-//W3C//DTD SVG 1.1//EN" "http://www.w3.org/Graphics/SVG/1.1/DTD/svg11.dtd"><svg class="icon" width="200px" height="200.00px" viewBox="0 0 1024 1024" version="1.1" xmlns="http://www.w3.org/2000/svg"><path fill="#000000" d="M597.333 256v21.333h85.334V256h-21.334v-21.333h21.334v-21.334h42.666v21.334h21.334V256h-21.334v85.333H832a21.333 21.333 0 0 1 21.333 21.334V384A21.333 21.333 0 0 1 832 405.333h-21.333v2.56c24.341 11.862 42.666 63.51 42.666 125.44 0 23.318-2.602 45.163-7.125 64h60.459v-42.666h10.666V512h-10.666a10.667 10.667 0 1 1 0-21.333h42.666a10.667 10.667 0 1 1 0 21.333h-10.666v42.667h10.666v42.666H992a10.667 10.667 0 1 1 0 21.334h-10.667V704H1024v128H0V704h64v-85.333A42.667 42.667 0 0 1 21.333 576V469.333A42.667 42.667 0 0 1 64 426.667h170.667v-21.334A21.333 21.333 0 0 1 213.333 384v-42.667A21.333 21.333 0 0 1 234.667 320h42.666a21.333 21.333 0 0 1 21.334 21.333V384a21.333 21.333 0 0 1-21.334 21.333v21.334H320v64h21.333V512h21.334v-10.667a10.667 10.667 0 1 1 21.333 0V512h21.333v-21.333a21.333 21.333 0 0 1 21.312-21.334c1.942-37.376 11.798-62.293 53.355-64 3.819-0.149 7.36-0.085 10.667 0.214V384H480a10.667 10.667 0 1 1 0-21.333h10.667V228.949a42.667 42.667 0 1 1 42.666 0v48.384H576V256h-21.333v-21.333H576V192l-11.413-42.667h0.746a10.667 10.667 0 0 1-10.666-10.666V96a10.667 10.667 0 0 1 10.666-10.667H608A10.667 10.667 0 0 1 618.667 96v42.667a10.667 10.667 0 0 1-10.454 10.666L597.333 192v42.667h21.334V256h-21.334zM428.587 597.248A21.333 21.333 0 0 1 405.333 576v-21.333H384v10.666a10.667 10.667 0 1 1-21.333 0v-10.666h-21.334V576H320v128h170.667v-43.52c-3.286 0.555-6.827 0.853-10.667 0.853-35.776 0-47.552-25.77-51.413-64.085zM608 149.333h-42.667z m74.667 192v-42.666H533.333v64H544A10.667 10.667 0 1 1 544 384h-10.667v21.333h64A21.333 21.333 0 0 1 576 384v-21.333a21.333 21.333 0 0 1 21.333-21.334h85.334zM960 650.667v10.666h-64V640h64v10.667-32H842.667a10.667 10.667 0 0 1-2.774-0.363c-7.53 20.31-17.706 34.859-29.226 40.47v2.56h-64V704h128v-42.667H960v-10.666z m-42.667 32V704h21.334v-21.333h-21.334zM797.141 405.333a21.333 21.333 0 0 0-36.949 0h36.95z m-149.333 0a21.333 21.333 0 0 0-36.95 0h36.95z m-50.475 256V704h128v-42.667h-128z m-512-42.666V640H128v-21.333H85.333z m64 0V704h85.334v-85.333h-85.334z m106.667 0V640h42.667v-21.333H256z m0-245.334A10.667 10.667 0 1 0 256 352a10.667 10.667 0 0 0 0 21.333z m661.333 245.334h21.334V640h-21.334v-21.333z" /></svg>