<?xml version="1.0" standalone="no"?><!DOCTYPE svg PUBLIC "-//W3C//DTD SVG 1.1//EN" "http://www.w3.org/Graphics/SVG/1.1/DTD/svg11.dtd"><svg class="icon" width="200px" height="200.00px" viewBox="0 0 1024 1024" version="1.1" xmlns="http://www.w3.org/2000/svg"><path fill="#000000" d="M512 0C229.227263 0 0 229.227263 0 512S229.227263 1024 512 1024 1024 794.772737 1024 512 794.772737 0 512 0z m4.004469 876.406704a60.639106 60.639106 0 1 1 60.639106-60.639106 60.639106 60.639106 0 0 1-60.639106 60.639106z m60.639106-216.813408c0 21.738547-26.761296 39.472626-59.781005 39.472626h-1.716201c-33.019709 0-59.781006-17.676872-59.781006-39.472626v-432.482681c0-21.795754 26.761296-39.472626 59.781006-39.472626h1.716201c33.019709 0 59.781006 17.676872 59.781005 39.472626z" /></svg>