<?xml version="1.0" standalone="no"?><!DOCTYPE svg PUBLIC "-//W3C//DTD SVG 1.1//EN" "http://www.w3.org/Graphics/SVG/1.1/DTD/svg11.dtd"><svg class="icon" width="200px" height="200.00px" viewBox="0 0 1024 1024" version="1.1" xmlns="http://www.w3.org/2000/svg"><path fill="#000000" d="M529.66 334.45c-34.25 2.23-52.12 24.2-53.61 65.89 1.48 42.44 19.35 64.41 53.61 65.89 6.7 0 13.02-0.73 18.99-2.23l-10.05-10.05c-3.73-3.72-5.58-7.43-5.58-11.17 0.73-12.65 7.07-19.72 18.99-21.22 3.72 0.75 7.43 2.23 11.17 4.47l13.4 11.17c5.2-11.17 7.82-23.45 7.82-36.85-3-41.7-21.23-63.66-54.74-65.9z"  /><path fill="#000000" d="M866.71 223.5l0.28-28.9v-87.1c0-23.75-19.25-43-43-43H202c-23.75 0-43 19.25-43 43v116h-23v371h23v322c0 23.75 19.25 43 43 43h439.31c12.12 0 23.06-5.02 30.88-13.09l103.69-89.57c17.97-15.52 19.96-42.68 4.43-60.65-15.52-17.97-42.68-19.96-60.65-4.43l-35.46 30.63-0.05-49.13 133.89 2.04c23.84 0.36 43.42-18.73 43.65-42.57l1.36-138.23H888v-371h-21.29zM245 150.5h536v43.47l-0.29 29.53H245v-73z m380.71 330.25c6.7 5.22 10.05 10.8 10.05 16.75-1.5 8.93-8.2 14.13-20.1 15.64-5.22 0-11.55-2.98-18.99-8.93l-16.75-11.17c-13.4 6.7-30.15 10.05-50.26 10.05-61.81-2.97-94.56-37.22-98.28-102.75 4.47-64.77 37.22-99.76 98.28-104.98 60.31 5.22 93.06 40.2 98.28 104.98-0.75 27.55-7.08 49.52-18.99 65.89l16.76 14.52z m-314.49-64.77c-39.47-11.17-59.19-29.77-59.19-55.84 2.23-39.45 25.69-61.04 70.36-64.77 35.74 2.23 54.34 11.55 55.84 27.92-1.5 14.15-7.82 21.22-18.99 21.22-3.73 0-8.93-0.73-15.64-2.23-5.97-2.97-13.4-4.83-22.34-5.58-15.63 0.75-23.45 6.7-23.45 17.87 0 8.2 10.78 15.64 32.39 22.34 42.44 11.92 63.66 32.77 63.66 62.54-2.98 40.2-27.55 61.42-73.71 63.66-45.42-0.75-68.51-10.78-69.24-30.15 0.73-11.9 7.07-18.6 18.99-20.1 5.95 0.75 12.29 2.62 18.99 5.58 11.9 3.73 21.58 5.58 29.04 5.58 18.6 0 28.29-8.18 29.04-24.57-0.01-8.95-11.93-16.77-35.75-23.47z m464.91 272.67l-134.36-2.05c-24.02-0.37-43.68 19.02-43.66 43.04l0.16 143.85H245v-279h532.05l-0.92 94.16z m-9.03-186.68h-71.48c-14.15 0-21.22-7.82-21.22-23.45v-159.7c0-14.13 7.07-21.59 21.22-22.34 13.4 0.75 20.47 8.2 21.22 22.34v144.07h50.26c13.4 0.75 20.47 7.45 21.22 20.1-2.24 12.66-9.32 18.98-21.22 18.98z"  /></svg>