<?xml version="1.0" standalone="no"?><!DOCTYPE svg PUBLIC "-//W3C//DTD SVG 1.1//EN" "http://www.w3.org/Graphics/SVG/1.1/DTD/svg11.dtd"><svg class="icon" width="200px" height="200.00px" viewBox="0 0 1024 1024" version="1.1" xmlns="http://www.w3.org/2000/svg"><path fill="#000000" d="M583.622081 1009.642019H313.359268c-27.650702 0-50.279026-22.627301-50.279027-50.278003V476.663261c0-101.986585 83.428964-185.426806 185.41555-185.426806 101.975329 0 185.415549 83.440221 185.415549 185.426806v482.700755c0 27.650702-22.627301 50.278003-50.289259 50.278003zM356.211152 14.359004c59.697518 0 108.091618 48.3941 108.091618 108.092641 0 59.697518-48.3941 108.091618-108.091618 108.091618-59.697518 0-108.092641-48.3941-108.092641-108.091618 0-59.698541 48.3941-108.092641 108.092641-108.092641z m0 70.675525c-20.67893 0-37.416093 16.748419-37.416093 37.416093 0 20.657441 16.737163 37.416093 37.416093 37.416093 20.657441 0 37.416093-16.759675 37.416093-37.416093 0-20.667674-16.759675-37.416093-37.416093-37.416093z"  /><path fill="#000000" d="M259.746317 160.170636h377.184794v87.998017H259.746317z"  /><path fill="#000000" d="M404.496782 228.8763h87.998018v128.879018h-87.998018zM259.746317 160.170636s-152.697446 28.192029-181.387825 198.104521c-8.141408 48.178183 68.380253 59.459088 78.059688 13.262022 6.799856-32.522653 30.96416-114.533317 103.32916-123.368526 97.329528-11.887724-0.001023-87.998017-0.001023-87.998017zM946.246281 65.893624l-363.879794 94.277012v87.998017l363.879794 88.789032z"  /></svg>