<?xml version="1.0" standalone="no"?><!DOCTYPE svg PUBLIC "-//W3C//DTD SVG 1.1//EN" "http://www.w3.org/Graphics/SVG/1.1/DTD/svg11.dtd"><svg class="icon" width="200px" height="200.00px" viewBox="0 0 1024 1024" version="1.1" xmlns="http://www.w3.org/2000/svg"><path fill="#000000" d="M858.027 665.173l-135.68-135.68a21.333 21.333 0 0 0-30.08 0l-135.68 135.68a21.333 21.333 0 0 0 0 30.08L692.267 832a21.333 21.333 0 0 0 30.08 0l135.68-135.68a21.333 21.333 0 0 0 0-31.147z m-211.2 0L631.68 680.32a21.333 21.333 0 0 1-30.08 0 21.333 21.333 0 0 1 0-30.08l15.147-15.147a21.333 21.333 0 0 1 30.08 0 21.333 21.333 0 0 1 0.213 30.08z m90.453 30.08l-45.227 45.227a21.333 21.333 0 0 1-30.08 0 21.333 21.333 0 0 1 0-30.08l45.227-45.227a21.333 21.333 0 1 1 30.08 30.08z m-392.107-241.28l135.68-135.68a21.333 21.333 0 0 0 0-30.08l-135.68-136.106a21.333 21.333 0 0 0-30.08 0L179.413 288a21.333 21.333 0 0 0 0 30.08l135.68 135.68a21.333 21.333 0 0 0 30.08 0.213z m15.147-45.226a21.333 21.333 0 0 1-30.08-30.08 21.333 21.333 0 0 1 30.08 0 21.333 21.333 0 0 1 0 30.08z m-90.453-60.374a21.333 21.333 0 0 1 0-30.08l45.226-45.226a21.333 21.333 0 0 1 30.08 0 21.333 21.333 0 0 1 0 30.08l-45.226 45.226a21.333 21.333 0 0 1-30.08 0z m482.773 30.08a21.333 21.333 0 0 0 30.08 0l44.8-44.8a21.333 21.333 0 0 0 6.613-15.573 21.333 21.333 0 0 0-6.186-14.933L707.2 182.4a21.333 21.333 0 0 0-30.72 0l-44.8 44.8a21.333 21.333 0 0 0 0 30.08z m-30.293 30.294L601.6 288a21.333 21.333 0 0 0-30.08 0L203.307 656.213a21.333 21.333 0 0 0-6.187 17.067l10.667 110.08a21.333 21.333 0 0 0 19.2 19.2l110.08 10.667a21.333 21.333 0 0 0 17.066-6.187l368.214-368.213a21.333 21.333 0 0 0 0-30.08z" /></svg>