<?xml version="1.0" standalone="no"?><!DOCTYPE svg PUBLIC "-//W3C//DTD SVG 1.1//EN" "http://www.w3.org/Graphics/SVG/1.1/DTD/svg11.dtd"><svg class="icon" width="200px" height="200.00px" viewBox="0 0 1024 1024" version="1.1" xmlns="http://www.w3.org/2000/svg"><path fill="#000000" d="M651.18 491.22h82.438l166.571-143.46c-7.275-17.114-15.429-33.572-24.684-49.402L654.597 488.23l-3.418 2.99zM531.947 90.281v67.565l67.818-58.518c-22.08-4.63-44.65-7.953-67.818-9.047z m348.8 400.937l48.087-41.392c-2.92-20.213-7.669-39.825-13.417-58.99l-116.724 100.39h82.054v-0.008zM743.066 159.083l-211.12 181.459v70.952l254.772-219.553c-13.832-11.909-28.44-22.834-43.652-32.858z m-93.72-46.35L531.948 213.735v70.963l172.017-148.306c-17.584-8.974-35.662-17.13-54.62-23.659z m202.502 149.795c-10.533-14.338-21.887-28.007-34.115-40.86L531.946 467.37v23.85h54.435l265.468-228.692zM492.052 90.282c-223.666 10.48-401.91 194.644-401.91 420.845 0 97.936 33.635 187.826 89.62 259.388l312.29-268.522V90.282z m27.276 440.776L205.744 800.714c76.952 81.328 185.508 132.318 306.272 132.318 226.224 0 410.376-178.273 420.878-401.974H519.326z m0 0" /></svg>