<?xml version="1.0" standalone="no"?><!DOCTYPE svg PUBLIC "-//W3C//DTD SVG 1.1//EN" "http://www.w3.org/Graphics/SVG/1.1/DTD/svg11.dtd"><svg class="icon" width="200px" height="200.00px" viewBox="0 0 1024 1024" version="1.1" xmlns="http://www.w3.org/2000/svg"><path fill="#000000" d="M903.8 304.842c-0.576-10.8-1.898-21.558-2.875-32.583-3.305 0-5.85 0.176-8.346-0.042a209.362 209.362 0 0 1-24.99-2.475 94.415 94.415 0 0 1-52.333-29.567 89.88 89.88 0 0 1-21.22-38.559c-3.39-13.507-5.625-27.31-8.409-41.224-1.286-0.436-3.192-1.055-5.076-1.751q-55.456-20.327-110.883-40.676c-29.637-10.898-59.217-21.93-88.875-32.701q-29.291-10.624-58.766-20.707a29.49 29.49 0 0 0-24.835 0.408 370.32 370.32 0 0 1-40.12 14.941q-32.569 11.876-65.074 23.829Q341.493 122.34 291.016 141c-17.888 6.61-35.733 13.275-53.452 19.87a232.888 232.888 0 0 1-3.522 24.476 202.274 202.274 0 0 1-10.399 33.145 84.677 84.677 0 0 1-23.414 30.206 90.373 90.373 0 0 1-40.746 20.278c-11.609 2.342-23.583 2.77-36.21 4.149-0.331 3.614-0.753 7.608-1.042 11.594-1.37 17.88-3.086 35.775-3.916 53.697-0.471 10.252 0.408 20.58 0.886 30.853 0.942 19.667 1.87 39.333 3.108 58.985 0.682 11.011 1.533 22.079 3.164 32.984 2.623 17.438 5.238 34.917 9.14 52.102 5.956 26.226 11.982 52.501 19.927 78.165 7.102 22.971 16.566 45.232 25.425 67.64a472.708 472.708 0 0 0 37.547 72.85 506.472 506.472 0 0 0 44.458 62.2 404.984 404.984 0 0 0 45.548 48.487c14.133 12.093 27.928 24.63 42.469 36.203a460.897 460.897 0 0 0 77.856 49.654c19.87 10.125 40.563 18.654 60.785 28.125a51.659 51.659 0 0 0 37.772 3.094 352.475 352.475 0 0 0 44.677-18.527 582.164 582.164 0 0 0 89.31-52.102 591.768 591.768 0 0 0 63.654-52.98q10.195-9.864 19.546-20.552c8.691-9.766 17.543-19.462 25.503-29.791a485.618 485.618 0 0 0 47.453-71.55c10.715-20.552 22.134-40.865 30.888-62.254 10.617-25.924 19.477-52.664 27.802-79.446a567.23 567.23 0 0 0 20.46-94.97c2.933-22.353 5.949-44.72 8.01-67.149q2.179-24.686 2.06-49.5c-0.036-18.689-1.006-37.406-1.97-56.094z m-192.726 81.47L475.543 661.739s-18.05 24.673-39.488-0.26L334.42 524.47s-12.058-18.563 3.023-29.673c5.113-3.711 16.68-9.54 30.861 3.144l90.59 72.056 225.576-207.457s15.13-13.795 28.35-3.016c3.93 3.22 8.472 12.403-1.751 26.789z" /></svg>