<?xml version="1.0" standalone="no"?><!DOCTYPE svg PUBLIC "-//W3C//DTD SVG 1.1//EN" "http://www.w3.org/Graphics/SVG/1.1/DTD/svg11.dtd"><svg class="icon" width="200px" height="200.00px" viewBox="0 0 1024 1024" version="1.1" xmlns="http://www.w3.org/2000/svg"><path fill="#000000" d="M78.229139 143.953383l216.639094 851.064723a23.416484 23.416484 0 0 1-17.184022 28.314581 23.774485 23.774485 0 0 1-5.56528 0.667183h-89.288568a23.123575 23.123575 0 0 1-22.781847-18.762479L0.90104 170.103689A21.903119 21.903119 0 0 1 13.349692 145.076203l31.845768-15.345202a22.781847 22.781847 0 0 1 30.918221 8.966285 21.903119 21.903119 0 0 1 2.115458 5.256097zM94.713432 106.135517S263.559466-1.882985 316.429624 0.623018a111.061505 111.061505 0 0 1 106.879409 53.163068c36.955411 43.773692 229.689839 253.854869 600.366767 149.855737 0 0-237.582121 387.161221-393.995776 387.161221-134.168808 0-107.400137-84.14638-234.213662-84.14638a240.185761 240.185761 0 0 0-145.543459 35.800046z" /></svg>