<?xml version="1.0" standalone="no"?><!DOCTYPE svg PUBLIC "-//W3C//DTD SVG 1.1//EN" "http://www.w3.org/Graphics/SVG/1.1/DTD/svg11.dtd"><svg class="icon" width="200px" height="199.80px" viewBox="0 0 1025 1024" version="1.1" xmlns="http://www.w3.org/2000/svg"><path fill="#000000" d="M736.945 178.29c12.36 7.416 17.304 24.72 9.888 37.08l-49.439 84.045-44.494-27.192 49.438-84.045c4.944-7.416 9.888-9.888 17.304-12.36 4.943 0 12.36 0 17.303 2.472zM512 116.492c17.303 0 27.191 12.36 27.191 27.191v96.405h-56.854v-96.405c0-14.831 14.831-27.19 29.663-27.19zM287.055 178.29c7.416-4.944 12.36-4.944 19.775-2.472 7.416 2.472 12.36 7.416 14.832 12.36l49.438 84.045-46.966 27.192-46.967-84.046c-7.416-12.36-4.944-29.663 9.888-37.079z m-168.09 168.091c4.943-7.416 9.887-12.36 17.303-12.36 7.415-2.471 12.36-2.471 19.775 2.472l84.045 49.439-27.19 44.495-84.046-49.439c-12.36-4.944-14.832-22.247-9.888-34.607z m786.07 0c7.417 12.36 2.473 29.663-9.887 37.079l-84.045 49.438-27.191-49.438 84.045-49.439c7.416-4.943 12.36-4.943 19.775-2.471 7.416 2.471 12.36 7.415 17.304 14.831z m-27.19 504.273h-93.933V586.158c0-150.788-121.125-274.384-271.912-274.384-150.787 2.472-271.912 123.596-271.912 274.384v264.496h-93.933c-17.303 0-27.19 12.36-27.19 27.19-2.473 17.304 12.359 29.664 27.19 29.664h734.162c17.303 0 27.19-12.36 27.19-27.191 0-14.832-12.359-29.663-29.662-29.663z m-400.452-39.551l27.191-165.62H398.292l133.483-220-27.19 165.619h106.292l-133.484 220z m0 0" /></svg>