<?xml version="1.0" standalone="no"?><!DOCTYPE svg PUBLIC "-//W3C//DTD SVG 1.1//EN" "http://www.w3.org/Graphics/SVG/1.1/DTD/svg11.dtd"><svg class="icon" width="200px" height="200.00px" viewBox="0 0 1024 1024" version="1.1" xmlns="http://www.w3.org/2000/svg"><path fill="#000000" d="M601.914 0c41.385 0 77.396 29.449 87.337 71.439l44.06 184.57h162.672v85.326h-142.29l40.718 170.666h144.244v85.338l-128.163 0.024-0.317 4.35 82.338 302.089c13.651 50.097-13.993 102.276-61.844 116.571-22.313 6.68-46.358 4.052-66.716-7.239l-6.677-4.115-245.289-165.033-245.288 165.034a86.566 86.566 0 0 1-73.365 11.354c-47.828-14.295-75.56-66.475-61.876-116.537l82.367-302.123-0.237-4.374H85.346v-85.338H229.56l40.668-170.666H128.01V256.01h162.625l44.084-184.57c9.432-39.699 42.106-68.092 80.526-71.166L422.056 0h179.858zM740.55 690.175L595.233 787.94l210.722 141.807-65.405-239.572z m-457.154 0l-65.351 239.571 210.692-141.807-145.341-97.764z m428.595-92.835H311.875l200.112 134.567L711.991 597.34z m-66.612-256.004H378.533l-46.596 170.666h359.988l-46.546-170.666zM577.975 94.279h-131.98l-44.163 161.73h220.227l-44.055-161.73h-0.029z m0 0"  /></svg>