<?xml version="1.0" standalone="no"?><!DOCTYPE svg PUBLIC "-//W3C//DTD SVG 1.1//EN" "http://www.w3.org/Graphics/SVG/1.1/DTD/svg11.dtd"><svg class="icon" width="200px" height="200.00px" viewBox="0 0 1024 1024" version="1.1" xmlns="http://www.w3.org/2000/svg"><path fill="#000000" d="M351.724 123c-8.914-25.766-23.582-49.244-43.202-68.844C274.27 19.878 228.862 1 180.66 1 94.392 1 19.694 62.492 3.042 147.222a179.364 179.364 0 0 0-2.978 22.852l-0.064 0.97V842.34C0 941.956 81.044 1023 180.66 1023H1024V123H351.724zM60 173.05c0.346-4.75 0.992-9.546 1.916-14.264C73.052 102.126 122.992 61 180.66 61c32.166 0 62.502 12.63 85.436 35.584 17.168 17.152 28.686 38.658 33.314 62.24a119.554 119.554 0 0 1 2.25 23.156l-0.352 526.49C269.2 679.598 226.702 662 180.16 662c-45.918 0-88.126 17.334-120.16 45.948V173.05zM783.25 963h-301.5V843H723v60h60.25v60zM964 963H843.25V843H783v-60H421.75v180H180.66C114.128 963 60 908.872 60 842.34v-8.38C64.36 771.124 116.996 722 180.16 722c66.752 0 121.06 54.056 121.06 120.5l60 0.02 0.44-659.52H663v120h-60v61H483v299h301V484h180v479z m0-539H724v179H543V424h120v-61h60V183h241v241z" /></svg>