<?xml version="1.0" standalone="no"?><!DOCTYPE svg PUBLIC "-//W3C//DTD SVG 1.1//EN" "http://www.w3.org/Graphics/SVG/1.1/DTD/svg11.dtd"><svg class="icon" width="200px" height="200.00px" viewBox="0 0 1024 1024" version="1.1" xmlns="http://www.w3.org/2000/svg"><path fill="#000000" d="M842.027 683.947l-57.387-30.934-24.747 13.44-22.4 12.16-22.613 12.16-162.133 87.254a85.333 85.333 0 0 1-81.28 0l-162.134-87.254L288 678.827l-22.613-12.16-24.747-13.44-58.667 30.72a21.333 21.333 0 0 0 0 37.76l308.694 166.826a42.667 42.667 0 0 0 40.746 0l309.76-166.613a21.333 21.333 0 0 0 0.854-37.973zM842.027 535.68l-136.747-73.6-24.747 13.44-22.613 12.16-22.4 12.16-82.987 44.587a85.333 85.333 0 0 1-81.28 0l-82.986-44.587-22.4-12.16-22.614-12.16-24.746-13.44-136.534 73.6a21.333 21.333 0 0 0 0 37.76l57.387 30.933 22.613 12.16 22.4 12.16 22.614 12.16L328.32 652.8l162.347 87.467a42.667 42.667 0 0 0 40.746 0l162.134-87.254L717.013 640l22.4-12.16 22.4-12.16 22.614-12.16 57.386-30.933a21.333 21.333 0 0 0 0.214-36.907zM181.973 340.053l136.747 73.6 22.613 13.014 22.4 12.16 22.614 12.16 22.4 12.16 81.92 43.733a42.667 42.667 0 0 0 40.746 0l82.987-44.587 22.4-12.16 24.533-12.16 21.334-11.306 22.4-12.16 136.746-73.6a21.333 21.333 0 0 0 0-37.76l-308.48-167.68a42.667 42.667 0 0 0-40.746 0L181.973 302.293a21.333 21.333 0 0 0 0 37.76z" /></svg>