<?xml version="1.0" standalone="no"?><!DOCTYPE svg PUBLIC "-//W3C//DTD SVG 1.1//EN" "http://www.w3.org/Graphics/SVG/1.1/DTD/svg11.dtd"><svg class="icon" width="200px" height="200.00px" viewBox="0 0 1024 1024" version="1.1" xmlns="http://www.w3.org/2000/svg"><path fill="#000000" d="M234.667 277.333a21.333 21.333 0 0 0-21.334 21.334v256A21.333 21.333 0 0 0 234.667 576h42.666a21.333 21.333 0 0 0 21.334-21.333V277.333zM789.333 128H362.667a21.333 21.333 0 0 0-21.334 21.333v405.334A21.333 21.333 0 0 0 362.667 576h22.613a21.333 21.333 0 0 1 20.053 21.333V640a21.333 21.333 0 0 0 21.334 21.333h170.666A21.333 21.333 0 0 0 618.667 640v-42.667A21.333 21.333 0 0 1 638.72 576h150.613a21.333 21.333 0 0 0 21.334-21.333V149.333A21.333 21.333 0 0 0 789.333 128zM682.667 426.667H469.333A21.333 21.333 0 0 1 448 405.333 21.333 21.333 0 0 1 469.333 384h213.334A21.333 21.333 0 0 1 704 405.333a21.333 21.333 0 0 1-21.333 21.334z m0-106.667H469.333A21.333 21.333 0 0 1 448 298.667a21.333 21.333 0 0 1 21.333-21.334h213.334A21.333 21.333 0 0 1 704 298.667 21.333 21.333 0 0 1 682.667 320zM833.067 618.667h-150.4A21.333 21.333 0 0 0 661.333 640v19.2a45.013 45.013 0 0 1-44.8 44.8h-209.28a44.587 44.587 0 0 1-44.586-44.587V640a21.333 21.333 0 0 0-21.334-21.333H192A21.333 21.333 0 0 0 170.667 640v213.333a21.333 21.333 0 0 0 20.053 21.334h642.56a21.333 21.333 0 0 0 20.053-21.334V640a21.333 21.333 0 0 0-20.266-21.333z" /></svg>