<?xml version="1.0" standalone="no"?><!DOCTYPE svg PUBLIC "-//W3C//DTD SVG 1.1//EN" "http://www.w3.org/Graphics/SVG/1.1/DTD/svg11.dtd"><svg class="icon" width="200px" height="200.00px" viewBox="0 0 1024 1024" version="1.1" xmlns="http://www.w3.org/2000/svg"><path fill="#000000" d="M874.667 170.667H149.333A21.333 21.333 0 0 0 128 192v512a21.333 21.333 0 0 0 21.333 21.333h725.334A21.333 21.333 0 0 0 896 704V192a21.333 21.333 0 0 0-21.333-21.333zM341.333 576A21.333 21.333 0 0 1 320 597.333h-21.333A21.333 21.333 0 0 1 277.333 576V384a21.333 21.333 0 0 1 21.334-21.333H320A21.333 21.333 0 0 1 341.333 384z m128 0A21.333 21.333 0 0 1 448 597.333h-21.333A21.333 21.333 0 0 1 405.333 576v-85.333a21.333 21.333 0 0 1 21.334-21.334H448a21.333 21.333 0 0 1 21.333 21.334z m128 0A21.333 21.333 0 0 1 576 597.333h-21.333A21.333 21.333 0 0 1 533.333 576V426.667a21.333 21.333 0 0 1 21.334-21.334H576a21.333 21.333 0 0 1 21.333 21.334z m128 0A21.333 21.333 0 0 1 704 597.333h-21.333A21.333 21.333 0 0 1 661.333 576V320a21.333 21.333 0 0 1 21.334-21.333H704A21.333 21.333 0 0 1 725.333 320z m14.294 234.667H270.293a21.333 21.333 0 0 0 0 42.666h469.334a21.333 21.333 0 0 0 0-42.666z" /></svg>