<?xml version="1.0" standalone="no"?><!DOCTYPE svg PUBLIC "-//W3C//DTD SVG 1.1//EN" "http://www.w3.org/Graphics/SVG/1.1/DTD/svg11.dtd"><svg class="icon" width="200px" height="200.00px" viewBox="0 0 1024 1024" version="1.1" xmlns="http://www.w3.org/2000/svg"><path fill="#000000" d="M729.938 928.183h4.854c-50.574-6.313-77.566-26.517-91.898-46.949H381.105c-14.34 20.433-41.316 40.636-91.906 46.949h3.165c-15.809 0-28.46 12.84-28.46 28.419 0 15.775 12.856 28.419 28.46 28.419h437.574c15.825 0 28.468-12.841 28.468-28.419 0.214-15.792-12.642-28.419-28.468-28.419z m219.645-889.204h-875.174c-41.104 0-74.409 33.257-74.409 74.311v658.071c1.271 34.93 30.149 62.938 65.554 62.938h892.688c35.389 0 64.069-28.009 65.546-62.938L1024 648.617V113.29c0-41.054-33.306-74.311-74.417-74.311zM571.445 762.933c0 9.052-7.38 16.415-16.448 16.415H468.79c-9.068 0-16.448-7.363-16.448-16.415v-11.381c0-9.052 7.379-16.398 16.448-16.398h86.208c9.068 0 16.448 7.347 16.448 16.398v11.381z m390.994-101.262c0 7.166-5.674 13.054-12.856 13.054h-875.174c-7.167 0-13.07-5.888-13.07-13.054v-548.38c0-7.158 5.903-13.054 13.07-13.054h874.977c7.15 0 13.054 5.896 13.054 13.054v548.38zM725.527 365.486h32.879l1.05-1.058c0-10.102-0.836-20.417-2.312-30.518l-31.617 31.576z m-75.466-186.519L545.716 283.173v32.838l124.367-124.204c-6.526-4.837-13.267-9.052-20.022-12.84z m-46.36-19.154L545.716 217.7v32.847l82.223-82.108c-7.806-3.575-16.022-6.314-24.238-8.626z m-57.558-8.002l-0.427 0.418v32.847l30.993-30.944c-10.118-1.477-20.235-2.321-30.566-2.321z m81.156 213.675L732.07 260.854c-3.805-6.731-8.019-13.472-12.873-19.998L594.42 365.486h32.879z m77.353-142.939c-2.525-2.739-5.052-5.478-7.79-8.216-2.738-2.73-5.69-5.469-8.642-8.208L545.716 348.636v16.636h16.038l142.898-142.725z m-11.807 142.939l58.609-58.527c-2.329-8.208-5.28-16.21-8.43-24.205l-82.846 82.731h32.667v0.001zM508.417 188.65c-118.464 0-214.577 95.998-214.577 214.298 0 118.317 96.113 214.298 214.577 214.298 118.473 0 214.568-95.981 214.568-214.298H508.417V188.65z"  /></svg>