<?xml version="1.0" standalone="no"?><!DOCTYPE svg PUBLIC "-//W3C//DTD SVG 1.1//EN" "http://www.w3.org/Graphics/SVG/1.1/DTD/svg11.dtd"><svg class="icon" width="200px" height="200.00px" viewBox="0 0 1024 1024" version="1.1" xmlns="http://www.w3.org/2000/svg"><path fill="#000000" d="M331.585353 377.917166H139.330795a27.99979 27.99979 0 0 0-27.487794 23.039827l-43.199676 236.798224 438.71671 55.039587c-73.27945-93.823296-151.262866-211.838411-175.774682-314.877638zM864.157359 737.562468l104.319217 13.087902-12.351907-67.679492-9.503929-52.159609a1838.994208 1838.994208 0 0 1-82.463381 106.751199zM814.173734 795.770032a2044.304668 2044.304668 0 0 1-40.671695 44.479666l-23.263826 24.543816-46.463651 49.087632-46.495652-49.087632-23.263825-24.575816a2105.904206 2105.904206 0 0 1-67.903491-75.551433l-246.782149-30.975768L400.416837 1023.99232h584.411617a28.127789 28.127789 0 0 0 27.455794-33.27975l-31.743762-174.078695zM251.649953 725.178561L57.123412 700.794744 4.227808 990.71257A28.159789 28.159789 0 0 0 31.683602 1023.99232h302.269733l-81.919385-293.213801a29.887776 29.887776 0 0 1-0.383997-5.599958zM703.774562 438.396712a127.99904 127.99904 0 1 0-127.99904-127.99904 128.159039 128.159039 0 0 0 127.99904 127.99904z m0-191.99856a63.99952 63.99952 0 1 1-63.99952 63.99952 64.06352 64.06352 0 0 1 63.99952-63.99952z"  /><path fill="#000000" d="M703.774562 820.793844l23.231825-24.575816c30.015775-31.679762 293.245801-314.65364 293.245801-479.740402a316.477626 316.477626 0 1 0-632.955253 0c0 165.086762 263.230026 448.02864 293.213801 479.740402z m0-756.794324a252.798104 252.798104 0 0 1 252.478106 252.478106c0 107.775192-165.086762 313.405649-252.478106 410.524921-87.423344-97.119272-252.478106-302.749729-252.478107-410.524921A252.766104 252.766104 0 0 1 703.774562 63.99952z"  /></svg>