<?xml version="1.0" standalone="no"?><!DOCTYPE svg PUBLIC "-//W3C//DTD SVG 1.1//EN" "http://www.w3.org/Graphics/SVG/1.1/DTD/svg11.dtd"><svg class="icon" width="200px" height="200.00px" viewBox="0 0 1024 1024" version="1.1" xmlns="http://www.w3.org/2000/svg"><path fill="#000000" d="M798.976 860.672c0 34.389333-27.904 62.293333-62.293333 62.293333H287.744a62.378667 62.378667 0 0 1-62.293333-62.293333V199.253333h573.525333v661.418667z m-448.938667-773.12c0-7.338667 5.632-12.8 12.8-12.8h299.52c7.253333 0 12.8 5.546667 12.8 12.8v37.461333h-325.12v-37.546666z m635.818667 37.461333h-236.373333v-37.546666c0-47.957333-39.168-87.125333-87.04-87.125334h-299.52c-47.957333 0-87.210667 39.253333-87.210667 87.125334v37.546666H38.4a37.546667 37.546667 0 0 0 0 75.093334h111.786667v660.650666c0 75.861333 61.610667 137.386667 137.386666 137.386667h449.024c75.946667 0 137.386667-61.44 137.386667-137.386667V199.253333h111.872a37.546667 37.546667 0 0 0 37.546667-37.546666 36.778667 36.778667 0 0 0-37.546667-36.778667z m-473.6 685.482667a37.546667 37.546667 0 0 0 37.546667-37.546667V373.333333a37.546667 37.546667 0 0 0-75.093334 0v399.445334c0 20.821333 16.810667 37.632 37.546667 37.632m-174.933333 0a37.546667 37.546667 0 0 0 37.546666-37.546667V373.333333a37.546667 37.546667 0 0 0-75.093333 0v399.445334c0.853333 20.821333 17.493333 37.632 37.546667 37.632m349.866666 0a37.546667 37.546667 0 0 0 37.546667-37.546667V373.333333a37.546667 37.546667 0 0 0-75.093333 0v399.445334c0 20.821333 16.810667 37.632 37.546666 37.632"  /></svg>