<?xml version="1.0" standalone="no"?><!DOCTYPE svg PUBLIC "-//W3C//DTD SVG 1.1//EN" "http://www.w3.org/Graphics/SVG/1.1/DTD/svg11.dtd"><svg class="icon" width="200px" height="200.00px" viewBox="0 0 1024 1024" version="1.1" xmlns="http://www.w3.org/2000/svg"><path fill="#000000" d="M266.24 569.813L448 388.053v-174.72a42.667 42.667 0 0 0-42.667-42.666H234.667A42.667 42.667 0 0 0 192 213.333v357.76a10.667 10.667 0 0 0 14.72 9.814A81.92 81.92 0 0 1 234.667 576h16.426a21.333 21.333 0 0 0 15.147-6.187z m72.32-11.946A10.667 10.667 0 0 0 346.027 576h327.466a21.333 21.333 0 0 0 15.147-6.187L832 426.667a42.667 42.667 0 0 0 0-60.374l-120.747-120.96a42.667 42.667 0 0 0-60.373 0l-160.213 160-21.334 21.334L448 448z m514.773 60.8H234.667a42.667 42.667 0 0 0-28.587 11.093l-2.987 2.987A42.667 42.667 0 0 0 192 661.333V832a42.667 42.667 0 0 0 42.667 42.667h170.666a42.667 42.667 0 0 0 9.814-1.28l-1.28 1.28h439.466A42.667 42.667 0 0 0 896 832V661.333a42.667 42.667 0 0 0-42.667-42.666zM362.667 768a21.333 21.333 0 0 1-21.334 21.333h-42.666A21.333 21.333 0 0 1 277.333 768v-42.667A21.333 21.333 0 0 1 298.667 704h42.666a21.333 21.333 0 0 1 21.334 21.333z" /></svg>