<?xml version="1.0" standalone="no"?><!DOCTYPE svg PUBLIC "-//W3C//DTD SVG 1.1//EN" "http://www.w3.org/Graphics/SVG/1.1/DTD/svg11.dtd"><svg class="icon" width="200px" height="200.00px" viewBox="0 0 1024 1024" version="1.1" xmlns="http://www.w3.org/2000/svg"><path fill="#000000" d="M128 204.8c-25.6 38.4-44.8 83.2-57.6 134.4h12.8v70.4c-6.4 0-6.4 6.4-12.8 12.8h6.4l38.4 12.8h6.4l-6.4 371.2h-12.8c-12.8 0-19.2 6.4-19.2 12.8s6.4 12.8 19.2 12.8h6.4v32c-6.4 0-6.4 0-6.4 6.4 0 0 0 6.4 6.4 6.4v6.4h-6.4c-6.4 0-12.8 0-12.8 6.4-6.4 0-12.8 0-12.8 6.4 0 0 6.4 6.4 19.2 6.4V928H25.6l12.8 19.2H896l102.4-128-57.6-70.4s-12.8-32-57.6-19.2v-96h6.4v-19.2l12.8-6.4v-12.8h-12.8V576H864v19.2l-76.8 6.4v-12.8c6.4 0 12.8-6.4 12.8-12.8v-44.8c0-6.4-6.4-12.8-12.8-12.8V512L345.6 185.6l25.6-108.8S256 64 160 160l-12.8-12.8s-6.4-6.4-12.8-6.4H128l-64 12.8s-6.4 0-6.4 6.4v6.4l70.4 38.4z m-19.2 204.8H96v-70.4h12.8v70.4z m0 416c-6.4 0-12.8 0-12.8-6.4l6.4-6.4h6.4v12.8z m6.4-486.4H128v70.4h-12.8v-70.4z m6.4 473.6c12.8 0 12.8 0 12.8 6.4s-6.4 6.4-6.4 6.4l-6.4-12.8z m243.2 108.8H352l12.8-25.6h12.8l-12.8 25.6z m12.8-32h-12.8l12.8-51.2h19.2l-19.2 51.2z m0-57.6l12.8-51.2h32L396.8 832h-19.2zM448 524.8h38.4l-6.4 25.6h-38.4l6.4-25.6z m0-38.4c-6.4 0-12.8 0-12.8-6.4-6.4 0-6.4-6.4-6.4-6.4s6.4-6.4 25.6-6.4l-6.4 19.2z m44.8-12.8s-6.4 0 0 0c-12.8 0-25.6-6.4-32-6.4l6.4-12.8 25.6-6.4v25.6z m6.4 12.8h25.6l-51.2 134.4 25.6-134.4zM480 480c6.4 0 6.4 0 0 0 0 6.4-6.4 12.8-19.2 12.8h-6.4V480c12.8-6.4 19.2 0 25.6 0z m-19.2 12.8h25.6v25.6H448l6.4-19.2c0-6.4 6.4-6.4 6.4-6.4z m12.8 64v25.6h-38.4l6.4-25.6h32z m0 32l-6.4 38.4h-44.8l6.4-38.4h44.8z m-6.4 44.8l-6.4 32H416l6.4-32h44.8zM454.4 672l-19.2 51.2h-32L416 672h38.4z m-19.2 57.6L416 780.8h-25.6l12.8-51.2h32z m217.6 0l-19.2-108.8 12.8 6.4v25.6h6.4v76.8zM825.6 640l38.4-12.8v6.4h6.4v89.6h-44.8S768 697.6 736 748.8c-32 0-51.2 0-64 6.4V640h6.4v-6.4l38.4 12.8 108.8-6.4z m-70.4-70.4c-12.8 0-25.6 6.4-25.6 19.2v12.8L672 608v-19.2h-25.6V608h-19.2l-25.6-140.8 153.6 102.4zM576 582.4l64 294.4c-6.4 0-32 19.2-83.2 44.8L576 582.4z m-51.2 339.2H409.6L556.8 512l-32 409.6z m-256-672L544 435.2l-6.4 19.2-12.8 25.6h-25.6l6.4-38.4-51.2 6.4-6.4 19.2c-19.2 0-32 6.4-32 12.8s6.4 6.4 12.8 12.8c6.4 0 12.8 0 19.2 6.4L352 928H140.8v-25.6h6.4c12.8 0 19.2 0 19.2-6.4 0 0-6.4 0-12.8-6.4 0 0-6.4-6.4-12.8-6.4H128v-6.4c6.4 0 6.4 0 6.4-6.4L128 864v-32c12.8 0 19.2-6.4 19.2-12.8s-6.4-12.8-19.2-12.8h-6.4l6.4-371.2 19.2-6.4v-19.2h-6.4v-70.4H160l108.8-89.6zM128 147.2h6.4L160 160c-6.4 12.8-19.2 25.6-32 38.4L70.4 160l57.6-12.8z" /></svg>