<?xml version="1.0" standalone="no"?><!DOCTYPE svg PUBLIC "-//W3C//DTD SVG 1.1//EN" "http://www.w3.org/Graphics/SVG/1.1/DTD/svg11.dtd"><svg class="icon" width="200px" height="200.00px" viewBox="0 0 1024 1024" version="1.1" xmlns="http://www.w3.org/2000/svg"><path fill="#000000" d="M817.493 256v572.16H301.227a108.373 108.373 0 0 1-47.147-9.6 65.28 65.28 0 0 1-37.547-64c0-46.293 32.214-67.413 85.334-67.413h473.6V143.36H270.72a121.173 121.173 0 0 0-128 109.653v536.32c0 72.747 77.013 90.667 128 90.667h610.133V256zM426.667 374.613l42.666-87.04L512 374.613l96.213 14.08-69.546 67.84 16 95.574-85.334-45.227L384 552.107l16.427-95.787-69.547-67.84zM312.32 781.867h467.413v-52.694h-467.84l0.427 52.694z" /></svg>