<?xml version="1.0" standalone="no"?><!DOCTYPE svg PUBLIC "-//W3C//DTD SVG 1.1//EN" "http://www.w3.org/Graphics/SVG/1.1/DTD/svg11.dtd"><svg class="icon" width="200px" height="200.00px" viewBox="0 0 1024 1024" version="1.1" xmlns="http://www.w3.org/2000/svg"><path fill="#000000" d="M688.427 593.493H588.16v-92.16a190.293 190.293 0 1 0-152.32 0v91.947H265.173a95.36 95.36 0 0 0-95.36 95.147v95.146h422.4a190.08 190.08 0 0 1 96.854-190.293zM207.36 821.973v65.494h430.933a192 192 0 0 1-37.973-65.494zM910.293 684.373a149.333 149.333 0 0 0-88.746-67.626 149.333 149.333 0 0 0-175.36 205.226A149.333 149.333 0 0 0 704 887.467a149.333 149.333 0 0 0 206.933-203.094z m-42.666 119.254h-85.334A21.333 21.333 0 0 1 760.96 784v-1.707c0-1.706 0 0 0 0V696.96a21.333 21.333 0 0 1 42.667 0v64h64a21.333 21.333 0 0 1 0 42.667z" /></svg>