<?xml version="1.0" standalone="no"?><!DOCTYPE svg PUBLIC "-//W3C//DTD SVG 1.1//EN" "http://www.w3.org/Graphics/SVG/1.1/DTD/svg11.dtd"><svg class="icon" width="200px" height="200.00px" viewBox="0 0 1024 1024" version="1.1" xmlns="http://www.w3.org/2000/svg"><path fill="#000000" d="M768 810.666667h42.666667V291.328L732.672 213.333333H682.666667v170.666667H298.666667V213.333333H213.333333v597.333334h42.666667v-298.666667h512v298.666667zM170.666667 128h597.333333l115.498667 115.498667a42.666667 42.666667 0 0 1 12.501333 30.165333V853.333333a42.666667 42.666667 0 0 1-42.666667 42.666667H170.666667a42.666667 42.666667 0 0 1-42.666667-42.666667V170.666667a42.666667 42.666667 0 0 1 42.666667-42.666667z m170.666666 469.333333v213.333334h341.333334v-213.333334H341.333333z"  /></svg>