<?xml version="1.0" standalone="no"?><!DOCTYPE svg PUBLIC "-//W3C//DTD SVG 1.1//EN" "http://www.w3.org/Graphics/SVG/1.1/DTD/svg11.dtd"><svg class="icon" width="200px" height="200.00px" viewBox="0 0 1024 1024" version="1.1" xmlns="http://www.w3.org/2000/svg"><path fill="#000000" d="M940.776694 309.047851l-13.414646-92.13557c-24.983341-53.1106-63.695321-105.260225-116.165937-156.416876l-74.843027-60.475406-57.567482 47.982735 26.845292 104.620242L123.127253 474.0885c-60.130415 37.124021-65.900262 108.45814-17.275544 214.023356 23.670376 51.813634 53.759583 100.437352 90.204622 145.872154 26.250308 38.383988 51.21165 39.336963 74.859026 2.876924 11.538696-17.917528 21.435435-39.367962 29.760215-64.306304 33.270123-58.864448 26.5483-84.442773-20.145469-76.781976l-81.581849 30.73819h-0.960974c-24.953342-44.168835-35.194072-83.83379-30.72219-119.011862l17.276544-44.152836L446.539726 418.427967l0.953975 27.830266-24.953342 10.561722-156.409876 488.46812h-114.218988v78.704925h670.823312v-78.704925H712.353717L548.283043 452.989056 526.206625 441.47436v-65.25128l236.084776-115.157964L881.271263 442.427334C908.132555 478.25539 927.346048 489.770086 938.838745 476.980423c6.394831-5.761848 10.25673-14.704612 11.538696-26.860291v-1.930949c1.280966-26.235308-1.939949-72.631085-9.600747-139.141332zM594.764818 735.547606l58.083468 177.375323L429.631172 735.610604h163.742682c0.468988 0 0.936975-0.030999 1.390964-0.062998z m-208.504503-37.445013L421.774379 579.684715 546.422092 698.102593H386.260315z m-60.6474 204.001621l28.784241-101.719318 5.768847-15.337595 13.594642-45.935789 259.544157 206.190563h-322.075508l14.383621-43.197861z m232.253876-279.251637l16.338569 49.921684L433.821061 539.393778l19.434488-65.298279L507.000132 466.410702l50.866659 156.441875z"  /></svg>