<?xml version="1.0" standalone="no"?><!DOCTYPE svg PUBLIC "-//W3C//DTD SVG 1.1//EN" "http://www.w3.org/Graphics/SVG/1.1/DTD/svg11.dtd"><svg class="icon" width="200px" height="200.00px" viewBox="0 0 1024 1024" version="1.1" xmlns="http://www.w3.org/2000/svg"><path fill="#000000" d="M599.663 795.828a41.972 41.972 0 0 0 0.932 57.827 41.413 41.413 0 0 0 58.76 0.933l258.36-260.225a42.252 42.252 0 0 0-59.693-59.694L481.21 160.654a40.292 40.292 0 0 0-0.933-57.828 41.413 41.413 0 0 0-58.76-0.933l-129.647 130.58-128.713 129.645a43.184 43.184 0 0 0 0.932 58.761 41.413 41.413 0 0 0 58.76 0.933L382.343 579.44 105.328 860.185a41.505 41.505 0 0 0-13.058 41.971 42.904 42.904 0 0 0 30.779 30.78 43.93 43.93 0 0 0 41.972-13.991L442.035 638.2z m-15.856-14.924" /></svg>