<?xml version="1.0" standalone="no"?><!DOCTYPE svg PUBLIC "-//W3C//DTD SVG 1.1//EN" "http://www.w3.org/Graphics/SVG/1.1/DTD/svg11.dtd"><svg class="icon" width="200px" height="200.00px" viewBox="0 0 1024 1024" version="1.1" xmlns="http://www.w3.org/2000/svg"><path fill="#000000" d="M767.9 960.8h-482c-24.8 0-44.8-20.1-44.8-44.8V661c0-59.6 27.1-113.1 69.7-148.6-4.5-3.7-8.8-7.7-13-11.8-36.6-36.6-56.7-85.2-56.7-136.9V108.8c0-24.8 20.1-44.8 44.8-44.8h482c11.9 0 23.3 4.7 31.7 13.1 8.4 8.4 13.1 19.8 13.1 31.7v255c0 59.7-27.2 113.1-69.8 148.6 42.6 35.5 69.8 89 69.8 148.6v254.9c0 24.8-20.1 44.9-44.8 44.9z m-437.2-89.7H723V661c0-57.2-46.6-103.8-103.8-103.8-24.8 0-44.9-20.1-44.9-44.8 0-24.7 20-44.8 44.7-44.8h0.1c57.4 0 104-46.6 104-103.8V153.7H330.8v210.1c0 27.8 10.8 53.8 30.4 73.5 19.6 19.6 45.6 30.4 73.3 30.4h0.1c24.7 0.1 44.8 20.1 44.8 44.8 0 24.8-20 44.8-44.7 44.9h-0.2c-57.3 0.1-103.8 46.6-103.8 103.8v209.9z"  /><path fill="#000000" d="M847.4 153.6h-641c-24.8 0-44.8-20.1-44.8-44.8S181.7 64 206.4 64h641c24.8 0 44.8 20.1 44.8 44.8s-20 44.8-44.8 44.8zM847.4 960.8h-641c-24.8 0-44.8-20.1-44.8-44.8s20.1-44.8 44.8-44.8h641c24.8 0 44.8 20.1 44.8 44.8s-20 44.8-44.8 44.8zM432.6 416.5c51.8 0.2 93.8 42.2 93.8 93.7 0 51.7-42 93.7-93.6 93.8-32.2 0-58.4 26.1-58.4 58.2V829h305V662.1c0-32.1-26.1-58.2-58.2-58.2-51.7 0-93.8-42-93.8-93.7 0-51.6 41.9-93.6 93.5-93.7 32.3 0 58.5-26.1 58.5-58.2v-35.6h-305v35.5c0 15.5 6.1 30.2 17.1 41.2 11 11 25.6 17.1 41.1 17.1z"  /></svg>