<?xml version="1.0" standalone="no"?><!DOCTYPE svg PUBLIC "-//W3C//DTD SVG 1.1//EN" "http://www.w3.org/Graphics/SVG/1.1/DTD/svg11.dtd"><svg class="icon" width="200px" height="200.00px" viewBox="0 0 1024 1024" version="1.1" xmlns="http://www.w3.org/2000/svg"><path fill="#000000" d="M170.667 149.333H448q21.333 0 21.333 21.334V448q0 21.333-21.333 21.333H170.667q-21.334 0-21.334-21.333V170.667q0-21.334 21.334-21.334zM170.667 554.667H448q21.333 0 21.333 21.333v277.333q0 21.334-21.333 21.334H170.667q-21.334 0-21.334-21.334V576q0-21.333 21.334-21.333zM576 149.333h277.333q21.334 0 21.334 21.334V448q0 21.333-21.334 21.333H576q-21.333 0-21.333-21.333V170.667q0-21.334 21.333-21.334zM853.333 554.667H576a21.333 21.333 0 0 0 0 42.666h277.333a21.333 21.333 0 0 0 0-42.666zM576 704h170.667a21.333 21.333 0 0 0 0-42.667H576A21.333 21.333 0 0 0 576 704z m277.333 64H576a21.333 21.333 0 0 0 0 42.667h277.333a21.333 21.333 0 0 0 0-42.667z" /></svg>