<?xml version="1.0" standalone="no"?><!DOCTYPE svg PUBLIC "-//W3C//DTD SVG 1.1//EN" "http://www.w3.org/Graphics/SVG/1.1/DTD/svg11.dtd"><svg class="icon" width="200px" height="160.13px" viewBox="0 0 1279 1024" version="1.1" xmlns="http://www.w3.org/2000/svg"><path fill="#000000" d="M-0.063988 1024v-376.504464c13.245483 0 19.58028-6.398784 34.169508-23.995441a97.005569 97.005569 0 0 1 166.688329 0c14.653216 17.78862 20.988012 23.995441 34.169508 23.995441s19.196353-6.398784 34.10552-23.995441a96.68563 96.68563 0 0 1 166.36839 0c14.52524 17.78862 20.796049 23.931453 33.913556 23.931453s19.196353-6.398784 34.041532-23.995441a96.68563 96.68563 0 0 1 166.36839 0c14.52524 17.78862 20.796049 23.931453 33.913557 23.931453v376.63244z m1279.756846 0h-511.902738V176.609004h-111.018907a81.968426 81.968426 0 0 0-84.463951 78.960998v128.935502H383.863066V255.570002A265.037643 265.037643 0 0 1 657.027165 0.194523h622.665693v1023.805477z m-383.927054-255.951369h255.95137v-63.987843h-255.95137z m0-255.951369h255.95137v-63.987843h-255.95137z m0-255.95137h255.95137v-63.987842h-255.95137z m-275.147721 236.051151c-14.52524-17.660644-20.796049-23.867465-33.849569-23.867466s-19.196353 6.398784-34.10552 23.867466a97.069557 97.069557 0 0 1-166.36839 0c-14.589228-17.660644-20.860037-23.867465-33.913556-23.867466s-19.196353 6.398784-34.169508 23.867466a97.325508 97.325508 0 0 1-166.36839 0c-14.653216-17.660644-20.988012-23.867465-34.233496-23.867466s-19.196353 6.398784-34.169508 23.867466a103.148402 103.148402 0 0 1-83.184195 46.967076V474.728362c13.245483 0 19.58028-6.398784 34.169508-23.803478a97.517472 97.517472 0 0 1 166.688329 0c14.653216 17.660644 20.988012 23.803477 34.169508 23.803478s19.196353-6.398784 34.10552-23.803478a97.197532 97.197532 0 0 1 166.36839 0c14.52524 17.660644 20.796049 23.739489 33.913557 23.73949s19.196353-6.398784 34.041532-23.803478a97.133545 97.133545 0 0 1 166.36839 0c14.52524 17.660644 20.796049 23.739489 33.913556 23.73949v64.435757a103.084414 103.084414 0 0 1-83.376158-46.8391z"  /></svg>