<?xml version="1.0" standalone="no"?><!DOCTYPE svg PUBLIC "-//W3C//DTD SVG 1.1//EN" "http://www.w3.org/Graphics/SVG/1.1/DTD/svg11.dtd"><svg class="icon" width="200px" height="200.00px" viewBox="0 0 1024 1024" version="1.1" xmlns="http://www.w3.org/2000/svg"><path fill="#000000" d="M735.993 160.548v223.976h64.003V160.548c0-53.057-42.979-96.04-95.993-96.04H640v63.981h64.003c17.677 0.001 31.99 14.362 31.99 32.059z m-495.994 31.973c26.491 0 47.996-21.468 47.996-48.002V48.545c0-26.522-21.505-48.01-47.996-48.01-26.526 0-48.012 21.488-48.012 48.01v95.973c0 26.534 21.486 48.003 48.012 48.003zM480.004 64.509H319.985v63.981h160.019V64.509z m79.964 128.012c26.553 0 47.996-21.468 47.996-48.002V48.545c0-26.522-21.443-48.01-47.996-48.01-26.483 0-47.974 21.488-47.974 48.01v95.973c0 26.534 21.49 48.003 47.974 48.003zM63.98 864.529V160.548c0-17.698 14.333-32.058 32.014-32.058h63.999V64.509H95.994c-53.037 0-95.993 42.983-95.993 96.04V864.53c0 53.014 42.956 96.016 95.993 96.016h192.001V896.52H95.994c-17.681 0-32.014-14.315-32.014-31.991z m128.007-480.005h416c17.684 0 32.013-14.312 32.013-31.99 0-17.661-14.329-32.011-32.013-32.011h-416c-17.661 0-31.994 14.351-31.994 32.011 0 17.661 14.333 31.99 31.994 31.99z m96.008 160.015h-96.008c-17.661 0-31.994 14.328-31.994 32.01 0 17.621 14.333 31.971 31.994 31.971h96.008c17.681 0 31.99-14.35 31.99-31.971 0-17.682-14.309-32.01-31.99-32.01z m734.699 172.887c-9.79-26.344-24.833-44.129-56.87-40.494-4.729 0.512-13.137-9.18-15.711-15.75-15.254-39.27-29.707-78.879-43.516-118.717-8.69-25.229-26.281-41.736-50.594-48.47-32.887-9.124-66.745-14.667-100.156-21.746-48.835-7.261-92.96-7.512-146.377 0-19.036 2.936-38.18 5.293-57.095 8.939-50.214 9.688-89.57 31.588-103.903 86.056-8.555 32.365-21.404 63.75-33.372 95.109-2.322 6.09-10.147 15.129-14.411 14.578-35.046-4.428-48.753 16.992-58.104 44.82-1.693 6.422-0.73 12.344 0 17.178 13.475 3.559 26.902 7.119 36.404 9.623-0.672 50.801-1.44 101.25-1.93 151.693-0.264 27.199-1.336 54.443 0.528 81.51 0.9 12.488 5.545 31.936 12.364 36.742 5.017 6.76 95.092 6.484 111.937 0 7.682-2.928 11.487-42.604 17.867-66.201h330.162c8.093 22.32-7.433 49.814 17.823 66.201 7.553 5.234 104.738 5.592 109.088-1.918 4.628-2.889 11.276-20.721 11.49-32.207 1.254-64.189 0.877-128.441 0.338-192.693-0.07-14.064-3.185-28.16-4.924-41.992 12.263-3.371 25.613-7.076 38.96-10.758 1.046-5.38 2.325-13.427 0.002-21.503z m-476.737 114.98c-2.66 7.207-13.289 14.027-21.685 15.945-11.524 2.742-24.309 3.137-36.42 3.137-0.043 0.42-0.043 0.211 0 0h-0.043c-17.723-1.832-35.737-2.322-53.083-5.938-22.573-4.725-28.915-21.57-22.135-51.719 4.664-20.645 20.799-21.545 35.256-16.783 29.058 9.521 57.537 21.17 85.256 34.063 6.656 3.053 14.733 16.194 12.854 21.295z m-87.271-145.045c16.675-46.764 31.073-89.998 47.954-132.193 3.223-8.117 15.626-15.234 25.065-17.508 22.868-5.487 46.533-10.994 69.82-10.801 70.775 0.498 141.582 3.078 212.342 6.254 29.038 1.275 48.517 16.115 56.655 46.246 9.503 35.127 22.053 69.373 34.584 108.002-149.192 32.192-294.626 31.446-446.42 0z m476.069 157.162c-18.601 4.34-38.036 5.047-53.708 6.889-17.887-1.445-32.429-1.17-46.238-4.164-17.198-3.766-22.635-24.068-7.49-31.453 32.914-15.984 67.704-28.807 102.73-39.648 14.022-4.342 23.684 7.352 24.165 22.92 0.629 18.179 5.965 39.599-19.459 45.456z m-446.945 6.965c0.062-0.394 0.019-0.177 0 0z m0 0"  /></svg>