<?xml version="1.0" standalone="no"?><!DOCTYPE svg PUBLIC "-//W3C//DTD SVG 1.1//EN" "http://www.w3.org/Graphics/SVG/1.1/DTD/svg11.dtd"><svg class="icon" width="200px" height="200.00px" viewBox="0 0 1024 1024" version="1.1" xmlns="http://www.w3.org/2000/svg"><path fill="#000000" d="M907.132988 932.192003H867.82999a27.803999 27.803999 0 0 0 15.955999-25.164 29.739999 29.739999 0 0 0-29.681999-28.625999H254.376008c-27.510999 0-55.021998-0.587-82.591998 0h-1.173c-15.545 0-30.384999 13.198-29.680999 28.625999a30.209999 30.209999 0 0 0 15.426999 24.988h-38.773998c-24.811999 0-48.686999 21.058999-47.454999 45.812998a47.337999 47.337999 0 0 0 47.454999 45.988999H809.759991c31.909999 0 63.937998 0.41 95.848997 0h1.29c24.812999 0 48.686999-21.058999 47.454999-45.812999a47.454999 47.454999 0 0 0-47.454999-45.812998zM235.780008 125.045026c5.338 8.271 10.559 16.6 15.897 24.813l25.574999 39.535998a1.232 1.232 0 0 0 1.29 0.763 1.701 1.701 0 0 0 1.291 0c18.242999-11.028 36.837999-22.759999 55.490998-33.611999a1.818 1.818 0 0 0 0.587-2.405q-14.958-23.052999-29.680999-46.281998c-4.752-7.567-9.62-14.958-14.313-22.583999a41.940999 41.940999 0 0 0-15.075999-15.486c-26.571999-14.078-59.127998 11.263-49.976999 39.301999a69.744998 69.744998 0 0 0 8.916 15.954999z m240.911993-61.121998v54.375999a1.818 1.818 0 0 0 1.819 1.701999h65.697998a1.818 1.818 0 0 0 1.173-0.47 1.525 1.525 0 0 0 0.528-1.231999V42.570029a68.923998 68.923998 0 0 0-1.115-18.066c-7.45-28.507999-48.979999-33.435999-63.819998-7.919999a38.069999 38.069999 0 0 0-4.283 20.882999v26.455999z m211.817994 90.333997c18.652999 11.087 37.247999 22.289999 55.784998 33.377a1.701 1.701 0 0 0 1.29 0 1.408 1.408 0 0 0 1.29-0.762l25.282999-39.535999c5.338-8.213 10.558-16.6 15.896-24.813a69.744998 69.744998 0 0 0 8.916-15.896999c9.151-28.038999-23.462999-53.379998-49.976999-39.300999a41.940999 41.940999 0 0 0-15.074999 15.486c-4.693 7.567-9.562 14.958-14.313 22.524999q-14.782 23.462999-29.681999 46.281999a1.818 1.818 0 0 0 0.528 2.639999z m261.794992 85.935998a43.583999 43.583999 0 0 0-20.647999 6.98l-23.464 13.608999-48.216998 27.98a1.76 1.76 0 0 0-0.587 2.404999c11.145 18.184999 22.407999 36.251999 33.552999 54.493999a1.584 1.584 0 0 0 1.056 0.763 2.581 2.581 0 0 0 1.349-0.352l41.060999-23.814999 25.985999-14.958a79.423998 79.423998 0 0 0 15.544999-10.09c21.468999-20.823999 4.751-57.661998-25.633999-57.015998z m-819.699976 108.166997a2.112 2.112 0 0 0 1.349 0.352 1.584 1.584 0 0 0 1.056-0.763c11.145-18.242999 22.406999-36.309999 33.552999-54.493999a1.76 1.76 0 0 0-0.587-2.405l-48.275998-27.921999c-7.86-4.634-15.662-9.092-23.464-13.666999a43.583999 43.583999 0 0 0-20.647999-6.98c-30.384999-0.646-46.926999 36.191999-25.633999 57.015998a79.423998 79.423998 0 0 0 15.544999 10.09c8.681 5.044 17.597999 9.971 25.985999 15.015999 13.726 7.86 27.509999 15.896 41.119999 23.757z m698.56898 142.423996c0-149.521996-140.780996-270.593992-314.294991-270.593992h-4.516c-173.629995 0-314.235991 121.071996-314.235991 270.593992v332.65499h633.046982zM308.284006 716.210009V415.583018c85.993997 0 155.797995 67.339998 155.797995 150.283995S394.570003 716.210009 308.284006 716.210009z m405.215988 0c-86.052997 0-155.798995-67.339998-155.798995-150.342996S627.446997 415.583018 713.499994 415.583018z" /></svg>