<?xml version="1.0" standalone="no"?><!DOCTYPE svg PUBLIC "-//W3C//DTD SVG 1.1//EN" "http://www.w3.org/Graphics/SVG/1.1/DTD/svg11.dtd"><svg class="icon" width="200px" height="200.00px" viewBox="0 0 1024 1024" version="1.1" xmlns="http://www.w3.org/2000/svg"><path fill="#000000" d="M818.234402 1023.999c3.228994 0 6.471987 0 9.715981-1.613997C818.234402 1023.999 810.134418 1023.999 800.402437 1023.999h17.831965z m-46.992908-322.42237c-24.304953 0-43.750915 19.445962-43.750915 43.750914 0 24.303953 19.445962 43.733915 43.750915 43.733915 24.303953 0 43.749915-19.430962 43.749914-43.733915 0-24.304953-19.445962-43.750915-43.749914-43.750914z m29.160943-123.14776c-110.174785 0-197.674614 89.113826-197.674614 197.674614s87.499829 196.060617 197.674614 196.060617c108.560788 0 197.674614-87.499829 197.674614-197.674614 0-108.560788-89.113826-196.060617-197.674614-196.060617z m95.601813 312.721389c-6.486987 0-11.344978-3.243994-16.201968-6.486987l-64.810874-63.195876c-12.958975 8.100984-27.547946 12.974975-43.749914 12.974974-48.607905 0-87.500829-38.892924-87.500829-87.500829 0-48.606905 38.892924-87.499829 87.500829-87.499829 48.606905 0 87.499829 38.892924 87.499829 87.499829 0 16.202968-4.87299 30.79194-12.974975 43.749915l64.810874 63.181876c3.242994 3.242994 6.486987 9.729981 6.486987 16.201969 0 11.343978-9.714981 21.074959-21.059959 21.074958z m-691.853649-711.29861c24.303953 0 51.851899-27.547946 51.851899-51.851899v-76.146851c0-24.303953-16.202968-51.851899-51.851899-51.851899-29.161943 0-51.851899 27.546946-51.851898 51.851899v76.146851c1.622997 24.303953 29.169943 51.851899 51.851898 51.851899z m230.079551 0c42.120918 0 51.843899-27.547946 51.843899-51.851899v-76.146851C486.074051 27.547946 471.494079 0.001 434.230152 0.001c-35.64893 0-51.851899 27.546946-51.851899 51.851899v76.146851c1.622997 24.303953 19.446962 51.851899 51.851899 51.851899z m230.080551 0c34.019934 0 51.835899-27.547946 51.835898-51.851899v-76.146851c0-24.303953-17.815965-51.851899-51.835898-51.851899-29.176943 0-51.851899 27.546946-51.851899 51.851899v76.146851c1.613997 24.303953 29.161943 51.851899 51.851899 51.851899z m153.923699 842.533354c3.228994 0 6.471987 0 9.715981-1.612997-9.715981 1.612997-17.815965 1.612997-27.547946 1.612997h17.831965zM552.506921 776.103484c0-136.092734 111.803782-247.895516 247.895516-247.895516 24.303953 0 48.606905 3.242994 71.29786 9.714981l-1.629996-383.99625c0-24.303953-27.531946-51.843899-51.835899-51.843898h-51.851899v51.843898c0 48.607905-53.464896 76.154851-102.0728 76.154852-48.606905 0-102.088801-29.168943-102.088801-76.154852v-51.843898H536.303953v51.843898c0 48.607905-53.464896 76.154851-102.072801 76.154852-77.776848 0-102.080801-53.472896-102.080801-102.080801v-25.917949h-25.925949V128.00075c0 48.607905-38.884924 102.080801-105.316794 102.080801-48.607905 0-100.450804-35.64893-100.450804-102.080801v-25.917949h-22.681956c-24.303953 0-51.851899 27.539946-51.851899 51.843898v811.750415c0 24.303953 27.546946 58.322886 51.851899 58.322886h722.628589c-137.722731-1.614997-247.896516-111.789782-247.896516-247.896516z m-372.659272-392.098234s533.070959 1.621997 534.684955 0c24.304953-1.621997 53.465896 14.580972 53.465896 51.843899 0 34.026934-27.547946 51.851899-51.851899 51.851898h-536.298952c-24.303953 0-51.851899-12.958975-51.851899-51.851898 0-34.019934 27.546946-51.843899 51.851899-51.843899z m230.07955 510.373003h-230.07955c-19.445962 0-51.851899-11.328978-51.851899-51.835899 0-30.79094 30.79094-53.479896 51.851899-53.479895l230.07955 3.242994c19.437962 0 51.843899 11.344978 51.843899 51.851898-1.622997 30.78994-32.405937 50.220902-51.843899 50.220902z m50.220902-204.146601h-280.301452c-24.303953 0-51.851899-16.201968-51.851899-51.851899 0-38.876924 27.546946-51.851899 51.851899-51.851899H461.770098c24.303953 0 51.851899 19.445962 51.851899 51.851899-1.621997 25.933949-29.169943 51.851899-53.473896 51.851899z" /></svg>