<?xml version="1.0" standalone="no"?><!DOCTYPE svg PUBLIC "-//W3C//DTD SVG 1.1//EN" "http://www.w3.org/Graphics/SVG/1.1/DTD/svg11.dtd"><svg class="icon" width="200px" height="200.00px" viewBox="0 0 1024 1024" version="1.1" xmlns="http://www.w3.org/2000/svg"><path fill="#000000" d="M192 211.2h640q42.667 0 42.667 42.667v10.666q0 42.667-42.667 42.667H192q-42.667 0-42.667-42.667v-10.666q0-42.667 42.667-42.667zM832 381.653H192a42.667 42.667 0 0 0-42.667 42.667v426.667A42.667 42.667 0 0 0 192 893.653h640a42.667 42.667 0 0 0 42.667-42.666V424.32A42.667 42.667 0 0 0 832 381.653z m-505.813 179.2l60.586-60.586a21.333 21.333 0 0 1 30.08 30.08l-24.106 24.32h289.92a21.333 21.333 0 1 1 0 42.666H341.333a21.333 21.333 0 0 1-14.933-36.48z m371.626 134.4l-60.586 60.587a21.333 21.333 0 0 1-30.294-30.507l24.32-24.32h-289.92a21.333 21.333 0 0 1 0-42.666h341.334a21.333 21.333 0 0 1 15.146 36.266z" /></svg>