<?xml version="1.0" standalone="no"?><!DOCTYPE svg PUBLIC "-//W3C//DTD SVG 1.1//EN" "http://www.w3.org/Graphics/SVG/1.1/DTD/svg11.dtd"><svg class="icon" width="200px" height="190.51px" viewBox="0 0 1075 1024" version="1.1" xmlns="http://www.w3.org/2000/svg"><path fill="#000000" d="M745.05752399 934.44876166H225.20685699v-53.296762h519.850667v53.272381z m131.315809-148.138666h-268.190476l-134.095238-225.499429 134.095238-225.52381h268.190476l134.095238 225.52381-134.095238 225.475048z m-134.095238-326.509715a101.010286 101.010286 0 1 0 103.180191 100.985905 102.204952 102.204952 0 0 0-103.228953-100.985905z m-195.047619 320.950857H63.99999999V115.80952366h820.077714v161.743238H582.38780999l-35.425524 56.807619H263.55809499v-49.054476H213.11390499v49.054476H150.11352399v50.444191h63.000381v49.054476h50.44419v-49.054476h251.952762l-106.76419 171.27619 13.604571 22.089143h-58.514286v-49.054476H313.41714299v49.054476h-163.352381v50.444191h163.352381v49.054476h50.419809v-49.054476h89.526858l93.671619 152.088381z"  /></svg>