<?xml version="1.0" standalone="no"?><!DOCTYPE svg PUBLIC "-//W3C//DTD SVG 1.1//EN" "http://www.w3.org/Graphics/SVG/1.1/DTD/svg11.dtd"><svg class="icon" width="200px" height="200.00px" viewBox="0 0 1024 1024" version="1.1" xmlns="http://www.w3.org/2000/svg"><path fill="#000000" d="M440.267 348.046c11.931 0 23.474-1.652 34.556-4.422l-48.49-39.705c-16.925-13.826-27.423-33.411-29.598-55.158-2.185-21.748 4.289-43.033 18.103-59.886 15.564-19.063 38.638-29.996 63.263-29.996 18.87 0 37.262 6.584 51.804 18.514l51.528 42.209c0.413-4.422 0.683-8.894 0.683-13.414 0-78.341-63.52-141.883-141.85-141.883-78.362 0-141.87 63.542-141.87 141.883s63.508 141.858 141.87 141.858zM762.21 286.156c-27.919 0-54.273 6.465-77.94 17.666-14.932 7.072-28.759 16.036-41.127 26.728l-142.843-117c-6.501-5.345-14.371-7.946-22.197-7.946-10.121 0-20.191 4.374-27.095 12.83-12.296 14.969-10.096 37.058 4.897 49.305l143.924 117.9c-7.485 14.603-13.17 30.263-16.511 46.848-1.773 8.797-2.71 17.884-3.16 27.095l86.385-47.833c15.576-8.614 33.155-13.184 50.917-13.184 38.238 0 73.495 20.778 92.025 54.261 28.066 50.7 9.621 114.79-41.069 142.856l-75.533 41.794c21.398 8.798 44.785 13.73 69.327 13.73 100.795 0 182.51-81.718 182.51-182.536 0-100.796-81.715-182.514-182.51-182.514zM552.009 662.091l193.774-107.305c28.224-15.6 38.416-51.126 22.805-79.362-10.644-19.245-30.581-30.131-51.128-30.131-9.582 0-19.278 2.356-28.234 7.312L497.104 558.964c-11.067-12.222-23.34-23.314-36.716-33.072-39.632-28.915-88.304-46.192-141.144-46.192-132.527 0-239.966 107.45-239.966 239.99 0 132.566 107.44 240.005 239.966 240.005 132.553 0 240.018-107.439 240.018-240.005 0-2.684-0.33-5.307-0.414-7.98a239.854 239.854 0 0 0-6.84-49.619z m-232.436 257.62c-110.391 0-199.885-89.493-199.885-199.885S209.182 519.94 319.573 519.94s199.885 89.495 199.885 199.886-89.494 199.885-199.885 199.885zM319.573 578.66c-51.83 0-93.843 42.014-93.843 93.843 0 6.936 0.802 13.668 2.224 20.18 4.678 39.267 91.631 168.322 91.631 168.322s86.895-129.127 91.597-168.322c1.434-6.5 2.237-13.242 2.237-20.18 0-51.83-42.015-93.843-93.846-93.843z m0 142.102c-26.657 0-48.257-21.603-48.257-48.26 0-26.643 21.6-48.259 48.257-48.259 26.644 0 48.259 21.616 48.259 48.26 0 26.656-21.615 48.259-48.26 48.259z" /></svg>