<?xml version="1.0" standalone="no"?><!DOCTYPE svg PUBLIC "-//W3C//DTD SVG 1.1//EN" "http://www.w3.org/Graphics/SVG/1.1/DTD/svg11.dtd"><svg class="icon" width="200px" height="200.00px" viewBox="0 0 1024 1024" version="1.1" xmlns="http://www.w3.org/2000/svg"><path fill="#000000" d="M910.251666 694.254932h-75.08456a9.319945 9.319945 0 0 1-9.102946-9.175946v-41.691756c-0.096999-4.987971-4.103976-9.039947-9.101947-9.136946h-69.96259c-4.969971 0.096999-8.998947 4.147976-9.102947 9.136946v41.691756a9.289946 9.289946 0 0 1-9.071946 9.175946h-32.891808c-5.022971 0.125999-9.000947 4.149976-9.102946 9.175946v251.445527c0.101999 4.996971 4.078976 9.050947 9.102946 9.198946h32.891808c4.997971 0.074 9.005947 4.124976 9.071946 9.122947v41.647756c0.103999 4.999971 4.132976 9.023947 9.102947 9.147946h69.96259a9.326945 9.326945 0 0 0 9.101947-9.147946v-41.647756c0.096999-4.997971 4.074976-9.048947 9.102946-9.122947h75.08456v-0.096999c5.020971-0.101999 8.999947-4.124976 9.097947-9.154947V703.430878c-0.097999-5.024971-4.077976-9.048947-9.097947-9.175946z"  /><path fill="#000000" d="M627.164325 694.926928h-11.410933c-4.974971-0.101999-8.998947-4.152976-9.102947-9.141946v-73.45357c0-0.936995-0.123999-1.854989-0.444997-2.747984h-0.271998c128.638246-41.954754 215.554737-162.09305 215.235738-297.416257C821.169188 139.814181 682.682 0 511.999 0 341.296 0 202.808812 139.814181 202.757812 312.167171c-0.348998 137.585194 89.480476 259.167481 221.127704 299.269246a2.636985 2.636985 0 0 0 0 0.894995v73.517569c-0.096999 4.985971-4.124976 9.037947-9.147946 9.134947h-12.532927a9.315945 9.315945 0 0 0-9.124946 9.175946v251.212528c0.103999 4.973971 4.103976 9.002947 9.124946 9.152946h12.532927a9.314945 9.314945 0 0 1 9.147946 9.147947v10.589938c0.051 5.020971 4.081976 9.099947 9.102947 9.196946h164.589036c4.999971-0.096999 9.027947-4.175976 9.073946-9.196946v-10.139941c0.103999-4.976971 4.127976-9.051947 9.102947-9.152946h11.410933c4.974971-0.146999 8.998947-4.177976 9.102947-9.147947V704.097874c-0.082-5.020971-4.082976-9.074947-9.103947-9.170946z m-36.072788-185.511913c-79.935532 32.903807-171.877993 14.242917-232.691637-47.168723-60.813644-61.44664-78.56854-153.498101-44.929737-233.120635 33.689803-79.662533 112.086343-131.077232 198.528837-130.255236a212.103757 212.103757 0 0 1 149.846122 62.837631 212.112757 212.112757 0 0 1 61.38864 150.459119c-0.001 86.466493-52.162694 164.368037-132.142225 197.247844z"  /><path fill="#000000" d="M702.101886 336.516028c0-9.261946-7.062959-17.0299-16.312904-17.924895h-41.645756l-26.999842-73.106571c-2.336986-6.674961-8.623949-7.505956-15.587909-7.505956-6.964959-0.250999-13.279922 4.023976-15.586908 10.576938l-38.787773 110.999349-33.488804-67.698603a15.697908 15.697908 0 0 0-14.322916-8.912948h-0.346998c-5.968965 0-11.484933-0.200999-14.442915 5.10597l-19.172888 30.77182H334.52804c-9.249946 0.887995-16.258905 8.686949-16.258905 17.958895 0 9.260946 7.008959 17.0299 16.258905 17.952894h140.374177c5.647967 0.631996 11.215934-1.953989 14.320916-6.73696l8.903948-13.427921 37.017783 75.222559c2.758984 5.652967 8.52695 9.198946 14.795914 9.237946h1.019994a16.688902 16.688902 0 0 0 14.567914-11.415933l36.248788-104.324389 15.145911 42.939748c0.395998 0 0.395998-0.311998 0.395998 0v-0.146999c2.781984 5.716967 8.845948 9.096947 15.160911 8.399951h53.308688c9.249946-0.896995 16.312904-8.662949 16.312904-17.964895zM332.939049 694.192932h-27.995836c-4.969971-0.101999-8.997947-4.154976-9.094946-9.136946v-51.539698c-0.103999-5.021971-4.127976-9.053947-9.102947-9.177946h-69.96259c-5.026971 0.124999-9.004947 4.155976-9.102947 9.177946v51.539698h0.051a9.309945 9.309945 0 0 1-9.101947 9.034947h-84.881502a9.297946 9.297946 0 0 0-9.097947 9.339945v251.348528a9.314945 9.314945 0 0 0 9.097947 9.147946h84.881502c4.999971 0.146999 8.999947 4.152976 9.101947 9.172946v32.44881c0.076 5.020971 4.104976 9.043947 9.097947 9.198946h69.91659c4.974971-0.154999 8.997947-4.178976 9.102947-9.198946v-32.44881c0.096999-5.020971 4.124976-9.025947 9.094946-9.172946h27.995836c4.999971-0.126999 9.027947-4.157976 9.102947-9.147946V703.351879a9.254946 9.254946 0 0 0-9.102947-9.158947z"  /></svg>