<?xml version="1.0" standalone="no"?><!DOCTYPE svg PUBLIC "-//W3C//DTD SVG 1.1//EN" "http://www.w3.org/Graphics/SVG/1.1/DTD/svg11.dtd"><svg class="icon" width="200px" height="200.00px" viewBox="0 0 1024 1024" version="1.1" xmlns="http://www.w3.org/2000/svg"><path d="M3.824 980.842h1016.352V1024H3.824z" fill="#3E3A39" /><path d="M940.886 760.072v194.891H83.115V760.072c0-44.798 36.283-81.104 81.108-81.104h695.613c44.687 0 81.05 36.306 81.05 81.104z m-87.941 136.07v-79.133h-84.153v79.133h84.153z m-122.018 0v-79.133h-84.15v79.133h84.15z m-118.425 0v-79.133h-84.148v79.133h84.148z m-121.998 0v-79.133h-84.163v79.133h84.163z m-120.523 0v-79.133H285.81v79.133h84.171z m-114.842 0v-79.133h-84.162v79.133h84.162z" fill="#00A09F" /><path d="M771.638 632.536v27.302H225.055L246.89 3.968H361.8l19.807 621.675c106.456-68.275 102.004-306.08 102.004-306.08h173.788c-0.002 0-5.002 255.85 114.239 312.973z" fill="#F1AB43" /><path d="M812.489 628.568v27.302H265.91L287.739 0h114.912l19.804 621.677C528.914 553.4 524.462 315.596 524.462 315.596h173.784c-0.001 0-5.001 255.85 114.243 312.972z" fill="#ED9127" /></svg>