<?xml version="1.0" standalone="no"?><!DOCTYPE svg PUBLIC "-//W3C//DTD SVG 1.1//EN" "http://www.w3.org/Graphics/SVG/1.1/DTD/svg11.dtd"><svg class="icon" width="200px" height="200.00px" viewBox="0 0 1024 1024" version="1.1" xmlns="http://www.w3.org/2000/svg"><path fill="#000000" d="M656.640213 952.32c-5.546667-8.106667-13.653333-23.893333-23.04-23.893333h-46.933333v-34.986667l-38.826667-52.48v-512H981.333547a122.026667 122.026667 0 0 0-119.466667-91.733333L469.333547 82.773333V23.893333A22.186667 22.186667 0 0 0 451.840213 0H393.813547c-8.533333 0-17.066667 9.386667-15.786667 23.466667v15.36L112.640213 238.506667H85.333547c-20.906667 0-4.693333 8.533333-19.2 23.466666A80.64 80.64 0 0 0 42.66688 319.146667v10.24h252.586667v512l-33.706667 52.48v34.986666H213.333547a57.6 57.6 0 0 0-32 21.76l-42.666667 60.586667a8.106667 8.106667 0 0 0 6.4 12.8h534.613333a9.386667 9.386667 0 0 0 6.826667-14.506667zM192.42688 249.6l186.026667-151.893333v128h-46.933334v23.893333zM478.720213 512l-147.2 95.146667V418.56z m-148.053333 289.706667v-90.453334l147.626667 93.866667z m33.28-142.506667L512.000213 564.48v188.586667zM512.000213 460.8L363.520213 366.933333H512.000213z m-42.666666-235.093333V130.56l278.613333 119.04h-230.826667v-23.893333z m402.346666 469.333333h-70.826666V365.653333h-36.266667V768l40.106667 25.6h15.36v23.466667a11.093333 11.093333 0 0 0 3.413333 7.253333l5.546667 7.68 5.973333 7.68 5.973333 7.253333v2.986667a17.493333 17.493333 0 0 1-5.12 6.4 19.626667 19.626667 0 0 1-15.36 4.693333 23.893333 23.893333 0 0 1-8.533333-2.986666 25.6 25.6 0 0 1-7.253333-6.826667 30.72 30.72 0 0 1-4.266667-23.466667 4.266667 4.266667 0 0 0 0-3.84 4.266667 4.266667 0 0 0-5.973333 0 33.28 33.28 0 0 0-8.96 16.213334V853.333333a37.973333 37.973333 0 0 0 0 10.24 42.666667 42.666667 0 0 0 10.24 17.92 47.786667 47.786667 0 0 0 8.106666 6.826667 45.653333 45.653333 0 0 0 52.053334-2.56 48.64 48.64 0 0 0 18.773333-39.68 15.786667 15.786667 0 0 0-4.266667-10.666667l-6.826666-6.826666-6.826667-6.4-7.253333-6.4-2.56-5.12v-17.493334l62.293333-25.173333V365.653333h-36.266667z m-36.266666 55.04a14.933333 14.933333 0 0 1-19.2-7.253333 15.786667 15.786667 0 0 1 0-11.52 14.933333 14.933333 0 0 1 28.16 0 15.36 15.36 0 0 1-7.68 18.773333z" /></svg>