<?xml version="1.0" standalone="no"?><!DOCTYPE svg PUBLIC "-//W3C//DTD SVG 1.1//EN" "http://www.w3.org/Graphics/SVG/1.1/DTD/svg11.dtd"><svg class="icon" width="200px" height="200.00px" viewBox="0 0 1024 1024" version="1.1" xmlns="http://www.w3.org/2000/svg"><path fill="#000000" d="M228.9664 15.36a35.84 35.84 0 0 1 14.2848 2.9696l662.1184 138.24h0.3072a35.328 35.328 0 0 1 23.6544 61.44l-129.3824 289.1264a53.248 53.248 0 0 1 25.6 21.1968l170.9568 271.616a53.0432 53.0432 0 0 1-44.8 81.2544H609.792a52.992 52.992 0 0 1-44.8512-81.3056l171.008-271.36a52.5824 52.5824 0 0 1 25.6-21.0944l-140.9536-280.064H442.624V368.64a70.6048 70.6048 0 0 1-35.84 61.44v504.1152h71.68a35.328 35.328 0 0 1 4.096 70.4H335.7696v-85.3504l-71.2192 40.96v44.8H121.9584a35.328 35.328 0 1 1 0-70.656h71.68V439.4496h-6.7072a70.7584 70.7584 0 0 1-49.8176-20.48L36.3008 318.7712A70.4512 70.4512 0 0 1 15.36 268.6464v-76.8a35.328 35.328 0 0 1 35.328-35.328h142.6944V51.2a35.84 35.84 0 0 1 35.584-35.84z m35.5328 727.04v135.8848l71.2192-40.96V783.36z m516.3008 15.36a35.328 35.328 0 1 0 35.584 35.328 35.4304 35.4304 0 0 0-35.584-35.328z m0-176.6912a32.768 32.768 0 0 0-32.768 31.6416v3.84l6.912 82.2272a25.6 25.6 0 0 0 50.8928 3.5328l0.512-3.5328 6.912-82.2272a32.7168 32.7168 0 0 0-29.9008-35.3792 24.4736 24.4736 0 0 0-2.7136 0z m-445.0304-14.9504l-71.2192 40.96v54.2208l71.2192 40.96z m0-126.4128H264.5504v85.5552l71.2192-40.96z m553.7792-212.3264h-233.3184l123.4944 245.2992zM264.5504 58.112v98.6112h471.7568z"  /></svg>