<?xml version="1.0" standalone="no"?><!DOCTYPE svg PUBLIC "-//W3C//DTD SVG 1.1//EN" "http://www.w3.org/Graphics/SVG/1.1/DTD/svg11.dtd"><svg class="icon" width="200px" height="200.00px" viewBox="0 0 1024 1024" version="1.1" xmlns="http://www.w3.org/2000/svg"><path fill="#000000" d="M1024 0H0v256h1.143v187.429H0v73.143h1.143v182.857H0v73.143h1.143v251.09h314.286V1024h73.143v-0.339h246.857V1024h73.143v-0.339h314.286V256H1024v-256zM635.429 443.429H388.571V256h246.857v187.429z m0 256H388.571V516.571h246.857v182.858z m73.142-182.858h241.143v182.857H708.571V516.571zM74.286 256h241.143v187.429h-241.143V256z m0 260.571h241.143v182.857h-241.143V516.571z m0 433.947V772.571h241.143v177.946h-241.143z m314.285 0V772.571h246.857v177.946H388.571z m320 0V772.571h241.143v177.946H708.571zM949.714 443.429H708.571V256h241.143v187.429z"  /></svg>