<?xml version="1.0" standalone="no"?><!DOCTYPE svg PUBLIC "-//W3C//DTD SVG 1.1//EN" "http://www.w3.org/Graphics/SVG/1.1/DTD/svg11.dtd"><svg class="icon" width="200px" height="200.00px" viewBox="0 0 1024 1024" version="1.1" xmlns="http://www.w3.org/2000/svg"><path fill="#000000" d="M640 266.666667v490.666666a53.393333 53.393333 0 0 1-53.333333 53.333334H53.333333a53.393333 53.393333 0 0 1-53.333333-53.333334V266.666667a53.393333 53.393333 0 0 1 53.333333-53.333334h533.333334a53.393333 53.393333 0 0 1 53.333333 53.333334z m357.053333-46.133334a52.746667 52.746667 0 0 0-53.613333 0.493334l-192 114a53.553333 53.553333 0 0 0-26.106667 45.853333v262.24a53.54 53.54 0 0 0 26.106667 45.853333l192 114a53.333333 53.333333 0 0 0 80.56-45.853333V266.88a52.746667 52.746667 0 0 0-26.946667-46.346667z"  /></svg>