<?xml version="1.0" standalone="no"?><!DOCTYPE svg PUBLIC "-//W3C//DTD SVG 1.1//EN" "http://www.w3.org/Graphics/SVG/1.1/DTD/svg11.dtd"><svg class="icon" width="200px" height="200.00px" viewBox="0 0 1024 1024" version="1.1" xmlns="http://www.w3.org/2000/svg"><path fill="#000000" d="M557.05088 617.85088l-148.22912-148.224 264.66816-264.63232 148.224 148.16256-264.66304 264.69376z m375.78752-375.81824l-148.29056-148.22912-74.0864 74.05056 148.35712 148.29056 74.01984-74.112zM328.30976 698.3424l37.0432-185.30304 148.28544 148.32128-185.32864 36.98176z m525.31712-203.23328v357.9392H173.58848V173.02016h358.0416l104.81152-79.21664h-437.248c-57.7792 0-104.75008 46.976-104.75008 104.81664v628.82816c0 57.81504 46.97088 104.78592 104.75008 104.78592h628.83328c57.83552 0 104.81664-46.97088 104.81664-104.78592V390.26176l-79.21664 104.84736z"  /></svg>