<?xml version="1.0" standalone="no"?><!DOCTYPE svg PUBLIC "-//W3C//DTD SVG 1.1//EN" "http://www.w3.org/Graphics/SVG/1.1/DTD/svg11.dtd"><svg class="icon" width="200px" height="200.00px" viewBox="0 0 1024 1024" version="1.1" xmlns="http://www.w3.org/2000/svg"><path fill="#000000" d="M350.57152 912.49664c-79.01184-9.08288-138.16832-15.73888-217.18016-24.82176-0.91136-0.128-9.64608-1.14688-22.57408-2.68288-24.97024-9.87136-54.49728-23.97696-43.40224-81.152 23.936-66.18624 32.34304-92.43136 46.93504-127.14496 43.52-81.92 77.1584-95.69792 140.8768-110.39744 79.21664-11.74016 145.8176-8.46848 235.07968 0.0512 15.55968 1.77664 32.55808 9.86112 20.75648 35.29216a172.672 172.672 0 0 1-10.12224 18.67776c-47.09376 75.77088-62.40256 156.47232-40.60672 244.16768 8.94976 35.9424 3.18464 49.5104-33.664 50.28352-18.55488 0.38912-35.20512-0.85504-53.76-0.85504-6.23104 0.00512-16.24064-1.42336-22.33856-1.41824-0.13312 1.42336 0.128-1.5616 0 0z m148.41856-196.94592c13.75744-3.50208 27.24352-7.5264 41.00096-10.37824 21.53472-4.54144 24.39168-15.1808 11.28448-31.65696-8.30464-10.37824-16.99328-20.37248-27.50464-32.69632l33.85856-45.79328c11.02848-14.91968 21.80096-29.83936 34.1248-46.70464 14.40256 10.76736 27.50464 20.88448 40.99584 30.6176 20.8896 15.04768 35.03104 11.41248 45.5424-12.71808 5.5808-12.84096 8.82176-26.7264 13.88032-42.4192 26.73152 0 54.09792-1.17248 81.35168 0.90624 6.0928 0.52224 13.88032 11.5456 16.60416 19.2 20.62336 56.69376 22.9632 57.47712 71.22432 19.85024 6.23104-4.80256 12.71296-9.21088 20.7616-14.91456 22.83008 30.61248 44.75904 60.19584 70.19008 94.18752-9.728 7.7824-19.58912 14.00832-27.63264 22.05184-22.7072 22.5792-19.85024 32.69632 10.50624 40.61184 12.71808 3.36896 25.55904 6.48704 39.05536 9.86112v91.5968c-15.04768 4.28544-29.57824 7.5264-43.46368 12.58496-24.39168 8.82176-27.2384 23.48544-8.42752 40.61184 8.42752 7.64928 17.51552 14.65856 25.94816 21.66272-30.75072 29.58336-60.59008 58.38336-93.02528 89.51808-6.35392-5.7088-16.47616-15.04768-26.98752-24.00256-19.328-16.47104-36.1984-10.11712-40.73984 15.1808-1.03424 6.09792-1.81248 12.32896-2.71872 18.42688-0.77824 5.19168-1.42848 10.51136-2.46784 17.64352h-91.33056c-2.85696-13.10208-5.19168-26.98752-8.82688-40.35072-5.18656-19.46112-16.86528-26.59328-35.67616-15.83104-16.8704 9.728-33.47456 19.97824-52.80256 31.52896-23.22432-29.97248-46.70464-60.32896-71.09632-91.8528 9.728-8.43264 18.67776-15.56992 26.98752-23.35744 19.58912-18.42176 16.86528-30.6176-9.08288-39.82848-13.23008-4.66944-26.98752-7.9104-41.51296-12.0576-0.01536-30.37184-0.01536-60.2112-0.02048-91.47904z m355.87072 44.2368c-0.384-66.55488-53.96992-119.87456-120.00256-119.22944-66.29376 0.52224-118.84032 54.23104-118.4512 120.91904 0.52224 66.42688 53.84192 119.10144 120.3968 118.84032 66.816-0.38912 118.44608-53.06368 118.05696-120.52992z"  /><path fill="#000000" d="M486.34368 291.0464m-220.9536 0a220.9536 220.9536 0 1 0 441.9072 0 220.9536 220.9536 0 1 0-441.9072 0Z"  /></svg>