<?xml version="1.0" standalone="no"?><!DOCTYPE svg PUBLIC "-//W3C//DTD SVG 1.1//EN" "http://www.w3.org/Graphics/SVG/1.1/DTD/svg11.dtd"><svg class="icon" width="200px" height="200.00px" viewBox="0 0 1024 1024" version="1.1" xmlns="http://www.w3.org/2000/svg"><path fill="#000000" d="M193.194667 512L547.072 59.904A10.666667 10.666667 0 0 0 538.709333 42.666667H435.541333a21.589333 21.589333 0 0 0-16.810666 8.106666L78.336 485.717333a42.666667 42.666667 0 0 0 0 52.650667l340.48 434.858667c4.010667 5.12 10.24 8.106667 16.810667 8.106666h102.997333c8.96 0 13.909333-10.24 8.448-17.237333L193.194667 512z m405.333333 0L952.405333 59.904A10.666667 10.666667 0 0 0 944.042667 42.666667H840.874667a21.589333 21.589333 0 0 0-16.810667 8.106666l-340.48 434.944a42.666667 42.666667 0 0 0 0 52.650667l340.48 434.858667c4.010667 5.12 10.24 8.106667 16.810667 8.106666h102.997333c8.96 0 13.909333-10.24 8.448-17.237333L598.528 512z"  fill-opacity=".65" /></svg>