<?xml version="1.0" standalone="no"?><!DOCTYPE svg PUBLIC "-//W3C//DTD SVG 1.1//EN" "http://www.w3.org/Graphics/SVG/1.1/DTD/svg11.dtd"><svg class="icon" width="200px" height="200.00px" viewBox="0 0 1024 1024" version="1.1" xmlns="http://www.w3.org/2000/svg"><path fill="#000000" d="M977.770031 278.64955c0-25.593947-9.60898-35.194927-35.187927-35.194926H721.850563c-25.593947 0-35.187927 9.60198-35.187926 35.194926v153.545681c0 25.593947 9.59398 35.187927 35.187926 35.187927h220.732541c22.390953 0 35.187927-9.59398 35.187927-35.187927v-153.545681z m-678.176589 99.163794H82.070894c-25.593947 0-38.39092 9.59398-35.187927 35.187927V563.343958c0 25.593947 9.59398 38.40592 35.187927 38.40592h220.725541c25.585947 0 35.187927-12.812973 35.187927-35.202926V416.204264c-3.203993-28.79694-12.796973-38.39092-38.39092-38.39092zM635.475743 579.343925H408.358216c-22.390953 0-31.991933 9.59398-31.991934 31.999933v159.937668c0 22.390953 9.60198 31.999933 31.991934 31.999933h227.116527c22.405953 0 31.999933-9.60898 31.999934-28.79694V614.530852c0.001-25.592947-9.59298-38.37492-31.998934-35.186927zM472.335083 550.562985c15.999967 15.983967 51.187894 3.187993 79.983833 6.390986 22.374953 3.202993 25.593947-3.202993 25.593947-25.593946v-454.249055c0-83.171827 6.390987-73.569847-76.78084-73.569847-25.593947 0-35.194927 9.59398-35.194927 35.187926V476.985138c3.202993 22.389953-9.59398 57.57788 6.397987 73.577847z m415.858134 201.530581V512.172065c0-19.19496-6.390987-25.593947-22.374953-22.397954-19.20296 3.202993-41.593913 3.202993-60.780874 0-22.405953-3.194993-25.593947 6.397987-25.593946 25.592947v435.054095c0 76.78084-6.405987 70.374854 70.374853 73.577847 28.78094 0 38.37492-9.59398 38.37492-38.39092V752.093566z m-668.567609-131.155728c-19.19496 3.187993-38.39092 3.187993-57.58588 0-25.585947-3.202993-28.78894 6.390987-28.78894 28.780941v297.499381c0 83.187827-12.796973 73.577847 76.77284 76.78084 25.593947 0 35.187927-9.59398 31.991934-35.187927V649.718779c3.194993-22.390953 0-31.984933-22.389954-28.780941z m-63.984867-265.515447c22.397953-3.202993 44.788907 0 67.179861 0 15.991967 0 22.390953-3.202993 22.390953-22.390954V77.11097c0-86.36682 9.60198-76.77284-76.77284-76.772841-25.585947 0-35.187927 9.60198-35.187927 35.187927v297.506381c0 15.991967 3.202993 22.389953 22.389953 22.389954z m626.990696-137.553714c15.999967 12.796973 54.374887 3.194993 83.187827 6.397987 19.18796 0 22.374953-6.397987 22.374953-25.593947v-124.757741c0-83.171827 9.59298-73.577847-76.76584-73.577847h-6.390987c-19.20296 0-25.593947 9.60198-25.593946 28.78894v108.765774c0 28.78994-12.811973 67.17986 3.187993 79.976834zM577.912863 918.43722v-79.968834c0-12.812973-3.218993-19.20296-15.999967-15.999967H485.132056c-15.991967 0-19.19496 6.405987-19.19496 19.18796V991.999067c0 19.20296 6.397987 31.999933 25.593947 28.79694C520.319983 1014.40502 555.50791 1039.998967 574.69487 1001.608047c3.218993-6.390987 0-12.796973 0-19.20296 3.217993-19.18696 3.217993-41.577914 3.217993-63.967867z"  /></svg>