<?xml version="1.0" standalone="no"?><!DOCTYPE svg PUBLIC "-//W3C//DTD SVG 1.1//EN" "http://www.w3.org/Graphics/SVG/1.1/DTD/svg11.dtd"><svg class="icon" width="200px" height="200.00px" viewBox="0 0 1024 1024" version="1.1" xmlns="http://www.w3.org/2000/svg"><path fill="#000000" d="M990.263463 965.191663c-4.679457-35.882495-21.525502-63.876334-54.148857-80.555577-19.705657-10.060083-40.144446-18.767768-60.584233-27.27569-39.090694-16.311678-78.048546-32.891038-119.212784-43.72021-21.693303-5.71523-42.533616-14.289074-61.302383-26.990028-25.737512-17.41537-42.082151-40.796673-43.285725-72.616981-1.253515-33.023881 6.283557-62.021531 37.704336-80.254932 14.623677-8.489943 24.767661-21.827144 30.935355-37.671376 5.615348-14.405935 10.277825-29.196415 15.69341-43.70323 1.102694-2.892574 3.108318-6.468338 5.648309-7.604991 12.233509-5.498487 21.4426-14.138252 27.693196-25.687572 10.714308-19.837501 14.95928-41.18821 11.983804-63.55871-1.471257-11.054905-4.914179-21.951996-13.570924-29.639889-4.11113-3.668654-4.880219-7.328319-4.780338-12.200548 0.200762-10.696329 0.066921-21.409639 0.066921-31.913196h-481.277892c0 11.974815 0.166802 23.289412-0.116862 34.596018-0.07591 2.991456-0.876961 6.417398-2.532001 8.832537-8.114388 11.849963-13.454063 24.79363-14.723558 39.016782-2.707792 30.359038 5.364645 57.591778 30.667672 75.675357 10.135993 7.236428 15.952104 14.573736 18.634925 25.804433 0.794059 3.34304 2.030595 6.585199 3.167248 9.84334 8.198289 23.548106 18.333283 45.726833 39.985635 60.517313 5.849071 3.994269 10.68734 9.459794 15.994053 14.273093 7.720854 6.969744 13.587904 15.525609 15.016213 25.703552 2.005624 14.306053 2.790694 28.846829 3.33405 43.336665 0.644237 17.264549-5.381625 32.439573-16.929945 45.224428-19.746609 21.861104-44.121735 37.503574-71.472336 47.280993-41.957299 14.958281-84.758597 27.625276-126.966599 41.948309-26.089096 8.857508-52.228132 17.882817-77.472229 28.813868-35.589841 15.408747-57.457937 42.166051-61.444215 81.992873-0.02497 0.267683-0.066921 0.534367-0.10088 0.80205-1.186594 11.197735-3.618713 22.26163-5.481507 33.392445 0 8.373081 0 16.747162 0.01698 25.136224h435.041662c5.139911-39.677 15.65146-78.098487 27.459473-116.187368 1.762912-5.716229 1.194585-9.057271-3.30109-13.2533-6.233616-5.83309-11.54832-12.717935-16.746163-19.537856-5.071992-6.685081-5.047021-14.222153-1.63806-21.693303 6.55923-14.406934 17.773946-24.634818 30.425959-33.459365 1.62108-1.119674 4.203021-1.152635 6.342487-1.202576 1.378367-0.01698 2.766723 0.032961 4.162069 0.065922 0.442476-0.01698 0.885951-0.032961 1.303456-0.032961 3.776526-0.066921 7.588011 0.149823 11.397499 0.267683 2.273307-0.065922 4.513653-0.183782 6.753001-0.551347 3.441923-0.552346 6.651121-0.585307 9.726478-0.384544 15.241945-0.969851 26.572523 6.350477 37.369733 16.895985 21.358699 20.874273 22.394472 38.890931 0.567328 59.296759-7.42021 6.969744-7.603993 12.585092-5.564409 21.542482 8.20528 35.933434 15.408747 72.132554 22.962799 108.248771h395.557435v-41.430922c-0.985832-5.81611-2.189406-11.5653-2.958496-17.38141z m-163.216658-613.325473c1.72196 0 3.475883-0.175792 5.164882 0.032961 4.96412 0.635248 6.834904-1.63806 6.233616-6.342487-1.6041-12.434271-2.390169-25.044333-5.01506-37.252872-4.612536-21.45059-17.681056-35.297188-39.708962-39.850793-1.437297-0.300644-2.841634-0.727139-4.295911-1.061743-7.470151-1.688-10.562488-5.915992-11.247676-13.988429-1.353397-16.144875-2.340228-32.707256-6.784963-48.140974-1.454277-5.005071-3.042396-9.785408-4.646496-14.464865a0.576317 0.576317 0 0 1-0.065922-0.166803c-34.762821-99.666938-109.201643-125.671134-149.780574-139.234067-5.196844-1.746931-7.620972 0.777079-9.225072 4.554604-3.408962 7.913626-7.253408 15.794291-9.259032 24.099453-10.227884 42.625507-19.921402 85.385854-29.815682 128.095262-0.384544 1.62108-0.969851 3.184228-1.471257 4.771348-1.152635-1.796871-1.152635-3.276119-1.152634-4.746377 0.049941-56.222401 0.082902-112.451793 0.082901-168.682185 0-4.922169 0.133841-9.89428-0.434485-14.765509-1.538178-13.354181-11.949845-23.021729-25.336987-23.323372-13.068519-0.283664-26.147027-0.216743-39.207555 0.049941-10.637399 0.208753-18.542036 5.615348-22.478373 15.266915-2.156446 5.297724-2.874595 11.498379-2.891575 17.29751-0.200762 56.473104-0.108871 112.945208-0.108871 169.417314v7.270387c-2.172427-2.657852-2.732763-5.256773-3.32606-7.855694-8.348111-36.500762-16.336648-73.084426-25.244097-109.452346-3.083348-12.593083-8.31515-24.684759-12.901717-36.876317-1.538178-4.061189-4.028228-6.793952-9.668547-5.079983-90.240104 27.492433-158.837845 105.407138-161.153102 199.951144-0.291655 11.598261-1.762912 13.17739-12.876747 16.445519-2.841634 0.835011-5.674278 1.64605-8.514913 2.48206-14.189192 4.161071-23.92466 13.295251-29.765741 26.723344-7.446179 17.113728-8.464973 35.247247-8.941408 54.826055 4.95513 0 8.849517 0 12.734915 0.00799 203.704697-0.006992 407.408396-0.006992 611.103105-0.006991z" /></svg>