<?xml version="1.0" standalone="no"?><!DOCTYPE svg PUBLIC "-//W3C//DTD SVG 1.1//EN" "http://www.w3.org/Graphics/SVG/1.1/DTD/svg11.dtd"><svg class="icon" width="200px" height="199.80px" viewBox="0 0 1025 1024" version="1.1" xmlns="http://www.w3.org/2000/svg"><path fill="#000000" d="M950.809062 731.944288a97.635904 97.635904 0 0 0-112.131889 51.589949l-98.914903-52.869948V659.890359h94.224907a206.783796 206.783796 0 0 0 23.449977-408.879597A167.132835 167.132835 0 0 0 690.304319 89.847921h-6.395994a206.783796 206.783796 0 0 0-341.086663 0h-6.395994a167.132835 167.132835 0 0 0-167.132835 160.737842 206.783796 206.783796 0 0 0 23.449977 408.877597h94.225907v70.77593l-98.915902 53.294947a97.635904 97.635904 0 0 0-112.13189-51.589949 98.062903 98.062903 0 0 0 24.301976 193.567809 98.062903 98.062903 0 0 0 96.356905-79.729921l133.876868-71.20093a29.418971 29.418971 0 0 0 15.775985-26.007974v-88.682913h137.713864v121.93888a123.217878 123.217878 0 0 0-87.403914 156.899845 119.379882 119.379882 0 0 0 77.597923 78.023923 123.217878 123.217878 0 1 0 68.642933-236.202767v-120.659881H680.499329v88.682913a29.418971 29.418971 0 0 0 15.774984 26.007974l133.876868 71.20193a98.489903 98.489903 0 1 0 120.659881-113.837888zM612.281396 531.128486l-89.961911-92.092909c-3.836996-3.837996 0-9.80699 5.542994-9.80699h61.821939a6.821993 6.821993 0 0 0 8.953992-5.968994V220.740792a6.394994 6.394994 0 0 1 5.115995-6.821993h28.139972a6.394994 6.394994 0 0 1 6.820993 5.968994v203.3728a6.821993 6.821993 0 0 0 7.247993 5.969994h62.248938c5.968994 0 8.953991 5.967994 5.115995 9.80599l-89.961911 92.092909a8.099992 8.099992 0 0 1-11.084989 0zM421.697584 216.901796l91.66791 92.093909c3.836996 3.836996 0 9.80599-5.542995 9.805991h-63.527937a6.821993 6.821993 0 0 0-7.247993 5.969994v202.5198a6.394994 6.394994 0 0 1-6.821993 5.968994h-28.139973a6.821993 6.821993 0 0 1-7.246992-5.968994v-202.5198a6.394994 6.394994 0 0 0-6.821994-5.969994h-62.248938c-5.968994 0-8.952991-5.968994-5.115995-9.805991l89.961911-92.093909a8.099992 8.099992 0 0 1 11.084989 0z" /></svg>