<?xml version="1.0" standalone="no"?><!DOCTYPE svg PUBLIC "-//W3C//DTD SVG 1.1//EN" "http://www.w3.org/Graphics/SVG/1.1/DTD/svg11.dtd"><svg class="icon" width="200px" height="200.00px" viewBox="0 0 1024 1024" version="1.1" xmlns="http://www.w3.org/2000/svg"><path fill="#000000" d="M805.71 512c-28.31 0-51.19-22.88-51.19-51.19s23.12-51.19 51.19-51.19c28.31 0 51.19 22.88 51.19 51.19 0.01 28.31-22.88 51.19-51.19 51.19z m-52.37 344.91c0 18.87-15.1 33.97-33.97 33.97H304.63c-18.87 0-33.97-15.1-33.97-33.97V581.59h482.68v275.32z m-482.91-691c0-18.87 15.1-33.97 33.97-33.97h336.65s-8.02 68.42 12.03 93.42c20.05 25.01 98.61 18.17 98.61 18.17v94.13h-481.5V165.91h0.24z m609.83 171.51h-57.33V206.25s0.71-4.01-5.9-16.51c-5.66-11.09-69.59-85.16-112.06-117.96-4.72-3.78-5.43-5.9-15.1-7.78h-408.6c-43.88 0-79.74 35.62-79.74 79.74v193.45h-57.8c-43.88 0-79.74 35.62-79.74 79.74V672.9c0 43.88 35.62 79.74 79.74 79.74h57.8v127.63c0 43.88 35.62 79.74 79.74 79.74H743.2c43.88 0 79.74-35.62 79.74-79.74v-127.4h57.33c43.88 0 79.74-35.62 79.74-79.74v-256.2c-0.01-43.65-35.87-79.51-79.75-79.51zM339.55 753.1h241.81v68.89H339.55V753.1z m0-103.09h344.67v68.89H339.55v-68.89z" /></svg>