<?xml version="1.0" standalone="no"?><!DOCTYPE svg PUBLIC "-//W3C//DTD SVG 1.1//EN" "http://www.w3.org/Graphics/SVG/1.1/DTD/svg11.dtd"><svg class="icon" width="200px" height="200.00px" viewBox="0 0 1024 1024" version="1.1" xmlns="http://www.w3.org/2000/svg"><path fill="#000000" d="M536.934 860.314c-26.828-14.797-70.502-14.695-97.177 0L251.238 964.096c-53.606 29.542-88.78 2.56-78.54-59.802l35.993-219.801c5.12-31.335-8.448-74.752-30.054-96.768L26.163 431.975c-43.417-44.289-29.696-87.655 30.003-96.769l210.74-32c30.003-4.608 65.28-31.539 78.643-59.852l94.259-199.936c26.829-56.884 70.451-56.679 97.126 0l94.208 199.987c13.466 28.467 48.896 55.296 78.695 59.853l210.739 32.05c60.006 9.114 73.216 52.583 30.054 96.718L798.106 587.674c-21.71 22.17-35.124 65.69-30.055 96.819l35.994 219.801c10.24 62.567-25.14 89.19-78.541 59.802l-188.57-103.782z" /></svg>