<?xml version="1.0" standalone="no"?><!DOCTYPE svg PUBLIC "-//W3C//DTD SVG 1.1//EN" "http://www.w3.org/Graphics/SVG/1.1/DTD/svg11.dtd"><svg class="icon" width="200px" height="200.00px" viewBox="0 0 1024 1024" version="1.1" xmlns="http://www.w3.org/2000/svg"><path fill="#000000" d="M514.25 122.00000029c-192.75000029 0-349.49999971 50.24999971-349.49999971 110.25v575.24999942c12.75000029 56.99999971 163.50000029 101.99999971 347.24999971 102.00000058 184.5 0 334.50000029-45 347.24999971-102.00000058v-574.49999971l3.00000058-0.74999971c0.74999971-60.00000029-155.25-110.25-348.00000029-110.25z m-72 629.24999942h-150.75c-12.75000029 0-23.24999971-9.74999971-23.24999971-22.5 0-11.99999971 10.50000029-22.5 23.24999971-22.5h150.75c12.75000029 0 23.24999971 9.74999971 23.24999971 22.5 0.74999971 12.75000029-9.74999971 22.5-23.24999971 22.5z m0-98.24999942h-150.75c-12.75000029 0-23.24999971-9.74999971-23.24999971-22.5 0-11.99999971 10.50000029-22.5 23.24999971-22.5h150.75c12.75000029 0 23.24999971 9.74999971 23.24999971 22.5 0.74999971 12.75000029-9.74999971 22.5-23.24999971 22.5z m0-100.50000029h-150.75c-12.75000029 0-23.24999971-9.74999971-23.24999971-22.5 0-11.99999971 10.50000029-22.5 23.24999971-22.5h150.75c12.75000029 0 23.24999971 9.74999971 23.24999971 22.5 0.74999971 12.75000029-9.74999971 23.24999971-23.24999971 22.5z m0-93.75000029h-150.75c-12.75000029 0-23.24999971-9.74999971-23.24999971-22.5 0-11.99999971 10.50000029-22.5 23.24999971-22.5h150.75c12.75000029 0 23.24999971 9.74999971 23.24999971 22.5 0.74999971 12.75000029-9.74999971 22.5-23.24999971 22.5z m297.74999971 255.00000058h-1.49999942c-29.99999971 27.74999971-74.25 35.25000029-112.5 20.99999971-38.25-15.00000029-63.74999971-49.5-64.50000029-89.25000029 1.50000029-35.25000029 18.74999971-67.5 47.25-90s45-55.50000029 46.50000029-90.74999971c0-2.99999971 2.25-6.75 5.24999971-8.25000029 2.99999971-1.50000029 6.75-1.50000029 9.74999971 0s5.24999971 4.5 5.25000058 8.25000029c1.50000029 35.25000029 18 68.24999971 46.49999942 90.74999971 28.50000029 22.5 45.74999971 55.50000029 47.25 90.75000058 0 24.00000029-10.50000029 48.75000029-29.25 67.5z m-221.24999971-443.25c-153 0-277.49999971-24.75-277.49999971-54.75000058s123.75-54.74999971 277.49999971-54.74999971c153 0 277.49999971 24.75 277.49999971 54.74999971s-124.49999971 54.74999971-277.49999971 54.75000058zM863 232.25000029z" /></svg>