<?xml version="1.0" standalone="no"?><!DOCTYPE svg PUBLIC "-//W3C//DTD SVG 1.1//EN" "http://www.w3.org/Graphics/SVG/1.1/DTD/svg11.dtd"><svg class="icon" width="200px" height="200.00px" viewBox="0 0 1024 1024" version="1.1" xmlns="http://www.w3.org/2000/svg"><path fill="#000000" d="M732.04 210.092c40.4 5.7 82.4-1.6 115.4 4 53.4 9.1 80.5 54.5 74.6 121.4-21.6 0-43.1 0-64.7 0-1.8 118.6-1 236.2-1 355.2 0 60.1 5 123.2-1 177.1-5.7 50.9-43 81.9-88.6 89.5-45 7.5-104.6 2-154.2 2-104 0-209.4 2-311.4 0-49.7-1-86.3-16.7-108.4-46.8-22.2-30-19.9-75.4-19.9-129.3 0-150.1 0-299 0-447.7-20.6 0-41.1 0-61.7 0-10-61.5 16.6-105.7 61.7-120.4 33.1-10.8 77.3-2.1 124.4-5-3.8-66.2-0.2-116.5 56.7-123.4 25.4-3.1 59.4 0 90.5 0 56.1 0 121.1 0 181.1 0 34.5 0 69.9-3.3 87.6 11.9C737.64 119.792 731.24 168.492 732.04 210.092zM358.94 152.392c0 19.9 0 39.8 0 59.7 103.8 0 207.6 0 311.4 0 0-20.9 0-41.8 0-62.7-103.5 0-206.9 0-310.4 0C358.74 149.592 358.84 150.992 358.94 152.392zM298.24 342.392c0 125.9 0 251.3 0 379.1 0 32.4-7.4 101.4 11.9 115.4 7.7 5.6 27.6 6.4 36.8 0 20.1-13.9 12.9-81 12.9-114.4 0-129.4 0-260.5 0-383-20.2 0-40.5 0-60.7 0C298.04 339.592 298.14 340.992 298.24 342.392zM483.24 342.392c0 113.3 0 245.7 0 367.1 0 29-6.7 97.5 5 117.4 7.7 13.1 33.8 19.1 46.8 9 17.6-13.7 10-86.3 10-116.4 0-129.7 0-254.2 0-380.1-20.2 0-40.5 0-60.7 0C483.14 339.592 483.24 340.992 483.24 342.392zM670.34 342.392c0 122 0 257.8 0 384 0 39.3-7.7 99.7 17.9 110.4 11.1 4.7 30.9 1.1 35.8-3 16.7-13.7 9-87.4 9-116.4 0-129.1 0-252.9 0-378.1-20.6 0-41.1 0-61.7 0C670.14 339.592 670.24 340.992 670.34 342.392z" /></svg>