<?xml version="1.0" standalone="no"?><!DOCTYPE svg PUBLIC "-//W3C//DTD SVG 1.1//EN" "http://www.w3.org/Graphics/SVG/1.1/DTD/svg11.dtd"><svg class="icon" width="200px" height="200.00px" viewBox="0 0 1024 1024" version="1.1" xmlns="http://www.w3.org/2000/svg"><path fill="#000000" d="M88.855 570.97c0-29.162 23.484-52.756 53.413-52.756h104.749c29.49 0 53.41 24.03 53.41 52.758V888.71c0 29.165-23.483 52.758-53.41 52.758h-104.75c-29.49 0-53.412-24.03-53.412-52.758V570.972z m634.827-211.353c0-29.272 23.483-53.084 53.411-53.084h104.748c29.491 0 53.412 24.139 53.412 53.084v528.767c0 29.273-23.483 53.084-53.412 53.084H777.093c-29.49 0-53.412-24.139-53.412-53.084V359.616zM396.33 132.972c0-29.819 23.92-53.958 54.395-53.958h106.823c30.037 0 54.394 24.03 54.394 53.958v754.647c0 29.819-23.92 53.958-54.394 53.958H450.724c-30.037 0-54.395-24.03-54.395-53.958V132.971z" /></svg>