<?xml version="1.0" standalone="no"?><!DOCTYPE svg PUBLIC "-//W3C//DTD SVG 1.1//EN" "http://www.w3.org/Graphics/SVG/1.1/DTD/svg11.dtd"><svg class="icon" width="200px" height="200.00px" viewBox="0 0 1024 1024" version="1.1" xmlns="http://www.w3.org/2000/svg"><path fill="#000000" d="M204.8 921.6h102.4v102.4H204.8zM0 204.8h102.4v102.4H0zM0 409.6h102.4v102.4H0zM204.8 0H0v102.4h204.8V0zM716.8 0h102.4v102.4h-102.4zM512 0h102.4v102.4h-102.4zM0 921.6v102.4h102.4v-204.8H0v102.4zM307.2 0h102.4v102.4H307.2zM0 614.4h102.4v102.4H0zM921.6 512h102.4v102.4h-102.4zM921.6 716.8h102.4v102.4h-102.4zM921.6 0v204.8h102.4V0h-102.4zM921.6 307.2h102.4v102.4h-102.4zM409.6 921.6h102.4v102.4H409.6zM819.2 921.6v102.4h204.8v-102.4h-204.8zM614.4 921.6h102.4v102.4h-102.4zM819.2 563.2V460.8h-256V204.8H460.8v256H204.8v102.4h256v256h102.4v-256h256z"  /></svg>