<?xml version="1.0" standalone="no"?><!DOCTYPE svg PUBLIC "-//W3C//DTD SVG 1.1//EN" "http://www.w3.org/Graphics/SVG/1.1/DTD/svg11.dtd"><svg class="icon" width="200px" height="200.00px" viewBox="0 0 1024 1024" version="1.1" xmlns="http://www.w3.org/2000/svg"><path fill="#000000" d="M455.243 325.946v-10.686c0-8.505 6.907-15.412 15.412-15.412h92.542c8.498 0 15.404 6.907 15.404 15.412v10.686H455.243z m281.964 0H613.865v-10.686c0-8.505 6.906-15.412 15.403-15.412h92.519c8.514 0 15.42 6.907 15.42 15.412v10.686z m158.622 0H772.471v-10.686c0-8.505 6.922-15.412 15.42-15.412h92.519c8.497 0 15.42 6.907 15.42 15.412v10.686zM552.663 566.87H479.392V525.719h73.271V566.87z m0-53.435H479.392V472.299h73.271v41.136z m0 77.846H479.392V579.188h73.271v12.093z m0-131.275H479.392v-41.143h73.271v41.143z m0-53.412H479.392v-41.143h73.271v41.143z"  /><path fill="#000000" d="M439.84 340.157c-71.235 0-89.566 53.42-89.583 112.848v25.437c0 59.436 18.332 112.84 89.583 112.84h27.363V343.42H479.408v9.747h73.288v-9.747h12.221v247.878h346.301c71.259 0 89.591-53.389 89.591-112.839V453.02c0-59.443-18.332-112.863-89.591-112.863H439.84z"  /><path fill="#000000" d="M479.424 418.895h-5.928V406.61h5.928v12.285z m73.239 201.412H479.392V602.42h73.271v17.887z"  /><path fill="#000000" d="M296.01 602.42v53.277H1024.169V602.42H564.916v32.908h-12.22v-2.721H479.424v2.721h-12.206V602.42h-171.208z"  /><path fill="#000000" d="M904.645 602.579c33.99 0 61.536 27.562 61.536 61.552s-27.546 61.552-61.536 61.552-61.552-27.562-61.552-61.552 27.562-61.552 61.552-61.552z m-74.108 61.552c0-33.99-27.529-61.552-61.52-61.552s-61.52 27.562-61.52 61.552c0 33.975 27.529 61.521 61.52 61.521s61.52-27.547 61.52-61.521c0 0 0 33.99 0 0z m-699.236-61.552h-0.963c-33.982 0-61.528 27.562-61.528 61.552 0 33.975 27.545 61.521 61.528 61.521l1.011-0.017c33.982-0.779 60.891-28.961 60.112-62.936-0.756-32.893-27.235-59.372-60.112-60.12h-0.048z"  /><path fill="#000000" d="M9.542 599.349c0.063 7.305-9.5 12.556-9.373 19.032 0.461 20.671 14.911 37.316 14.911 37.316H332.069v-335.631h-186.382L43.222 439.184s-24.618 12.627-29.885 25.581c-7.312 17.989-4.026 100.451-3.795 134.584z m103.554-160.118c-14.385 0-20.878-4.885-9.778-19.891l54.772-67.01h142.725v86.901h-187.719zM479.424 418.895h-5.928V406.61h5.928v12.285z"  /></svg>