<?xml version="1.0" standalone="no"?><!DOCTYPE svg PUBLIC "-//W3C//DTD SVG 1.1//EN" "http://www.w3.org/Graphics/SVG/1.1/DTD/svg11.dtd"><svg class="icon" width="200px" height="199.80px" viewBox="0 0 1025 1024" version="1.1" xmlns="http://www.w3.org/2000/svg"><path fill="#000000" d="M195.471981 720.742157c-31.310752 31.070516-77.664849 74.701939-30.76164 122.11994 13.293056 11.943158 65.607293 62.82742 117.830011 5.31951 0 0 192.703548-188.104746 199.544553-198.926803l20.099741-19.916704c73.47788-73.100366 261.742783-259.065868 261.742783-259.065868l-261.216552 45.141478C362.355885 554.784878 213.009205 703.342211 195.471981 720.742157z m126.535705 28.096166a39.833408 39.833408 0 1 1 40.107963-39.833407 39.970685 39.970685 0 0 1-40.107963 39.833407z m59.85307-119.500223a19.916704 19.916704 0 1 1 20.053982-19.916704 19.996783 19.996783 0 0 1-20.053982 19.916704z m161.724551-99.526321a40.107963 40.107963 0 1 1-40.107963-39.821968 39.970685 39.970685 0 0 1 40.107963 39.821968z"  /><path fill="#000000" d="M992.231656 386.688355l2.059165-1.78461L625.608723 18.532487c-17.354187 17.228349-7.73331 92.994191-30.544285 115.633569-9.620878 9.563679-25.47645 25.316293-40.622754 40.325319l0.469032 0.469033c-2.585396 2.287961-5.33095 4.358566-7.813388 6.863884L58.743409 666.67763a198.148896 198.148896 0 0 0 0 281.625167c78.316918 77.790687 205.310215 77.790687 283.615694 0l488.365359-484.910537c2.493878-2.459558 4.575923-5.170793 6.863884-7.744749l0.480472 0.469032c15.111985-15.043346 30.990437-30.784521 40.599874-40.336759 21.975869-21.792832 92.548038-14.620073 113.562964-29.091429z m-188.196264 23.405845L322.705514 888.015015c-46.903209 46.594334-160.328894 50.563947-207.254982 3.969613a119.054071 119.054071 0 0 1 0-168.965949L431.967111 408.744302l233.372061-231.724729 170.178569 168.965948zM1023.279292 752.716418l-0.823666-4.015372a111.526678 111.526678 0 0 0-4.244168-15.169184l-0.755028-2.185003c-21.93011-56.86728-84.654571-87.13701-84.654571-163.268925 0 76.131915-62.678702 106.390205-84.654571 163.268925l-0.755028 2.185003a112.190187 112.190187 0 0 0-4.255608 15.169184l-0.823666 4.015372a113.322728 113.322728 0 0 0-1.727411 18.910001c0 56.192332 41.251944 101.814282 92.170525 101.814282s92.227724-45.62195 92.227723-101.814282a112.979533 112.979533 0 0 0-1.704531-18.910001z"  /></svg>