<?xml version="1.0" standalone="no"?><!DOCTYPE svg PUBLIC "-//W3C//DTD SVG 1.1//EN" "http://www.w3.org/Graphics/SVG/1.1/DTD/svg11.dtd"><svg class="icon" width="200px" height="200.00px" viewBox="0 0 1024 1024" version="1.1" xmlns="http://www.w3.org/2000/svg"><path fill="#000000" d="M479.787 570.88l-149.334-83.413a21.333 21.333 0 0 0-21.333 0L159.787 570.88a21.333 21.333 0 0 0-10.88 18.56V755.2a21.333 21.333 0 0 0 10.88 18.56l149.333 83.413a21.333 21.333 0 0 0 21.333 0l149.334-83.413a21.333 21.333 0 0 0 10.88-18.56V589.653a21.333 21.333 0 0 0-10.88-18.773z m-27.52 54.613L341.333 688v122.667a21.333 21.333 0 0 1-42.666 0V663.04l132.693-74.667a21.333 21.333 0 0 1 21.333 37.12zM704 392.747v-165.76a21.333 21.333 0 0 0-10.88-18.56l-149.333-83.414a21.333 21.333 0 0 0-21.334 0L373.12 208.427a21.333 21.333 0 0 0-10.88 18.56v165.76a21.333 21.333 0 0 0 10.88 18.56l149.333 83.413a21.333 21.333 0 0 0 21.334 0l149.333-83.413a21.333 21.333 0 0 0 10.88-18.56zM665.6 263.04l-110.933 62.293V448A21.333 21.333 0 0 1 512 448V300.373l132.693-74.666a21.333 21.333 0 0 1 21.334 37.12z m219.52 307.84l-149.333-83.413a21.333 21.333 0 0 0-21.334 0L565.12 570.88a21.333 21.333 0 0 0-10.88 18.56V755.2a21.333 21.333 0 0 0 10.88 18.56l149.333 83.413a21.333 21.333 0 0 0 21.334 0L885.12 773.76A21.333 21.333 0 0 0 896 755.2V589.653a21.333 21.333 0 0 0-10.88-18.773z m-27.52 54.613L746.667 688v122.667a21.333 21.333 0 0 1-42.667 0V663.04l132.693-74.667a21.333 21.333 0 0 1 21.334 37.12z" /></svg>