<?xml version="1.0" standalone="no"?><!DOCTYPE svg PUBLIC "-//W3C//DTD SVG 1.1//EN" "http://www.w3.org/Graphics/SVG/1.1/DTD/svg11.dtd"><svg class="icon" width="200px" height="200.00px" viewBox="0 0 1024 1024" version="1.1" xmlns="http://www.w3.org/2000/svg"><path fill="#000000" d="M558.933 535.467a45.867 45.867 0 0 0-6.4-23.467h-80a42.667 42.667 0 0 0-6.4 23.467A46.08 46.08 0 0 0 512 583.68a47.573 47.573 0 0 0 46.933-48.213zM605.013 535.467a93.013 93.013 0 1 1-185.813 0A83.413 83.413 0 0 1 422.4 512H138.027v262.827a94.933 94.933 0 0 0 1.066 10.88v41.6a42.667 42.667 0 0 0 42.667 42.666h661.333a42.667 42.667 0 0 0 42.667-42.666V512H601.813a88.747 88.747 0 0 1 3.2 23.467zM884.907 334.72v-42.667a42.667 42.667 0 0 0-42.667-42.666H652.373v-64a32 32 0 0 0-32-32h-217.6a32 32 0 0 0-32 32v64H181.76a42.667 42.667 0 0 0-42.667 42.666v173.014H885.76v-119.68a94.933 94.933 0 0 0-0.853-10.667z m-277.334-85.333H417.92V223.36a21.333 21.333 0 0 1 21.333-21.333h146.134a21.333 21.333 0 0 1 21.333 21.333z" /></svg>