<?xml version="1.0" standalone="no"?><!DOCTYPE svg PUBLIC "-//W3C//DTD SVG 1.1//EN" "http://www.w3.org/Graphics/SVG/1.1/DTD/svg11.dtd"><svg class="icon" width="200px" height="200.00px" viewBox="0 0 1024 1024" version="1.1" xmlns="http://www.w3.org/2000/svg"><path fill="#000000" d="M883.22 571.51c-20.99-22.97-46.6-41.43-75.06-54.18 39.01-28.91 60.23-75.83 56.27-124.19-2.86-37.47-20.55-72.2-49.23-96.38-28.47-24.39-65.61-36.38-102.97-33.3-14.4 1.76-24.84 14.51-23.63 28.91 1.21 14.4 13.52 25.38 27.91 24.73 48.14-3.63 90.23 32.2 94.18 80.34 1.87 23.3-5.5 45.93-20.66 63.74a87.534 87.534 0 0 1-59.68 30.55 25.83 25.83 0 0 0-15.71 7.25c-9.89 3.95-16.6 13.41-17.04 24.18-0.33 7.14 2.2 14.06 6.93 19.34 4.83 5.27 11.54 8.46 18.68 8.79 46.27 2.2 88.91 22.31 120.12 56.6 31.21 34.18 47.15 78.58 44.95 124.85-0.66 14.84 10.77 27.47 25.61 28.13 14.84 0.66 27.48-10.77 28.13-25.61 3.17-60.34-18.04-119.24-58.8-163.75zM319.44 542.5c4.83-5.28 7.36-12.2 7.03-19.34-0.44-10.66-7.14-20.11-17.03-24.07-4.28-4.07-9.78-6.59-15.6-7.25a86.937 86.937 0 0 1-59.79-30.55c-15.17-17.69-22.53-40.66-20.66-63.74a87.257 87.257 0 0 1 30.66-59.68c17.8-15.16 40.55-22.31 63.63-20.55 14.72 0.99 27.69-9.89 29.01-24.73 0.66-7.14-1.65-14.18-6.26-19.67-4.61-5.5-11.32-8.79-18.35-9.34-37.37-3.08-74.51 8.9-102.97 33.29a140.297 140.297 0 0 0-49.23 96.38c-3.95 48.36 17.26 95.28 56.27 124.19-85.5 38.02-138.69 124.52-134.19 217.71 0.66 14.4 12.53 25.72 26.93 25.72h1.21c7.14-0.33 13.85-3.41 18.68-8.68 4.83-5.28 7.36-12.31 6.92-19.45-2.31-45.94 13.96-90.89 44.95-124.96a172.203 172.203 0 0 1 120.01-56.6c7.24-0.33 13.94-3.41 18.78-8.68z"  /><path fill="#000000" d="M617.7 524.36c48.79-34.18 77.92-90.12 77.92-149.68-0.11-101.32-82.21-183.53-183.53-183.64-101.32 0.11-183.53 82.32-183.64 183.64 0 61.87 30.99 116.5 78.03 149.68-114.08 42.86-195.51 152.76-195.51 281.67 0 14.84 12.09 26.92 26.93 26.92l548.17-0.11c14.84 0 26.93-12.09 26.93-26.92-0.12-125.39-77.93-237.49-195.3-281.56z"  /></svg>