<?xml version="1.0" standalone="no"?><!DOCTYPE svg PUBLIC "-//W3C//DTD SVG 1.1//EN" "http://www.w3.org/Graphics/SVG/1.1/DTD/svg11.dtd"><svg class="icon" width="200px" height="200.00px" viewBox="0 0 1024 1024" version="1.1" xmlns="http://www.w3.org/2000/svg"><path fill="#000000" d="M983.552 908.8c0 31.232-25.088 56.832-56.832 56.832-14.848 0-29.696-6.144-39.936-16.384L512 574.976l-374.784 374.784c-23.03999999 22.016-58.368 22.016-80.384-1.024-22.016-22.016-22.01599999-57.344 0-79.36l385.024-385.02400001c38.4-38.4 102.4-38.4 140.8 1e-8L967.68000001 869.888c10.24 10.24 15.872 24.064 15.87199999 38.912zM983.552 512c0 31.232-25.088 56.832-56.832 56.832-14.848 0-29.696-6.144-39.936-16.38399999l-374.784-374.784-374.784 374.784c-23.03999999 22.016-58.368 22.016-80.384-1.02400001-22.016-22.016-22.01599999-57.344 0-79.36L441.856 87.04c38.4-38.4 101.376-39.424 140.8 0L967.68 472.064c10.24 10.24 15.872 25.08800001 15.872 39.936z" /></svg>