<?xml version="1.0" standalone="no"?><!DOCTYPE svg PUBLIC "-//W3C//DTD SVG 1.1//EN" "http://www.w3.org/Graphics/SVG/1.1/DTD/svg11.dtd"><svg class="icon" width="200px" height="160.38px" viewBox="0 0 1277 1024" version="1.1" xmlns="http://www.w3.org/2000/svg"><path fill="#000000" d="M1214.418 866.868V671.79h-48.174v-70.598c0-62.246-46.644-113.86-107.06-122.213V476.7c0-75.914-62.717-138.16-139.183-138.16h-4.591c-76.478 0-139.195 62.246-139.195 138.16v250.5h-68.056V461.513a47.737 47.737 0 0 0-22.942-40.983c16.062-4.556 28.292-19.732 28.292-37.197 0-21.251-17.592-38.717-39.004-38.717h-31.352v-36.438h-48.945v36.438h-32.883c-21.412 0-38.993 17.454-38.993 38.717 0 17.465 12.23 32.641 28.292 37.197a47.748 47.748 0 0 0-22.93 40.983v265.688h-65.766V482.016c0-12.909-10.712-22.77-22.943-22.77h-47.414v-250.5c0-45.55-37.474-82.736-83.359-82.736v-3.797C308.201 54.652 253.135 0 185.068 0 117 0 61.946 54.652 61.946 122.213v744.655H0V1024h1277.124V866.868h-62.706z m-869.514 0H307.43V504.786h37.474v362.082z m0-407.621H307.43V172.308c20.653 0 37.474 16.706 37.474 37.198v249.74zM526.91 866.108H390.788V504.786h23.713v244.425c0 12.91 10.7 22.77 22.943 22.77h89.467v94.127z m485.606-385.61c-55.054 12.897-95.588 62.245-95.588 119.934v70.599h-48.174v54.651H822.11l0.77-249.73c0-50.865 41.294-91.848 92.54-91.848h4.591c51.235 0 92.528 40.994 92.528 91.849v4.545z"  /></svg>