<?xml version="1.0" standalone="no"?><!DOCTYPE svg PUBLIC "-//W3C//DTD SVG 1.1//EN" "http://www.w3.org/Graphics/SVG/1.1/DTD/svg11.dtd"><svg class="icon" width="200px" height="200.00px" viewBox="0 0 1024 1024" version="1.1" xmlns="http://www.w3.org/2000/svg"><path fill="#000000" d="M575.255771 490.861714c6.290286 47.981714-52.004571 85.723429-92.562285 61.147429-45.714286-20.004571-45.714286-92.562286-1.133715-113.152 38.290286-23.442286 93.696 7.424 93.696 52.004571z m63.451429-11.995428c-10.276571-81.152-102.290286-134.838857-177.152-101.156572-47.433143 21.138286-79.433143 71.424-77.129143 124.562286 2.852571 69.705143 69.156571 126.866286 138.861714 120.576s124.013714-74.276571 115.419429-144.018286z m136.557714-309.723429c-25.161143-33.133714-67.986286-38.838857-105.728-45.129143-106.861714-17.152-216.576-17.700571-323.437714 1.133715-35.437714 5.705143-75.446857 11.995429-97.718857 43.995428 36.571429 34.304 88.576 39.424 135.424 45.129143 84.553143 10.861714 171.446857 11.446857 256 0.585143 47.433143-5.705143 99.986286-10.276571 135.424-45.714286z m32.585143 591.433143c-16.018286 55.990857-6.838857 131.437714-66.304 163.986286-102.290286 56.576-226.304 62.866286-338.870857 42.861714-59.428571-10.861714-129.133714-29.696-161.718857-85.723429-14.299429-54.857143-23.442286-110.848-32.585143-166.838857l3.437714-9.142857 10.276572-5.156571c170.276571 112.566857 408.576 112.566857 579.437714 0 26.843429 8.009143 6.838857 40.557714 6.290286 60.013714z m103.424-549.156571c-19.419429 125.147429-41.728 249.709714-63.414857 374.272-6.290286 36.571429-41.728 57.161143-71.424 72.557714-106.861714 53.723429-231.424 62.866286-348.562286 50.285714-79.433143-8.557714-160.585143-29.696-225.133714-79.433143-30.281143-23.442286-30.281143-63.414857-35.986286-97.133714C146.748343 414.829714 123.8912 297.691429 109.591771 179.382857c6.838857-51.419429 64.585143-73.728 107.446858-89.709714 57.161143-21.138286 118.272-30.866286 178.870857-36.571429 129.133714-12.580571 261.156571-8.009143 386.304 28.562286 44.580571 13.129143 92.562286 31.414857 122.843428 69.705143 13.714286 17.700571 9.142857 40.009143 6.290286 60.013714z"  /></svg>