<?xml version="1.0" standalone="no"?><!DOCTYPE svg PUBLIC "-//W3C//DTD SVG 1.1//EN" "http://www.w3.org/Graphics/SVG/1.1/DTD/svg11.dtd"><svg class="icon" width="200px" height="200.00px" viewBox="0 0 1024 1024" version="1.1" xmlns="http://www.w3.org/2000/svg"><path fill="#000000" d="M512 153.6C153.6 153.6 0 512 0 512s153.6 358.4 512 358.4 512-358.4 512-358.4-153.6-358.4-512-358.4zM460.8 358.4a51.2 51.2 0 1 1-51.2-51.2 51.2 51.2 0 0 1 51.2 51.2z m51.2 409.6c-223.232 0-349.696-174.592-396.8-256a583.68 583.68 0 0 1 153.6-173.568A256 256 0 0 0 256 409.6a256 256 0 0 0 512 0 256 256 0 0 0-11.264-70.656 586.24 586.24 0 0 1 153.6 173.056c-49.152 81.92-176.128 256-398.336 256z"  /></svg>