<?xml version="1.0" standalone="no"?><!DOCTYPE svg PUBLIC "-//W3C//DTD SVG 1.1//EN" "http://www.w3.org/Graphics/SVG/1.1/DTD/svg11.dtd"><svg class="icon" width="200px" height="175.04px" viewBox="0 0 1170 1024" version="1.1" xmlns="http://www.w3.org/2000/svg"><path fill="#000000" d="M120.832 456.411429q-10.093714-8.484571-22.381714-13.019429Q86.308571 438.857143 73.142857 438.857143l-5.558857 0.146286q-14.628571 1.170286-27.501714 7.753142-13.019429 6.582857-22.528 17.554286-8.484571 10.093714-13.019429 22.381714Q0 498.834286 0 512l0.146286 5.558857q1.170286 14.628571 7.753143 27.501714 6.582857 13.019429 17.554285 22.528l512 438.857143q4.973714 4.242286 10.678857 7.460572 5.558857 3.364571 11.702858 5.558857 5.997714 2.194286 12.434285 3.364571Q578.706286 1024 585.142857 1024t12.873143-1.170286q6.436571-1.170286 12.434286-3.364571 6.144-2.194286 11.702857-5.558857 5.705143-3.218286 10.532571-7.460572l512-438.857143q11.117714-9.508571 17.554286-22.528 6.729143-12.873143 7.899429-27.501714L1170.285714 512v-1.462857q-0.585143-26.331429-17.554285-46.08-10.532571-12.288-25.014858-19.017143Q1113.088 438.857143 1097.142857 438.857143h-1.901714q-26.038857 0.731429-45.641143 17.554286L585.142857 854.601143 120.832 456.557714zM120.832 17.554286Q110.592 9.069714 98.304 4.534857 86.308571 0 73.142857 0L67.584 0.146286Q52.955429 1.462857 40.082286 7.899429 27.062857 14.628571 17.554286 25.453714 9.069714 35.693714 4.534857 47.981714 0 59.977143 0 73.142857l0.146286 5.558857q1.170286 14.628571 7.753143 27.501715Q14.628571 119.222857 25.453714 128.731429l512 438.857142q4.973714 4.242286 10.678857 7.460572 5.558857 3.364571 11.702858 5.558857 5.997714 2.194286 12.434285 3.364571Q578.706286 585.142857 585.142857 585.142857t12.873143-1.170286q6.436571-1.170286 12.434286-3.364571 6.144-2.194286 11.702857-5.558857 5.705143-3.218286 10.532571-7.460572l512-438.857142q11.117714-9.508571 17.554286-22.528Q1169.115429 93.330286 1170.285714 78.701714L1170.285714 73.142857V71.68Q1169.700571 45.348571 1152.731429 25.6 1142.198857 13.165714 1127.716571 6.582857 1113.088 0 1097.142857 0h-1.901714q-26.038857 0.731429-45.641143 17.554286L585.142857 415.744 120.832 17.700571z" /></svg>