<?xml version="1.0" standalone="no"?><!DOCTYPE svg PUBLIC "-//W3C//DTD SVG 1.1//EN" "http://www.w3.org/Graphics/SVG/1.1/DTD/svg11.dtd"><svg class="icon" width="200px" height="200.00px" viewBox="0 0 1024 1024" version="1.1" xmlns="http://www.w3.org/2000/svg"><path fill="#000000" d="M625.952 386.176l1.664 0.416 0.832 0.224 1.696 0.448 1.76 0.448 1.76 0.48 1.792 0.48 0.896 0.256 1.824 0.512 3.712 1.056 1.888 0.576 1.92 0.576 0.96 0.288 1.952 0.608a14.432 14.432 0 0 0 8.48 0l1.792-0.544 1.76-0.544 1.728-0.512 2.56-0.768 1.696-0.48 1.664-0.48 1.632-0.448 1.632-0.448 1.6-0.448 1.568-0.416 2.336-0.608 1.536-0.384 1.472-0.384 1.472-0.352 1.44-0.352 1.44-0.352 1.408-0.32 1.376-0.32 1.344-0.288 1.344-0.288 1.312-0.256 1.312-0.256 1.248-0.256 1.248-0.224 1.216-0.224 1.184-0.224 1.184-0.192 1.12-0.192 1.12-0.16H716.512l3.584 0.32H723.392l1.152 0.16h0.576l1.184 0.192 1.216 0.192 1.248 0.224 1.248 0.256 1.28 0.256 1.312 0.256 1.344 0.288 1.344 0.288 1.376 0.32 1.408 0.32 1.44 0.352 1.472 0.352 1.472 0.384 1.504 0.384 1.536 0.384 1.568 0.416 1.568 0.416 1.6 0.448 1.632 0.48 0.832 0.224 1.664 0.48 1.696 0.512 1.696 0.512 0.864 0.256 1.728 0.544 1.76 0.576 0.896 0.288 1.792 0.576 12.256 4.032v-39.744l-3.392-1.12-2.048-0.64-0.992-0.352-1.984-0.64-1.984-0.64-0.992-0.288-1.92-0.576-1.888-0.576-1.888-0.544-1.856-0.544-0.928-0.256-1.824-0.512-1.824-0.48-1.76-0.48-1.76-0.448-0.864-0.224-1.728-0.416-1.696-0.416-1.696-0.384-0.832-0.192-1.632-0.704-1.632-0.352-1.6-0.352h-0.8l-1.568-0.32h-0.768l-1.536-0.288-1.504-0.256q-5.984-1.024-11.264-1.504h-1.312q-3.392-0.256-6.816-0.288h-0.544q-3.2 0-6.08 0.256h-1.312l-2.656 0.256H700.8l-4.96 0.672-1.472 0.224-2.24 0.352-1.536 0.256-1.568 0.288-2.4 0.448-0.8 0.16-1.632 0.32-1.664 0.352-1.696 0.352-1.696 0.384-1.76 0.384-0.864 0.224-1.76 0.416-1.792 0.448-0.928 0.224-1.824 0.48-0.928 0.256-1.888 0.48-1.888 0.512-1.92 0.512-1.952 0.544-0.992 0.288-1.984 0.576h-0.32l148.096-148.096a26.08 26.08 0 0 1 44.512 18.432v562.848a78.208 78.208 0 0 1-78.208 78.208H173.024V186.08a26.08 26.08 0 0 1 52.16 0v599.68l160.416-160.416 1.44 0.384 1.92 0.48 1.952 0.512 1.952 0.512a14.4 14.4 0 0 0 8.384-0.256l1.952-0.64 0.992-0.32 1.92-0.64 3.744-1.184 1.856-0.576 0.928-0.288 1.824-0.544 0.896-0.256 1.76-0.512 4.352-1.184 1.696-0.448 3.2-0.832 1.632-0.384 3.2-0.704 1.536-0.32 1.504-0.32a109.12 109.12 0 0 1 21.024-2.4H469.088l1.216 0.16 1.28 0.16 1.28 0.192h0.64l1.312 0.224 1.344 0.224 1.376 0.224 1.408 0.256h0.704l1.44 0.256 1.44 0.256 1.472 0.288 1.472 0.288 1.536 0.32 1.536 0.32 1.568 0.32 1.6 0.352 1.632 0.352 1.632 0.384 1.664 0.384 1.696 0.384 1.696 0.416 1.728 0.416 2.656 0.64 2.688 0.704 1.824 0.48 2.784 0.736 2.816 0.768 1.92 0.512 1.952 0.512a14.4 14.4 0 0 0 7.584 0l1.952-0.512 2.88-0.768 1.888-0.48 2.816-0.704 1.824-0.48 2.752-0.672 1.76-0.448 1.76-0.416 1.728-0.416 1.728-0.384 2.528-0.576 1.664-0.352 1.632-0.352 1.6-0.352 1.6-0.352 1.568-0.32 1.536-0.288 1.504-0.288 1.472-0.288 1.472-0.288 1.44-0.256h0.704l1.408-0.224 1.376-0.224 1.344-0.224 1.344-0.224 1.312-0.192h0.64l1.248-0.192 1.248-0.16H597.12l4.224 0.416h1.28l2.592 0.352 1.344 0.192 1.344 0.224 1.376 0.224 1.408 0.256h0.704l1.44 0.256 1.472 0.288 1.504 0.288h0.768l1.536 0.32 1.536 0.352 1.568 0.352 1.632 0.352 1.632 0.384 1.664 0.384 1.664 0.416 0.832 0.224 1.696 0.448 1.76 0.448 1.76 0.48 1.792 0.48 0.896 0.256 1.824 0.512 3.712 1.056 1.888 0.576 1.92 0.576 0.96 0.288 1.952 0.608a14.432 14.432 0 0 0 8.48 0l1.792-0.544 1.76-0.544 1.728-0.512 2.56-0.768 1.696-0.48 1.664-0.48 1.632-0.448 1.632-0.448 1.6-0.448 1.568-0.416 2.336-0.608 1.536-0.384 1.472-0.384 1.472-0.352 1.44-0.352 1.44-0.352 1.408-0.32 1.376-0.32 1.344-0.288 1.344-0.288 1.312-0.256 1.312-0.256 1.248-0.256 1.248-0.224 1.216-0.224 1.184-0.224 1.184-0.192 1.12-0.192 1.12-0.16H716.704l3.584 0.32H723.584l1.152 0.16h0.576l1.184 0.192 1.216 0.192 1.248 0.224 1.28 0.256 1.28 0.256 1.312 0.256 1.344 0.288 1.344 0.288 1.376 0.32 1.408 0.32 1.44 0.352 1.472 0.352 1.472 0.384 1.504 0.384 1.536 0.384 1.536 0.416 1.568 0.416 1.6 0.448 1.632 0.48 0.832 0.224 1.664 0.48 1.696 0.512 1.696 0.512 0.864 0.256 1.728 0.544 1.76 0.576 0.896 0.288 1.792 0.576 12.256 4.032v-39.744l-3.392-1.12-2.048-0.64-0.992-0.352-1.984-0.64-1.952-0.64-0.992-0.288-1.92-0.576-1.888-0.576-1.888-0.544-1.856-0.544-0.928-0.256-1.824-0.512-1.824-0.48-1.76-0.48-1.76-0.448-0.864-0.224-1.728-0.416-1.696-0.416-1.696-0.384-0.832-0.192-1.632-0.384-1.632-0.352-1.6-0.352h-0.8l-1.568-0.32h-0.768l-1.536-0.288-1.504-0.256q-5.984-1.024-11.264-1.504h-1.312q-3.392-0.256-6.816-0.288h-0.544q-3.2 0-6.08 0.256h-1.312l-2.656 0.256h-1.376l-4.96 0.672-1.472 0.224-2.24 0.352-1.536 0.256-1.568 0.288-2.4 0.448-0.8 0.16-1.632 0.32-1.664 0.352-1.696 0.352-1.696 0.384-1.76 0.384-0.864 0.224-1.76 0.416-1.792 0.448-0.928 0.224-1.824 0.48-0.928 0.256-1.888 0.48-1.888 0.512-1.92 0.512-1.952 0.544-0.992 0.288-1.984 0.576-2.016 0.576-2.048 0.608-1.76 0.544-2.24-0.64-2.144-0.64-1.056-0.288-2.112-0.608-1.056-0.288-2.08-0.576-2.048-0.544-2.048-0.544-3.968-1.024-1.952-0.48-2.88-0.704-1.888-0.416-0.928-0.224-1.856-0.416-1.824-0.384-1.792-0.352-1.792-0.352-1.76-0.352-1.728-0.32a144.992 144.992 0 0 0-25.152-2.528H575.648l-1.408 0.16h-0.704l-1.44 0.192h-0.736l-1.472 0.224-1.504 0.224-1.536 0.224-1.568 0.256-1.568 0.256-1.6 0.256h-0.8l-1.632 0.288-1.664 0.32-1.696 0.32-1.696 0.352-1.76 0.352-1.76 0.352-1.792 0.384-1.792 0.384-1.824 0.384-1.856 0.416-1.888 0.416-1.888 0.448-1.92 0.448-2.944 0.704-1.984 0.48-2.016 0.48-3.2 0.768-2.048 0.512-2.112 0.576-1.504 0.384-1.472-0.416-2.112-0.576-1.056-0.288-2.08-0.544-2.048-0.512-1.024-0.256-2.016-0.512-1.984-0.48-1.952-0.48-1.952-0.48-1.888-0.448-0.928-0.224-1.888-0.416-1.856-0.416-0.928-0.192-1.824-0.384-1.792-0.384-1.76-0.352-1.76-0.352-1.728-0.352-1.696-0.32-1.664-0.32-1.632-0.288-1.632-0.288h-0.8l-1.6-0.256h-0.768l-1.536-0.224-1.536-0.224-1.504-0.224-1.472-0.192-1.472-0.192-2.144-0.224h-2.784l-2.016-0.16h-2.624q-3.2-0.192-6.112-0.192h-0.704a135.296 135.296 0 0 0-22.784 2.336l-2.496 2.528-1.888 1.888-1.088 1.088-2.528 2.496q-11.552 11.488-38.4 37.792h-0.352l-1.888-0.48-1.856-0.48-1.824-0.448-1.824-0.448-2.656-0.64-1.76-0.384-1.728-0.416-1.696-0.384-1.696-0.384-1.632-0.352-1.632-0.352-1.6-0.352-1.6-0.32-1.568-0.32-2.304-0.448-1.504-0.288-1.472-0.256-1.44-0.288-1.44-0.256-1.408-0.224-1.376-0.224-1.344-0.224h-0.672l-1.312-0.192-1.312-0.192-1.28-0.16-1.248-0.16H327.936a87.68 87.68 0 0 0-39.744 10.464l-0.768 0.384-10.208 5.408v-41.888a114.4 114.4 0 0 1 50.72-12.576h8.832l2.048 0.16h4.224l1.472 0.16 1.472 0.192 1.504 0.192 1.536 0.224 1.536 0.224 1.568 0.256 1.6 0.256 1.632 0.256 1.632 0.288 1.664 0.288 1.696 0.32 1.728 0.32h0.864l1.76 0.352 0.896 0.16 1.792 0.352 1.824 0.384 1.824 0.384 1.856 0.384 0.96 0.224 1.888 0.416 1.92 0.416 1.952 0.448 1.952 0.48 1.984 0.48 3.2 0.736 2.048 0.512 2.08 0.512 2.08 0.544 2.144 0.576 1.12 0.288h0.192l2.176-0.704 2.144-0.672q5.344-1.696 10.4-3.2l2.016-0.576q9.6-2.592 18.24-4.192l73.376-72.736h-0.288l-2.656-0.64-1.728-0.416-1.696-0.416-1.696-0.384-1.664-0.384-1.632-0.384-1.632-0.352-1.6-0.352-1.568-0.32-1.536-0.32-1.536-0.32-1.472-0.288-1.472-0.288-1.44-0.288-1.44-0.256h-0.704l-1.408-0.256-1.376-0.224-1.344-0.224-1.312-0.224h-0.64l-1.28-0.192-1.28-0.16-1.216-0.16H455.36a108.8 108.8 0 0 0-21.024 2.4l-1.504 0.32-1.568 0.32-3.2 0.736-1.632 0.384-3.2 0.832-1.696 0.448-4.352 1.184-1.76 0.512-0.896 0.256-1.824 0.512-0.928 0.288-1.856 0.576-3.744 1.184-1.92 0.64-0.992 0.32-1.952 0.64a14.464 14.464 0 0 1-8.384 0.256l-1.952-0.512-1.952-0.512-1.92-0.512-1.888-0.48-1.888-0.48-1.856-0.48-1.824-0.448-1.824-0.448-2.656-0.64-1.76-0.384-1.728-0.416-1.696-0.384-1.696-0.384-1.632-0.352-1.632-0.352-1.6-0.352-1.6-0.32-1.568-0.32-2.304-0.448-1.504-0.288-1.472-0.256-1.44-0.288-1.44-0.256-1.408-0.224-1.376-0.224-1.344-0.224h-0.672l-1.312-0.192-1.312-0.192-1.28-0.16-1.248-0.16H328.096a87.68 87.68 0 0 0-39.744 10.464l-0.768 0.384-10.208 5.408v-41.888a114.4 114.4 0 0 1 50.72-12.576h8.832l2.048 0.16h4.224l1.472 0.16 1.472 0.192 1.504 0.192 1.536 0.224 1.536 0.224 1.568 0.256 1.6 0.256 1.632 0.256 1.632 0.288 1.664 0.288 1.696 0.32 1.728 0.32h0.864l1.76 0.352 0.896 0.16 1.792 0.352 1.824 0.384 1.824 0.384 1.856 0.384 0.96 0.224 1.888 0.416 1.92 0.416 1.952 0.448 1.952 0.48 1.984 0.48 3.2 0.736 2.048 0.512 2.08 0.512 2.08 0.544 2.144 0.576 1.12 0.288h0.192l2.176-0.704 2.144-0.672q5.344-1.696 10.4-3.2l2.016-0.576a167.392 167.392 0 0 1 41.6-6.656h0.704c1.92 0 3.968 0 6.112 0.192h2.624l2.016 0.16h2.784l2.144 0.256 1.472 0.16 1.472 0.192 1.504 0.224 1.536 0.224 1.568 0.224h0.768l1.568 0.256h0.8l1.632 0.288 1.632 0.288 1.664 0.32 1.696 0.32 1.728 0.352 1.76 0.352 1.76 0.352 1.792 0.384 1.824 0.384 0.928 0.192 1.856 0.416 1.888 0.416 0.928 0.224 1.92 0.448 1.92 0.48 1.952 0.48 1.984 0.48 2.016 0.512 1.024 0.256 2.048 0.512 2.08 0.544 1.056 0.288 2.112 0.576 1.472 0.384 1.504-0.384 2.08-0.544 2.08-0.544 3.2-0.768 2.016-0.48 1.984-0.48 2.944-0.704 1.92-0.448 1.888-0.448 1.888-0.416 1.152-0.256 80.288-80.288-0.704-0.16-1.632-0.384-1.6-0.352-1.568-0.352-1.568-0.352-1.504-0.32h-0.768l-1.504-0.288-1.472-0.288L611.84 384h-0.704l-1.408-0.256-1.376-0.224-1.344-0.224-1.344-0.192-2.592-0.352h-1.28l-4.224-0.416H576.192l-1.248 0.16-1.28 0.192h-0.64l-1.312 0.192-1.312 0.224-1.344 0.224-1.376 0.224-1.408 0.224h-0.704l-1.44 0.256-1.472 0.288-1.472 0.288-2.016 0.128-1.536 0.288-1.568 0.32-1.568 0.352-1.632 0.352-1.632 0.352-1.664 0.352-2.528 0.576-1.728 0.416-1.728 0.416-1.76 0.416-1.792 0.448-2.72 0.672-1.824 0.48-2.816 0.704-1.888 0.48-2.88 0.768-1.952 0.512a14.688 14.688 0 0 1-7.584 0l-1.952-0.544-1.92-0.512-2.816-0.768-2.784-0.736-1.824-0.48-2.688-0.704-2.656-0.64-1.728-0.416-1.696-0.416-1.696-0.384-1.664-0.384-1.632-0.384-1.632-0.352-1.6-0.352-1.568-0.32-1.536-0.32-1.536-0.32-1.472-0.288-1.472-0.288-1.44-0.288-1.44-0.256h-0.704l-1.408-0.256-1.376-0.224-1.344-0.224-1.312-0.224h-0.64l-1.28-0.192-1.28-0.16-1.216-0.16H455.264a108.8 108.8 0 0 0-21.024 2.4l-1.504 0.32-1.568 0.32-3.2 0.736-1.632 0.384-3.2 0.832-1.696 0.448-4.352 1.184-1.76 0.512-0.896 0.256-1.824 0.512-0.928 0.288-1.856 0.576-3.744 1.184-1.92 0.64-0.992 0.32-1.952 0.64a14.496 14.496 0 0 1-8.384 0.256l-1.952-0.512-1.952-0.512-1.92-0.512-1.888-0.48-1.888-0.48-1.856-0.48-1.824-0.448-1.824-0.448-2.656-0.64-1.76-0.384-1.728-0.416-1.696-0.384-1.696-0.384-1.632-0.352-1.632-0.352-1.6-0.352-1.6-0.32-1.568-0.32-2.304-0.448-1.504-0.288-1.472-0.256-1.44-0.288-1.44-0.256-1.408-0.224-1.376-0.224-1.344-0.224h-0.672l-1.312-0.192-1.312-0.192-1.28-0.16-1.248-0.16H328a87.68 87.68 0 0 0-39.744 10.464l-0.768 0.384-10.208 5.408v-41.888a114.4 114.4 0 0 1 50.72-12.576h8.832l2.048 0.16h4.224l1.472 0.16 1.472 0.192 1.504 0.192 1.536 0.224 1.536 0.224 1.568 0.256 1.6 0.256 1.632 0.256 1.632 0.288 1.664 0.288 1.696 0.32 1.728 0.32h0.864l1.76 0.352 0.896 0.16 1.792 0.352 1.824 0.384 1.824 0.384 1.856 0.384 0.96 0.224 1.888 0.416 1.92 0.416 1.952 0.448 1.952 0.48 1.984 0.48 3.2 0.736 2.048 0.512 2.08 0.512 2.08 0.544 2.144 0.576 1.12 0.288h0.192l2.176-0.704 2.144-0.672q5.344-1.696 10.4-3.2l2.016-0.576a167.328 167.328 0 0 1 41.6-6.656h0.704c1.92 0 3.968 0 6.112 0.192h2.624l2.016 0.16h2.784l2.144 0.256 1.472 0.16 1.472 0.192 1.504 0.224 1.536 0.224 1.568 0.224h0.768l1.568 0.256h0.8l1.632 0.288 1.632 0.288 1.664 0.32 1.696 0.32 1.728 0.352 1.76 0.352 1.76 0.352 1.792 0.384 1.824 0.384 0.928 0.192 1.856 0.416 1.888 0.416 0.928 0.224 1.92 0.448 1.92 0.48 1.952 0.48 1.984 0.48 2.016 0.512 1.024 0.256 2.048 0.512 2.08 0.544 1.056 0.288 2.112 0.576 1.472 0.384 1.504-0.384 2.08-0.544 2.08-0.544 3.2-0.768 2.016-0.48 1.984-0.48 2.944-0.704 1.92-0.448 1.888-0.448 1.888-0.416 1.856-0.416 1.824-0.384 1.792-0.384 1.792-0.384 1.76-0.352 1.728-0.352 1.696-0.352 1.696-0.32 1.664-0.32 1.632-0.288h0.8l1.6-0.288 1.568-0.256 1.568-0.256 1.536-0.224 1.504-0.224 1.472-0.224h0.736l1.44-0.192h0.704l1.408-0.16h15.168a144.544 144.544 0 0 1 25.152 2.528l1.728 0.32 1.76 0.352 1.792 0.352 1.792 0.352 1.824 0.384 1.856 0.416 0.928 0.224 1.888 0.416 2.88 0.704 1.952 0.48 3.968 1.024 2.048 0.512 2.048 0.576 2.08 0.576 1.056 0.288 2.112 0.608 1.056 0.32 2.144 0.64 2.24 0.672 1.76-0.512 2.048-0.608-30.656 33.056z m-35.456 73.6H575.36l-1.408 0.16h-0.704l-1.44 0.192h-0.736l-1.472 0.224-1.504 0.224-1.536 0.224-1.568 0.256-1.568 0.256-1.6 0.256h-0.8l-1.632 0.288-1.664 0.32-1.696 0.32-1.696 0.352-1.76 0.352-1.76 0.352-1.792 0.384-1.792 0.384-1.824 0.384-41.056 41.632 2.688 0.704 1.824 0.48 2.784 0.736 2.816 0.768 1.92 0.512 1.952 0.512a14.4 14.4 0 0 0 7.584 0l1.952-0.512 2.88-0.768 1.888-0.48 2.816-0.704 1.824-0.48 2.688-0.768 1.76-0.448 1.76-0.416 1.728-0.416 1.728-0.384 2.528-0.576 1.664-0.352 1.632-0.352 1.6-0.352 1.6-0.352 1.568-0.32 1.536-0.288 1.504-0.288 1.472-0.288 1.472-0.288 1.44-0.256h0.704l1.408-0.224 1.376-0.224 1.344-0.224 1.344-0.224 1.312-0.192h0.64l1.248-0.192 1.248-0.16H596.992l4.224 0.416h1.28l2.592 0.352 1.344 0.192 1.344 0.224 1.376 0.224 1.408 0.256h0.704l1.44 0.256 1.472 0.288 1.504 0.288h0.768l1.536 0.32 1.536 0.352 1.568 0.352 1.632 0.352 1.632 0.384 1.664 0.384 1.664 0.416 0.832 0.224 1.696 0.448 1.76 0.448 1.76 0.48 1.792 0.48 0.896 0.256 1.824 0.512 3.712 1.056 1.888 0.576 1.92 0.576 0.96 0.288 1.952 0.608a14.432 14.432 0 0 0 8.48 0l1.792-0.544 1.76-0.544 1.728-0.512 2.56-0.768 1.696-0.48 1.664-0.48 1.632-0.448 1.632-0.448 1.6-0.448 1.568-0.416 2.336-0.608 1.536-0.384 1.472-0.384 1.472-0.352 1.44-0.352 1.44-0.352 1.408-0.32 1.376-0.32 1.344-0.288 1.344-0.288 1.312-0.256 1.312-0.256 1.248-0.256 1.248-0.224 1.216-0.224 1.184-0.224 1.184-0.192 1.12-0.192 1.12-0.16H716.576l3.584 0.32H723.456l1.152 0.16h0.576l1.184 0.192 1.216 0.192 1.248 0.224 1.28 0.256 1.28 0.256 1.312 0.256 1.344 0.288 1.344 0.288 1.376 0.32 1.408 0.32 1.44 0.352 1.472 0.352 1.472 0.384 1.504 0.384 1.536 0.384 1.568 0.416 1.568 0.416 1.6 0.448 1.632 0.48 0.832 0.224 1.664 0.48 1.696 0.512 1.696 0.512 0.864 0.256 1.728 0.544 1.76 0.576 0.896 0.288 1.792 0.576 12.256 4.032v-39.744l-3.392-1.12-2.048-0.64-0.992-0.352-1.984-0.64-1.984-0.64-0.992-0.288-1.92-0.576-1.888-0.576-1.888-0.544-1.856-0.544-0.928-0.256-1.824-0.512-1.824-0.48-1.76-0.48-1.76-0.448-0.864-0.224-1.728-0.416-1.696-0.416-1.696-0.384-0.832-0.192-1.632-0.384-1.632-0.352-1.6-0.352h-0.8l-1.568-0.32h-0.768l-1.536-0.288-1.504-0.256q-5.984-1.024-11.264-1.504h-1.312q-3.392-0.256-6.816-0.288h-0.544q-3.2 0-6.08 0.256h-1.312l-2.656 0.256h-1.376l-4.96 0.672-1.472 0.224-2.24 0.352-1.536 0.256-1.568 0.288-2.4 0.448-0.8 0.16-1.632 0.32-1.664 0.352-1.696 0.352-1.696 0.384-1.76 0.384-0.864 0.224-1.76 0.416-1.792 0.448-0.928 0.224-1.824 0.48-0.928 0.256-1.888 0.48-1.888 0.512-1.92 0.512-1.952 0.544-0.992 0.288-1.984 0.576-2.016 0.576-2.048 0.608-1.76 0.544-2.24-0.64-2.144-0.64-1.056-0.288-2.112-0.608-1.056-0.288-2.08-0.576-2.048-0.544-2.048-0.544-3.968-1.024-1.952-0.48-2.88-0.704-1.888-0.416-0.928-0.224-1.856-0.416-1.824-0.384-1.792-0.352-1.792-0.352-1.76-0.352-1.728-0.32a145.024 145.024 0 0 0-25.152-2.528z" /></svg>