<?xml version="1.0" standalone="no"?><!DOCTYPE svg PUBLIC "-//W3C//DTD SVG 1.1//EN" "http://www.w3.org/Graphics/SVG/1.1/DTD/svg11.dtd"><svg class="icon" width="200px" height="200.00px" viewBox="0 0 1024 1024" version="1.1" xmlns="http://www.w3.org/2000/svg"><path fill="#000000" d="M474.027 539.52a21.333 21.333 0 0 1-5.547-14.293V213.333A21.333 21.333 0 0 0 447.147 192h-1.28a341.333 341.333 0 0 0-28.587 678.187 353.067 353.067 0 0 0 52.053 4.48 338.987 338.987 0 0 0 213.334-74.454 21.333 21.333 0 0 0 0-32.213zM533.333 490.667H832a21.333 21.333 0 0 0 21.333-23.254 341.333 341.333 0 0 0-317.866-318.08h-2.134A21.333 21.333 0 0 0 512 170.667v298.666a21.333 21.333 0 0 0 21.333 21.334z m318.507 42.666H580.907a21.333 21.333 0 0 0-15.787 35.627L746.667 768a21.333 21.333 0 0 0 31.573 0 339.627 339.627 0 0 0 94.08-212.267 21.333 21.333 0 0 0-20.48-22.4z" /></svg>