<?xml version="1.0" standalone="no"?><!DOCTYPE svg PUBLIC "-//W3C//DTD SVG 1.1//EN" "http://www.w3.org/Graphics/SVG/1.1/DTD/svg11.dtd"><svg class="icon" width="200px" height="200.00px" viewBox="0 0 1024 1024" version="1.1" xmlns="http://www.w3.org/2000/svg"><path fill="#000000" d="M861.65685 116.91439s0-33.632986-16.999993-46.60998a102.564956 102.564956 0 0 0-23.21899-15.171994v-40.023982a28.682988 28.682988 0 0 0-29.421987-14.804994h-91.391961c-11.530995 3.929998-18.624992 15.546993-16.812993 27.601988v14.796994a235.072899 235.072899 0 0 0-76.030967 33.819985c-49.359979 30.156987-360.806845 222.618904-360.806845 222.618904-48.358979 26.804988-80.015966 76.109967-84.257964 131.234944v486.548791s-14.804994 106.922954 141.828939 106.922954h455.846804s101.624956 8.046997 101.265957-93.21996c-0.375-101.248956 0-813.71365 0-813.71365zM511.999 871.051066c-59.374974 0.719-108.265953-46.46898-109.664953-105.827955 0-58.484975 109.664953-188.985919 109.664953-188.985919s109.656953 130.500944 109.656953 188.985919c-1.389999 59.358974-50.281978 106.546954-109.656953 105.827955z m137.438941-532.791771c-1.624999 15.897993-20.640991 58.851975-52.999977 62.507973l-248.938893 1.640999a25.938989 25.938989 0 0 1-23.75799-18.272992v-12.796995a404.705826 404.705826 0 0 1 47.523979-31.249986l232.125901-147.320937c20.405991-2.835999 39.827983 9.671996 45.70298 29.429988l0.344 116.06195z"  /></svg>