<?xml version="1.0" standalone="no"?><!DOCTYPE svg PUBLIC "-//W3C//DTD SVG 1.1//EN" "http://www.w3.org/Graphics/SVG/1.1/DTD/svg11.dtd"><svg class="icon" width="200px" height="200.00px" viewBox="0 0 1024 1024" version="1.1" xmlns="http://www.w3.org/2000/svg"><path fill="#000000" d="M344.01 698.212h383.057v15.098c10.07-5.043 20.126-8.806 32.71-11.335v17.627c-59.127 18.877-80.518 62.906-79.269 124.563h-18.86V824.04H594.4v8.79c0 3.794 1.265 7.557 1.265 11.335l-17.612 1.25c-2.529-22.64-6.308-45.294-12.584-65.42-5.043-18.877-12.584-35.239-20.141-51.586h-142.19c-10.055 13.849-18.86 31.445-26.417 50.337-7.542 18.876-12.569 41.516-15.099 65.419l-13.849-1.265-13.849 1.265c-2.498-22.639-6.277-45.309-12.569-65.419-5.012-18.892-12.568-35.239-20.125-51.602H157.79c-10.07 13.849-18.876 31.46-26.433 50.321-7.541 18.892-12.554 41.531-15.083 65.435l-8.821-1.264h-8.79v-20.11H73.494V746.02h35.224v-50.321h101.923"  /><path fill="#000000" d="M1015.209 691.92l-10.07-13.834v-1.249h5.027l12.585-26.434-1.265-51.601h0.96v-7.542h-0.96c-8.807-51.586-22.64-101.923-50.322-152.244H752.235l-15.099 28.931v210.139h35.239v40.267c90.573-11.335 138.396 44.029 138.396 119.52h16.347v-12.584h72.992l23.89-28.933v-10.07l-8.791-94.366zM805.07 474.225h113.243v46.574c0 3.778 2.514 6.292 6.292 6.292h22.67c3.764 0 6.277-2.514 6.277-6.292v-37.753c15.098 31.46 23.903 64.17 26.418 99.409l-174.9-22.654v-85.576zM194.278 832.829c-2.514 0-5.027 2.529-5.027 5.043s2.514 5.027 5.027 5.027 5.043-2.514 5.043-5.027c-1.249-2.514-2.529-5.043-5.043-5.043zM199.321 856.749c2.514-2.529 5.027-2.529 7.541 0 2.515 2.514 2.515 5.043 0 7.541-2.514 2.529-5.027 2.529-7.541 0-1.249-2.498-1.249-5.027 0-7.541zM220.696 869.333c0-2.514 2.529-5.043 5.043-5.043 2.498 0 5.027 2.529 5.027 5.043s-2.529 5.027-5.027 5.027c-2.513 0-5.043-2.513-5.043-5.027zM244.615 864.29c-2.529-2.498-2.529-5.027 0-7.541 2.514-2.529 5.027-2.529 7.541 0 2.515 2.514 2.515 5.043 0 7.541-2.513 1.265-5.027 1.265-7.541 0zM257.185 842.899c2.528 0 5.043-2.514 5.043-5.027s-2.515-5.043-5.043-5.043c-2.514 0-5.028 2.529-5.028 5.043s2.514 5.027 5.028 5.027zM250.907 818.996c2.514-2.514 2.514-5.027 0-7.526-2.528-2.529-5.043-2.529-7.557 0-2.528 2.499-2.528 5.013 0 7.526 2.514 1.265 6.293 1.265 7.557 0zM230.767 806.427c0-2.529-2.529-5.043-5.027-5.043-2.514 0-5.043 2.514-5.043 5.043 0 2.514 2.529 5.043 5.043 5.043 2.497 0 5.027-2.53 5.027-5.043zM206.862 811.47c-2.514-2.529-5.027-2.529-7.541 0-2.529 2.499-2.529 5.013 0 7.526 2.514 2.529 5.027 2.529 7.541 0 1.265-2.514 1.265-5.027 0-7.526z"  /><path fill="#000000" d="M296.187 767.41c-18.861-17.612-42.766-28.932-70.447-28.932-27.667 0-52.851 11.319-70.463 28.932-17.611 17.627-28.932 42.795-28.932 70.462 0 27.683 11.32 52.851 28.932 70.463 17.612 17.611 42.796 28.932 70.463 28.932 27.682 0 52.835-11.32 70.447-28.932 17.627-17.612 28.946-42.78 28.946-70.463 0-27.667-11.32-52.835-28.946-70.462z m-41.516 99.409c-7.542 7.541-17.612 12.584-28.932 12.584-11.335 0-21.391-5.043-28.947-12.584-7.541-7.557-12.568-17.612-12.568-28.947 0-11.319 5.027-21.39 12.568-28.932 7.557-7.557 17.612-12.584 28.947-12.584 11.319 0 21.39 5.027 28.932 12.584 7.557 7.542 11.335 17.612 12.584 28.932 0 11.335-5.027 21.391-12.584 28.947zM438.376 832.829c-2.514 0-5.027 2.529-5.027 5.043s2.514 5.027 5.027 5.027 5.043-2.514 5.043-5.027-2.529-5.043-5.043-5.043zM443.419 856.749c2.498-2.529 5.013-2.529 7.541 0 2.514 2.514 2.514 5.043 0 7.541-2.528 2.529-5.043 2.529-7.541 0-1.265-2.498-1.265-5.027 0-7.541zM464.794 869.333c0-2.514 2.528-5.043 5.043-5.043 2.498 0 5.042 2.529 5.042 5.043s-2.544 5.027-5.042 5.027c-2.515 0-5.043-2.513-5.043-5.027zM488.713 864.29c-2.529-2.498-2.529-5.027 0-7.541 2.514-2.529 5.027-2.529 7.541 0 2.529 2.514 2.529 5.043 0 7.541-2.514 1.265-5.027 1.265-7.541 0zM501.282 842.899c2.514 0 5.027-2.514 5.027-5.027s-2.514-5.043-5.027-5.043c-2.499 0-5.028 2.529-5.028 5.043s2.529 5.027 5.028 5.027zM496.254 818.996c2.529-2.514 2.529-5.027 0-7.526-2.514-2.529-5.027-2.529-7.541 0-2.529 2.499-2.529 5.013 0 7.526 2.514 1.265 5.027 1.265 7.541 0zM474.879 806.427c0-2.529-2.544-5.043-5.042-5.043-2.515 0-5.043 2.514-5.043 5.043 0 2.514 2.528 5.043 5.043 5.043 2.498 0 5.042-2.53 5.042-5.043zM450.96 811.47c-2.528-2.529-5.043-2.529-7.541 0-2.529 2.499-2.529 5.013 0 7.526 2.498 2.529 5.013 2.529 7.541 0 1.249-2.514 1.249-5.027 0-7.526z"  /><path fill="#000000" d="M540.299 767.41c-17.611-17.612-42.78-28.932-70.462-28.932-27.683 0-52.851 11.319-70.463 28.932-17.627 17.627-28.946 42.795-28.946 70.462 0 27.683 11.319 52.851 28.946 70.463 17.612 17.611 42.78 28.932 70.463 28.932 27.682 0 52.851-11.32 70.462-28.932 17.612-17.612 28.932-42.78 28.932-70.463-0.001-27.667-11.32-52.835-28.932-70.462z m-41.516 99.409c-7.557 7.541-17.611 12.584-28.946 12.584s-21.405-5.043-28.947-12.584c-7.541-7.557-12.584-17.612-12.584-28.947 0-11.319 5.043-21.39 12.584-28.932 7.542-7.557 17.612-12.584 28.947-12.584s21.39 5.027 28.946 12.584c7.526 7.542 12.569 17.612 12.569 28.932 0.001 11.335-5.042 21.391-12.569 28.947zM762.291 832.829c-2.515 0-5.013 2.529-5.013 5.043s2.498 5.027 5.013 5.027c2.528 0 5.042-2.514 5.042-5.027s-1.265-5.043-5.042-5.043zM768.598 856.749c2.514-2.529 5.013-2.529 7.542 0 2.514 2.514 2.514 5.043 0 7.541-2.529 2.529-5.028 2.529-7.542 0-1.265-2.498-1.265-5.027 0-7.541zM789.973 869.333c0-2.514 2.529-5.043 5.043-5.043s5.027 2.529 5.027 5.043-2.514 5.027-5.027 5.027-5.043-2.513-5.043-5.027zM813.892 864.29c-2.514-2.498-2.514-5.027 0-7.541 2.499-2.529 5.028-2.529 7.542 0 2.529 2.514 2.529 5.043 0 7.541-2.514 1.265-6.292 1.265-7.542 0zM826.477 842.899c2.498 0 5.027-2.514 5.027-5.027s-2.529-5.043-5.027-5.043c-2.514 0-5.043 2.529-5.043 5.043s2.529 5.027 5.043 5.027zM820.169 818.996c2.529-2.514 2.529-5.027 0-7.526-2.514-2.529-5.027-2.529-7.542 0-2.514 2.499-2.514 5.013 0 7.526 2.515 1.265 6.293 1.265 7.542 0zM800.043 806.427c0-2.529-2.514-5.043-5.027-5.043s-5.043 2.514-5.043 5.043c0 2.514 2.529 5.043 5.043 5.043s5.027-2.53 5.027-5.043zM776.14 811.47c-2.529-2.529-5.028-2.529-7.542 0-1.265 2.499-1.265 5.013 0 7.526 2.514 2.529 5.013 2.529 7.542 0 1.263-2.514 1.263-5.027 0-7.526z"  /><path fill="#000000" d="M865.479 767.41c-18.877-17.612-42.78-28.932-70.463-28.932s-52.851 11.319-70.478 28.932c-17.582 17.627-28.932 42.795-28.932 70.462 0 27.683 11.35 52.851 28.932 70.463 17.627 17.611 42.795 28.932 70.478 28.932s52.836-11.32 70.463-28.932c17.611-17.612 28.932-42.78 28.932-70.463-0.001-27.667-11.321-52.835-28.932-70.462z m-41.516 99.409c-7.572 7.541-17.628 12.584-28.947 12.584s-21.405-5.043-28.947-12.584c-7.541-7.557-12.584-17.612-12.584-28.947 0-11.319 5.043-21.39 12.584-28.932 7.542-7.557 17.628-12.584 28.947-12.584s21.375 5.027 28.947 12.584c7.541 7.542 11.319 17.612 12.568 28.932 0 11.335-5.027 21.391-12.568 28.947zM345.152 733.329c-11.693 0-21.23-9.857-20.85-21.559l-155.97-603.144c0-12.097 9.834-21.589 21.611-21.589h80.807c9.903 0 18.679 6.947 20.88 16.485l239.938 599.792c2.56 11.762-4.403 23.462-16.104 26.067-11.738 2.529-23.432-4.448-26.037-16.164L253.543 130.245h-42.727L366.778 711.77c0 12.098-9.887 21.559-21.626 21.559z m0 0"  /><path fill="#000000" d="M220.552 256.956c-7.785 0-14.191-9.521-14.421-21.618 0-12.082 6.636-21.589 14.421-21.589h98.305c8.082 0 14.436 9.857 14.436 21.589 0 12.097-6.604 21.618-14.436 21.618h-98.305z m0 0M262.052 421.008c-8.669 0-15.769-9.872-16.027-21.618 0-12.082 7.358-21.619 16.027-21.619H384.52c8.959 0 16.027 9.903 16.027 21.619 0 12.127-7.358 21.618-16.027 21.618H262.052z m0 0M309.137 584.694c-7.58 0-13.735-9.537-13.986-21.588 0-12.112 6.406-21.649 13.986-21.649h145.411c7.815 0 13.986 9.934 13.986 21.649 0 12.051-6.422 21.588-13.986 21.588H309.137z m0 0M692.308 940.907L267.43 90.345l6.597-7.252 424.877 850.548zM10.245 875L0 873.735l163.206-765.748 10.238 1.28z"  /><path fill="#000000" d="M943.581 931.462L263.072 92.584l8.723-4.388L952.25 927.044z"  /></svg>