<?xml version="1.0" standalone="no"?><!DOCTYPE svg PUBLIC "-//W3C//DTD SVG 1.1//EN" "http://www.w3.org/Graphics/SVG/1.1/DTD/svg11.dtd"><svg class="icon" width="200px" height="200.00px" viewBox="0 0 1024 1024" version="1.1" xmlns="http://www.w3.org/2000/svg"><path fill="#000000" d="M83.6 120.525h206.806V61.44l-29.552 7.383H83.599L61.44 61.44v51.712l22.16 7.373z m228.966 258.519c-22.15 0-22.15-14.766-22.15-14.766v-214.2H61.44v251.125C83.6 585.861 275.64 608.02 275.64 608.02h125.563l-14.766-29.542V415.98l22.16-29.543c-7.394-7.393-73.862-7.393-96.021-7.393z m184.658 0h-73.861v236.36h73.86l-7.372-29.543V408.596l7.373-29.552z m339.763 36.936S696.668 371.66 512 379.044l14.776 29.552v162.489l-7.393 44.319h177.275s22.16 0 29.542 22.159v221.593h236.36V608.02c-7.383 0-7.383-125.562-125.563-192.04z m-81.244 472.719H726.2v73.861l29.543-7.383h177.275l22.159 7.383v-73.861H755.743z" /></svg>