<?xml version="1.0" standalone="no"?><!DOCTYPE svg PUBLIC "-//W3C//DTD SVG 1.1//EN" "http://www.w3.org/Graphics/SVG/1.1/DTD/svg11.dtd"><svg class="icon" width="200px" height="200.00px" viewBox="0 0 1024 1024" version="1.1" xmlns="http://www.w3.org/2000/svg"><path fill="#000000" d="M874.667 170.667H149.333A21.333 21.333 0 0 0 128 192v512a21.333 21.333 0 0 0 21.333 21.333h725.334A21.333 21.333 0 0 0 896 704V192a21.333 21.333 0 0 0-21.333-21.333z m-128 320h-128a21.333 21.333 0 0 1-15.147-6.187l-79.147-79.147a21.333 21.333 0 0 0-28.8-1.28L397.44 485.76a21.333 21.333 0 0 1-13.44 4.907H277.333a21.333 21.333 0 0 1 0-42.667h91.307a21.333 21.333 0 0 0 13.653-4.907l116.054-96.853a21.333 21.333 0 0 1 28.8 1.28l94.08 94.08a21.333 21.333 0 0 0 15.146 6.187h110.294a21.333 21.333 0 0 1 0 42.666z m-7.04 320a21.333 21.333 0 0 1 8.32 1.706 21.333 21.333 0 0 0-8.32-1.706zM760.96 832a21.333 21.333 0 0 1-1.707 8.32 21.333 21.333 0 0 0 0-16.64 21.333 21.333 0 0 1 1.707 8.32z m-21.333 21.333a21.333 21.333 0 0 0 8.32-1.706 21.333 21.333 0 0 1-8.32 1.706z m-469.334 0a21.333 21.333 0 0 1-8.32-1.706 21.333 21.333 0 0 0 8.32 1.706z m-8.32-40.96a21.333 21.333 0 0 0-11.306 11.307 21.333 21.333 0 0 1 11.306-11.307z m8.32-1.706a21.333 21.333 0 0 0-8.32 1.706 21.333 21.333 0 0 1 8.32-1.706z m-19.626 29.653a21.333 21.333 0 0 0 11.306 11.307 21.333 21.333 0 0 1-11.306-11.307zM250.667 823.68a21.333 21.333 0 0 0 0 16.64 21.333 21.333 0 0 1 0-16.64zM759.253 823.68a21.333 21.333 0 0 0-19.626-13.013H270.293a21.333 21.333 0 1 0 0 42.666h469.334a21.333 21.333 0 0 0 19.626-29.653z" /></svg>