<?xml version="1.0" standalone="no"?><!DOCTYPE svg PUBLIC "-//W3C//DTD SVG 1.1//EN" "http://www.w3.org/Graphics/SVG/1.1/DTD/svg11.dtd"><svg class="icon" width="200px" height="200.00px" viewBox="0 0 1024 1024" version="1.1" xmlns="http://www.w3.org/2000/svg"><path fill="#000000" d="M577.278 762.755l-21.021-74.806h-556.257v116.882c0 51.405 42.076 93.464 93.49 93.464h490.806l-4.673-4.656c-35.057-37.403-37.402-93.498-2.345-130.884z m-331.874 65.425h-116.856c-18.701 0-35.058-16.348-35.058-35.058 0-18.692 16.356-35.058 35.058-35.058h116.856c18.701 0 35.058 16.365 35.058 35.058 0 18.71-16.357 35.058-35.058 35.058zM581.969 559.428l151.904-151.93h-733.872v210.336H551.567c4.691-21.021 14.037-42.059 30.402-58.406zM245.404 547.72h-116.856c-18.701 0-35.058-16.348-35.058-35.058 0-18.685 16.356-35.049 35.058-35.049h116.856c18.701 0 35.058 16.365 35.058 35.049 0 18.71-16.357 35.058-35.058 35.058zM818.025 220.527c0-51.422-42.076-93.49-93.498-93.49h-631.037c-51.414 0-93.49 42.067-93.49 93.49v116.855H818.025v-116.855z m-572.621 46.741h-116.856c-18.701 0-35.058-16.356-35.058-35.058 0-18.693 16.356-35.058 35.058-35.058h116.856c18.701 0 35.058 16.365 35.058 35.058 0 18.701-16.357 35.058-35.058 35.058z m327.218 0c-18.71 0-35.058-16.356-35.058-35.058 0-18.693 16.348-35.058 35.058-35.058 18.693 0 35.058 16.365 35.058 35.058 0 18.701-16.365 35.058-35.058 35.058z m116.848 0c-18.693 0-35.058-16.356-35.058-35.058 0-18.693 16.364-35.058 35.058-35.058 18.692 0 35.058 16.365 35.058 35.058-0.001 18.701-16.366 35.058-35.058 35.058z m320.191 362.275L876.432 496.314c-18.692-18.701-46.731-18.701-65.425 0l-32.729 32.712-32.713-32.712-112.191 112.174c-11.691 11.691-16.348 30.401-11.691 46.749l37.402 128.538-28.056 28.057c-9.347 9.347-9.347 23.366 0 32.713l32.729 32.729c9.347 9.346 23.384 9.346 32.73 0l28.039-28.039 128.556 37.385c16.348 4.674 35.058 0 46.731-11.674L1012.005 762.755l-32.729-32.729 32.729-32.712c16.366-21.039 16.366-51.423-2.344-67.771z m-149.577-16.364l-32.712-32.729 32.712-32.729 32.713 32.729-32.713 32.729z m67.77 65.425l-32.713-32.713 32.713-32.712 32.729 32.712-32.729 32.713z"  /></svg>