<?xml version="1.0" standalone="no"?><!DOCTYPE svg PUBLIC "-//W3C//DTD SVG 1.1//EN" "http://www.w3.org/Graphics/SVG/1.1/DTD/svg11.dtd"><svg class="icon" width="200px" height="200.00px" viewBox="0 0 1024 1024" version="1.1" xmlns="http://www.w3.org/2000/svg"><path fill="#000000" d="M1000.962572 358.400333q-7.679996-24.063988-17.407992-47.103977a511.999744 511.999744 0 0 0-47.103976-87.039956Q921.602611 204.80041 907.266618 186.368419A511.999744 511.999744 0 0 0 512.002816 0.000512a511.999744 511.999744 0 0 0-102.399949 10.239995 508.415746 508.415746 0 0 0-140.799929 51.199974A511.999744 511.999744 0 0 0 40.451052 312.832356Q30.723057 335.872344 23.04306 358.400333A511.999744 511.999744 0 0 0 0.003072 512.000256a511.999744 511.999744 0 0 0 23.039988 153.599923q7.679996 24.063988 17.407992 47.103977a511.999744 511.999744 0 0 0 76.799961 126.463936q15.871992 18.943991 33.279984 36.351982a511.999744 511.999744 0 0 0 117.759941 88.063956A508.415746 508.415746 0 0 0 409.602867 1013.760005a511.999744 511.999744 0 0 0 102.399949 10.239995 511.999744 511.999744 0 0 0 471.551764-312.831844q9.727995-23.039988 17.407992-47.103976A511.999744 511.999744 0 0 0 1024.00256 512.000256a511.999744 511.999744 0 0 0-23.039988-153.599923zM512.002816 921.600051h-12.287994a419.83979 419.83979 0 0 1 0-68.607965 335.359832 335.359832 0 0 1 82.943959-143.359929 160.76792 160.76792 0 0 1 57.343971-12.799993 137.215931 137.215931 0 0 0 76.799962-24.063988 48.127976 48.127976 0 0 0 13.311993-45.055978 171.519914 171.519914 0 0 0-79.87196-105.471947 236.031882 236.031882 0 0 0-71.679964-11.263994 307.199846 307.199846 0 0 1-104.447948-19.455991 150.527925 150.527925 0 0 1-26.623987-24.063988 160.76792 160.76792 0 0 0-63.487968-46.079977 73.727963 73.727963 0 0 0-58.879971 15.359993A188.415906 188.415906 0 0 1 204.80297 467.968278a726.527637 726.527637 0 0 1-98.303951-19.96799A409.599795 409.599795 0 0 1 512.002816 102.400461h34.303983a293.887853 293.887853 0 0 0 7.167996 108.031946A102.399949 102.399949 0 0 0 614.402765 256.000384l15.359992 7.167996a121.855939 121.855939 0 0 1 0 63.487969 66.047967 66.047967 0 0 0 0 41.983979 250.879875 250.879875 0 0 0 122.879939 68.607965h11.775994a33.791983 33.791983 0 0 0 24.575988-9.215995 110.591945 110.591945 0 0 0 22.527988-51.199974A65.535967 65.535967 0 0 0 870.402637 368.640328a55.807972 55.807972 0 0 0 12.799993-33.791983A409.599795 409.599795 0 0 1 512.002816 921.600051z"  /></svg>