<?xml version="1.0" standalone="no"?><!DOCTYPE svg PUBLIC "-//W3C//DTD SVG 1.1//EN" "http://www.w3.org/Graphics/SVG/1.1/DTD/svg11.dtd"><svg class="icon" width="200px" height="200.00px" viewBox="0 0 1024 1024" version="1.1" xmlns="http://www.w3.org/2000/svg"><path fill="#000000" d="M361.525 731.01c0 10.486-8.631 19.01-19.155 19.01-10.534 0-18.951-8.523-18.951-19.01 0-10.523 8.417-19.049 18.951-19.049 10.525 0 19.155 8.525 19.155 19.049z"  /><path fill="#000000" d="M342.37 661.922c-38.088 0-69 30.951-69 69.088 0 38.154 30.912 69.01 69 69.01 38.106 0 69.185-30.855 69.185-69.01 0-38.137-31.078-69.088-69.185-69.088z m0 119.01c-27.398 0-49.864-22.389-49.864-49.922 0-27.563 22.466-49.941 49.864-49.941 27.757 0 50.049 22.379 50.049 49.941 0 27.533-22.292 49.922-50.049 49.922z"  /><path fill="#000000" d="M342.37 725.533l-7.719 13.379-51.805-29.883 7.738-13.398z"  /><path fill="#000000" d="M334.651 733.068h15.603v59.805h-15.603z"  /><path fill="#000000" d="M350.254 738.912l-7.884-13.379 51.806-29.902 7.728 13.398zM704.429 731.01c0 10.486-8.447 19.01-18.952 19.01-10.544 0-19.136-8.523-19.136-19.01 0-10.523 8.592-19.049 19.136-19.049 10.504 0 18.952 8.525 18.952 19.049z"  /><path fill="#000000" d="M685.477 661.922c-38.126 0-69.214 30.951-69.214 69.088 0 38.154 31.088 69.01 69.214 69.01 38.088 0 68.99-30.855 68.99-69.01 0-38.137-30.903-69.088-68.99-69.088z m0 119.01c-27.582 0-50.067-22.389-50.067-49.922 0-27.563 22.485-49.941 50.067-49.941 27.544 0 49.835 22.379 49.835 49.941 0 27.533-22.291 49.922-49.835 49.922z"  /><path fill="#000000" d="M685.477 725.533l-7.913 13.379-51.622-29.883 7.739-13.398z"  /><path fill="#000000" d="M677.564 733.068h15.456v59.805h-15.456z"  /><path fill="#000000" d="M693.021 738.912l-7.544-13.379 51.612-29.902 7.727 13.398zM926.71 730.039c0 8.873-7.204 16.039-15.98 16.039-8.942 0-16.146-7.166-16.146-16.039 0-8.855 7.203-16.059 16.146-16.059 8.776 0 15.98 7.204 15.98 16.059z"  /><path fill="#000000" d="M910.729 671.883c-32.301 0-58.301 26.078-58.301 58.156 0 32.154 26 58.174 58.301 58.174 32.155 0 58.126-26.02 58.126-58.174 0-32.078-25.97-58.156-58.126-58.156z m0 100.176c-23.35 0-42.136-18.797-42.136-42.02 0-23.262 18.786-42.039 42.136-42.039 23.185 0 42.136 18.777 42.136 42.039 0 23.223-18.951 42.02-42.136 42.02z"  /><path fill="#000000" d="M910.729 725.438l-6.495 11.281-43.699-25.205 6.495-11.272z"  /><path fill="#000000" d="M904.234 731.807h13.01v50.35h-13.01z"  /><path fill="#000000" d="M917.244 736.719l-6.515-11.281 43.553-25.196 6.495 11.272z"  /><path fill="#000000" d="M128.176 730.039c0 8.873-7.204 16.039-15.99 16.039-8.767 0-15.98-7.166-15.98-16.039 0-8.855 7.214-16.059 15.98-16.059 8.786 0 15.99 7.204 15.99 16.059z"  /><path fill="#000000" d="M112.186 671.883c-32.126 0-58.106 26.078-58.106 58.156 0 32.154 25.98 58.174 58.106 58.174s58.106-26.02 58.106-58.174c0-32.078-25.98-58.156-58.106-58.156z m0 100.176c-23.185 0-42.136-18.797-42.136-42.02 0-23.262 18.951-42.039 42.136-42.039 23.175 0 42.146 18.777 42.146 42.039-0.001 23.223-18.972 42.02-42.146 42.02z"  /><path fill="#000000" d="M112.186 725.438l-6.496 11.281-43.544-25.205 6.496-11.272z"  /><path fill="#000000" d="M105.69 731.807h12.99v50.35h-12.99z"  /><path fill="#000000" d="M118.681 736.719l-6.495-11.281 43.553-25.196 6.67 11.272z"  /><path fill="#000000" d="M361.525 299.699c0 10.533-8.631 19.039-19.155 19.039-10.534 0-18.951-8.506-18.951-19.039 0-10.572 8.417-19.098 18.951-19.098 10.525 0.001 19.155 8.526 19.155 19.098z"  /><path fill="#000000" d="M342.37 230.602c-38.088 0-69 30.951-69 69.098 0 38.145 30.912 69.049 69 69.049 38.106 0 69.185-30.904 69.185-69.049 0-38.147-31.078-69.098-69.185-69.098z m0 119.009c-27.398 0-49.864-22.35-49.864-49.912 0-27.621 22.466-49.912 49.864-49.912 27.757 0 50.049 22.291 50.049 49.912 0 27.563-22.292 49.912-50.049 49.912z"  /><path fill="#000000" d="M342.37 294.213l-7.719 13.379-51.805-29.883 7.738-13.398z"  /><path fill="#000000" d="M334.651 301.748h15.603v59.748h-15.603z"  /><path fill="#000000" d="M350.254 307.592l-7.884-13.379 51.806-29.902 7.728 13.398z"  /><path fill="#000000" d="M704.429 299.699c0 10.533-8.447 19.039-18.952 19.039-10.544 0-19.136-8.506-19.136-19.039 0-10.572 8.592-19.098 19.136-19.098 10.504 0.001 18.952 8.526 18.952 19.098z"  /><path fill="#000000" d="M685.477 230.602c-38.126 0-69.214 30.951-69.214 69.098 0 38.145 31.088 69.049 69.214 69.049 38.088 0 68.99-30.904 68.99-69.049 0-38.147-30.903-69.098-68.99-69.098z m0 119.009c-27.582 0-50.067-22.35-50.067-49.912 0-27.621 22.485-49.912 50.067-49.912 27.544 0 49.835 22.291 49.835 49.912 0 27.563-22.291 49.912-49.835 49.912z"  /><path fill="#000000" d="M685.477 294.213l-7.913 13.379-51.622-29.883 7.739-13.398z"  /><path fill="#000000" d="M677.564 301.748h15.456v59.748h-15.456z"  /><path fill="#000000" d="M693.021 307.592l-7.544-13.379 51.612-29.902 7.727 13.398z"  /><path fill="#000000" d="M526.03 220.213c0 8.428-6.835 15.301-15.262 15.301-8.447 0-15.282-6.873-15.282-15.301 0-8.523 6.835-15.416 15.282-15.416 8.427 0 15.262 6.892 15.262 15.416z"  /><path fill="#000000" d="M510.769 164.543c-30.738 0-55.661 24.895-55.661 55.67 0 30.719 24.923 55.613 55.661 55.613 30.728 0 55.65-24.895 55.65-55.613 0-30.775-24.923-55.67-55.65-55.67z m0 95.924c-22.302 0-40.224-18.049-40.224-40.254 0-22.271 17.922-40.271 40.224-40.271 22.291 0 40.184 18 40.184 40.271-0.001 22.205-17.893 40.254-40.184 40.254z"  /><path fill="#000000" d="M510.769 215.768l-6.166 10.795-41.777-24.096 6.155-10.836z"  /><path fill="#000000" d="M504.603 221.826h12.302v48.193h-12.302z"  /><path fill="#000000" d="M516.904 226.563l-6.135-10.795 41.776-24.137 6.32 10.836z"  /><path fill="#000000" d="M529.895 530.99c0 10.523-8.593 19.088-19.126 19.088-10.369 0-18.962-8.564-18.962-19.088 0-10.543 8.593-19.01 18.962-19.01 10.533 0 19.126 8.467 19.126 19.01z"  /><path fill="#000000" d="M510.769 461.98c-38.107 0-69.01 30.893-69.01 69.01 0 38.184 30.902 69.088 69.01 69.088 38.262 0 69.164-30.904 69.164-69.088 0-38.117-30.903-69.01-69.164-69.01z m0 118.952c-27.408 0-49.894-22.369-49.894-49.941s22.485-49.902 49.894-49.902c27.718 0 50.009 22.33 50.009 49.902s-22.292 49.941-50.009 49.941z"  /><path fill="#000000" d="M510.769 525.504l-7.739 13.428-51.611-29.903 7.543-13.437z"  /><path fill="#000000" d="M503.03 533.049h15.65v59.748h-15.65z"  /><path fill="#000000" d="M518.681 538.932l-7.912-13.428 51.786-29.912 7.912 13.437z"  /><path fill="#000000" d="M510.769 604.641c-18.107 0-34.612-6.621-47.428-17.611V944.7h95.01V587.03c-12.835 10.99-29.321 17.611-47.582 17.611zM510.769 161.477c19.485 0 36.698 9.242 47.582 23.572V79.301h-95.01v105.748c11.078-14.33 28.088-23.572 47.428-23.572zM510.769 281c-19.34 0-36.35-9.232-47.428-23.486v218.914c12.815-10.98 29.32-17.611 47.428-17.611 18.262 0 34.747 6.631 47.582 17.611V257.514C547.467 271.768 530.254 281 510.769 281z"  /><path fill="#000000" d="M611.535 659.418c0 17.553-14.233 31.785-31.786 31.785H441.924c-17.554 0-31.612-14.232-31.612-31.785v-8.602c0-17.555 14.059-31.768 31.612-31.768h137.825c17.553 0 31.786 14.213 31.786 31.768v8.602zM584.312 409.262c0 12.758-10.35 23.176-23.146 23.176H460.535c-12.631 0-23-10.418-23-23.176v-6.271c0-12.777 10.369-23.184 23-23.184h100.631c12.796 0 23.146 10.406 23.146 23.184v6.271zM584.312 138.33c0 12.777-10.35 23.146-23.146 23.146H460.535c-12.631 0-23-10.369-23-23.146v-6.271c0-12.768 10.369-23.088 23-23.088h100.631c12.796 0 23.146 10.32 23.146 23.088v6.271zM611.535 800.193c0 17.516-14.233 31.738-31.786 31.738H441.924c-17.554 0-31.612-14.223-31.612-31.738v-8.641c0-17.572 14.059-31.746 31.612-31.746h137.825c17.553 0 31.786 14.174 31.786 31.746v8.641z"  /><path fill="#000000" d="M615.942 282.33h-203.33a72.204 72.204 0 0 1 2.438 18.602c0 10.271-2.107 20.02-5.98 28.797h210.378c-3.698-8.777-5.961-18.525-5.961-28.797a70.969 70.969 0 0 1 2.455-18.602zM615.942 712.719h-203.33a72.514 72.514 0 0 1 2.438 18.563c0 10.271-2.107 20.02-5.98 28.875h210.378c-3.698-8.855-5.961-18.604-5.961-28.875a71.266 71.266 0 0 1 2.455-18.563zM275.127 329.729c-3.864-8.777-5.98-18.525-5.98-28.797 0-6.465 0.884-12.689 2.485-18.602h-42.495s-27.572-0.543-37.767 7.496c-10.719 7.98-9.67 39.902-9.67 39.902v377.359h-12.263c3.146 7.34 4.719 15.33 4.719 23.709 0 8.426-1.572 16.445-4.719 23.746H273.195a71.077 71.077 0 0 1-4.049-23.746 71.022 71.022 0 0 1 4.049-23.709h-44.058V329.729h45.99zM884.39 541.379h-40.369V215.32h-47.583v67.01h-39.514a70.969 70.969 0 0 1 2.456 18.602c0 10.271-2.098 20.02-5.961 28.797h43.019V707.088h-40.932c2.485 7.455 3.874 15.416 3.874 23.709 0 8.33-1.389 16.291-3.874 23.746h98.505c-2.98-7.301-4.544-15.32-4.544-23.746 0-8.379 1.563-16.369 4.544-23.709h-9.99v-128.35h40.369c9.126 0 16.524-7.359 16.524-16.467v-4.465c0-9.087-7.398-16.427-16.524-16.427zM1000.272 707.088h-32.126c3.146 7.34 4.738 15.33 4.738 23.709 0 8.426-1.593 16.445-4.738 23.746h8.428v190.156h47.427V736.408s0-17.941-5.291-22.428c-6.845-5.709-18.438-6.892-18.438-6.892zM55.457 707.088H0.001v47.455h55.456c-3.136-7.301-4.718-15.32-4.718-23.746 0-8.379 1.582-16.369 4.718-23.709z"  /></svg>