<?xml version="1.0" standalone="no"?><!DOCTYPE svg PUBLIC "-//W3C//DTD SVG 1.1//EN" "http://www.w3.org/Graphics/SVG/1.1/DTD/svg11.dtd"><svg class="icon" width="200px" height="200.00px" viewBox="0 0 1024 1024" version="1.1" xmlns="http://www.w3.org/2000/svg"><path fill="#000000" d="M950.863 438.861c0-242.275-196.546-438.863-438.863-438.863-242.275 0-438.863 196.588-438.863 438.863 0 220.332 162.731 403.248 374.876 434.277l-4.585 77.744H219.41v73.115h585.137v-73.115H582.372l-4.543-77.744c211.203-31.971 373.034-213.945 373.034-434.277zM512 804.566c-202.074 0-365.705-163.631-365.705-365.705 0-202.031 163.631-365.705 365.705-365.705 202.031 0 365.748 163.674 365.748 365.705 0 202.075-163.717 365.705-365.748 365.705z m0-639.994c-151.759 0-274.29 122.53-274.29 274.29 0 151.76 122.53 274.332 274.29 274.332 151.802 0 274.289-122.572 274.289-274.332S663.802 164.572 512 164.572zM402.284 512.02c-60.344 0-109.716-49.372-109.716-109.716s49.372-109.716 109.716-109.716S512 341.96 512 402.304 462.628 512.02 402.284 512.02z"  /></svg>