<?xml version="1.0" standalone="no"?><!DOCTYPE svg PUBLIC "-//W3C//DTD SVG 1.1//EN" "http://www.w3.org/Graphics/SVG/1.1/DTD/svg11.dtd"><svg class="icon" width="200px" height="200.00px" viewBox="0 0 1024 1024" version="1.1" xmlns="http://www.w3.org/2000/svg"><path fill="#000000" d="M948.822 707.349c0 43.069-15.261 79.5-45.761 109.289l-79.14 78.604c-29.796 29.787-66.218 44.685-109.289 44.685-43.431 0-80.041-15.261-109.825-45.761l-110.903-111.442c-29.796-29.787-44.685-66.22-44.685-109.289 0-44.145 15.789-81.646 47.376-112.519l-47.376-47.376c-30.871 31.587-68.198 47.376-111.981 47.376-43.070 0-79.678-15.073-109.826-45.222l-111.981-111.981c-30.149-30.15-45.222-66.758-45.222-109.826s15.25-79.494 45.761-109.289l79.14-78.603c29.787-29.787 66.22-44.685 109.289-44.685 43.421 0 80.032 15.26 109.826 45.761l110.903 111.442c29.786 29.796 44.685 66.218 44.685 109.289 0 44.146-15.799 81.654-47.376 112.519l47.376 47.376c30.862-31.579 68.186-47.376 111.981-47.376 43.070 0 79.679 15.073 109.827 45.222l111.981 111.981c30.144 30.149 45.22 66.757 45.22 109.825zM466.982 327.8c0-14.351-5.031-26.557-15.073-36.608l-110.903-111.442c-10.052-10.045-22.258-15.073-36.608-15.073-13.998 0-26.202 4.846-36.608 14.538l-79.14 78.603c-10.052 10.052-15.074 22.074-15.074 36.074 0 14.358 5.022 26.565 15.074 36.608l111.981 111.981c9.692 9.692 21.889 14.538 36.608 14.538 15.074 0 27.996-5.559 38.761-16.689-1.078-1.076-4.492-4.39-10.229-9.961-5.746-5.559-9.607-9.422-11.575-11.575-1.977-2.153-4.666-5.559-8.077-10.229-3.415-4.66-5.746-9.236-6.997-13.727-1.263-4.483-1.885-9.422-1.885-14.804 0-14.351 5.022-26.557 15.074-36.608 10.045-10.045 22.25-15.073 36.608-15.073 5.383 0 10.314 0.63 14.804 1.883 4.483 1.262 9.060 3.591 13.728 6.997 4.659 3.417 8.075 6.106 10.228 8.077 2.153 1.977 6.005 5.838 11.575 11.575 5.559 5.746 8.881 9.152 9.961 10.228 11.843-11.12 17.766-24.228 17.766-39.3zM845.453 707.349c0-14.352-5.030-26.558-15.073-36.61l-111.981-111.981c-10.052-10.045-22.258-15.073-36.61-15.073-15.073 0-27.996 5.746-38.761 17.227 1.078 1.078 4.483 4.4 10.228 9.961 5.739 5.569 9.596 9.42 11.575 11.574 1.967 2.153 4.66 5.569 8.078 10.229 3.406 4.667 5.735 9.244 6.998 13.727 1.251 4.491 1.882 9.422 1.882 14.804 0 14.358-5.030 26.565-15.073 36.608-10.052 10.051-22.258 15.074-36.61 15.074-5.383 0-10.32-0.622-14.803-1.885-4.492-1.251-9.068-3.584-13.728-6.997-4.666-3.409-8.075-6.098-10.228-8.077-2.153-1.967-6.013-5.829-11.575-11.575-5.568-5.737-8.881-9.152-9.961-10.229-11.844 11.129-17.767 24.229-17.767 39.301 0 14.358 5.022 26.566 15.073 36.61l110.903 111.441c9.691 9.692 21.889 14.538 36.607 14.538 14.351 0 26.559-4.66 36.61-13.998l79.14-78.603c10.047-10.041 15.075-22.070 15.075-36.067z" /></svg>