<?xml version="1.0" standalone="no"?><!DOCTYPE svg PUBLIC "-//W3C//DTD SVG 1.1//EN" "http://www.w3.org/Graphics/SVG/1.1/DTD/svg11.dtd"><svg class="icon" width="200px" height="200.00px" viewBox="0 0 1024 1024" version="1.1" xmlns="http://www.w3.org/2000/svg"><path fill="#000000" d="M73.127 924.363c0 16.282 13.173 29.455 29.455 29.455h382.91a29.455 29.455 0 0 0 29.454-29.455V99.637a29.455 29.455 0 0 0-29.454-29.455h-382.91a29.455 29.455 0 0 0-29.455 29.455v824.726z m265.091-692.18a29.455 29.455 0 0 1 29.455-29.455h29.454a29.455 29.455 0 0 1 29.455 29.455v29.454a29.455 29.455 0 0 1-29.455 29.455h-29.454a29.455 29.455 0 0 1-29.455-29.455v-29.454z m0 198.818a29.455 29.455 0 0 1 29.455-29.455h29.454a29.455 29.455 0 0 1 29.455 29.455v31.909a29.455 29.455 0 0 1-29.455 29.454h-29.454a29.455 29.455 0 0 1-29.455-29.454V431z m0 198.817a29.455 29.455 0 0 1 29.455-29.454h29.454a29.455 29.455 0 0 1 29.455 29.455v29.455a29.455 29.455 0 0 1-29.455 29.454h-29.454a29.455 29.455 0 0 1-29.455-29.454v-29.457zM161.491 232.183a29.455 29.455 0 0 1 29.454-29.456H220.4a29.455 29.455 0 0 1 29.455 29.455v29.455A29.455 29.455 0 0 1 220.4 291.09h-29.455a29.455 29.455 0 0 1-29.454-29.454v-29.455z m0 198.817a29.455 29.455 0 0 1 29.454-29.455H220.4A29.455 29.455 0 0 1 249.855 431v31.909a29.455 29.455 0 0 1-29.455 29.454h-29.455a29.455 29.455 0 0 1-29.454-29.454V431z m0 198.817a29.455 29.455 0 0 1 29.454-29.454H220.4a29.455 29.455 0 0 1 29.455 29.455v29.455a29.455 29.455 0 0 1-29.455 29.454h-29.455a29.455 29.455 0 0 1-29.454-29.454v-29.456z m427.09-139.908a29.455 29.455 0 0 0-29.454 29.454v405c0 16.282 13.173 29.455 29.455 29.455h51.545a29.455 29.455 0 0 0 29.455-29.455V769.237a29.455 29.455 0 0 1 29.455-29.455h117.817a29.455 29.455 0 0 1 29.455 29.455v155.126c0 16.282 13.173 29.455 29.454 29.455h51.546a29.455 29.455 0 0 0 29.454-29.455v-405a29.455 29.455 0 0 0-29.454-29.454H588.582z" /></svg>