<?xml version="1.0" standalone="no"?><!DOCTYPE svg PUBLIC "-//W3C//DTD SVG 1.1//EN" "http://www.w3.org/Graphics/SVG/1.1/DTD/svg11.dtd"><svg class="icon" width="200px" height="200.00px" viewBox="0 0 1024 1024" version="1.1" xmlns="http://www.w3.org/2000/svg"><path fill="#000000" d="M742.3 211.9c-1.9-9.3-10.1-15.9-19.6-15.9H613c-11 0-20 9-20 20v78.4c0 11-9 20-20 20h-55c-11 0-20-9-20-20V216c0-11-9-20-20-20H368.2c-9.5 0-17.6 6.6-19.6 15.9L132.1 961.7c0 0.1 0.1 0.3 0.2 0.3H478c11 0 20-9 20-20V745.4c0-11 9-20 20-20h55c11 0 20 9 20 20V942c0 11 9 20 20 20h345.7c0.1 0 0.2-0.1 0.2-0.3L742.3 211.9zM593 585.4c0 11-9 20-20 20h-55c-11 0-20-9-20-20v-131c0-11 9-20 20-20h55c11 0 20 9 20 20v131zM312.2 206.3c-0.5-70.2-59.6-126.7-129.7-124.2-67.1 2.4-120.7 57.5-120.7 125.1 0 15.4 2.8 30.1 7.8 43.7h-0.7l2.2 3.8c4.3 10.4 9.9 20 16.6 28.8L146 384.4c18.2 31.5 63.6 31.5 81.8 0l57.6-99.8c7.3-9.3 13.4-19.7 17.8-30.9l1.6-2.7h-0.5c5.2-14 8-29 7.9-44.7z m-124 58.8c-29.4 0-53.2-23.8-53.2-53.2s23.8-53.2 53.2-53.2 53.2 23.8 53.2 53.2-23.9 53.2-53.2 53.2z" /></svg>