<?xml version="1.0" standalone="no"?><!DOCTYPE svg PUBLIC "-//W3C//DTD SVG 1.1//EN" "http://www.w3.org/Graphics/SVG/1.1/DTD/svg11.dtd"><svg class="icon" width="200px" height="200.00px" viewBox="0 0 1024 1024" version="1.1" xmlns="http://www.w3.org/2000/svg"><path fill="#000000" d="M768 192h-42.667A21.333 21.333 0 0 0 704 213.333v64a21.333 21.333 0 0 1-21.333 21.334H341.333A21.333 21.333 0 0 1 320 277.333v-64A21.333 21.333 0 0 0 298.667 192H256a42.667 42.667 0 0 0-42.667 42.667v576A42.667 42.667 0 0 0 256 853.333h512a42.667 42.667 0 0 0 42.667-42.666v-576A42.667 42.667 0 0 0 768 192zM554.667 618.667H341.333a21.333 21.333 0 0 1 0-42.667h213.334a21.333 21.333 0 0 1 0 42.667z m0-85.334H341.333a21.333 21.333 0 0 1 0-42.666h213.334a21.333 21.333 0 0 1 0 42.666z m128-85.333H341.333a21.333 21.333 0 0 1 0-42.667h341.334a21.333 21.333 0 0 1 0 42.667zM384 149.333h256q21.333 0 21.333 21.334v64Q661.333 256 640 256H384q-21.333 0-21.333-21.333v-64q0-21.334 21.333-21.334z" /></svg>