<?xml version="1.0" standalone="no"?><!DOCTYPE svg PUBLIC "-//W3C//DTD SVG 1.1//EN" "http://www.w3.org/Graphics/SVG/1.1/DTD/svg11.dtd"><svg class="icon" width="200px" height="200.00px" viewBox="0 0 1024 1024" version="1.1" xmlns="http://www.w3.org/2000/svg"><path fill="#000000" d="M466.56 870.72h-16a16 16 0 0 0-16 16v16a16 16 0 0 0 16 16h16a16.32 16.32 0 0 0 16-16v-16a16 16 0 0 0-16-16z m-96 0h-16a16 16 0 0 0-16 16v16a16 16 0 0 0 16 16h16a16.32 16.32 0 0 0 16-16v-16a16 16 0 0 0-16-16z m-96 0h-16a16 16 0 0 0-16 16v16a16 16 0 0 0 16 16h16a16.32 16.32 0 0 0 16-16v-16a16 16 0 0 0-16-16z m-96 0h-16a16 16 0 0 0-16 16v16a16 16 0 0 0 16 16h16a16.32 16.32 0 0 0 16-16v-16a16 16 0 0 0-16-16zM90.56 120.64h128v-80a16 16 0 0 1 16-16h2.88l496 96a15.68 15.68 0 0 1 13.12 15.36v64a16.32 16.32 0 0 1-16 16v112h32a16 16 0 0 1 16 16v48h32a16 16 0 0 1 16 16v128a16.32 16.32 0 0 1-16 16h-192a16 16 0 0 1-16-16v-128a16 16 0 0 1 16-16h32v-48a16 16 0 0 1 16-16h32V216.64h-301.44l90.88 592h34.56a16 16 0 0 1 16 16v144a16.32 16.32 0 0 1-16 16H90.56a16 16 0 0 1-16-16v-144a16 16 0 0 1 16-16H124.8l91.2-592H90.56a16 16 0 0 1-16-16v-64a16 16 0 0 1 16-16z m160-60.8v60.8h312.96z m384 364.8v96h160v-96z m48-64v32h64v-32z m-284.48 72L224 519.68 424.96 608zM256 313.92l132.8 66.56-17.6-114.56z m110.4-80.64l-2.56-16.64H248L237.12 288z m-260.8 608v112h400v-112z m50.56-32h298.88l-23.68-152.64L160 800z m7.36-48l241.28-128L198.08 544z m41.28-267.52l168.96-84.48-144-72.96zM106.56 184.64h608v-32h-608zM522.56 992H90.56a24 24 0 0 1-24-24v-144a23.68 23.68 0 0 1 24-24h27.2L206.4 224H90.56a24 24 0 0 1-24-24v-64a23.68 23.68 0 0 1 24-24h120V40.64a23.68 23.68 0 0 1 24-24h4.48l502.4 96a24.32 24.32 0 0 1 13.12 21.12v64a24 24 0 0 1-16 22.4V320h24a24 24 0 0 1 24 24V384h24a24 24 0 0 1 24 24v128a24.32 24.32 0 0 1-24 24h-192a24 24 0 0 1-24-24v-128a23.68 23.68 0 0 1 24-24h24v-39.36a23.68 23.68 0 0 1 24-24h24V224H406.4l88.64 576h27.52a24 24 0 0 1 24 24v144a24.32 24.32 0 0 1-24 24z m-432-176a8 8 0 0 0-8 8v144a8 8 0 0 0 8 8h432a8 8 0 0 0 8-8v-144a8 8 0 0 0-8-8H480l-93.44-608h320v128h-40a8 8 0 0 0-8 8v56h-40a8 8 0 0 0-8 8v128a8 8 0 0 0 8 8h192a8 8 0 0 0 8-8v-128a8 8 0 0 0-8-8h-40v-55.36a8 8 0 0 0-8-8h-40v-128h8a8 8 0 0 0 8-8v-64a8 8 0 0 0-6.72-8.64h-6.4L235.84 32a8 8 0 0 0-9.28 8V128H90.56a8 8 0 0 0-8 8v64a8 8 0 0 0 8 8H224l-93.76 608zM514.56 960h-416v-128h416z m-400-16h384v-96h-384z m352-128H147.52l3.84-21.76 3.52-1.92 283.84-149.44zM174.72 800H448l-20.16-132.48z m-20.48-25.28L192 531.52l232.32 101.76z m50.24-220.8l-29.76 192 212.48-111.68z m230.4 66.24l-229.44-99.84 198.72-99.52z m-192-101.44L416 594.56l-23.04-149.76z m559.36 9.28h-176V416h176z m-160-16h144v-80h-144z m-448-5.44l29.76-182.4 168.96 84.48z m40.64-160L216 480l140.8-70.4z m518.4 52.48h-80V352h80z m-64-16h48v-16h-48z m-290.56 9.92L237.76 313.28 378.56 256zM276.16 314.56l103.36 51.84-13.76-88.96zM227.2 300.16l14.08-91.52h130.24l4.48 29.44zM256 224l-8.64 50.56 111.04-46.4v-3.52z m466.56-32H98.56V144.64h624z m-608-16h592V160H114.56z m448-48h-320V50.24l322.56 64z m-304.96-16H480L258.56 69.76zM826.24 640v181.76h-196.16V640h196.16m12.8-25.92h-221.76a13.12 13.12 0 0 0-13.12 13.12v207.36a13.12 13.12 0 0 0 13.12 13.12h221.76a13.12 13.12 0 0 0 13.12-13.12v-208.32a13.12 13.12 0 0 0-13.12-13.12zM969.92 884.16h-82.88c-12.8 0-22.08-14.08-22.08-34.24v-110.4c0-20.16 9.28-34.24 22.08-34.24h43.52a19.2 19.2 0 0 1 15.68 9.28l39.36 59.2a44.8 44.8 0 0 1 6.4 26.24v51.52c0 18.56-8.96 32.64-22.08 32.64z m-79.68-23.04h76.48a26.88 26.88 0 0 0 1.92-11.2V800a28.16 28.16 0 0 0-2.24-11.84L928 728.64h-37.76a26.24 26.24 0 0 0-1.92 10.88v110.4a26.88 26.88 0 0 0 1.92 11.2zM937.6 800h-32c-6.08 0-10.56-5.76-10.56-13.44v-32c0-7.68 4.48-13.44 10.56-13.44h16.32a9.28 9.28 0 0 1 7.04 3.52l14.72 17.92a13.44 13.44 0 0 1 3.2 9.6v15.36c0.96 5.44-3.52 12.48-9.28 12.48z m-28.48-13.12h25.92v-15.36l-13.76-16.32h-11.84v32zM682.24 963.52a52.16 52.16 0 1 1 51.84-52.16 52.16 52.16 0 0 1-51.84 52.16z m0-78.08a26.24 26.24 0 1 0 25.92 25.92 26.24 26.24 0 0 0-25.92-25.92zM902.72 963.52a52.16 52.16 0 1 1 51.84-52.16 52.16 52.16 0 0 1-51.84 52.16z m0-78.08a26.24 26.24 0 1 0 25.92 25.92 26.24 26.24 0 0 0-25.92-25.92zM651.84 663.04m11.84 0l2.24 0q11.84 0 11.84 11.84l0 105.92q0 11.84-11.84 11.84l-2.24 0q-11.84 0-11.84-11.84l0-105.92q0-11.84 11.84-11.84ZM710.08 663.04m11.84 0l2.24 0q11.84 0 11.84 11.84l0 105.92q0 11.84-11.84 11.84l-2.24 0q-11.84 0-11.84-11.84l0-105.92q0-11.84 11.84-11.84ZM775.04 663.04m11.84 0l2.24 0q11.84 0 11.84 11.84l0 105.92q0 11.84-11.84 11.84l-2.24 0q-11.84 0-11.84-11.84l0-105.92q0-11.84 11.84-11.84ZM922.56 853.76m0 11.84l0 2.24q0 11.84-11.84 11.84l-314.56 0q-11.84 0-11.84-11.84l0-2.24q0-11.84 11.84-11.84l314.56 0q11.84 0 11.84 11.84Z" /></svg>