<?xml version="1.0" standalone="no"?><!DOCTYPE svg PUBLIC "-//W3C//DTD SVG 1.1//EN" "http://www.w3.org/Graphics/SVG/1.1/DTD/svg11.dtd"><svg class="icon" width="200px" height="200.00px" viewBox="0 0 1024 1024" version="1.1" xmlns="http://www.w3.org/2000/svg"><path fill="#000000" d="M804.352 951.101q-292.571-1.829-585.265 0-292.571 1.463-144.847-248.93t292.571-502.735q144.848-252.343 289.695 0 144.847 251.977 292.571 502.735t-144.725 248.93z m-292.4-669.989a45.056 45.056 0 0 0-46.325 43.642l23.211 310.37a33.987 33.987 0 0 0 23.186 38.522 33.987 33.987 0 0 0 23.211-38.522l23.21-310.37a45.056 45.056 0 0 0-46.494-43.642z m0.219 461.776h-0.415a46.324 46.324 0 0 0 0 92.403h0.415a46.324 46.324 0 0 0 0-92.403z"  /></svg>