<?xml version="1.0" standalone="no"?><!DOCTYPE svg PUBLIC "-//W3C//DTD SVG 1.1//EN" "http://www.w3.org/Graphics/SVG/1.1/DTD/svg11.dtd"><svg class="icon" width="200px" height="200.00px" viewBox="0 0 1024 1024" version="1.1" xmlns="http://www.w3.org/2000/svg"><path fill="#000000" d="M960 758h-74.7L649.2 446l-33.5-169H704v-64h-63V105h-97V64h-64v41h-95v108h-65v64h89.3l-33.2 167.6L138.9 758H64v64h71.5v138h45V822h663v138h45V822H960v-64z m-114.8 0H711.1l-47.6-240.1L845.2 758zM467.9 310.7l22.4 22.4-33.5 33.5 11.1-55.9zM387 758l128.6-85.8L639 758H387z m157.3-104.9l71.3-47.6L638 718.3l-93.7-65.2z m37.5-217.8l-68.1 42.6-70.8-41.3 2.7-13.6 67.3-67.3 66.2 66.1 2.7 13.5z m6.7 33.5l11.8 59.5-55.3-32.2 43.5-27.3z m-105.4 28.3l-59.6 37.3 12.8-64.5 46.8 27.2z m31.2 18.2l94.3 54.9 0.3 1.3-92.9 62-90.2-62.8 88.5-55.4z m21.3-182.2l21.7-21.7 10.7 54.1-32.4-32.4z m10.8-56.1l-33.5 33.5-33.5-33.5h67zM410.7 599.2l76.8 53.4-100.7 67.2 23.9-120.6zM577 169v31h-33v-31h33z m-128 0h31v31h-31v-31z m-87.2 347.4L313.9 758H179l182.8-241.6z"  /></svg>