<?xml version="1.0" standalone="no"?><!DOCTYPE svg PUBLIC "-//W3C//DTD SVG 1.1//EN" "http://www.w3.org/Graphics/SVG/1.1/DTD/svg11.dtd"><svg class="icon" width="200px" height="200.00px" viewBox="0 0 1024 1024" version="1.1" xmlns="http://www.w3.org/2000/svg"><path fill="#000000" d="M546.127 716.768v-341.3c-37.655 0-68.26 27.731-68.26 62.078v217.262c0 34.229 30.497 61.96 68.26 61.96z m34.13-341.301h307.17v47.462h-307.17v-47.462z m0 183.982h307.17v68.26h-307.17v-68.26z m0-102.389h307.17v68.26h-307.17v-68.26z m409.56 197.63V437.545c0-34.238-30.614-62.078-68.261-62.078v341.3c37.748 0.001 68.261-27.73 68.261-62.077z m-341.3-313.353h170.65c18.882 0 34.13-15.249 34.13-34.13v-68.26h-238.91v68.26c0 18.882 15.249 34.13 34.13 34.13z m-375.43-136.52h68.26v-68.26h-68.26v-68.26h-68.26v68.26h-68.26v68.26h136.52z"  /><path fill="#000000" d="M853.297 819.157v-68.26h34.13V661.84h-307.17v89.058h34.13v68.26h-341.3v-170.65h68.26v-68.261h34.13v34.13h68.26V477.857h-68.26v34.13h-34.13v-68.26h-68.26v-136.52h68.26v-68.26h-204.78v68.26h68.26v136.52h-34.13v204.78h34.13v102.39h-136.52c-37.655 0-68.26 30.613-68.26 68.26v136.521h1024V819.157h-170.75z m-68.26 0H682.646v-68.26h102.391v68.26z"  /><path fill="#000000" d="M136.567 648.508v-204.78c-37.655 0-68.26 30.614-68.26 68.26h-68.26v68.26h68.26c0 37.763 30.497 68.26 68.26 68.26z"  /></svg>