<?xml version="1.0" standalone="no"?><!DOCTYPE svg PUBLIC "-//W3C//DTD SVG 1.1//EN" "http://www.w3.org/Graphics/SVG/1.1/DTD/svg11.dtd"><svg class="icon" width="200px" height="200.00px" viewBox="0 0 1024 1024" version="1.1" xmlns="http://www.w3.org/2000/svg"><path fill="#000000" d="M471.04 678.4a192 192 0 0 1 301.44-130.56 10.667 10.667 0 0 0 16.853-8.533v-368.64A42.667 42.667 0 0 0 746.667 128H256a42.667 42.667 0 0 0-42.667 42.667v640A42.667 42.667 0 0 0 256 853.333h257.92a10.667 10.667 0 0 0 7.467-18.133 192 192 0 0 1-50.347-156.8zM336 298.667h256a21.333 21.333 0 0 1 0 42.666H336a21.333 21.333 0 0 1 0-42.666zM336 448a21.333 21.333 0 0 1 0-42.667h128A21.333 21.333 0 0 1 464 448zM789.333 627.413A147.84 147.84 0 1 0 810.667 704a149.333 149.333 0 0 0-21.334-76.587z m-42.666 119.254h-85.334A21.333 21.333 0 0 1 640 725.333V640a21.333 21.333 0 0 1 42.667 0v64h64a21.333 21.333 0 0 1 0 42.667z" /></svg>