<?xml version="1.0" standalone="no"?><!DOCTYPE svg PUBLIC "-//W3C//DTD SVG 1.1//EN" "http://www.w3.org/Graphics/SVG/1.1/DTD/svg11.dtd"><svg class="icon" width="200px" height="200.00px" viewBox="0 0 1024 1024" version="1.1" xmlns="http://www.w3.org/2000/svg"><path fill="#000000" d="M512.239 0C273.412 0 80.005 26.996 80.005 215.5v538.991c0 47.682 21.051 89.989 53.969 119.67v95.993c0 29.68 24.373 53.835 53.973 53.835h42.498c29.916 0 53.974-24.153 53.974-53.835v-53.84h455.164v53.84c0 29.835 24.22 53.835 53.975 53.835h42.497c29.756 0 53.975-24.316 53.975-53.835v-95.992c32.915-29.682 53.965-71.989 53.965-119.67V215.5C944.31 26.996 750.905 0 512.239 0z m-256.75 787.348c-33.168 0-60.005-26.768-60.005-59.853 0-33.082 26.838-59.853 60.005-59.853 33.164 0 60.001 26.771 60.001 59.853 0 33.084-26.838 59.853-60.001 59.853z m513.499 0c-33.167 0-60.005-26.768-60.005-59.853 0-33.082 26.838-59.853 60.005-59.853 33.164 0 60.001 26.771 60.001 59.853 0 33.084-26.837 59.853-60.001 59.853z m67.383-302.352H188.102V215.5h648.269v269.496z" /></svg>