<?xml version="1.0" standalone="no"?><!DOCTYPE svg PUBLIC "-//W3C//DTD SVG 1.1//EN" "http://www.w3.org/Graphics/SVG/1.1/DTD/svg11.dtd"><svg class="icon" width="200px" height="200.00px" viewBox="0 0 1024 1024" version="1.1" xmlns="http://www.w3.org/2000/svg"><path fill="#000000" d="M833.35 833.35a24.72 24.72 0 0 1 0 49.439h-642.7a24.72 24.72 0 0 1 0-49.439h642.7z m24.72-692.139a49.438 49.438 0 0 1 49.438 49.439v543.823a49.438 49.438 0 0 1-49.439 49.439H165.931a49.438 49.438 0 0 1-49.439-49.439V190.65a49.438 49.438 0 0 1 49.439-49.439h692.138zM551.401 303.37a24.72 24.72 0 0 0-30.528 12.137l-1.162 2.645-86.517 237.725-73.02-87.012a24.942 24.942 0 0 0-2.942-2.966 24.72 24.72 0 0 0-38.018-1.681l-1.953 2.422-85.06 121.495a24.72 24.72 0 0 0 38.563 30.776l1.928-2.423 66.767-95.416 78.854 93.958 0.742 0.692a24.72 24.72 0 0 0 44.519 0.742l1.162-2.645 87.036-239.209 134.794 160.725a24.72 24.72 0 0 0 37.722 4.969l2.15-2.225 63.554-75.765a24.72 24.72 0 0 0-35.72-34.038l-2.15 2.25-44.446 52.948-141.913-169.129a25.955 25.955 0 0 0-4.128-3.93 24.596 24.596 0 0 0-10.234-7.02z" /></svg>