<?xml version="1.0" standalone="no"?><!DOCTYPE svg PUBLIC "-//W3C//DTD SVG 1.1//EN" "http://www.w3.org/Graphics/SVG/1.1/DTD/svg11.dtd"><svg class="icon" width="200px" height="200.00px" viewBox="0 0 1024 1024" version="1.1" xmlns="http://www.w3.org/2000/svg"><path fill="#000000" d="M1024 872.002h-85.396l-269.81-356.581-38.281-193.155h100.899v-73.111h-71.985V125.708H548.564V78.862H475.43v46.846H366.855v123.446h-74.297v73.111h102.073l-37.956 191.568L85.604 872.002H0v73.136h1024v-73.136z m-131.204 0H739.532L685.138 597.59l207.658 274.412zM461.589 360.809l25.607 25.564-38.28 38.295 12.673-63.859z m-92.45 511.193l146.976-98.089 141.03 98.089H369.139z m179.77-119.885l81.49-54.404 25.582 128.916-107.072-74.512z m42.853-248.911l-77.823 48.674-80.906-47.213 3.081-15.554 76.92-76.913 75.637 75.55 3.091 15.456z m7.662 38.278l13.475 67.999-63.188-36.825 49.713-31.174z m-120.469 32.36l-68.109 42.612 14.633-73.719 53.476 31.107z m35.656 20.761l107.803 62.745 0.334 1.498-106.183 70.856-103.084-71.76 101.13-63.339z m24.345-208.232l24.82-24.796 12.215 61.842-37.035-37.046z m12.36-64.107l-38.283 38.29-38.286-38.29h76.569zM396.221 690.504l87.784 61.039-115.115 76.774 27.331-137.813z m190.035-491.66v35.429h-37.691v-35.429h37.691z m-146.254 0h35.429v35.429h-35.429v-35.429z m-99.676 397.032l-54.735 276.126H131.428l208.898-276.126z m0 0"  /></svg>