<?xml version="1.0" standalone="no"?><!DOCTYPE svg PUBLIC "-//W3C//DTD SVG 1.1//EN" "http://www.w3.org/Graphics/SVG/1.1/DTD/svg11.dtd"><svg class="icon" width="200px" height="200.00px" viewBox="0 0 1024 1024" version="1.1" xmlns="http://www.w3.org/2000/svg"><path d="M61.44 225.28a122.88 122.88 0 0 1 122.88-122.88h195.13344a81.92 81.92 0 0 1 73.27744 45.28128L512 266.24h327.68a122.88 122.88 0 0 1 122.88 122.88v409.6a122.88 122.88 0 0 1-122.88 122.88H184.32a122.88 122.88 0 0 1-122.88-122.88V225.28z" fill="#131415" /><path d="M215.04 430.08h593.92a30.72 30.72 0 0 1 0 61.44h-593.92a30.72 30.72 0 0 1 0-61.44z" fill="#FFFFFF" /></svg>