<?xml version="1.0" standalone="no"?><!DOCTYPE svg PUBLIC "-//W3C//DTD SVG 1.1//EN" "http://www.w3.org/Graphics/SVG/1.1/DTD/svg11.dtd"><svg class="icon" width="200px" height="200.00px" viewBox="0 0 1024 1024" version="1.1" xmlns="http://www.w3.org/2000/svg"><path fill="#000000" d="M739.627 810.667a21.333 21.333 0 0 1 8.32 1.706 21.333 21.333 0 0 0-8.32-1.706zM760.96 832a21.333 21.333 0 0 1-1.707 8.32 21.333 21.333 0 0 0 0-16.64 21.333 21.333 0 0 1 1.707 8.32z m-21.333 21.333a21.333 21.333 0 0 0 8.32-1.706 21.333 21.333 0 0 1-8.32 1.706z m-469.334 0a21.333 21.333 0 0 1-8.32-1.706 21.333 21.333 0 0 0 8.32 1.706z m0-42.666a21.333 21.333 0 0 0-8.32 1.706 21.333 21.333 0 0 1 8.32-1.706zM250.667 823.68a21.333 21.333 0 0 0 0 16.64 21.333 21.333 0 0 1 0-16.64zM759.253 823.68a21.333 21.333 0 0 0-19.626-13.013H270.293a21.333 21.333 0 1 0 0 42.666h469.334a21.333 21.333 0 0 0 19.626-29.653z m115.414-653.013H149.333A21.333 21.333 0 0 0 128 192v512a21.333 21.333 0 0 0 21.333 21.333h725.334A21.333 21.333 0 0 0 896 704V192a21.333 21.333 0 0 0-21.333-21.333zM393.813 553.6q-96-4.907-100.053-103.893 4.907-101.974 100.907-106.667 93.013 5.973 100.053 106.667-4.053 98.773-100.907 103.893z m302.294-2.987l-21.334-55.04h-90.666l-21.334 55.04h-33.706l81.92-205.013h36.906l81.92 205.013zM635.093 386.56a70.827 70.827 0 0 1-4.906-14.08l-5.974 17.92q0 1.92-30.933 80h75.093q-30.08-78.08-30.933-80a16.427 16.427 0 0 0-2.347-3.84z m-241.28-17.067q-64 4.907-66.986 80 2.986 74.027 65.92 78.934 64-2.987 66.986-78.934-2.986-75.093-65.92-80z" /></svg>