<?xml version="1.0" standalone="no"?><!DOCTYPE svg PUBLIC "-//W3C//DTD SVG 1.1//EN" "http://www.w3.org/Graphics/SVG/1.1/DTD/svg11.dtd"><svg class="icon" width="200px" height="175.04px" viewBox="0 0 1170 1024" version="1.1" xmlns="http://www.w3.org/2000/svg"><path fill="#000000" d="M474.227 345.533H716.58v284.482H474.227V345.533zM553.25 249.983h84.306v86.654H553.25v-86.654zM70.76 700.277v214.085h151.046V686.189c0-58.658 37.93-106.658 84.306-106.658h151.046V395.79H311.35c-132.307 0-240.59 137.003-240.59 304.486zM878.146 395.791H732.383v183.74H883.43c46.375 0 84.306 48 84.306 106.658v228.173h151.046V700.277c-0.045-167.483-108.329-304.486-240.636-304.486zM446.998 142.377l3.116 2.935a26.957 26.957 0 0 0 4.515 4.29l93.022 87.647h95.233l90.493-88.731c0.858-0.723 1.67-1.536 2.483-2.394l3.793-3.702h-0.903c3.522-5.374 5.6-12.238 5.6-19.733 0-17.115-11.064-31.113-24.565-31.113H466.912c-13.502 0-24.565 13.998-24.565 31.113 0 7.45 2.122 14.36 5.6 19.733h-0.949z m190.558 50.89l-8.67-14.45h-67.914l-7.677 14.45-35.99-28.9h150.64l-30.39 28.9zM473.55 108.33h137.364c3.432 0 6.231 3.567 6.231 7.902s-2.8 7.903-6.231 7.903H473.55c-3.432 0-6.232-3.568-6.232-7.903-0.045-4.335 2.755-7.902 6.232-7.902z" /></svg>