<?xml version="1.0" standalone="no"?><!DOCTYPE svg PUBLIC "-//W3C//DTD SVG 1.1//EN" "http://www.w3.org/Graphics/SVG/1.1/DTD/svg11.dtd"><svg class="icon" width="200px" height="200.00px" viewBox="0 0 1024 1024" version="1.1" xmlns="http://www.w3.org/2000/svg"><path fill="#000000" d="M882.631 697.288h-52.875V432.575c0-157.613-114.975-288.169-265.668-312.975 0.168-1.575 0.843-3.038 0.843-4.669C564.931 85.681 541.306 62 512 62c-29.25 0-52.931 23.681-52.931 52.931 0 1.632 0.787 3.038 0.956 4.669-150.637 24.806-265.613 155.306-265.613 312.975v264.713h-52.987c-29.25 0-52.931 23.68-52.931 52.93s23.681 52.876 52.931 52.876h741.15c29.25 0 52.875-23.682 52.875-52.875 0.056-29.25-23.625-52.932-52.819-52.932zM512 962c58.5 0 105.919-47.419 105.919-105.862H406.137C406.137 914.58 453.557 962 512 962z" /></svg>