<?xml version="1.0" standalone="no"?><!DOCTYPE svg PUBLIC "-//W3C//DTD SVG 1.1//EN" "http://www.w3.org/Graphics/SVG/1.1/DTD/svg11.dtd"><svg class="icon" width="200px" height="200.00px" viewBox="0 0 1024 1024" version="1.1" xmlns="http://www.w3.org/2000/svg"><path fill="#000000" d="M985.3 336.1h-63.6c-7.6 0-13.7 6.1-13.7 13.7l-8.4 34.6c-7.2-5.5-15.5-9.7-24.4-12.4l-42.8-151.1c-9.1-32.2-40-54.8-75.1-54.8H271.4c-35.1 0-66 22.5-75.1 54.8l-42.7 150.9c-10.6 3-20.3 8.3-28.4 15.3l-9.1-37.4c0-7.6-6.1-13.7-13.7-13.7H38.7c-7.6 0-13.7 6.1-13.7 13.7v33.1c0 7.6 6.1 13.7 13.7 13.7l69.5 11.3c-6 10.9-9.5 23.3-9.5 36.6v285.5h-0.3l0.4 80.8c0 30.6 23.8 55.6 52.9 55.6H268c29.2 0 52.9-25 52.9-55.6l-0.3-49.6h386.8l0.3 49.7c0 30.6 23.8 55.6 52.9 55.6H877c29.2 0 52.9-25 52.9-55.6l-0.4-81.1h-0.1V444.5c0-13.5-3.6-26.2-9.9-37.2l65.7-10.7c7.6 0 13.7-6.1 13.7-13.7v-33.1c0.1-7.6-6-13.7-13.6-13.7z m-228-105.9c6.4 0 12.2 3.5 13.6 8.2l37 130.5h-587l37-130.5m90.2 324.8h-98.2c-5.3 0-9.9-4-10.6-9.3l-5.9-42.5c-0.9-6.4 4.1-12.2 10.6-12.2h95.8c5.1 0 9.5 3.7 10.5 8.7l8.3 42.5c1.3 6.6-3.7 12.8-10.5 12.8z m342.9 0c-6.7 0-11.8-6.2-10.5-12.8l8.3-42.5c0.9-5.1 5.4-8.7 10.5-8.7h95.8c6.5 0 11.5 5.8 10.6 12.2l-5.9 42.5c-0.7 5.3-5.2 9.3-10.6 9.3H691z" /></svg>