<?xml version="1.0" standalone="no"?><!DOCTYPE svg PUBLIC "-//W3C//DTD SVG 1.1//EN" "http://www.w3.org/Graphics/SVG/1.1/DTD/svg11.dtd"><svg class="icon" width="200px" height="200.00px" viewBox="0 0 1024 1024" version="1.1" xmlns="http://www.w3.org/2000/svg"><path fill="#000000" d="M512 512a153.6 153.6 0 0 0 153.6-153.6V153.6a153.6 153.6 0 0 0-307.2 0v204.8a153.6 153.6 0 0 0 153.6 153.6z"  /><path fill="#000000" d="M870.4 358.4V256h-102.4v102.4A256 256 0 0 1 256 358.4V256H153.6v102.4a358.4 358.4 0 0 0 307.2 354.304V921.6H256v102.4h512v-102.4h-204.8v-208.896A358.4 358.4 0 0 0 870.4 358.4z"  /></svg>