<?xml version="1.0" standalone="no"?><!DOCTYPE svg PUBLIC "-//W3C//DTD SVG 1.1//EN" "http://www.w3.org/Graphics/SVG/1.1/DTD/svg11.dtd"><svg class="icon" width="200px" height="200.00px" viewBox="0 0 1024 1024" version="1.1" xmlns="http://www.w3.org/2000/svg"><path d="M903.456 728.672h-19.36v-113.248h19.36c31.04 0 56.448 25.44 56.544 56.64 0 31.2-25.504 56.64-56.544 56.64z m0-440.672c31.04 0 56.448 25.536 56.544 56.64 0 31.2-25.504 56.64-56.544 56.64h-19.36V288.032h19.36zM64 344.64C64 313.536 89.504 288 120.544 288h16v113.248h-16A56.768 56.768 0 0 1 64 344.608z m0 327.392c0-31.2 25.504-56.64 56.544-56.64h16v113.248h-16A56.768 56.768 0 0 1 64 672z" opacity=".5" /><path d="M224 144A48 48 0 0 1 272 192v640a48 48 0 0 1-96 0V192A48 48 0 0 1 224 144z m144 0A48 48 0 0 1 416 192v640a48 48 0 0 1-96 0V192a48 48 0 0 1 48-48z m144 0A48 48 0 0 1 560 192v640a48 48 0 0 1-96 0V192A48 48 0 0 1 512 144z m144 0A48 48 0 0 1 704 192v640a48 48 0 0 1-96 0V192a48 48 0 0 1 48-48z m144 0A48 48 0 0 1 848 192v640a48 48 0 0 1-96 0V192A48 48 0 0 1 800 144z"  /></svg>