<?xml version="1.0" standalone="no"?><!DOCTYPE svg PUBLIC "-//W3C//DTD SVG 1.1//EN" "http://www.w3.org/Graphics/SVG/1.1/DTD/svg11.dtd"><svg class="icon" width="200px" height="200.00px" viewBox="0 0 1024 1024" version="1.1" xmlns="http://www.w3.org/2000/svg"><path fill="#000000" d="M880.695 243.951v379.75c65.268-14.579 114.097-72.744 114.097-142.408V386.36c-0.019-69.664-48.829-127.811-114.097-142.409z m-740.112 0.723c-63.887 15.565-111.372 73.008-111.372 141.695V481.312c0 68.687 47.485 126.139 111.372 141.676v-378.314z m706.559-4.377h-538.589v-29.214h5.899c13.264 0 24.01-7.412 24.01-16.533v-10.765c0-9.121-10.747-16.533-24.01-16.533h-110.414c-13.264 0-24.001 7.412-24.001 16.533v10.765c0 9.112 10.747 16.533 24.001 16.533h5.918v29.214h-34.691c-1.851 0-3.635 0.216-5.467 0.272v386.514c1.832 0.057 3.626 0.264 5.467 0.264h671.877c0.92 0 1.822-0.132 2.742-0.15v-386.749c-0.92-0.02-1.822-0.151-2.742-0.151z"  /><path fill="#000000" d="M742.308 272.264v62.074h-82.139v-62.074h-31.037v323.144h31.037v-93.11h82.139v93.11h31.036v-323.134h-31.036v-0.01z m0 198.996h-82.139v-37.425h82.139V471.26z m0-68.461h-82.139v-37.425h82.139v37.425zM959.114 656.579h-895.813v52.605h55.705c-24.997 12.775-42.15 38.702-42.15 68.687 0 42.647 34.569 77.217 77.207 77.217 42.638 0 77.198-34.569 77.198-77.217 0-29.984-17.144-55.93-42.131-68.687h84.271c-24.978 12.775-42.131 38.702-42.131 68.687 0 42.647 34.569 77.217 77.198 77.217 42.647 0 77.207-34.569 77.207-77.217 0-29.984-17.153-55.93-42.131-68.687h57.396v55.986h232.25v-55.986h51.027c-26.49 12.23-44.884 38.946-44.884 70.039 0 42.629 34.569 77.217 77.198 77.217s77.179-34.588 77.179-77.217c0-31.074-18.412-57.809-44.864-70.039h89.766c-26.471 12.23-44.883 38.946-44.883 70.039 0 42.629 34.55 77.217 77.197 77.217s77.217-34.588 77.217-77.217c0-31.074-18.412-57.809-44.902-70.039h55.912v-52.605h-0.039z"  /></svg>