<?xml version="1.0" standalone="no"?><!DOCTYPE svg PUBLIC "-//W3C//DTD SVG 1.1//EN" "http://www.w3.org/Graphics/SVG/1.1/DTD/svg11.dtd"><svg class="icon" width="200px" height="141.44px" viewBox="0 0 1448 1024" version="1.1" xmlns="http://www.w3.org/2000/svg"><path fill="#000000" d="M365.701999 666.21065v15.137242c1.892155 45.927768 40.251302 82.050731 86.179069 81.19066 46.099782 0.860071 84.286914-35.090879 86.17907-81.19066v-15.137242c0.688056-5.504452-1.204099-11.180917-4.988409-15.137242-10.492861-24.081975-30.790526-42.487485-55.732572-50.744162-7.740635-4.128339-16.513355-5.84848-25.286075-4.988409-8.77272-1.376113-17.717453 0.516042-25.286074 4.988409-24.942046 8.256677-45.239711 26.662187-55.732572 50.744162-4.300353 3.956325-6.020494 9.460776-5.332437 15.137242z m50.572148 15.137242c-0.688056-5.504452 1.204099-11.180917 4.98841-15.137242l15.137241-15.137242c5.676466-4.644381 13.073072-6.536536 20.297665-4.988409 7.224593-0.688056 14.277171 1.032085 20.297666 4.988409l15.137241 15.137242c0 4.988409 4.988409 10.148833 4.988409 15.137242 0.516042 19.093566-14.449185 34.918864-33.370737 35.434907h-2.064169c-20.641693 4.300353-40.767344-9.116748-44.895683-29.586427-0.172014-1.892155-0.344028-3.78431-0.516043-5.84848zM304.809004 585.01999v81.19066c-0.860071 7.568621 4.472367 14.277171 12.040988 15.137242 1.032085 0.172014 2.236183 0.172014 3.268268 0h20.297665v-15.137242c-0.688056-5.504452 1.204099-11.180917 4.988409-15.137242 7.052579-19.781623 19.26558-37.327062 35.434907-50.744162 7.740635-6.192508 16.341341-11.352931 25.286074-15.137242 6.020494-3.956325 13.073072-5.84848 20.297665-4.988409h40.59533c6.880564 1.032085 13.761129 2.752226 20.297665 4.988409 9.116748 3.956325 17.545439 9.116748 25.286074 15.137242 14.621199 14.793214 26.662187 31.994625 35.434907 50.744162 6.70855 1.892155 10.836889 8.428691 10.148833 15.137242v15.137242h243.57198v-15.137242c-0.688056-5.504452 1.204099-11.180917 4.988409-15.137242 7.052579-19.781623 19.26558-37.327062 35.434907-50.744162 4.816395-6.192508 12.385016-9.976818 20.297665-10.148833H538.060138l-4.988409-4.988409V321.150344c-1.892155-6.70855-8.428691-10.836889-15.137242-10.148832h-131.934823c-4.128339-0.516042-8.084663 1.548127-10.148832 4.988409-43.51957 34.058794-67.945574 86.867126-65.881405 142.083655v121.785991c-0.172014-4.988409-5.160423 0-5.160423 5.160423z m40.59533-152.232488c2.580212-35.262893 18.921552-68.117588 45.583739-91.339493h111.637158v91.339493h-157.220897z m481.811524 233.423148v15.137242c0 47.647909 38.703175 86.179069 86.179069 86.179069 47.647909 0 86.179069-38.531161 86.179069-86.179069v-15.137242c0.688056-5.504452-1.204099-11.180917-4.988409-15.137242-10.492861-24.081975-30.790526-42.487485-55.732572-50.744162-7.740635-4.128339-16.513355-5.84848-25.286074-4.988409-8.77272-1.376113-17.717453 0.516042-25.286074 4.988409-24.942046 8.256677-45.239711 26.662187-55.732572 50.744162-4.128339 3.956325-6.020494 9.460776-5.332437 15.137242z m50.744162 15.137242c-0.688056-5.504452 1.204099-11.180917 4.988409-15.137242l15.137242-15.137242c5.676466-4.644381 13.073072-6.536536 20.297665-4.988409 7.224593-0.688056 14.277171 1.032085 20.297665 4.988409l15.137242 15.137242c0 4.988409 4.988409 10.148833 4.988409 15.137242 0.516042 19.093566-14.449185 34.918864-33.370737 35.434907h-2.06417c-20.641693 4.300353-40.767344-9.116748-44.895683-29.586427-0.172014-1.892155-0.344028-3.78431-0.516042-5.84848z m86.351084-91.339493c-3.956325-0.344028-7.568621-2.236183-10.148833-4.988409h116.625567v81.19066c0.860071 7.568621-4.472367 14.277171-12.040988 15.137242-1.032085 0.172014-2.236183 0.172014-3.268268 0H1020.043675v-15.137242c0.688056-5.504452-1.204099-11.180917-4.988409-15.137242-7.052579-19.781623-19.26558-37.327062-35.434907-50.744162-2.92424-6.192508-8.77272-10.148833-15.309255-10.320847zM563.518226 539.264237V224.822442c-0.860071-13.073072 9.116748-24.426004 22.18982-25.286074h500.217034c13.073072-0.860071 24.426004 9.116748 25.286074 22.18982V539.264237c0.860071 13.073072-9.116748 24.426004-22.18982 25.286074H588.8043c-13.073072 0.860071-24.426004-9.116748-25.286074-22.18982-0.172014-1.032085-0.172014-2.064169 0-3.096254z" /></svg>