<?xml version="1.0" standalone="no"?><!DOCTYPE svg PUBLIC "-//W3C//DTD SVG 1.1//EN" "http://www.w3.org/Graphics/SVG/1.1/DTD/svg11.dtd"><svg class="icon" width="200px" height="200.00px" viewBox="0 0 1024 1024" version="1.1" xmlns="http://www.w3.org/2000/svg"><path fill="#000000" d="M333.8 904.46a24.36 24.36 0 0 1 0-48.69h346.5a24.36 24.36 0 0 1 0 48.69z m465.54-783.75H214.73a97.44 97.44 0 0 0-97.44 97.44v450a97.44 97.44 0 0 0 97.44 97.409h584.611a97.44 97.44 0 0 0 97.41-97.5V218.15a97.47 97.47 0 0 0-97.44-97.44z m-35.58 199.17L575.93 540.86a27.69 27.69 0 0 1-2.55 2.73 34.11 34.11 0 0 1-48.21-1.35L419.12 429.95 285.23 551.36a24.33 24.33 0 0 1-32.73-36L396.98 384.2a34.14 34.14 0 0 1 47.76 1.8l104.641 111L726.65 288.32a24.36 24.36 0 0 1 37.11 31.56z m0 0" /></svg>