<?xml version="1.0" standalone="no"?><!DOCTYPE svg PUBLIC "-//W3C//DTD SVG 1.1//EN" "http://www.w3.org/Graphics/SVG/1.1/DTD/svg11.dtd"><svg class="icon" width="200px" height="200.00px" viewBox="0 0 1024 1024" version="1.1" xmlns="http://www.w3.org/2000/svg"><path fill="#000000" d="M467.058 497.115a63.641 63.641 0 0 0 65.14 8.985 32.944 32.944 0 0 0 11.23-5.99l393.828-350.402a45.672 45.672 0 0 0 23.21-38.185 45.672 45.672 0 0 0-17.22-34.44 62.144 62.144 0 0 0-79.365 0L511.233 394.54 158.585 77.082a62.144 62.144 0 0 0-79.364-1.497 42.677 42.677 0 0 0 0 67.385z"  /><path fill="#000000" d="M863.88 527.813l-352.647 315.96-352.648-317.458a62.144 62.144 0 0 0-79.364 0 42.677 42.677 0 0 0 0 67.385l390.084 354.145a63.641 63.641 0 0 0 65.138 8.985 32.944 32.944 0 0 0 11.231-5.99L939.502 600.44a45.672 45.672 0 0 0 20.964-39.683 45.672 45.672 0 0 0-17.22-34.44 62.144 62.144 0 0 0-79.365 1.497z"  /></svg>