<?xml version="1.0" standalone="no"?><!DOCTYPE svg PUBLIC "-//W3C//DTD SVG 1.1//EN" "http://www.w3.org/Graphics/SVG/1.1/DTD/svg11.dtd"><svg class="icon" width="200px" height="200.00px" viewBox="0 0 1024 1024" version="1.1" xmlns="http://www.w3.org/2000/svg"><path fill="#000000" d="M936.209 885.797V260.536c0-77.347-60.672-70.953-60.672-70.953H541.795c-18.152 0-30.288-12.891-30.288-12.891s-12.136-25.781-36.403-70.948c-24.27-51.564-60.674-45.171-60.674-45.171H159.608c-72.808 0.099-72.808 83.84-72.808 83.84v741.285c0 90.238 60.673 77.348 60.673 77.348h740.199c60.672 0.097 48.537-77.249 48.537-77.249z m-151.633 25.781H238.434c-48.539 0-90.961-45.166-90.961-96.73V370.054c0-51.558 42.422-96.731 90.961-96.731h539.931c48.539 0 90.961 45.173 90.961 96.731v444.794h0.111c0.001 51.564-36.324 96.73-84.861 96.73zM296.625 696.019c-0.085-5.793 0.331-12.251-0.665-18.709-0.331-1.985-0.58-3.974-0.91-5.958-0.496-2.816-0.496-2.98 2.4-3.809 8.03-2.317 16.145-4.637 24.172-6.955 15.979-4.552 31.872-9.104 47.847-13.657 28.643-8.197 57.285-16.31 85.928-24.503 17.631-5.05 35.183-10.1 52.814-15.232 2.317-0.662 4.468-0.746 6.872-0.083 33.277 9.686 66.472 19.206 99.749 28.809a58526.82 58526.82 0 0 1 62.498 17.881c16.06 4.634 32.037 9.271 48.014 13.905 0.331 0.084 0.743 0.167 1.077 0.331 1.655 0.58 1.821 0.911 1.487 2.649-0.494 2.567-1.24 5.134-1.571 7.781-0.495 4.222-0.993 8.527-0.91 12.75v8.772c0.082 3.561 0.248 7.119 0.248 10.597 0 7.864-0.082 15.812-1.987 23.594-2.07 8.361-6.373 15.231-12.995 20.694-5.711 4.72-12.418 7.45-19.289 10.1-7.532 2.896-15.313 5.214-23.095 7.699-3.809 1.157-7.534 2.732-11.258 4.305-10.018 4.221-17.799 11.174-24.42 19.701-4.141 5.296-8.03 10.844-12.004 16.306-4.305 6.046-8.858 11.839-14.072 17.054-4.306 4.306-9.271 7.616-14.985 9.851-2.233 0.911-4.47 1.408-6.953 1.326-2.73-0.082-5.463-0.167-8.194 0-6.624 0.497-12.83-0.995-19.039-2.898-9.19-2.898-18.295-6.042-27.651-8.691-6.87-1.988-13.823-3.147-21.024-2.649-4.969 0.33-9.686 1.491-14.486 2.73-10.597 2.732-20.943 6.293-31.458 9.356-8.443 2.401-17.135 2.565-25.746 2.07-4.47-0.249-8.609-2.319-12.416-4.637-6.54-3.974-11.756-9.438-16.473-15.398-5.135-6.538-9.851-13.326-14.734-20.032-2.983-4.056-6.045-8.028-9.357-11.755-5.96-6.54-13.243-11.342-21.44-14.734a167.286 167.286 0 0 0-11.339-4.058c-8.776-2.814-17.468-5.794-25.911-9.354-6.209-2.567-11.838-6.127-16.639-10.761-5.63-5.546-8.692-12.416-10.347-20.115-1.738-7.947-1.905-16.06-1.986-24.172 0.248-3.23 0.248-6.292 0.248-10.101z m169.534-105.463c0 3.81-2.152 6.87-6.127 8.527-5.545 2.319-11.174 4.471-16.722 6.787-21.936 8.857-43.956 17.716-65.892 26.572-26.573 10.762-53.228 21.441-79.883 32.203-0.579 0.249-1.159 0.415-1.821 0.66-1.16 0.498-1.988 0.168-2.4-0.991-4.886-12.501-13.66-22.517-21.192-33.362-4.14-5.876-8.031-11.92-11.01-18.543-3.063-6.953-3.974-14.154-3.312-21.604 0.332-3.478 1.323-6.789 2.565-10.016 3.147-8.195 7.865-15.398 12.834-22.518 4.055-5.794 8.361-11.506 12.249-17.466 2.485-3.727 4.637-7.617 6.625-11.671 1.572-3.23 1.572-3.23 4.884-2.152 12.749 4.303 25.58 8.607 38.326 12.914 26.574 8.939 53.146 17.879 79.801 26.818 14.734 4.968 29.553 9.936 44.287 14.984 4.305 1.656 6.788 4.8 6.788 8.858z m300.08 5.548c-0.58 5.629-1.739 11.092-3.976 16.391-3.227 7.532-7.863 14.155-12.582 20.776-3.891 5.38-7.945 10.68-11.587 16.225-2.98 4.471-5.713 9.107-7.7 14.157-0.992 2.401-1.077 2.401-3.395 1.49-29.221-11.839-58.443-23.677-87.58-35.596-20.2-8.197-40.399-16.31-60.514-24.503l-15.149-6.209c-3.146-1.326-4.965-3.642-5.382-7.037-0.579-4.471 1.739-8.112 6.291-9.686l24.834-8.442 115.977-39.24c7.287-2.482 14.488-4.965 21.772-7.365 2.648-0.91 2.73-0.91 3.89 1.738 3.892 8.525 9.438 15.977 14.819 23.592 4.635 6.457 9.189 12.915 13.162 19.785 3.891 6.871 6.124 14.155 7.283 21.854a15.252 15.252 0 0 0-0.163 2.07z m-290.147-38.41c0.082 5.794-5.214 10.015-10.925 8.524-21.441-5.381-42.964-10.761-64.405-16.225-32.945-8.277-65.892-16.554-98.84-24.917-1.489-0.413-2.978-0.744-4.47-1.159-2.565-0.744-2.647-0.908-2.07-3.394 0.829-3.56 1.493-7.12 1.906-10.765 0.497-4.968 0.662-10.015 0.829-14.983 0.164-6.042 0-12.002 0.164-18.046 0.166-6.29 0.828-12.5 2.236-18.709 2.896-12.418 10.431-21.192 21.605-27.068 5.38-2.816 11.01-4.885 16.639-6.789 7.202-2.481 14.653-4.469 21.772-7.201 4.553-1.738 9.023-3.478 13.162-5.961 2.067-1.241 2.233-1.159 3.724 0.911 5.793 8.361 11.59 16.804 17.383 25.165 20.282 29.471 40.646 58.94 60.928 88.414l18.129 26.324c1.241 1.822 2.151 3.643 2.233 5.879z m71.852-0.828c-0.082-1.905 0.58-3.642 1.657-5.298a59669.766 59669.766 0 0 0 61.755-89.489c11.342-16.476 22.766-33.031 34.105-49.504 0.247-0.331 0.413-0.579 0.662-0.911 1.324-1.821 1.408-1.903 3.312-0.828 4.719 2.732 9.684 4.719 14.734 6.54 6.707 2.319 13.492 4.47 20.199 6.707 6.622 2.234 13.244 4.716 19.286 8.194 11.342 6.541 17.799 16.391 19.951 29.138 1.159 6.54 1.656 13.162 1.656 19.868 0 8.279-0.084 16.556 0.58 24.834 0.331 4.639 0.91 9.275 2.152 13.745 0.91 3.147 0.743 3.312-2.401 4.056-22.185 5.547-44.371 11.01-66.556 16.475-22.848 5.712-45.778 11.424-68.624 17.135-10.516 2.65-21.11 5.051-31.541 7.863-5.958 1.739-11.172-3.311-10.927-8.525z m30.464-207.451c8.941-0.167 16.64 3.145 23.593 8.774 4.968 4.057 9.107 8.94 12.998 13.99 5.794 7.366 10.843 15.314 16.722 22.598 3.312 4.14 6.786 8.112 10.927 11.426 2.317 1.82 2.317 1.985 0.415 4.303-7.45 9.19-14.984 18.379-22.435 27.566-17.219 21.192-34.521 42.384-51.737 63.576-11.01 13.497-22.103 26.908-32.948 40.483-2.4 2.979-6.124 4.554-9.934 3.478-3.642-1.077-6.124-4.389-6.373-8.692-0.249-4.054-0.249-8.194-0.497-12.251-0.413-7.369-0.413-14.737-0.744-22.106-0.415-10.264-0.829-20.53-1.159-30.876-0.331-8.776-0.664-17.468-1.077-26.16-0.412-10.016-0.743-20.033-1.159-30.048-0.331-9.108-0.661-18.212-1.074-27.319-0.334-6.209-0.334-12.334-0.746-18.543-0.413-5.296-0.499-5.05 4.718-5.546 6.125-0.497 12.004-2.235 17.797-4.057 8.279-2.564 16.392-5.629 24.752-7.863 5.877-1.576 11.671-2.818 17.961-2.733z m-68.375 21.769c-0.497 11.341-0.91 22.766-1.325 34.105-0.331 9.52-0.745 19.123-1.074 28.642-0.581 14.819-1.159 29.636-1.658 44.454-0.331 9.271-0.743 18.542-1.077 27.814-0.329 9.937-0.825 19.873-1.074 29.724 0 0.906-0.166 1.82-0.33 2.73-0.746 3.642-2.898 6.042-6.542 6.953-3.641 0.828-6.702-0.167-9.021-3.063-3.147-3.809-6.21-7.617-9.357-11.424-19.122-23.432-38.244-46.858-57.282-70.286-13.577-16.637-27.153-33.358-40.73-49.999-0.331-0.413-0.662-0.911-0.993-1.323-0.829-0.913-0.744-1.739 0.249-2.568 9.023-7.201 15.314-16.722 22.02-25.993 5.05-6.953 10.016-13.909 16.225-19.867 4.304-4.139 9.105-7.535 14.734-9.687 7.038-2.649 14.321-2.564 21.524-1.324 7.285 1.242 14.321 3.561 21.274 5.877 8.03 2.733 16.061 5.464 24.339 7.119 2.318 0.5 4.67 0.831 7.035 0.993 2.731 0.167 2.98 0.498 2.98 3.065 0.083 1.493 0.083 2.734 0.083 4.058z m0 0" /></svg>