<?xml version="1.0" standalone="no"?><!DOCTYPE svg PUBLIC "-//W3C//DTD SVG 1.1//EN" "http://www.w3.org/Graphics/SVG/1.1/DTD/svg11.dtd"><svg class="icon" width="200px" height="200.00px" viewBox="0 0 1024 1024" version="1.1" xmlns="http://www.w3.org/2000/svg"><path fill="#000000" d="M103.93 743.124c-10.705-11.36-28.837-11.797-39.978-0.874-11.36 10.704-11.796 28.836-0.874 39.977l85.634 89.784c10.704 11.36 28.836 11.797 39.977 0.874 11.36-10.704 11.797-28.836 0.874-39.977l-85.634-89.784z m652.3-4.37h-54.613l-120.586-151.17 212.774-207.53c12.015-11.578 12.233-30.802 0.437-42.817L614.236 152.426c-11.796-12.015-30.802-12.234-42.817-0.437L92.351 618.605c-12.015 11.578-12.233 30.802-0.437 42.817L271.92 846.234c11.578 12.015 30.802 12.233 42.817 0.437l209.06-203.599 126.702 158.816c1.093 1.31 2.185 2.621 3.496 3.713 5.461 7.428 14.418 12.452 24.466 12.452h77.77v-79.298z m182.41 0H824.606v79.08h114.032c16.821 0 30.365-13.543 30.365-30.364V768.9c0-16.602-13.544-30.146-30.365-30.146z m0 0" /></svg>