<?xml version="1.0" standalone="no"?><!DOCTYPE svg PUBLIC "-//W3C//DTD SVG 1.1//EN" "http://www.w3.org/Graphics/SVG/1.1/DTD/svg11.dtd"><svg class="icon" width="200px" height="200.00px" viewBox="0 0 1024 1024" version="1.1" xmlns="http://www.w3.org/2000/svg"><path fill="#000000" d="M768 746.667h-85.333a21.333 21.333 0 0 1-21.334-21.334v-12.8a21.333 21.333 0 0 1 13.227-19.626 96 96 0 1 0-69.12 0 21.333 21.333 0 0 1 13.227 19.626v12.8a21.333 21.333 0 0 1-21.334 21.334H490.667A21.333 21.333 0 0 0 469.333 768v64a21.333 21.333 0 0 0 21.334 21.333H768A21.333 21.333 0 0 0 789.333 832v-64A21.333 21.333 0 0 0 768 746.667zM746.667 128H256a42.667 42.667 0 0 0-42.667 42.667v640A42.667 42.667 0 0 0 256 853.333h170.667V768a64 64 0 0 1 64-64h29.866a10.667 10.667 0 0 0 8.32-17.28A138.667 138.667 0 1 1 775.893 576a6.613 6.613 0 0 0 13.44 0V170.667A42.667 42.667 0 0 0 746.667 128zM485.333 448h-128A21.333 21.333 0 0 1 336 426.667a21.333 21.333 0 0 1 21.333-21.334h128a21.333 21.333 0 0 1 21.334 21.334A21.333 21.333 0 0 1 485.333 448z m128-106.667h-256A21.333 21.333 0 0 1 336 320a21.333 21.333 0 0 1 21.333-21.333h256A21.333 21.333 0 0 1 634.667 320a21.333 21.333 0 0 1-21.334 21.333z" /></svg>