<?xml version="1.0" standalone="no"?><!DOCTYPE svg PUBLIC "-//W3C//DTD SVG 1.1//EN" "http://www.w3.org/Graphics/SVG/1.1/DTD/svg11.dtd"><svg class="icon" width="200px" height="200.00px" viewBox="0 0 1024 1024" version="1.1" xmlns="http://www.w3.org/2000/svg"><path fill="#000000" d="M849.1 127.7H177c-26.5 0-48 21.5-48 48V720c0 26.5 21.5 48 48 48h280.9l-8.8 97.2h-32.3c-17.5 0-31.8 14.2-31.8 31.8 0 17.5 14.2 31.8 31.8 31.8h190.8c17.6 0 31.8-14.2 31.8-31.8 0-17.5-14.2-31.8-31.8-31.8H577l-8.8-97.2h280.9c26.5 0 48-21.4 47.9-47.9V175.7c0.1-26.5-21.4-48-47.9-48zM476 703.8c0-20.2 16.4-36.6 36.6-36.6 20.2 0 36.6 16.4 36.6 36.6s-16.4 36.6-36.6 36.6c-20.3 0-36.6-16.4-36.6-36.6z m356.2-63.9H193V191.8h639.2v448.1z" /></svg>