<?xml version="1.0" standalone="no"?><!DOCTYPE svg PUBLIC "-//W3C//DTD SVG 1.1//EN" "http://www.w3.org/Graphics/SVG/1.1/DTD/svg11.dtd"><svg class="icon" width="200px" height="196.73px" viewBox="0 0 1041 1024" version="1.1" xmlns="http://www.w3.org/2000/svg"><path fill="#000000" d="M78.054 972.676l87.304-501H51.271v60.892H15.8V435.96L169.137 312.32v-73.18H51.34v60.874h-35.54V203.53L169.137 79.766V53.99c0-32.062 27.224-53.62 57.661-53.849L362.99 0c30.508 0 58.21 21.998 58.21 53.99v26.094l153.458 123.763v96.22h-35.663v-60.875H421.199v73.375l153.46 123.64v62.128h-35.664v-26.712H424.942l4.697 26.712h-94.897l26.66-26.712H228.898l66.207 66.03 20.604-20.374v62.005l-20.586-10.31-92.39 91.947 92.39 109.339 29.307-34.604h7.769v25.105l-22.51 26.59 22.51 26.588v34.357l-37.076-43.68L153.07 972.695h201.746V517.261h623.051V972.66h63.788V1024H0v-51.324h78.054zM192.07 682.778l-45.869 263.698 134.41-159.108-88.541-104.554z m32.238-184.32l-23.128 132.767 78.247-77.912-55.119-54.855z m7.503-91.824l50.282-71.203-50.282-71.257v142.46z m63.806-90.518l54.237-76.924H241.364l54.254 76.924z m62.853-50.635l-49.276 69.897 49.293 69.879V265.48z m-62.853 89.088l-57.29 81.39h114.705l-57.415-81.39zM231.812 178.74l48.058-48.199-48.058-48.163v96.362z m63.806-63.982l51.836-51.942-103.813-0.123 51.995 52.065z m62.853-31.391l-47.104 47.227 47.121 47.21V83.368z m-62.853 62.94l-57.044 57.168h114.088l-57.044-57.168z m125.6 209.002v80.702h100.016L421.217 355.31zM68.695 435.96h100.37v-80.914l-100.37 80.896z m352.521-313.08v80.578h100.017L421.217 122.88zM68.82 203.458h100.246V122.65L68.82 203.476z m370.988 774.18h172.615V721.46H439.79v256.194z m342.74-256.195h-88.1v87.57h88.1v-87.57z m115.747 0h-88.117v87.57h88.1v-87.57zM782.548 837.791h-88.1v87.605h88.1v-87.587z m115.747 0h-88.117v87.605h88.1v-87.587z m38.647-232.713h-518.48v29.36h518.48v-29.36z m0-46.557h-518.48v29.396h518.48V558.54z" /></svg>