<?xml version="1.0" standalone="no"?><!DOCTYPE svg PUBLIC "-//W3C//DTD SVG 1.1//EN" "http://www.w3.org/Graphics/SVG/1.1/DTD/svg11.dtd"><svg class="icon" width="200px" height="200.00px" viewBox="0 0 1024 1024" version="1.1" xmlns="http://www.w3.org/2000/svg"><path fill="#000000" d="M885.3504 263.168H138.6496c-22.9376 0-41.3696-18.6368-41.3696-41.5744 0-22.9376 18.6368-41.3696 41.3696-41.5744h746.496c22.9376 0 41.3696 18.6368 41.3696 41.5744 0.2048 22.9376-18.432 41.5744-41.1648 41.5744z m0 290.4064H138.6496c-22.9376 0-41.5744-18.6368-41.5744-41.5744 0-22.9376 18.6368-41.5744 41.5744-41.5744h746.496a41.5744 41.5744 0 1 1 0.2048 83.1488z m0 290.2016H138.6496c-22.9376 0-41.3696-18.6368-41.3696-41.5744 0-22.9376 18.6368-41.3696 41.3696-41.5744h746.496c22.9376 0 41.3696 18.6368 41.3696 41.5744 0.2048 22.9376-18.432 41.5744-41.1648 41.5744z m0 0M346.112 97.28c-68.8128 0-124.5184 55.7056-124.5184 124.5184s55.7056 124.5184 124.5184 124.5184 124.5184-55.7056 124.5184-124.5184c-0.2048-68.8128-55.9104-124.5184-124.5184-124.5184zM346.112 677.888c-68.8128 0-124.5184 55.7056-124.5184 124.5184s55.7056 124.5184 124.5184 124.5184 124.5184-55.7056 124.5184-124.5184-55.9104-124.5184-124.5184-124.5184zM677.888 387.4816c-68.8128 0-124.5184 55.7056-124.5184 124.5184s55.7056 124.5184 124.5184 124.5184 124.5184-55.7056 124.5184-124.5184-55.7056-124.5184-124.5184-124.5184z" /></svg>