<?xml version="1.0" standalone="no"?><!DOCTYPE svg PUBLIC "-//W3C//DTD SVG 1.1//EN" "http://www.w3.org/Graphics/SVG/1.1/DTD/svg11.dtd"><svg class="icon" width="200px" height="200.00px" viewBox="0 0 1024 1024" version="1.1" xmlns="http://www.w3.org/2000/svg"><path fill="#000000" d="M298.667 138.667h10.666a160 160 0 0 1 160 160v170.666H298.667a160 160 0 0 1-160-160v-10.666a160 160 0 0 1 160-160z m426.666 330.666H554.667V298.667a160 160 0 0 1 160-160h10.666a160 160 0 0 1 160 160v10.666a160 160 0 0 1-160 160z m-426.666 85.334h170.666v170.666a160 160 0 0 1-160 160h-10.666a160 160 0 0 1-160-160v-10.666a160 160 0 0 1 160-160z m426.666 330.666h-10.666a160 160 0 0 1-160-160V554.667h170.666a160 160 0 0 1 160 160v10.666a160 160 0 0 1-160 160z" /></svg>