<?xml version="1.0" standalone="no"?><!DOCTYPE svg PUBLIC "-//W3C//DTD SVG 1.1//EN" "http://www.w3.org/Graphics/SVG/1.1/DTD/svg11.dtd"><svg class="icon" width="200px" height="200.00px" viewBox="0 0 1024 1024" version="1.1" xmlns="http://www.w3.org/2000/svg"><path fill="#000000" d="M128 320V170.667h21.333V128h64v42.667h85.334V192h42.666v-64h85.334v64h106.666A21.333 21.333 0 0 1 576 192h106.667v21.333H640v21.334h64V256H576v21.333h149.333V320h21.334v149.333h64l42.666-11.242c32 0 64 9.578 64 51.093V576h21.334v-10.667a10.667 10.667 0 1 1 21.333 0V576h10.667a10.667 10.667 0 0 1 10.666 10.667c11.776 0 21.334 23.893 21.334 53.333s-9.558 53.333-21.334 53.333A10.667 10.667 0 0 1 970.667 704H960v10.667a10.667 10.667 0 1 1-21.333 0V704h-192v42.667H1024v128H0v-128h21.333V320H128z m554.667 256V405.333H405.333v341.334h277.334V704h-96A10.667 10.667 0 0 1 576 693.333c-11.776 0-21.333-23.893-21.333-53.333s9.557-53.333 21.333-53.333A10.667 10.667 0 0 1 586.667 576h78.378v-39.04c0-11.307-2.773-24.427-8.362-39.36-29.867 5.461-56.747-5.355-80.683-32.448-17.13-2.795-32.533-22.741-46.187-59.819h95.147c4.672 13.462 12.075 22.507 22.23 27.094 9.557-2.582 21.397-0.235 35.477 7.082V576z m191.914 0v-32.341c0.064-13.76-7.04-20.63-21.248-20.63L810.667 512h-64v64H874.58zM85.333 682.667h245.334a10.667 10.667 0 1 1 0 21.333H85.333v42.667h256V405.333h-256v213.334h245.334a10.667 10.667 0 1 1 0 21.333H85.333v42.667zM576 213.333v21.334h42.667v-21.334H576z m-21.333 64v-64h-128v64h128z m-149.334 0v-64h-42.666v64h42.666z m-64 0v-42.666h-42.666v42.666h42.666z" /></svg>