<?xml version="1.0" standalone="no"?><!DOCTYPE svg PUBLIC "-//W3C//DTD SVG 1.1//EN" "http://www.w3.org/Graphics/SVG/1.1/DTD/svg11.dtd"><svg class="icon" width="200px" height="200.00px" viewBox="0 0 1024 1024" version="1.1" xmlns="http://www.w3.org/2000/svg"><path fill="#000000" d="M958.279 516.357l-137.431 29.53v171.828L580.303 649v-68.735H614.7v-68.716l129.985-28.055 74.804-70.208-23.886-147.63-444.946 70.671c-3.18-11.108-7.057-21.347-11.516-30.324l497.838-79.088-80.97-141.463-54.406-20.612-465.498 73.932-44.013 6.999-50.064 7.949-77.17 12.274 2.793 70.384 86.05 93.862 38.858-5.428-18.81-116.53-72.748 11.557-1.007-25.264L205.627 177.8l6.05 2.27 74.22 88.027c-23.265 9.365-35.209 54.853-26.873 106.428 8.88 55.336 37.81 96.753 64.45 92.487 12.682-1.979 22.609-13.96 28.54-31.934l7.098 43.818-73.64 77.598 191.76-44.945v68.716h34.357v103.111l309.26 103.054v137.45l137.43 34.378V516.357zM300.322 323.434c11.557-1.822 24.042 16.113 27.921 40.098 3.838 23.945-2.366 44.867-13.922 46.69-11.516 1.86-24.041-16.075-27.92-40.058-3.838-23.985 2.365-44.87 13.921-46.73z m3.647 213.632l-25.633 23.19-86.554-53.264-25.672-158.914 33.62-5.33 23.19 143.828 81.049 50.49z" /></svg>