<?xml version="1.0" standalone="no"?><!DOCTYPE svg PUBLIC "-//W3C//DTD SVG 1.1//EN" "http://www.w3.org/Graphics/SVG/1.1/DTD/svg11.dtd"><svg class="icon" width="200px" height="200.00px" viewBox="0 0 1024 1024" version="1.1" xmlns="http://www.w3.org/2000/svg"><path fill="#000000" d="M427.01594 1022.976512c-8.69965 0-16.887556-4.093953-21.493253-4.093953-12.793603-8.69965-21.493253-25.587206-21.493254-38.38081V609.999l-375.108445-541.425287c-8.69965-12.793603-12.793603-29.681159-4.093953-47.08046 8.69965-12.793603 21.493253-21.493253 38.380809-21.493253H981.234831c16.887556 0 29.681159 8.69965 38.380809 21.493253 8.69965 12.793603 4.093953 29.681159-4.093953 42.474763L640.413242 609.999v285.553224c0 16.887556-8.69965 29.681159-25.587207 38.380809l-170.410794 85.46127c-4.605697 3.582209-8.69965 3.582209-17.399301 3.582209z" /></svg>