<?xml version="1.0" standalone="no"?><!DOCTYPE svg PUBLIC "-//W3C//DTD SVG 1.1//EN" "http://www.w3.org/Graphics/SVG/1.1/DTD/svg11.dtd"><svg class="icon" width="200px" height="200.00px" viewBox="0 0 1024 1024" version="1.1" xmlns="http://www.w3.org/2000/svg"><path fill="#000000" d="M969.425 889.7553125a22.5459375 22.5459375 0 0 1-22.089375-18.076875c-0.2925-1.415625-15.061875-68.86125-78.046875-135.10125-80.203125-84.345-204.3028125-130.7615625-359.904375-134.821875V785.01875c0 8.4721875-4.753125 16.2534375-12.2934375 20.07375a22.5028125 22.5028125 0 0 1-23.4815625-1.81875L41.3215625 489.895625a22.54125 22.54125 0 0 1-0.0478125-36.474375L473.56625 138.603125a22.5984375 22.5984375 0 0 1 23.510625-1.876875 22.5553125 22.5553125 0 0 1 12.3075 20.1028125v194.5921875c27.8540625 1.0125 76.434375 5.145 132.7584375 20.1065625 89.653125 23.79375 164.0728125 65.3090625 221.221875 123.39375 87.9459375 89.4140625 131.2275 214.8046875 128.60625 372.6628125a22.4925 22.4925 0 0 1-20.5003125 22.0696875 22.6846875 22.6846875 0 0 1-2.0446875 0.10125z"  /><path fill="#000000" d="M486.8525 556.38125c99.92625 0 188.5153125 15.729375 263.3475 46.75125 60.6478125 25.1334375 112.3725 60.316875 153.778125 104.52a394.83375 394.83375 0 0 1 35.0109375 43.0415625c-15.015-91.4109375-51.0628125-166.501875-107.76-224.1309375-122.055-124.0846875-302.75625-130.36875-337.7334375-130.36875-3.7340625 0-5.784375 0.0871875-5.8171875 0.0871875a22.6753125 22.6753125 0 0 1-16.47375-6.3028125 22.6078125 22.6078125 0 0 1-6.901875-16.246875V201.141875L92.9121875 471.5984375 464.2971875 740.815625V578.92625a22.5459375 22.5459375 0 0 1 22.55625-22.545z"  /></svg>