<?xml version="1.0" standalone="no"?><!DOCTYPE svg PUBLIC "-//W3C//DTD SVG 1.1//EN" "http://www.w3.org/Graphics/SVG/1.1/DTD/svg11.dtd"><svg class="icon" width="200px" height="200.00px" viewBox="0 0 1024 1024" version="1.1" xmlns="http://www.w3.org/2000/svg"><path fill="#000000" d="M200.311 678.949H66.766C29.898 678.949 0 708.862 0 745.737v133.595c0 36.874 29.898 66.772 66.766 66.772h133.545c36.925 0 66.766-29.898 66.766-66.772V745.737c-0.001-36.875-29.842-66.788-66.766-66.788zM578.771 77.896H445.228c-36.925 0-66.766 29.912-66.766 66.794v734.643c0 36.874 29.841 66.772 66.766 66.772h133.544c36.868 0 66.767-29.898 66.767-66.772V144.689c-0.001-36.881-29.899-66.793-66.768-66.793zM957.233 345.029H823.688c-36.924 0-66.822 29.912-66.822 66.794v467.509c0 36.874 29.898 66.772 66.822 66.772h133.545c36.868 0 66.767-29.898 66.767-66.772V411.823c0-36.882-29.898-66.794-66.767-66.794z"  /></svg>