<?xml version="1.0" standalone="no"?><!DOCTYPE svg PUBLIC "-//W3C//DTD SVG 1.1//EN" "http://www.w3.org/Graphics/SVG/1.1/DTD/svg11.dtd"><svg class="icon" width="200px" height="200.00px" viewBox="0 0 1024 1024" version="1.1" xmlns="http://www.w3.org/2000/svg"><path fill="#000000" d="M123.875 832.625h227.813V478.25l-63.282-42.188-164.531 135v261.563z m278.438 0h227.812V478.25l-109.688 88.594-118.125-59.063v324.844zM680.75 436.062v396.563h227.813V440.281L811.53 317.937 680.75 436.063zM157.625 474.031l122.344-101.25L516.219 512l278.437-257.344 4.219-4.219 46.406 46.407L921.22 90.125l-215.157 67.5 50.625 50.625L512 436.063l-236.25-135-156.094 126.562C107 436.063 107 457.156 115.437 469.813s29.532 12.656 42.188 4.218z m746.719 400.781H119.656c-16.875 0-29.531 12.657-29.531 29.532s12.656 29.531 29.531 29.531h784.688c16.875 0 29.531-12.656 29.531-29.531s-12.656-29.532-29.531-29.532z" /></svg>