<?xml version="1.0" encoding="utf-8"?>
<!-- Generator: Adobe Illustrator 16.0.0, SVG Export Plug-In . SVG Version: 6.00 Build 0)  -->
<!DOCTYPE svg PUBLIC "-//W3C//DTD SVG 1.1//EN" "http://www.w3.org/Graphics/SVG/1.1/DTD/svg11.dtd">
<svg version="1.1" id="图层_1" xmlns="http://www.w3.org/2000/svg" xmlns:xlink="http://www.w3.org/1999/xlink" x="0px" y="0px"
	 width="43px" height="43px" viewBox="0 0 43 43" enable-background="new 0 0 43 43" xml:space="preserve">
<g transform="matrix(1 0 0 1 -636 -130 )">
	
		<linearGradient id="SVGID_1_" gradientUnits="userSpaceOnUse" x1="1293.5151" y1="694.6992" x2="1293.5151" y2="652.1292" gradientTransform="matrix(1 0 0 -1 -636.0156 824.6992)">
		<stop  offset="0" style="stop-color:#93D68A"/>
		<stop  offset="1" style="stop-color:#61B86E"/>
	</linearGradient>
	<path fill="url(#SVGID_1_)" d="M657.5,130c12.04,0,21.5,9.46,21.5,21.5s-9.46,21.5-21.5,21.5s-21.5-9.46-21.5-21.5
		S645.46,130,657.5,130z"/>
</g>
<g>
	<path fill="#FFFFFF" d="M29.061,34.14c0.08,0,0.16,0,0.24-0.04c-0.24,0.04-0.439,0.04-0.68,0.04H29.061L29.061,34.14z M27.9,26.18
		c-0.6,0-1.081,0.48-1.081,1.08s0.48,1.08,1.081,1.08s1.08-0.479,1.08-1.08S28.5,26.18,27.9,26.18z M28.62,23.14
		c-2.72,0-4.88,2.2-4.88,4.88s2.16,4.84,4.88,4.84c2.68,0,4.88-2.16,4.88-4.88C33.5,25.3,31.3,23.14,28.62,23.14z M30.98,30.86
		c-0.159,0-0.279-0.08-0.4-0.16l-1.6-1.561c-0.319,0.2-0.68,0.32-1.08,0.32c-1.2,0-2.16-0.96-2.16-2.16c0-1.2,0.96-2.16,2.16-2.16
		c1.2,0,2.16,0.96,2.16,2.16c0,0.4-0.12,0.76-0.32,1.08l1.6,1.56c0.08,0.08,0.16,0.24,0.16,0.4C31.5,30.62,31.261,30.86,30.98,30.86
		z M13.9,13.3c0.6,0,1.28-0.68,1.28-1.28v-1.88c0-0.6-0.4-1.28-1.28-1.28c-0.72,0-1.28,0.68-1.28,1.28v1.88
		C12.661,12.62,13.34,13.3,13.9,13.3z M19.58,13.3c1.04,0,1.281-0.68,1.281-1.28v-1.88c0-0.6-0.36-1.28-1.281-1.28
		c-0.879,0-1.28,0.68-1.28,1.28v1.88C18.34,12.62,18.78,13.3,19.58,13.3z M25.261,13.3c0.84,0,1.28-0.68,1.28-1.28v-1.88
		c0-0.6-0.44-1.28-1.28-1.28c-0.72,0-1.281,0.68-1.281,1.28v1.88C24.02,12.62,24.701,13.3,25.261,13.3z M29.061,34.1
		c0.08,0,0.16,0,0.24-0.04c-0.24,0.04-0.439,0.04-0.68,0.04H29.061z M22.5,28.02c0-3.36,2.76-6.12,6.12-6.12
		c0.601,0,1.2,0.08,1.76,0.24l-0.04-9.479c0-0.6-0.68-1.28-1.28-1.28h-1.28v1.28c0,1.2-1.32,1.88-2.52,1.88
		c-1.2,0-2.521-0.72-2.521-1.88v-1.28h-0.64v1.28c0,1.2-1.32,1.88-2.521,1.88c-1.919,0-2.52-1.32-2.52-2.52v-0.64h-0.64v0.64
		c0,1.2-0.96,2.52-2.601,2.52c-1.199,0-2.479-0.88-2.479-2.52v-0.64h-0.56c-0.601,0-1.28,0.68-1.28,1.28V32.7
		c0,0.6,0.68,1.439,1.28,1.439H28.62C25.22,34.1,22.5,31.38,22.5,28.02L22.5,28.02z M13.3,18.34c0,0,13.16,0.04,13.2,0
		c0.6-0.041,1.32,0.36,1.32,1.28c0,0.84-0.681,1.28-1.28,1.28H13.3c-0.6,0-1.28-0.32-1.28-1.28C12.02,18.78,12.701,18.34,13.3,18.34
		z M18.981,30.94H13.3c-0.479,0-1.28-0.28-1.28-1.28c0-0.76,0.761-1.32,1.28-1.32l5.681,0.08c0.479,0,1.28,0.28,1.28,1.28
		C20.221,30.46,19.46,30.94,18.981,30.94z M20.221,25.9H13.3c-0.6,0-1.28-0.4-1.28-1.28c0-0.96,0.681-1.28,1.28-1.28h6.96
		c0.6,0,1.28,0.48,1.28,1.28C21.5,25.26,20.82,25.9,20.221,25.9L20.221,25.9z"/>
</g>
</svg>
