<?xml version="1.0" encoding="utf-8"?>
<!-- Generator: Adobe Illustrator 16.0.0, SVG Export Plug-In . SVG Version: 6.00 Build 0)  -->
<!DOCTYPE svg PUBLIC "-//W3C//DTD SVG 1.1//EN" "http://www.w3.org/Graphics/SVG/1.1/DTD/svg11.dtd">
<svg version="1.1" id="图层_1" xmlns="http://www.w3.org/2000/svg" xmlns:xlink="http://www.w3.org/1999/xlink" x="0px" y="0px"
	 width="43px" height="43px" viewBox="0 0 43 43" enable-background="new 0 0 43 43" xml:space="preserve">
<g transform="matrix(1 0 0 1 -636 -130 )">
	
		<linearGradient id="SVGID_1_" gradientUnits="userSpaceOnUse" x1="1293.5146" y1="-49.3008" x2="1293.5146" y2="-91.8708" gradientTransform="matrix(1 0 0 -1 -636.0156 80.6992)">
		<stop  offset="0" style="stop-color:#93D68A"/>
		<stop  offset="1" style="stop-color:#61B86E"/>
	</linearGradient>
	<path fill="url(#SVGID_1_)" d="M657.5,130c12.041,0,21.5,9.46,21.5,21.5s-9.459,21.5-21.5,21.5c-12.039,0-21.5-9.46-21.5-21.5
		S645.461,130,657.5,130z"/>
</g>
<path fill="#FFFFFF" d="M20.708,25.315v2.595h1.188l-0.001-2.595h7.051l0.869,2.595h-7.108v3.108h4.828v1.776H15.466v-1.776h4.827
	V27.91h-6.737l0.869-2.595H20.708L20.708,25.315z M13.212,25.315l-0.869,2.595h-2.154C9.532,27.91,9,27.378,9,26.721
	c0-0.151,0.029-0.301,0.085-0.441l0.386-0.964H13.212z M33.528,25.315l0.387,0.964c0.244,0.609-0.052,1.302-0.662,1.546
	c-0.14,0.057-0.291,0.085-0.442,0.085h-1.783l-0.869-2.595H33.528L33.528,25.315z M14.082,22.721l-0.58,1.729H9.817l0.693-1.729
	H14.082z M20.708,22.721v1.729h-5.993l0.579-1.729H20.708z M28.076,22.721l0.58,1.729h-6.761v-1.729H28.076L28.076,22.721z
	 M32.488,22.721l0.693,1.729h-3.313l-0.58-1.729H32.488L32.488,22.721z M14.951,20.126l-0.58,1.729h-3.514l0.693-1.729H14.951
	L14.951,20.126z M20.708,20.126v1.729h-5.124l0.58-1.729H20.708z M27.207,20.126l0.579,1.729h-5.891v-1.729H27.207L27.207,20.126z
	 M31.449,20.126l0.693,1.729h-3.143l-0.58-1.729H31.449z M15.821,17.531l-0.58,1.73h-3.343l0.393-0.983
	c0.181-0.451,0.618-0.747,1.104-0.747H15.821L15.821,17.531z M20.708,17.531v1.73h-4.255l0.58-1.73H20.708L20.708,17.531z
	 M26.338,17.531l0.579,1.73h-5.022v-1.73H26.338z M29.605,17.531c0.486,0,0.923,0.296,1.104,0.747l0.394,0.982h-2.973l-0.58-1.729
	H29.605L29.605,17.531z M21.5,13.273c1.955,0,3.549,1.568,3.618,3.529l0.002,0.134h-7.242l0.002-0.134
	C17.952,14.842,19.545,13.273,21.5,13.273z M17.276,15.716v1.221h-2.414v-1.221H17.276z M28.138,15.716v1.221h-2.414v-1.221H28.138z
	 M18.704,10.205l1.207,2.115l-1.045,0.61l-1.207-2.115L18.704,10.205z M24.296,10.205l1.045,0.61l-1.207,2.115l-1.045-0.61
	L24.296,10.205z"/>
</svg>
