<?xml version="1.0" encoding="utf-8"?>
<!-- Generator: Adobe Illustrator 16.0.0, SVG Export Plug-In . SVG Version: 6.00 Build 0)  -->
<!DOCTYPE svg PUBLIC "-//W3C//DTD SVG 1.1//EN" "http://www.w3.org/Graphics/SVG/1.1/DTD/svg11.dtd">
<svg version="1.1" id="图层_1" xmlns="http://www.w3.org/2000/svg" xmlns:xlink="http://www.w3.org/1999/xlink" x="0px" y="0px"
	 width="43px" height="43px" viewBox="0 0 43 43" enable-background="new 0 0 43 43" xml:space="preserve">
<g transform="matrix(1 0 0 1 -517 -130 )">
	
		<linearGradient id="SVGID_1_" gradientUnits="userSpaceOnUse" x1="1055.5166" y1="-421.3008" x2="1055.5166" y2="-463.8708" gradientTransform="matrix(1 0 0 -1 -517.0156 -291.3008)">
		<stop  offset="0" style="stop-color:#ED6F58"/>
		<stop  offset="1" style="stop-color:#E2915E"/>
	</linearGradient>
	<path fill="url(#SVGID_1_)" d="M538.502,130c12.04,0,21.5,9.46,21.5,21.5s-9.46,21.5-21.5,21.5s-21.5-9.46-21.5-21.5
		S526.462,130,538.502,130z"/>
</g>
<path fill="#FFFFFF" d="M21.502,9.5c4.489,0,9.333,0.961,9.333,3.085c0,0.582-0.406,1.087-1.065,1.517v5.867
	c0.659,0.43,1.065,0.937,1.065,1.543c0,0.607-0.406,1.113-1.065,1.518v5.894c0.659,0.404,1.065,0.909,1.065,1.517
	c0,2.099-4.819,3.061-9.333,3.061c-4.489,0-9.334-0.962-9.334-3.061c0-0.582,0.406-1.113,1.065-1.517v-5.894
	c-0.659-0.405-1.065-0.91-1.065-1.518c0-0.582,0.406-1.113,1.065-1.517v-5.918c-0.659-0.405-1.065-0.91-1.065-1.518
	C12.168,10.461,17.013,9.5,21.502,9.5z M21.502,19.236c-0.3-0.004-0.579,0.15-0.736,0.404c-0.559,0.91-2.384,4.047-2.384,5.438
	c0,1.72,1.395,3.111,3.12,3.111c1.725,0,3.12-1.392,3.12-3.111c0-1.366-1.826-4.502-2.385-5.438
	C22.081,19.386,21.801,19.232,21.502,19.236L21.502,19.236z M20.158,23.106c0.127-0.202,0.38-0.253,0.583-0.126
	s0.279,0.379,0.127,0.582c0,0.024-0.861,1.391-0.228,2.327c0.126,0.192,0.072,0.45-0.12,0.577c-0.002,0.001-0.005,0.003-0.007,0.005
	c-0.066,0.047-0.146,0.074-0.229,0.075c-0.145-0.004-0.277-0.08-0.354-0.201c-0.938-1.392,0.178-3.162,0.228-3.237V23.106z
	 M21.502,10.94c-4.668,0-7.508,1.037-7.862,1.619c0.354,0.607,3.195,1.619,7.862,1.619c4.666,0,7.507-1.012,7.862-1.619
	C29.009,11.952,26.168,10.94,21.502,10.94z M17.824,12.003c0.84,0,1.522,0.249,1.522,0.556s-0.682,0.556-1.522,0.556
	c-0.84,0-1.521-0.249-1.521-0.556S16.983,12.003,17.824,12.003z"/>
</svg>
