<?xml version="1.0" encoding="utf-8"?>
<!-- Generator: Adobe Illustrator 16.0.0, SVG Export Plug-In . SVG Version: 6.00 Build 0)  -->
<!DOCTYPE svg PUBLIC "-//W3C//DTD SVG 1.1//EN" "http://www.w3.org/Graphics/SVG/1.1/DTD/svg11.dtd">
<svg version="1.1" id="图层_1" xmlns="http://www.w3.org/2000/svg" xmlns:xlink="http://www.w3.org/1999/xlink" x="0px" y="0px"
	 width="43px" height="43px" viewBox="0 0 43 43" enable-background="new 0 0 43 43" xml:space="preserve">
<g transform="matrix(1 0 0 1 -179 -469 )">
	
		<linearGradient id="SVGID_1_" gradientUnits="userSpaceOnUse" x1="379.5161" y1="-235.3008" x2="379.5161" y2="-277.8708" gradientTransform="matrix(1 0 0 -1 -179.0151 233.6992)">
		<stop  offset="0" style="stop-color:#A383F7"/>
		<stop  offset="1" style="stop-color:#735FF2"/>
	</linearGradient>
	<path fill="url(#SVGID_1_)" d="M200.501,469c12.039,0,21.5,9.46,21.5,21.5s-9.461,21.5-21.5,21.5c-12.04,0-21.5-9.46-21.5-21.5
		S188.461,469,200.501,469z"/>
</g>
<path fill="#FFFFFF" d="M10.82,32.359c-1.092,0-1.621-1.201-1.143-2.122c0.655-1.258,10.162-17.818,10.748-18.878
	c0.526-0.95,1.784-0.966,2.312,0c0.802,1.474,10.095,17.969,10.557,18.833c0.584,1.075-0.154,2.167-1.147,2.167H10.82L10.82,32.359z
	 M20.99,25.371h1.123l0.755-7.377H20.24L20.99,25.371L20.99,25.371z M20.24,26.428v2.108h2.628v-2.105L20.24,26.428z"/>
</svg>
