<?xml version="1.0" encoding="utf-8"?>
<!-- Generator: Adobe Illustrator 16.0.0, SVG Export Plug-In . SVG Version: 6.00 Build 0)  -->
<!DOCTYPE svg PUBLIC "-//W3C//DTD SVG 1.1//EN" "http://www.w3.org/Graphics/SVG/1.1/DTD/svg11.dtd">
<svg version="1.1" id="图层_1" xmlns="http://www.w3.org/2000/svg" xmlns:xlink="http://www.w3.org/1999/xlink" x="0px" y="0px"
	 width="43px" height="43px" viewBox="0 0 43 43" enable-background="new 0 0 43 43" xml:space="preserve">
<g transform="matrix(1 0 0 1 -177 -130 )">
	
		<linearGradient id="SVGID_1_" gradientUnits="userSpaceOnUse" x1="375.5156" y1="651.6992" x2="375.5156" y2="694.2692" gradientTransform="matrix(1 0 0 -1 -177.0151 824.6992)">
		<stop  offset="0" style="stop-color:#A368F6"/>
		<stop  offset="1" style="stop-color:#FF77CA"/>
	</linearGradient>
	<path fill="url(#SVGID_1_)" d="M198.5,130c12.039,0,21.5,9.46,21.5,21.5s-9.461,21.5-21.5,21.5c-12.041,0-21.5-9.46-21.5-21.5
		S186.459,130,198.5,130z"/>
</g>
<path fill="#FFFFFF" d="M17.085,9h7.922v2.046h-7.922V9z M33.594,34v-1.855h-3.447l-2.874-19.076h0.645v-1.506h-13.3v1.506h0.876
	L12.62,32.145H9.406V34 M26.089,19.857l-3.586-2.859l2.815-2.245L26.089,19.857L26.089,19.857z M26.136,21.671l-4.196,3.347v-6.693
	L26.136,21.671z M21.938,13.069h3.128l0.015,0.101l-3.143,2.506V13.069z M26.917,32.145h-4.979v-3.971L26.917,32.145L26.917,32.145z
	 M17.448,14.743l2.83,2.258l-3.604,2.873L17.448,14.743z M16.124,23.537l3.838,3.06l-4.885,3.895L16.124,23.537z M20.765,32.145
	h-5.019l5.019-4.002V32.145L20.765,32.145z M20.765,25.051l-4.18-3.333l4.18-3.332V25.051z M20.765,15.612l-3.078-2.454l0.013-0.087
	h3.063v2.541H20.765z M22.702,26.597l3.929-3.133l1.073,7.121L22.702,26.597z"/>
</svg>
