<?xml version="1.0" encoding="utf-8"?>
<!-- Generator: Adobe Illustrator 16.0.0, SVG Export Plug-In . SVG Version: 6.00 Build 0)  -->
<!DOCTYPE svg PUBLIC "-//W3C//DTD SVG 1.1//EN" "http://www.w3.org/Graphics/SVG/1.1/DTD/svg11.dtd">
<svg version="1.1" id="图层_1" xmlns="http://www.w3.org/2000/svg" xmlns:xlink="http://www.w3.org/1999/xlink" x="0px" y="0px"
	 width="43px" height="43px" viewBox="0 0 43 43" enable-background="new 0 0 43 43" xml:space="preserve">
<g transform="matrix(1 0 0 1 -517 -130 )">
	
		<linearGradient id="SVGID_1_" gradientUnits="userSpaceOnUse" x1="1055.5166" y1="508.6992" x2="1055.5166" y2="466.1292" gradientTransform="matrix(1 0 0 -1 -517.0156 638.6992)">
		<stop  offset="0" style="stop-color:#ED6F58"/>
		<stop  offset="1" style="stop-color:#E2915E"/>
	</linearGradient>
	<path fill="url(#SVGID_1_)" d="M538.502,130c12.04,0,21.5,9.46,21.5,21.5s-9.46,21.5-21.5,21.5s-21.5-9.46-21.5-21.5
		S526.462,130,538.502,130z"/>
</g>
<g>
	<path fill="#FFFFFF" d="M27.649,22.256v9.818h4.007V19.451l-0.473-0.468L27.649,22.256L27.649,22.256z M21.521,25.996v6.078h4.008
		v-8.182l-3.299,2.806l-0.709-0.703V25.996z M15.394,23.89v8.182H19.4v-7.713l-2.12-1.871l-1.887,1.404V23.89z M9.502,32.072h4.007
		V25.76l-4.007,3.506V32.072z M26.679,10.926l2.823,3.061l-7.294,6.358l-4.941-4.237l-7.765,6.593v2.827l7.765-6.594l4.941,4.239
		l8.94-7.772l2.354,2.591v-7.065H26.679z"/>
</g>
</svg>
