<?xml version="1.0" encoding="utf-8"?>
<!-- Generator: Adobe Illustrator 16.0.0, SVG Export Plug-In . SVG Version: 6.00 Build 0)  -->
<!DOCTYPE svg PUBLIC "-//W3C//DTD SVG 1.1//EN" "http://www.w3.org/Graphics/SVG/1.1/DTD/svg11.dtd">
<svg version="1.1" id="图层_1" xmlns="http://www.w3.org/2000/svg" xmlns:xlink="http://www.w3.org/1999/xlink" x="0px" y="0px"
	 width="43px" height="43px" viewBox="0 0 43 43" enable-background="new 0 0 43 43" xml:space="preserve">
<g transform="matrix(1 0 0 1 -636 -130 )">
	
		<linearGradient id="SVGID_1_" gradientUnits="userSpaceOnUse" x1="1293.5156" y1="508.6992" x2="1293.5156" y2="466.1292" gradientTransform="matrix(1 0 0 -1 -636.0156 638.6992)">
		<stop  offset="0" style="stop-color:#93D68A"/>
		<stop  offset="1" style="stop-color:#61B86E"/>
	</linearGradient>
	<path fill="url(#SVGID_1_)" d="M657.501,130c12.04,0,21.5,9.46,21.5,21.5s-9.46,21.5-21.5,21.5s-21.5-9.46-21.5-21.5
		S645.461,130,657.501,130z"/>
</g>
<g>
	<path fill="#FFFFFF" d="M32.182,31.5H10.82c-0.12,0-0.218-0.097-0.218-0.218v-0.654c0-0.12,0.098-0.218,0.218-0.218h21.362
		c0.12,0,0.218,0.098,0.218,0.218l0,0v0.654C32.4,31.402,32.302,31.5,32.182,31.5z M27.496,25.396h-4.36
		c-0.12,0-0.218-0.098-0.218-0.218l0,0v-0.654c0-0.12,0.098-0.218,0.218-0.218h4.36c0.12,0,0.218,0.098,0.218,0.218v0.654
		C27.713,25.298,27.616,25.396,27.496,25.396z M31.528,11.5H11.474c-0.121,0-0.217,0.097-0.217,0.218v17.003
		c0,0.12,0.097,0.218,0.217,0.218h20.055c0.121,0,0.217-0.098,0.217-0.218l0,0V11.718C31.746,11.597,31.649,11.5,31.528,11.5z
		 M17.142,15.314c1.324,0,2.397,1.073,2.397,2.398c0,1.324-1.074,2.398-2.397,2.398c-1.325,0-2.398-1.074-2.398-2.398
		C14.743,16.388,15.817,15.314,17.142,15.314z M14.743,21.582c0-0.12,0.098-0.218,0.218-0.218l0,0h4.36
		c0.12,0,0.218,0.098,0.218,0.218l0,0v0.654c0,0.121-0.098,0.218-0.218,0.218h-4.36c-0.12,0-0.218-0.097-0.218-0.218l0,0V21.582z
		 M28.045,19.469l-0.004,0.003v0.006l-0.41,0.409h-0.006l-1.739,1.739c-0.084,0.085-0.222,0.085-0.307,0c0,0,0,0,0,0l-0.463-0.462
		c-0.084-0.085-0.084-0.223,0-0.309l0.967-0.968H24.7l-5.421,5.422c-0.041,0.057-0.106,0.09-0.176,0.09h-4.142
		c-0.12,0-0.218-0.097-0.218-0.218l0,0v-0.654c0-0.121,0.098-0.218,0.218-0.218h3.777l5.421-5.422
		c0.042-0.056,0.106-0.089,0.177-0.09h1.811l-1.03-1.029c-0.085-0.085-0.085-0.223,0-0.309c0,0,0,0,0,0l0.462-0.463
		c0.085-0.085,0.224-0.085,0.309,0l0,0l2.158,2.158c0.042,0.043,0.064,0.1,0.063,0.157C28.109,19.371,28.086,19.428,28.045,19.469
		L28.045,19.469z"/>
</g>
</svg>
