<?xml version="1.0" encoding="utf-8"?>
<!-- Generator: Adobe Illustrator 16.0.0, SVG Export Plug-In . SVG Version: 6.00 Build 0)  -->
<!DOCTYPE svg PUBLIC "-//W3C//DTD SVG 1.1//EN" "http://www.w3.org/Graphics/SVG/1.1/DTD/svg11.dtd">
<svg version="1.1" id="图层_1" xmlns="http://www.w3.org/2000/svg" xmlns:xlink="http://www.w3.org/1999/xlink" x="0px" y="0px"
	 width="43px" height="43px" viewBox="0 0 43 43" enable-background="new 0 0 43 43" xml:space="preserve">
<g transform="matrix(1 0 0 1 -177 -130 )">
	
		<linearGradient id="SVGID_1_" gradientUnits="userSpaceOnUse" x1="375.5166" y1="-49.3008" x2="375.5166" y2="-91.8708" gradientTransform="matrix(1 0 0 -1 -177.0151 80.6992)">
		<stop  offset="0" style="stop-color:#77A0F6"/>
		<stop  offset="1" style="stop-color:#4772E9"/>
	</linearGradient>
	<path fill="url(#SVGID_1_)" d="M198.502,130c12.039,0,21.5,9.46,21.5,21.5s-9.461,21.5-21.5,21.5c-12.041,0-21.5-9.46-21.5-21.5
		S186.461,130,198.502,130z"/>
</g>
<g>
	<path fill="#FFFFFF" d="M31.346,30.844c0.396,0.002,0.717,0.326,0.714,0.724c-0.002,0.393-0.321,0.712-0.714,0.714H12.658
		c-0.396-0.002-0.717-0.326-0.714-0.724c0.002-0.394,0.32-0.712,0.714-0.714H31.346z M32.064,10.719
		c0.794,0,1.438,0.644,1.438,1.438l0,0v15.813c0,0.794-0.644,1.438-1.438,1.438l0,0H11.939c-0.794,0-1.438-0.644-1.438-1.438l0,0
		V12.156c0-0.794,0.644-1.438,1.438-1.438l0,0H32.064L32.064,10.719z M23.147,15.434c-0.343-0.124-0.725,0.027-0.888,0.353
		l-0.034,0.078l-2.516,6.911l-2.122-2.529c-0.026-0.032-0.055-0.061-0.087-0.086c-0.239-0.316-0.689-0.379-1.007-0.14
		c-0.034,0.027-0.068,0.057-0.098,0.09l-0.057,0.07l-2.474,3.533c-0.228,0.326-0.146,0.773,0.178,1.001
		c0.297,0.207,0.701,0.161,0.943-0.105l0.057-0.071l1.94-2.774l2.293,2.732l0.021,0.02c0.167,0.36,0.594,0.518,0.955,0.352
		c0.146-0.068,0.268-0.185,0.34-0.329l0.033-0.078l2.531-6.955l3.919,4.674c0.213,0.336,0.656,0.437,0.991,0.226
		c0.038-0.023,0.074-0.052,0.105-0.082l0.063-0.064l1.849-2.203c0.256-0.304,0.216-0.757-0.089-1.013
		c-0.277-0.231-0.684-0.223-0.95,0.022l-0.063,0.066l-1.292,1.54l-4.127-4.918c-0.035-0.042-0.075-0.081-0.119-0.114
		C23.365,15.546,23.263,15.476,23.147,15.434L23.147,15.434z"/>
</g>
</svg>
