<?xml version="1.0" encoding="utf-8"?>
<!-- Generator: Adobe Illustrator 16.0.0, SVG Export Plug-In . SVG Version: 6.00 Build 0)  -->
<!DOCTYPE svg PUBLIC "-//W3C//DTD SVG 1.1//EN" "http://www.w3.org/Graphics/SVG/1.1/DTD/svg11.dtd">
<svg version="1.1" id="图层_1" xmlns="http://www.w3.org/2000/svg" xmlns:xlink="http://www.w3.org/1999/xlink" x="0px" y="0px"
	 width="43px" height="43px" viewBox="0 0 43 43" enable-background="new 0 0 43 43" xml:space="preserve">
<g transform="matrix(1 0 0 1 -179 -469 )">
	
		<linearGradient id="SVGID_1_" gradientUnits="userSpaceOnUse" x1="379.5127" y1="694.6992" x2="379.5127" y2="652.1292" gradientTransform="matrix(1 0 0 -1 -179.0151 1163.6992)">
		<stop  offset="0" style="stop-color:#A383F7"/>
		<stop  offset="1" style="stop-color:#735FF2"/>
	</linearGradient>
	<path fill="url(#SVGID_1_)" d="M200.498,469c12.039,0,21.5,9.46,21.5,21.5s-9.461,21.5-21.5,21.5c-12.04,0-21.5-9.46-21.5-21.5
		S188.458,469,200.498,469z"/>
</g>
<g>
	<path fill="#FFFFFF" d="M11.151,14.624h2.461c0.479,1.345,1.765,2.308,3.274,2.308c0.361,0,0.708-0.054,1.035-0.156
		c0.706-0.218,1.315-0.656,1.747-1.234c0.207-0.277,0.374-0.585,0.493-0.917h11.686c0.63,0,1.146-0.517,1.142-1.152
		c0-0.636-0.512-1.153-1.147-1.153H20.173c-0.471-1.362-1.764-2.34-3.286-2.34c-1.522,0-2.815,0.979-3.286,2.34h-2.45
		c-0.631,0.006-1.147,0.517-1.147,1.153C10.004,14.106,10.515,14.624,11.151,14.624z"/>
	<path fill="#FFFFFF" d="M11.151,22.673h11.693c-0.127-0.36-0.197-0.748-0.197-1.152s0.07-0.792,0.197-1.152H11.151
		c-0.636,0-1.153,0.516-1.153,1.152C9.998,22.157,10.515,22.673,11.151,22.673z"/>
	<path fill="#FFFFFF" d="M31.842,28.413H20.174c-0.47-1.364-1.764-2.344-3.287-2.344s-2.817,0.979-3.287,2.344h-2.449
		c-0.631,0.005-1.147,0.517-1.147,1.152s0.511,1.152,1.147,1.152h2.462c0.481,1.344,1.766,2.305,3.274,2.305
		c0.003,0,0.005,0,0.007,0s0.004,0,0.007,0c1.313,0,2.453-0.731,3.037-1.81c0.086-0.158,0.161-0.323,0.222-0.495h11.687
		c0.63,0,1.146-0.516,1.142-1.152C32.989,28.929,32.478,28.413,31.842,28.413z"/>
	<path fill="#FFFFFF" d="M22.683,21.523c0,0.403,0.069,0.79,0.194,1.15h-0.033c0.307,0.865,0.946,1.571,1.767,1.963
		C25.077,24.869,25.603,25,26.159,25c1.518,0,2.807-0.972,3.281-2.327h2.407c0.638-0.002,1.152-0.519,1.15-1.155
		s-0.519-1.151-1.156-1.149h-2.403c-0.477-1.353-1.765-2.322-3.279-2.322c-0.439,0-0.86,0.083-1.247,0.231
		c-0.964,0.353-1.726,1.122-2.068,2.091h0.036C22.752,20.73,22.683,21.118,22.683,21.523z"/>
</g>
</svg>
