<?xml version="1.0" encoding="utf-8"?>
<!-- Generator: Adobe Illustrator 16.0.0, SVG Export Plug-In . SVG Version: 6.00 Build 0)  -->
<!DOCTYPE svg PUBLIC "-//W3C//DTD SVG 1.1//EN" "http://www.w3.org/Graphics/SVG/1.1/DTD/svg11.dtd">
<svg version="1.1" id="图层_1" xmlns="http://www.w3.org/2000/svg" xmlns:xlink="http://www.w3.org/1999/xlink" x="0px" y="0px"
	 width="43px" height="43px" viewBox="0 0 43 43" enable-background="new 0 0 43 43" xml:space="preserve">
<g transform="matrix(1 0 0 1 -179 -469 )">
	
		<linearGradient id="SVGID_1_" gradientUnits="userSpaceOnUse" x1="379.5156" y1="-49.3008" x2="379.5156" y2="-91.8708" gradientTransform="matrix(1 0 0 -1 -179.0151 419.6992)">
		<stop  offset="0" style="stop-color:#A383F7"/>
		<stop  offset="1" style="stop-color:#735FF2"/>
	</linearGradient>
	<path fill="url(#SVGID_1_)" d="M200.501,469c12.039,0,21.5,9.46,21.5,21.5s-9.461,21.5-21.5,21.5s-21.5-9.46-21.5-21.5
		S188.462,469,200.501,469z"/>
</g>
<path fill="#FFFFFF" d="M30.604,33.5H12.397c-0.913,0-1.655-0.741-1.655-1.655V13.639c0-0.915,0.742-1.655,1.655-1.655h1.655v0.827
	c0,1.372,1.111,2.482,2.483,2.482c1.37,0,2.482-1.11,2.482-2.482v-0.827h4.965v0.827c0,1.372,1.112,2.482,2.482,2.482
	c1.371,0,2.483-1.11,2.483-2.482v-0.827h1.655c0.913,0,1.655,0.74,1.655,1.655v18.206C32.26,32.759,31.518,33.5,30.604,33.5z
	 M30.604,17.775H12.397v14.069h18.207V17.775z M16.536,21.914h-2.483v-2.483h2.483V21.914z M16.536,26.051h-2.483v-2.481h2.483
	V26.051z M16.536,30.189h-2.483v-2.482h2.483V30.189z M20.674,21.914H18.19v-2.483h2.483V21.914z M20.674,26.051H18.19v-2.481h2.483
	V26.051z M20.674,30.189H18.19v-2.482h2.483V30.189z M24.812,21.914h-2.483v-2.483h2.483V21.914z M24.812,26.051h-2.483v-2.481
	h2.483V26.051z M24.812,30.189h-2.483v-2.482h2.483V30.189z M28.949,21.914h-2.483v-2.483h2.483V21.914z M28.949,26.051h-2.483
	v-2.481h2.483V26.051z M28.949,30.189h-2.483v-2.482h2.483V30.189z M26.44,14.466c-0.9,0-1.629-0.73-1.629-1.63v-1.707
	c0-0.9,0.729-1.629,1.629-1.629s1.63,0.729,1.63,1.629v1.707C28.07,13.735,27.341,14.466,26.44,14.466z M16.51,14.466
	c-0.9,0-1.63-0.73-1.63-1.63v-1.707c0-0.9,0.729-1.629,1.63-1.629s1.63,0.729,1.63,1.629v1.707
	C18.14,13.735,17.41,14.466,16.51,14.466z"/>
</svg>
