<?xml version="1.0" encoding="utf-8"?>
<!-- Generator: Adobe Illustrator 16.0.0, SVG Export Plug-In . SVG Version: 6.00 Build 0)  -->
<!DOCTYPE svg PUBLIC "-//W3C//DTD SVG 1.1//EN" "http://www.w3.org/Graphics/SVG/1.1/DTD/svg11.dtd">
<svg version="1.1" id="图层_1" xmlns="http://www.w3.org/2000/svg" xmlns:xlink="http://www.w3.org/1999/xlink" x="0px" y="0px"
	 width="43px" height="43px" viewBox="0 0 43 43" enable-background="new 0 0 43 43" xml:space="preserve">
<g transform="matrix(1 0 0 1 -289 -130 )">
	
		<linearGradient id="SVGID_1_" gradientUnits="userSpaceOnUse" x1="599.5166" y1="-421.3008" x2="599.5166" y2="-463.8708" gradientTransform="matrix(1 0 0 -1 -289.0151 -291.3008)">
		<stop  offset="0" style="stop-color:#F4B56D"/>
		<stop  offset="1" style="stop-color:#F19C45"/>
	</linearGradient>
	<path fill="url(#SVGID_1_)" d="M310.502,130c12.039,0,21.5,9.46,21.5,21.5s-9.461,21.5-21.5,21.5c-12.041,0-21.5-9.46-21.5-21.5
		S298.461,130,310.502,130z"/>
</g>
<g>
	<path fill="#FFFFFF" d="M28.458,20.39l5.044-0.716v13.49H9.521v-1.589c0,0,11.398-0.135,14.988-2.458
		c2.914-1.889,2.859-6.655,3.262-8.112c0.087-0.323,0.357-0.564,0.689-0.614V20.39H28.458z"/>
	<path fill="#FFFFFF" d="M26.145,20.357l-1.3,0.649c-0.211,0.105-0.46,0.105-0.672,0l-1.656-0.829c-0.633-0.316-1.378-0.316-2.012,0
		l-1.655,0.829c-0.212,0.105-0.461,0.105-0.672,0l-1.656-0.829c-0.633-0.316-1.378-0.316-2.012,0l-1.55,0.775
		c-0.239,0.12-0.525,0.103-0.749-0.046l-1.526-1.019c-0.337-0.239-0.805-0.16-1.045,0.178C9.4,20.404,9.48,20.872,9.818,21.111
		c0.012,0.009,0.023,0.017,0.036,0.024l1.524,1.016c0.671,0.448,1.531,0.502,2.253,0.142l1.548-0.775
		c0.212-0.105,0.461-0.105,0.672,0l1.656,0.829c0.633,0.316,1.378,0.316,2.012,0l1.656-0.829c0.211-0.105,0.46-0.105,0.671,0
		l1.656,0.829c0.634,0.316,1.379,0.316,2.012,0l0.395-0.198c0.051-0.359,0.093-0.698,0.135-1.013
		C26.078,20.851,26.111,20.59,26.145,20.357L26.145,20.357z M25.517,24.269l-0.672,0.335c-0.211,0.106-0.46,0.106-0.672,0
		l-1.656-0.828c-0.633-0.317-1.378-0.317-2.012,0l-1.655,0.828c-0.212,0.106-0.461,0.106-0.672,0l-1.656-0.828
		c-0.633-0.317-1.378-0.317-2.012,0l-1.55,0.774c-0.239,0.12-0.525,0.104-0.749-0.045l-1.526-1.02
		c-0.337-0.239-0.805-0.159-1.045,0.179C9.4,24.001,9.48,24.469,9.818,24.709c0.012,0.008,0.023,0.017,0.036,0.024l1.524,1.016
		c0.671,0.447,1.531,0.502,2.253,0.141l1.548-0.774c0.212-0.106,0.461-0.106,0.672,0l1.656,0.828c0.633,0.317,1.378,0.317,2.012,0
		l1.656-0.828c0.211-0.106,0.46-0.106,0.671,0l1.656,0.828c0.434,0.217,0.925,0.288,1.401,0.203c0.256-0.608,0.461-1.237,0.612-1.88
		V24.269z M23.76,27.993l-1.244-0.621c-0.633-0.315-1.376-0.315-2.009,0l-1.657,0.829c-0.212,0.105-0.461,0.105-0.672,0
		l-1.656-0.829c-0.633-0.316-1.378-0.316-2.012,0l-1.55,0.775c-0.239,0.12-0.525,0.103-0.749-0.045l-1.526-1.02
		c-0.345-0.229-0.81-0.136-1.039,0.209s-0.136,0.811,0.209,1.04l1.524,1.016c0.671,0.448,1.531,0.502,2.253,0.141l1.548-0.774
		c0.212-0.105,0.461-0.105,0.672,0l1.656,0.829c0.633,0.316,1.378,0.316,2.012,0l1.656-0.829c0.211-0.105,0.46-0.105,0.671,0
		l0.605,0.303C22.945,28.756,23.388,28.409,23.76,27.993L23.76,27.993z M21.811,10.01c-0.095-0.165-0.305-0.223-0.47-0.128
		c-0.054,0.03-0.098,0.074-0.128,0.128l-4.901,8.498c-0.094,0.163-0.037,0.371,0.126,0.465c0.052,0.03,0.111,0.046,0.171,0.045
		h9.806c0.188,0.001,0.341-0.15,0.342-0.339c0-0.06-0.016-0.118-0.045-0.171L21.811,10.01z M20.694,12.821
		c-0.042-0.37,0.336-0.689,0.816-0.689s0.859,0.319,0.817,0.689l-0.37,3.247h-0.894L20.694,12.821z M22.172,17.378
		c0.018,0.362-0.262,0.67-0.624,0.688s-0.67-0.263-0.688-0.624l0,0c-0.017-0.362,0.263-0.67,0.625-0.688
		C21.847,16.736,22.154,17.016,22.172,17.378z"/>
</g>
</svg>
