<?xml version="1.0" encoding="utf-8"?>
<!-- Generator: Adobe Illustrator 16.0.0, SVG Export Plug-In . SVG Version: 6.00 Build 0)  -->
<!DOCTYPE svg PUBLIC "-//W3C//DTD SVG 1.1//EN" "http://www.w3.org/Graphics/SVG/1.1/DTD/svg11.dtd">
<svg version="1.1" id="图层_1" xmlns="http://www.w3.org/2000/svg" xmlns:xlink="http://www.w3.org/1999/xlink" x="0px" y="0px"
	 width="43px" height="43px" viewBox="0 0 43 43" enable-background="new 0 0 43 43" xml:space="preserve">
<g transform="matrix(1 0 0 1 -179 -469 )">
	
		<linearGradient id="SVGID_1_" gradientUnits="userSpaceOnUse" x1="379.5151" y1="508.6992" x2="379.5151" y2="466.1292" gradientTransform="matrix(1 0 0 -1 -179.0151 977.6992)">
		<stop  offset="0" style="stop-color:#A383F7"/>
		<stop  offset="1" style="stop-color:#735FF2"/>
	</linearGradient>
	<path fill="url(#SVGID_1_)" d="M200.5,469c12.039,0,21.5,9.46,21.5,21.5s-9.461,21.5-21.5,21.5c-12.04,0-21.5-9.46-21.5-21.5
		S188.46,469,200.5,469z"/>
</g>
<path fill="#FFFFFF" d="M10.92,30.24h6.21v-9.66l-1.725-1.15l-4.485,3.68V30.24z M18.51,30.24h6.21v-9.66l-2.99,2.415l-3.22-1.61
	V30.24L18.51,30.24z M26.1,19.43v10.81h6.21V19.545l-2.645-3.335L26.1,19.43L26.1,19.43z M11.84,20.465l3.335-2.76l6.44,3.795
	l7.59-7.015l0.115-0.115l1.265,1.265L32.655,10l-5.865,1.84l1.38,1.38l-6.67,6.21l-6.44-3.68l-4.255,3.45
	c-0.345,0.23-0.345,0.805-0.115,1.15C10.92,20.695,11.495,20.695,11.84,20.465z M32.195,31.39h-21.39
	c-0.46,0-0.805,0.345-0.805,0.805S10.345,33,10.805,33h21.39C32.655,33,33,32.655,33,32.195S32.655,31.39,32.195,31.39z"/>
</svg>
