<?xml version="1.0" encoding="utf-8"?>
<!-- Generator: Adobe Illustrator 16.0.0, SVG Export Plug-In . SVG Version: 6.00 Build 0)  -->
<!DOCTYPE svg PUBLIC "-//W3C//DTD SVG 1.1//EN" "http://www.w3.org/Graphics/SVG/1.1/DTD/svg11.dtd">
<svg version="1.1" id="图层_1" xmlns="http://www.w3.org/2000/svg" xmlns:xlink="http://www.w3.org/1999/xlink" x="0px" y="0px"
	 width="43px" height="43px" viewBox="0 0 43 43" enable-background="new 0 0 43 43" xml:space="preserve">
<g transform="matrix(1 0 0 1 -517 -130 )">
	
		<linearGradient id="SVGID_1_" gradientUnits="userSpaceOnUse" x1="1055.5151" y1="694.6992" x2="1055.5151" y2="652.1292" gradientTransform="matrix(1 0 0 -1 -517.0156 824.6992)">
		<stop  offset="0" style="stop-color:#ED6F58"/>
		<stop  offset="1" style="stop-color:#E2915E"/>
	</linearGradient>
	<path fill="url(#SVGID_1_)" d="M538.5,130c12.04,0,21.5,9.46,21.5,21.5s-9.46,21.5-21.5,21.5s-21.5-9.46-21.5-21.5
		S526.46,130,538.5,130z"/>
</g>
<path fill="#FFFFFF" d="M36.5,32.047h-2.502l-7.904-10.446l-1.122-5.659h2.956V13.8H25.82v-3.617h-3.248V8.811h-2.143v1.372h-3.181
	V13.8h-2.177v2.142h2.99l-1.112,5.612L9.008,32.047H6.5v2.143h30V32.047z M32.657,32.047h-4.49l-1.594-8.039L32.657,32.047z
	 M20.024,17.07l0.75,0.749l-1.122,1.122L20.024,17.07z M17.315,32.047l4.306-2.874l4.132,2.874H17.315z M22.582,28.535l2.388-1.595
	l0.749,3.777L22.582,28.535z M23.837,21.242l-2.28,1.426l-2.37-1.383l0.09-0.456l2.254-2.253l2.216,2.213L23.837,21.242z
	 M24.062,22.364l0.395,1.991l-1.852-1.078L24.062,22.364z M20.533,23.312l-1.996,1.249l0.429-2.16L20.533,23.312z M21.577,23.92
	l3.158,1.838l0.01,0.044l-3.11,2.076l-3.021-2.103L21.577,23.92z M22.291,17.819l0.727-0.727l0.358,1.813L22.291,17.819
	L22.291,17.819z M22.652,15.941l-1.121,1.122l-1.122-1.122H22.652z M18.109,26.729l2.571,1.788l-3.372,2.25L18.109,26.729z
	 M23.676,12.325v1.038h-1.104v-1.038H23.676z M19.391,12.325h1.038v1.038h-1.038V12.325z M16.471,23.957l-1.604,8.09h-4.517
	L16.471,23.957z"/>
</svg>
