<?xml version="1.0" encoding="utf-8"?>
<!-- Generator: Adobe Illustrator 16.0.0, SVG Export Plug-In . SVG Version: 6.00 Build 0)  -->
<!DOCTYPE svg PUBLIC "-//W3C//DTD SVG 1.1//EN" "http://www.w3.org/Graphics/SVG/1.1/DTD/svg11.dtd">
<svg version="1.1" id="图层_1" xmlns="http://www.w3.org/2000/svg" xmlns:xlink="http://www.w3.org/1999/xlink" x="0px" y="0px"
	 width="43px" height="43px" viewBox="0 0 43 43" enable-background="new 0 0 43 43" xml:space="preserve">
<g transform="matrix(1 0 0 1 -636 -130 )">
	
		<linearGradient id="SVGID_1_" gradientUnits="userSpaceOnUse" x1="1293.5146" y1="136.6992" x2="1293.5146" y2="94.1292" gradientTransform="matrix(1 0 0 -1 -636.0156 266.6992)">
		<stop  offset="0" style="stop-color:#93D68A"/>
		<stop  offset="1" style="stop-color:#61B86E"/>
	</linearGradient>
	<path fill="url(#SVGID_1_)" d="M657.5,130c12.04,0,21.5,9.46,21.5,21.5s-9.46,21.5-21.5,21.5s-21.5-9.46-21.5-21.5
		S645.46,130,657.5,130z"/>
</g>
<path fill="#FFFFFF" d="M21.524,9.081c-6.08,0-11.024,1.585-11.024,3.478v18.144c0.402,1.797,5.157,3.217,10.952,3.217
	c5.82,0,10.551-1.42,10.953-3.217V12.582l0.095-0.023C32.523,10.666,27.604,9.081,21.524,9.081z M19.253,28.928h-4.755
	c-0.402,0-0.733-0.308-0.733-0.71c0-0.378,0.332-0.71,0.733-0.71h4.755c0.402,0,0.733,0.308,0.733,0.71
	C20.01,28.62,19.678,28.928,19.253,28.928z M19.253,25.829h-4.755c-0.402,0-0.733-0.308-0.733-0.71c0-0.378,0.332-0.71,0.733-0.71
	h4.755c0.402,0,0.733,0.308,0.733,0.71C20.01,25.521,19.678,25.829,19.253,25.829z M19.253,22.659h-4.755
	c-0.402,0-0.733-0.308-0.733-0.71c0-0.378,0.332-0.71,0.733-0.71h4.755c0.402,0,0.733,0.308,0.733,0.71
	C20.01,22.351,19.678,22.683,19.253,22.659z M19.253,19.702h-4.755c-0.402,0-0.733-0.308-0.733-0.71
	c0-0.378,0.332-0.709,0.733-0.709h4.755c0.402,0,0.733,0.308,0.733,0.709C20.01,19.395,19.678,19.702,19.253,19.702z M28.644,27.745
	h-0.048c-0.945,0.875-2.342,1.112-3.547,0.663c-1.207-0.473-2.011-1.561-2.035-2.815c0.048-1.111,0.592-2.129,1.49-2.838
	c0.899-0.71,1.419-1.75,1.467-2.862c0-0.095,0.07-0.213,0.165-0.26c0.096-0.047,0.214-0.047,0.309,0s0.165,0.142,0.165,0.26
	c0.048,1.112,0.568,2.152,1.467,2.862c0.899,0.709,1.443,1.75,1.49,2.862C29.566,26.374,29.235,27.153,28.644,27.745z
	 M21.666,13.765c-4.826,0-8.752-0.781-8.752-1.727s3.903-1.727,8.752-1.727c4.825,0,8.752,0.781,8.752,1.727
	S26.491,13.765,21.666,13.765z"/>
</svg>
