<?xml version="1.0" encoding="utf-8"?>
<!-- Generator: Adobe Illustrator 16.0.0, SVG Export Plug-In . SVG Version: 6.00 Build 0)  -->
<!DOCTYPE svg PUBLIC "-//W3C//DTD SVG 1.1//EN" "http://www.w3.org/Graphics/SVG/1.1/DTD/svg11.dtd">
<svg version="1.1" id="图层_1" xmlns="http://www.w3.org/2000/svg" xmlns:xlink="http://www.w3.org/1999/xlink" x="0px" y="0px"
	 width="43px" height="43px" viewBox="0 0 43 43" enable-background="new 0 0 43 43" xml:space="preserve">
<g transform="matrix(1 0 0 1 -400 -130 )">
	
		<linearGradient id="SVGID_1_" gradientUnits="userSpaceOnUse" x1="821.5166" y1="322.6992" x2="821.5166" y2="280.1297" gradientTransform="matrix(1 0 0 -1 -400.0151 452.6992)">
		<stop  offset="0" style="stop-color:#64D5D1"/>
		<stop  offset="1" style="stop-color:#55B6D2"/>
	</linearGradient>
	<path fill="url(#SVGID_1_)" d="M421.502,130c12.039,0,21.5,9.46,21.5,21.5s-9.461,21.5-21.5,21.5c-12.041,0-21.5-9.46-21.5-21.5
		S409.461,130,421.502,130z"/>
</g>
<g>
	<path fill="#FFFFFF" d="M26.609,31.254h0.114c-1.186-0.148-1.818-0.622-2.153-1.101h-6.137c-0.336,0.479-0.968,0.953-2.153,1.101
		h0.074c-0.371,0-0.667,0.301-0.667,0.666c0,0.37,0.301,0.666,0.667,0.666h10.255c0.371,0,0.668-0.301,0.668-0.666
		C27.281,31.55,26.98,31.254,26.609,31.254z M31.758,10.414H11.246c-0.964,0-1.744,0.779-1.744,1.742v15.424
		c0.029,0.818,0.706,1.475,1.536,1.475h20.923c0.829,0,1.502-0.656,1.536-1.475l0.005-2.877V12.155
		C33.502,11.193,32.722,10.414,31.758,10.414z M22.896,27.381c0,0.212-0.173,0.385-0.386,0.385h-2.021
		c-0.212,0-0.386-0.173-0.386-0.385v-0.267c0-0.212,0.174-0.384,0.386-0.384h2.021c0.213,0,0.386,0.172,0.386,0.384V27.381
		L22.896,27.381z M32.059,25.008c0,0.168-0.133,0.306-0.301,0.306H11.246c-0.168,0-0.307-0.138-0.307-0.306V12.155
		c0-0.168,0.139-0.306,0.307-0.306h20.508c0.167,0,0.305,0.138,0.305,0.306V25.008L32.059,25.008z M26.507,18.066h0.771l0.024-0.024
		c0-0.237-0.021-0.479-0.055-0.715L26.507,18.066z M24.738,13.694l-2.445,2.442v0.77l2.914-2.912
		C25.055,13.882,24.896,13.783,24.738,13.694z M23.651,13.246l-1.358,1.357v0.77l1.926-1.924
		C24.036,13.364,23.844,13.3,23.651,13.246L23.651,13.246z M22.302,13.058l-0.009,0.01v0.77l0.727-0.725
		C22.781,13.078,22.544,13.058,22.302,13.058z M24.204,18.066l2.456-2.452c-0.09-0.158-0.188-0.316-0.302-0.469l-2.925,2.921H24.204
		z M26.018,14.716c-0.06-0.064-0.119-0.128-0.183-0.192c-0.064-0.064-0.134-0.128-0.203-0.192l-3.339,3.34v0.39h0.375L26.018,14.716
		L26.018,14.716z M25.741,18.066l1.373-1.372c-0.055-0.192-0.124-0.38-0.198-0.567l-1.94,1.939H25.741L25.741,18.066z
		 M21.418,13.921c-2.777,0-5.029,2.25-5.029,5.023s2.252,5.022,5.029,5.022c2.776,0,5.029-2.25,5.029-5.022h-5.029V13.921z"/>
</g>
</svg>
