<?xml version="1.0" encoding="utf-8"?>
<!-- Generator: Adobe Illustrator 16.0.0, SVG Export Plug-In . SVG Version: 6.00 Build 0)  -->
<!DOCTYPE svg PUBLIC "-//W3C//DTD SVG 1.1//EN" "http://www.w3.org/Graphics/SVG/1.1/DTD/svg11.dtd">
<svg version="1.1" id="图层_1" xmlns="http://www.w3.org/2000/svg" xmlns:xlink="http://www.w3.org/1999/xlink" x="0px" y="0px"
	 width="43px" height="43px" viewBox="0 0 43 43" enable-background="new 0 0 43 43" xml:space="preserve">
<g transform="matrix(1 0 0 1 -177 -130 )">
	
		<linearGradient id="SVGID_1_" gradientUnits="userSpaceOnUse" x1="375.5151" y1="279.6992" x2="375.5151" y2="322.2697" gradientTransform="matrix(1 0 0 -1 -177.0151 452.6992)">
		<stop  offset="0" style="stop-color:#A368F6"/>
		<stop  offset="1" style="stop-color:#FF77CA"/>
	</linearGradient>
	<path fill="url(#SVGID_1_)" d="M198.5,130c12.039,0,21.5,9.46,21.5,21.5s-9.461,21.5-21.5,21.5c-12.041,0-21.5-9.46-21.5-21.5
		S186.459,130,198.5,130z"/>
</g>
<g>
	<path fill="#FFFFFF" d="M16.557,25.893c-1.116,0-2.021,0.906-2.021,2.024c0,1.117,0.905,2.021,2.021,2.021s2.027-0.904,2.027-2.021
		C18.584,26.799,17.673,25.893,16.557,25.893z M16.557,26.453c0.494,0,0.929,0.242,1.194,0.613l-0.795,0.459
		c-0.102-0.103-0.243-0.167-0.399-0.167s-0.297,0.064-0.397,0.168l-0.792-0.457C15.633,26.697,16.067,26.453,16.557,26.453z
		 M15.096,27.917c0-0.154,0.024-0.303,0.068-0.441l0.84,0.484c0.016,0.208,0.145,0.384,0.326,0.465v0.937
		C15.634,29.252,15.096,28.646,15.096,27.917z M16.788,29.361v-0.938c0.182-0.083,0.313-0.259,0.328-0.466l0.838-0.485
		c0.045,0.141,0.069,0.289,0.069,0.444C18.023,28.646,17.49,29.251,16.788,29.361z"/>
	<path fill="#FFFFFF" d="M26.608,25.893c-1.116,0-2.027,0.906-2.027,2.024c0,1.117,0.911,2.021,2.027,2.021s2.021-0.904,2.021-2.021
		C28.63,26.799,27.725,25.893,26.608,25.893z M26.608,26.453c0.491,0,0.924,0.243,1.188,0.614l-0.791,0.459
		c-0.101-0.104-0.241-0.168-0.397-0.168s-0.297,0.064-0.399,0.167l-0.794-0.458C25.682,26.696,26.117,26.453,26.608,26.453z
		 M25.142,27.917c0-0.155,0.024-0.304,0.069-0.444l0.839,0.486c0.017,0.207,0.146,0.382,0.327,0.464v0.938
		C25.679,29.249,25.142,28.645,25.142,27.917z M26.83,29.362v-0.935c0.185-0.081,0.317-0.26,0.332-0.472L28,27.473
		c0.045,0.141,0.068,0.289,0.068,0.444C28.068,28.648,27.531,29.256,26.83,29.362z"/>
	<path fill="#FFFFFF" d="M33.208,26.185c-0.946,0-1.708,0.764-1.708,1.703c0,0.942,0.762,1.705,1.708,1.705
		c0.942,0,1.703-0.763,1.703-1.705C34.911,26.948,34.15,26.185,33.208,26.185z M33.208,26.656c0.413,0,0.779,0.204,1.003,0.517
		l-0.669,0.387c-0.085-0.087-0.203-0.142-0.334-0.142c-0.133,0-0.252,0.054-0.338,0.141l-0.668-0.385
		C32.426,26.86,32.792,26.656,33.208,26.656z M31.974,27.888c0-0.13,0.021-0.255,0.058-0.373l0.705,0.407
		c0.013,0.178,0.124,0.328,0.281,0.396v0.785C32.425,29.012,31.974,28.504,31.974,27.888z M33.398,29.103v-0.786
		c0.152-0.068,0.263-0.217,0.275-0.393l0.71-0.41c0.038,0.118,0.059,0.244,0.059,0.374C34.442,28.503,33.988,29.011,33.398,29.103z"
		/>
	<path fill="#FFFFFF" d="M9.813,26.185c-0.94,0-1.702,0.764-1.702,1.703c0,0.942,0.762,1.705,1.702,1.705
		c0.941,0,1.703-0.763,1.703-1.705C11.516,26.948,10.754,26.185,9.813,26.185z M9.813,26.656c0.413,0,0.779,0.204,1.004,0.517
		l-0.669,0.387c-0.085-0.087-0.204-0.142-0.335-0.142c-0.13,0-0.249,0.055-0.334,0.142L8.81,27.173
		C9.034,26.86,9.4,26.656,9.813,26.656z M8.578,27.888c0-0.131,0.021-0.256,0.06-0.374l0.709,0.41
		C9.36,28.1,9.47,28.248,9.623,28.317v0.785C9.033,29.012,8.578,28.504,8.578,27.888z M10.003,29.103v-0.785
		c0.153-0.069,0.263-0.217,0.276-0.393l0.71-0.409c0.038,0.117,0.059,0.242,0.059,0.372C11.048,28.504,10.593,29.012,10.003,29.103z
		"/>
	<path fill="#FFFFFF" d="M16.557,17.304c1.116,0,2.027-0.905,2.027-2.023c0-1.117-0.911-2.024-2.027-2.024s-2.021,0.907-2.021,2.024
		C14.535,16.398,15.44,17.304,16.557,17.304z M16.788,16.725v-0.937c0.182-0.082,0.313-0.258,0.328-0.466l0.838-0.485
		c0.045,0.14,0.069,0.289,0.069,0.443C18.023,16.01,17.49,16.614,16.788,16.725z M16.557,13.818c0.494,0,0.929,0.241,1.194,0.612
		l-0.794,0.458c-0.103-0.104-0.244-0.168-0.4-0.168c-0.157,0-0.298,0.065-0.398,0.169l-0.791-0.457
		C15.633,14.061,16.067,13.818,16.557,13.818z M15.164,14.839l0.84,0.484c0.016,0.209,0.145,0.386,0.326,0.467v0.935
		c-0.696-0.108-1.234-0.714-1.234-1.444C15.096,15.126,15.12,14.979,15.164,14.839z"/>
	<path fill="#FFFFFF" d="M26.608,17.304c1.116,0,2.021-0.905,2.021-2.023c0-1.117-0.905-2.024-2.021-2.024s-2.027,0.907-2.027,2.024
		C24.581,16.398,25.492,17.304,26.608,17.304z M26.83,16.727v-0.935c0.186-0.08,0.317-0.26,0.332-0.472L28,14.836
		c0.045,0.141,0.068,0.29,0.068,0.444C28.068,16.013,27.531,16.619,26.83,16.727z M26.608,13.818c0.491,0,0.925,0.241,1.188,0.612
		l-0.791,0.459c-0.101-0.104-0.241-0.169-0.397-0.169s-0.298,0.064-0.399,0.168l-0.794-0.458
		C25.682,14.06,26.117,13.818,26.608,13.818z M25.211,14.837l0.839,0.485c0.016,0.208,0.146,0.383,0.327,0.466v0.937
		c-0.698-0.111-1.235-0.716-1.235-1.444C25.142,15.126,25.166,14.977,25.211,14.837z"/>
	<path fill="#FFFFFF" d="M21.49,11.321c-0.9,0-1.631,0.729-1.631,1.631c0,0.899,0.73,1.629,1.631,1.629s1.631-0.729,1.631-1.629
		C23.121,12.05,22.391,11.321,21.49,11.321z M21.49,11.771c0.397,0,0.746,0.196,0.959,0.496l-0.639,0.369
		c-0.081-0.084-0.194-0.137-0.32-0.137s-0.239,0.053-0.32,0.137l-0.64-0.369C20.744,11.968,21.093,11.771,21.49,11.771z
		 M20.312,12.952c0-0.125,0.02-0.245,0.056-0.358l0.677,0.391c0.013,0.169,0.118,0.312,0.266,0.377v0.755
		C20.743,14.029,20.312,13.541,20.312,12.952z M21.67,14.116v-0.754c0.147-0.065,0.253-0.209,0.266-0.377l0.678-0.39
		c0.035,0.112,0.055,0.232,0.055,0.356C22.668,13.541,22.236,14.029,21.67,14.116z"/>
	<path fill="#FFFFFF" d="M21.49,20.035c-1.116,0-2.021,0.904-2.021,2.021c0,1.118,0.905,2.024,2.021,2.024
		c1.121,0,2.026-0.906,2.026-2.024C23.517,20.939,22.611,20.035,21.49,20.035z M21.49,20.595c0.493,0,0.928,0.241,1.192,0.612
		l-0.794,0.458c-0.102-0.102-0.242-0.165-0.398-0.165c-0.154,0-0.295,0.063-0.396,0.167l-0.793-0.458
		C20.566,20.837,21.002,20.595,21.49,20.595z M20.028,22.057c0-0.154,0.024-0.304,0.069-0.443l0.839,0.486
		c0.017,0.208,0.146,0.385,0.327,0.467v0.936C20.567,23.393,20.028,22.787,20.028,22.057z M21.722,23.502v-0.937
		c0.181-0.083,0.311-0.258,0.327-0.465l0.839-0.484c0.044,0.139,0.067,0.287,0.067,0.44C22.955,22.786,22.423,23.391,21.722,23.502z
		"/>
	<path fill="#FFFFFF" d="M20.019,11.23h0.082v0.691c0.325-0.42,0.823-0.69,1.39-0.69c0.571,0,1.075,0.271,1.395,0.69V11.23h0.082
		c0.375,0,0.678-0.304,0.678-0.678v-0.184c0-0.374-0.303-0.677-0.678-0.677h-0.082V8.823h-2.784v0.869h-0.082
		c-0.37,0-0.674,0.303-0.674,0.677v0.184C19.345,10.927,19.648,11.23,20.019,11.23z"/>
	<path fill="#FFFFFF" d="M24.5,27.925c0-0.184,0.023-0.367,0.071-0.544h-1.687V26.75h0.626c0.515,0,0.932-0.417,0.932-0.931v-0.252
		c0-0.515-0.417-0.931-0.932-0.931h-0.626v-0.938c-0.377,0.322-0.859,0.516-1.395,0.516c-0.53,0-1.014-0.193-1.39-0.516v0.938
		h-0.627c-0.515,0-0.927,0.416-0.927,0.931v0.252c0,0.514,0.412,0.931,0.927,0.931h0.627v0.631h-1.486
		c0.048,0.178,0.071,0.36,0.071,0.544c0,0.301-0.062,0.586-0.175,0.846h0.832c-0.451,0.063-0.796,0.449-0.796,0.92v0.253
		c0,0.513,0.412,0.93,0.927,0.93h0.627v3.304h2.784v-3.304h0.626c0.515,0,0.932-0.417,0.932-0.93V29.69
		c0-0.471-0.349-0.856-0.801-0.92h1.032C24.565,28.511,24.5,28.226,24.5,27.925z"/>
	<path fill="#FFFFFF" d="M36.371,27.418c-0.2-0.168-0.54-0.202-0.54-0.202H34.89c0.093,0.215,0.139,0.449,0.139,0.694
		c0,0.247-0.046,0.482-0.139,0.696h0.247v5.57h1.39v-6.103C36.526,28.074,36.526,27.549,36.371,27.418z"/>
	<path fill="#FFFFFF" d="M6.629,27.418c0.2-0.168,0.54-0.202,0.54-0.202H8.11c-0.093,0.215-0.139,0.449-0.139,0.694
		c0,0.247,0.046,0.482,0.139,0.696H7.863v5.57h-1.39v-6.103C6.474,28.074,6.474,27.549,6.629,27.418z"/>
	<path fill="#FFFFFF" d="M31.546,27.216h-0.292v-3.761h1.183c0.267,0,0.483-0.215,0.483-0.482v-0.131c0-0.266-0.217-0.48-0.483-0.48
		h-1.183v-9.553h-1.395v1.963h-1.157c0.048,0.178,0.072,0.361,0.071,0.545c0,0.301-0.062,0.587-0.174,0.844h1.26v11.056H28.66
		c0.073,0.219,0.113,0.451,0.113,0.694c0,0.244-0.04,0.478-0.113,0.696h2.886c-0.087-0.215-0.133-0.449-0.133-0.696
		C31.413,27.665,31.459,27.431,31.546,27.216z"/>
	<path fill="#FFFFFF" d="M13.239,27.216V16.16h1.348c-0.113-0.257-0.176-0.543-0.176-0.844c0-0.189,0.026-0.371,0.073-0.545h-1.245
		c0,0-0.808-0.016-1.106,0.22c-0.314,0.233-0.283,1.169-0.283,1.169v11.056H11.49c0.092,0.215,0.139,0.449,0.139,0.694
		c0,0.247-0.047,0.481-0.139,0.696h3.04c-0.079-0.224-0.119-0.459-0.119-0.696c0-0.236,0.04-0.472,0.119-0.694H13.239z"/>
	<path fill="#FFFFFF" d="M18.511,16.16h1.59v1.467h-0.082c-0.37,0-0.674,0.306-0.674,0.68v0.184c0,0.374,0.304,0.679,0.674,0.679
		h0.082v1.289c0.376-0.321,0.859-0.516,1.39-0.516c0.535,0,1.018,0.194,1.395,0.516v-1.289h0.082c0.375,0,0.678-0.305,0.678-0.679
		v-0.184c0-0.374-0.303-0.68-0.678-0.68h-0.082V16.16h1.789c-0.108-0.257-0.174-0.543-0.174-0.844
		c-0.001-0.184,0.023-0.367,0.071-0.545h-1.687v-0.727c-0.319,0.417-0.823,0.688-1.395,0.688c-0.566,0-1.064-0.271-1.39-0.688v0.727
		h-1.486c0.048,0.178,0.071,0.361,0.071,0.545C18.686,15.617,18.624,15.903,18.511,16.16z"/>
</g>
</svg>
