<?xml version="1.0" encoding="utf-8"?>
<!-- Generator: Adobe Illustrator 16.0.0, SVG Export Plug-In . SVG Version: 6.00 Build 0)  -->
<!DOCTYPE svg PUBLIC "-//W3C//DTD SVG 1.1//EN" "http://www.w3.org/Graphics/SVG/1.1/DTD/svg11.dtd">
<svg version="1.1" id="图层_1" xmlns="http://www.w3.org/2000/svg" xmlns:xlink="http://www.w3.org/1999/xlink" x="0px" y="0px"
	 width="43px" height="43px" viewBox="0 0 43 43" enable-background="new 0 0 43 43" xml:space="preserve">
<g transform="matrix(1 0 0 1 -177 -130 )">
	
		<linearGradient id="SVGID_1_" gradientUnits="userSpaceOnUse" x1="375.5176" y1="93.6992" x2="375.5176" y2="136.2692" gradientTransform="matrix(1 0 0 -1 -177.0151 266.6992)">
		<stop  offset="0" style="stop-color:#A368F6"/>
		<stop  offset="1" style="stop-color:#FF77CA"/>
	</linearGradient>
	<path fill="url(#SVGID_1_)" d="M198.502,130c12.039,0,21.5,9.46,21.5,21.5s-9.461,21.5-21.5,21.5c-12.041,0-21.5-9.46-21.5-21.5
		S186.461,130,198.502,130z"/>
</g>
<g>
	<path fill="#FFFFFF" d="M19.513,16.953c0.331,0,0.651-0.046,0.958-0.122l-1.345-1.102c-0.47-0.383-0.76-0.926-0.82-1.529
		c-0.061-0.604,0.119-1.193,0.502-1.661c0.432-0.529,1.071-0.832,1.755-0.832c0.523,0,1.032,0.182,1.437,0.513l1.429,1.171
		c0.011-0.123,0.019-0.247,0.019-0.372c0-2.173-1.762-3.935-3.934-3.935c-2.173,0-3.935,1.762-3.935,3.935
		C15.578,15.192,17.34,16.953,19.513,16.953L19.513,16.953z M28.441,15.237c-0.774,0-1.506,0.179-2.162,0.49
		c-0.414,0.196-0.798,0.444-1.141,0.741l-3.961-3.244c-0.181-0.148-0.398-0.221-0.615-0.221c-0.281,0-0.561,0.122-0.752,0.356
		c-0.341,0.416-0.279,1.028,0.136,1.367l3.991,3.27c-0.207,0.405-0.365,0.839-0.457,1.299c-0.05,0.244-0.076,0.496-0.089,0.751
		l2.396-1.327c0.432-0.239,0.919-0.365,1.411-0.365c1.061,0,2.039,0.576,2.553,1.504c0.778,1.406,0.267,3.183-1.139,3.962
		l-2.095,1.159c0.593,0.244,1.241,0.381,1.923,0.381c2.794,0,5.061-2.266,5.061-5.062C33.502,17.503,31.235,15.237,28.441,15.237z
		 M22.611,25.662l5.373-2.976c0.783-0.433,1.066-1.418,0.633-2.201c-0.295-0.533-0.848-0.835-1.418-0.835
		c-0.266,0-0.534,0.066-0.782,0.203l-5.328,2.95c-0.307-0.339-0.647-0.646-1.019-0.917c-1.099-0.802-2.448-1.281-3.914-1.281
		c-3.675,0-6.654,2.979-6.654,6.655c0,3.677,2.979,6.656,6.654,6.656c3.676,0,6.656-2.979,6.656-6.656
		c0-0.074-0.009-0.147-0.012-0.221C22.786,26.574,22.723,26.113,22.611,25.662L22.611,25.662z M16.165,32.806
		c-3.061,0-5.543-2.481-5.543-5.543c0-3.061,2.482-5.543,5.543-5.543c3.062,0,5.544,2.482,5.544,5.543
		C21.709,30.325,19.227,32.806,16.165,32.806z M16.165,23.349c-1.437,0-2.602,1.165-2.602,2.602c0,0.193,0.022,0.379,0.062,0.56
		c0.129,1.089,2.541,4.668,2.541,4.668s2.409-3.581,2.54-4.668c0.04-0.181,0.063-0.367,0.063-0.56
		C18.769,24.514,17.603,23.349,16.165,23.349z M16.165,27.289c-0.739,0-1.337-0.599-1.337-1.338c0-0.739,0.598-1.338,1.337-1.338
		s1.339,0.6,1.339,1.338C17.504,26.69,16.904,27.289,16.165,27.289L16.165,27.289z"/>
</g>
</svg>
