<?xml version="1.0" encoding="utf-8"?>
<!-- Generator: Adobe Illustrator 16.0.0, SVG Export Plug-In . SVG Version: 6.00 Build 0)  -->
<!DOCTYPE svg PUBLIC "-//W3C//DTD SVG 1.1//EN" "http://www.w3.org/Graphics/SVG/1.1/DTD/svg11.dtd">
<svg version="1.1" id="图层_1" xmlns="http://www.w3.org/2000/svg" xmlns:xlink="http://www.w3.org/1999/xlink" x="0px" y="0px"
	 width="43px" height="43px" viewBox="0 0 43 43" enable-background="new 0 0 43 43" xml:space="preserve">
<g transform="matrix(1 0 0 1 -517 -130 )">
	
		<linearGradient id="SVGID_1_" gradientUnits="userSpaceOnUse" x1="1055.5166" y1="-49.3008" x2="1055.5166" y2="-91.8708" gradientTransform="matrix(1 0 0 -1 -517.0156 80.6992)">
		<stop  offset="0" style="stop-color:#ED6F58"/>
		<stop  offset="1" style="stop-color:#E2915E"/>
	</linearGradient>
	<path fill="url(#SVGID_1_)" d="M538.502,130c12.04,0,21.5,9.46,21.5,21.5s-9.46,21.5-21.5,21.5s-21.5-9.46-21.5-21.5
		S526.462,130,538.502,130z"/>
</g>
<g>
	<path fill="#FFFFFF" d="M30.373,15.371l-4.992-4.992C24.818,9.816,24.055,9.5,23.26,9.5H13.252c-0.827,0-1.5,0.67-1.5,1.5v21
		c0,0.828,0.673,1.5,1.5,1.5h16.5c0.827,0,1.5-0.672,1.5-1.5V17.492C31.252,16.697,30.936,15.934,30.373,15.371z M24.502,11.621
		l4.629,4.629h-3.129c-0.827,0-1.5-0.673-1.5-1.5V11.621z M15.514,20.949c0-0.104,0.084-0.188,0.188-0.188h11.625
		c0.104,0,0.188,0.084,0.188,0.188v1.125c0,0.104-0.084,0.188-0.188,0.188H15.701c-0.104,0-0.188-0.084-0.188-0.188V20.949z
		 M15.525,28.438c0-0.104,0.085-0.188,0.188-0.188h11.625c0.103,0,0.188,0.084,0.188,0.188v1.125c0,0.104-0.085,0.188-0.188,0.188
		H15.713c-0.103,0-0.188-0.084-0.188-0.188V28.438z M27.525,25.836c0,0.104-0.085,0.188-0.188,0.188H15.713
		c-0.103,0-0.188-0.084-0.188-0.188v-1.125c0-0.104,0.085-0.188,0.188-0.188h11.625c0.103,0,0.188,0.084,0.188,0.188V25.836z"/>
</g>
</svg>
