<?xml version="1.0" encoding="utf-8"?>
<!-- Generator: Adobe Illustrator 16.0.0, SVG Export Plug-In . SVG Version: 6.00 Build 0)  -->
<!DOCTYPE svg PUBLIC "-//W3C//DTD SVG 1.1//EN" "http://www.w3.org/Graphics/SVG/1.1/DTD/svg11.dtd">
<svg version="1.1" id="图层_1" xmlns="http://www.w3.org/2000/svg" xmlns:xlink="http://www.w3.org/1999/xlink" x="0px" y="0px"
	 width="43px" height="43px" viewBox="0 0 43 43" enable-background="new 0 0 43 43" xml:space="preserve">
<g transform="matrix(1 0 0 1 -517 -130 )">
	
		<linearGradient id="SVGID_1_" gradientUnits="userSpaceOnUse" x1="1055.5156" y1="-607.3008" x2="1055.5156" y2="-649.8708" gradientTransform="matrix(1 0 0 -1 -517.0156 -477.3008)">
		<stop  offset="0" style="stop-color:#ED6F58"/>
		<stop  offset="1" style="stop-color:#E2915E"/>
	</linearGradient>
	<path fill="url(#SVGID_1_)" d="M538.501,130c12.041,0,21.5,9.46,21.5,21.5s-9.459,21.5-21.5,21.5c-12.039,0-21.5-9.46-21.5-21.5
		S526.462,130,538.501,130z"/>
</g>
<g>
	<path fill="#FFFFFF" d="M12.924,18.48c-1.044,0.074-2.014,0.149-2.461,0.149c-0.373,0.074-0.597,0.372-0.82,0.819
		c-0.224,0.522-0.224,0.597,0.299,0.82c0.521,0.224,0.969,0.373,0.969,0.373s-0.597,1.193-0.895,1.715
		c-0.149,0.298-0.149,0.298-0.224,0.895v6.039c0,0.597,0.149,0.82,0.671,0.82h2.982c0.521,0,0.671-0.298,0.671-0.671v-1.268h5.518
		v-7.456H13.52c-0.298,0,0.224-1.192,0.97-2.162c1.192-1.491,1.491-1.342,1.715-1.342h3.43v-1.641h-4.026
		C15.31,15.572,14.116,16.915,12.924,18.48z M14.638,23.028c0.896,0.149,1.044,0.522,1.044,0.671v1.044c0,0-2.907-0.074-3.653-0.149
		c-1.043-0.074-0.671-1.491-0.671-1.863C11.357,22.655,13.818,22.879,14.638,23.028z M32.681,14.38h-1.565v1.192
		c0,0.448-0.373,0.82-0.82,0.82h-6.71c-0.447,0-0.82-0.372-0.82-0.82V14.38h-1.192c-0.447,0-0.82,0.373-0.82,0.82v14.165
		c0,0.448,0.373,0.82,0.82,0.82h11.108c0.447,0,0.82-0.372,0.82-0.82V15.2C33.501,14.753,33.128,14.38,32.681,14.38z M24.853,26.607
		h-1.565v-1.566h1.565V26.607z M24.853,23.401h-1.565v-1.565h1.565V23.401z M25.598,18.704h-0.372v0.373h-0.373v0.372h-0.373v0.373
		h-0.373v0.373h-0.819v-0.373h-0.373v-0.373h-0.373v-0.372h0.82v0.372h0.745v-0.372h0.373v-0.373h0.373v-0.373h0.82v0.373H25.598z
		 M31.936,26.16h-5.518v-0.82h5.518V26.16z M31.936,23.028h-5.518v-0.82h5.518V23.028z M31.936,19.897h-5.518v-0.82h5.518V19.897z"
		/>
	<path fill="#FFFFFF" d="M24.479,15.572h5.145c0.447,0,0.82-0.372,0.82-0.819v-1.118c0-0.448-0.373-0.82-0.82-0.82h-5.145
		c-0.447,0-0.82,0.372-0.82,0.82v1.118C23.659,15.2,24.032,15.572,24.479,15.572z M24.853,13.635h4.324
		c0.224,0,0.373,0.148,0.373,0.372S29.4,14.38,29.177,14.38h-4.324c-0.224,0-0.373-0.149-0.373-0.373S24.629,13.635,24.853,13.635
		L24.853,13.635z"/>
</g>
</svg>
