<?xml version="1.0" encoding="utf-8"?>
<!-- Generator: Adobe Illustrator 16.0.0, SVG Export Plug-In . SVG Version: 6.00 Build 0)  -->
<!DOCTYPE svg PUBLIC "-//W3C//DTD SVG 1.1//EN" "http://www.w3.org/Graphics/SVG/1.1/DTD/svg11.dtd">
<svg version="1.1" id="图层_1" xmlns="http://www.w3.org/2000/svg" xmlns:xlink="http://www.w3.org/1999/xlink" x="0px" y="0px"
	 width="43px" height="43px" viewBox="0 0 43 43" enable-background="new 0 0 43 43" xml:space="preserve">
<g transform="matrix(1 0 0 1 -177 -130 )">
	
		<linearGradient id="SVGID_1_" gradientUnits="userSpaceOnUse" x1="375.5156" y1="465.6992" x2="375.5156" y2="508.2692" gradientTransform="matrix(1 0 0 -1 -177.0151 638.6992)">
		<stop  offset="0" style="stop-color:#A368F6"/>
		<stop  offset="1" style="stop-color:#FF77CA"/>
	</linearGradient>
	<path fill="url(#SVGID_1_)" d="M198.5,130c12.039,0,21.5,9.46,21.5,21.5s-9.461,21.5-21.5,21.5c-12.041,0-21.5-9.46-21.5-21.5
		S186.459,130,198.5,130z"/>
</g>
<path fill="#FFFFFF" d="M24.029,7.1c1.164,0,2.176,0.829,2.456,2.009l1.239,5.191H32.3v2.4h-4.002l1.146,4.8H33.5v2.4l-3.604,0.001
	l-0.009,0.122l2.315,8.497c0.384,1.409-0.394,2.876-1.739,3.278c-0.628,0.188-1.305,0.114-1.877-0.204l-0.188-0.115L21.5,30.837
	l-6.899,4.642c-0.604,0.411-1.362,0.528-2.063,0.319c-1.345-0.402-2.125-1.87-1.741-3.277l2.316-8.498L13.107,23.9H9.5v-2.4h4.056
	l1.144-4.8h-4v-2.4h4.574l1.24-5.191c0.265-1.116,1.184-1.915,2.265-2.001L18.97,7.1H24.029z M27.928,26.511l-4.087,2.75
	l5.927,3.988L27.928,26.511L27.928,26.511z M15.07,26.511l-1.838,6.738l5.926-3.988L15.07,26.511z M27.125,23.9H15.871l5.629,3.785
	L27.125,23.9L27.125,23.9z M25.252,16.7h-7.506l-1.31,4.8h10.125L25.252,16.7z M23.355,9.751h-3.712L18.401,14.3h6.194L23.355,9.751
	L23.355,9.751L23.355,9.751z"/>
</svg>
