<?xml version="1.0" encoding="utf-8"?>
<!-- Generator: Adobe Illustrator 16.0.0, SVG Export Plug-In . SVG Version: 6.00 Build 0)  -->
<!DOCTYPE svg PUBLIC "-//W3C//DTD SVG 1.1//EN" "http://www.w3.org/Graphics/SVG/1.1/DTD/svg11.dtd">
<svg version="1.1" id="图层_1" xmlns="http://www.w3.org/2000/svg" xmlns:xlink="http://www.w3.org/1999/xlink" x="0px" y="0px"
	 width="43px" height="43px" viewBox="0 0 43 43" enable-background="new 0 0 43 43" xml:space="preserve">
<g transform="matrix(1 0 0 1 -517 -130 )">
	
		<linearGradient id="SVGID_1_" gradientUnits="userSpaceOnUse" x1="1055.5146" y1="136.6992" x2="1055.5146" y2="94.1292" gradientTransform="matrix(1 0 0 -1 -517.0156 266.6992)">
		<stop  offset="0" style="stop-color:#ED6F58"/>
		<stop  offset="1" style="stop-color:#E2915E"/>
	</linearGradient>
	<path fill="url(#SVGID_1_)" d="M538.5,130c12.04,0,21.5,9.46,21.5,21.5s-9.46,21.5-21.5,21.5s-21.5-9.46-21.5-21.5
		S526.46,130,538.5,130z"/>
</g>
<g>
	<path fill="#FFFFFF" d="M10.565,11.508h5.279V10l-0.755,0.188h-4.524L10,10v1.32L10.565,11.508z M16.41,18.106
		c-0.565,0-0.565-0.377-0.565-0.377v-5.467H10v6.41c0.565,4.713,5.467,5.279,5.467,5.279h3.206l-0.377-0.754v-4.148l0.565-0.754
		C18.672,18.106,16.976,18.106,16.41,18.106L16.41,18.106z M21.123,18.106h-1.886v6.033h1.886l-0.188-0.754v-4.524L21.123,18.106z
		 M29.794,19.049c0,0-3.581-1.131-8.294-0.942l0.377,0.754v4.147l-0.188,1.131h4.524c0,0,0.566,0,0.754,0.566v5.656H33v-6.41
		C32.812,23.951,32.812,20.746,29.794,19.049L29.794,19.049z M27.721,31.115h-0.754V33l0.754-0.188h4.525L32.812,33v-1.885H27.721z"
		/>
</g>
</svg>
