<?xml version="1.0" encoding="utf-8"?>
<!-- Generator: Adobe Illustrator 16.0.0, SVG Export Plug-In . SVG Version: 6.00 Build 0)  -->
<!DOCTYPE svg PUBLIC "-//W3C//DTD SVG 1.1//EN" "http://www.w3.org/Graphics/SVG/1.1/DTD/svg11.dtd">
<svg version="1.1" id="图层_1" xmlns="http://www.w3.org/2000/svg" xmlns:xlink="http://www.w3.org/1999/xlink" x="0px" y="0px"
	 width="43px" height="43px" viewBox="0 0 43 43" enable-background="new 0 0 43 43" xml:space="preserve">
<g transform="matrix(1 0 0 1 -177 -130 )">
	
		<linearGradient id="SVGID_1_" gradientUnits="userSpaceOnUse" x1="375.5176" y1="-92.3008" x2="375.5176" y2="-49.7308" gradientTransform="matrix(1 0 0 -1 -177.0151 80.6992)">
		<stop  offset="0" style="stop-color:#A368F6"/>
		<stop  offset="1" style="stop-color:#FF77CA"/>
	</linearGradient>
	<path fill="url(#SVGID_1_)" d="M198.502,130c12.039,0,21.5,9.46,21.5,21.5s-9.461,21.5-21.5,21.5c-12.041,0-21.5-9.46-21.5-21.5
		S186.461,130,198.502,130z"/>
</g>
<path fill="#FFFFFF" d="M28.303,11.388c0.374,0.224,0.524,0.748,0.299,1.123l-1.498,2.547l-1.348-0.824l1.498-2.547
	c0.149-0.224,0.3-0.299,0.523-0.374C27.928,11.313,28.152,11.313,28.303,11.388z M21.485,9.514c0.524,0,0.824,0.375,0.824,0.824
	v2.922h-1.724v-2.922C20.586,9.889,21.036,9.514,21.485,9.514L21.485,9.514z M14.668,11.388c0.226-0.15,0.375-0.15,0.6-0.075
	s0.375,0.225,0.45,0.374l1.497,2.547l-1.423,0.824l-1.423-2.547C14.145,12.136,14.22,11.611,14.668,11.388z M9.575,16.481
	c0.149-0.226,0.299-0.375,0.523-0.375c0.226-0.075,0.375-0.075,0.6,0.075l2.547,1.498l-0.824,1.349l-2.547-1.499
	C9.5,17.38,9.425,16.856,9.575,16.481L9.575,16.481z M33.396,16.481c0.225,0.375,0.075,0.898-0.3,1.123l-2.547,1.499l-0.823-1.499
	l2.547-1.498c0.224-0.15,0.374-0.15,0.599-0.075S33.246,16.256,33.396,16.481L33.396,16.481z M32.572,31.764h-2.846v-8.016
	c0-4.57-3.672-8.315-8.241-8.315c-4.569,0.075-8.24,3.745-8.24,8.315v8.016h-2.846c-0.525,0-0.824,0.374-0.824,0.824
	c-0.075,0.523,0.374,0.898,0.824,0.898h22.248c0.524,0,0.824-0.375,0.824-0.824S33.097,31.764,32.572,31.764L32.572,31.764z
	 M20.437,30.564l0.824-5.02h-3.222l4.046-6.667l-0.824,5.019h3.221L20.437,30.564L20.437,30.564z"/>
</svg>
