<?xml version="1.0" encoding="utf-8"?>
<!-- Generator: Adobe Illustrator 16.0.0, SVG Export Plug-In . SVG Version: 6.00 Build 0)  -->
<!DOCTYPE svg PUBLIC "-//W3C//DTD SVG 1.1//EN" "http://www.w3.org/Graphics/SVG/1.1/DTD/svg11.dtd">
<svg version="1.1" id="图层_1" xmlns="http://www.w3.org/2000/svg" xmlns:xlink="http://www.w3.org/1999/xlink" x="0px" y="0px"
	 width="43px" height="43px" viewBox="0 0 43 43" enable-background="new 0 0 43 43" xml:space="preserve">
<g transform="matrix(1 0 0 1 -177 -130 )">
	
		<linearGradient id="SVGID_1_" gradientUnits="userSpaceOnUse" x1="375.5151" y1="-464.3008" x2="375.5151" y2="-421.7308" gradientTransform="matrix(1 0 0 -1 -177.0151 -291.3008)">
		<stop  offset="0" style="stop-color:#A368F6"/>
		<stop  offset="1" style="stop-color:#FF77CA"/>
	</linearGradient>
	<path fill="url(#SVGID_1_)" d="M198.5,130c12.039,0,21.5,9.46,21.5,21.5s-9.461,21.5-21.5,21.5c-12.041,0-21.5-9.46-21.5-21.5
		S186.459,130,198.5,130z"/>
</g>
<g>
	<path fill="#FFFFFF" d="M17.938,25.699h0.16c0.02-1.676,0.538-3.231,1.416-4.528c-0.519,0.04-1.037,0.06-1.576,0.06
		c-3.83,0-7.082-1.157-8.06-2.713c-0.199-0.319-0.319-0.14-0.319,0v3.053C9.54,23.864,13.291,25.699,17.938,25.699z M17.938,18.737
		c4.629,0,8.38-1.616,8.38-3.611V13.51c0-1.875-3.751-3.411-8.38-3.411c-4.628,0-8.379,1.536-8.379,3.411v1.636
		C9.54,17.121,13.291,18.737,17.938,18.737z M18.418,28.193c-0.16,0-0.34,0.02-0.519,0.02c-3.811,0-7.043-1.297-8.061-3.052
		C9.62,24.782,9.5,24.981,9.5,25.181v2.594c0,2.494,3.751,5.107,8.379,5.107c1.197,0,2.334-0.18,3.352-0.479
		C19.934,31.325,18.916,29.869,18.418,28.193z M26.518,18.896c-3.87,0-7.003,3.132-7.003,7.003c0,3.87,3.133,7.002,7.003,7.002
		s6.982-3.152,6.982-7.002C33.5,22.049,30.388,18.896,26.518,18.896z M30.887,29.031c-0.18,0.339-0.559,0.499-0.938,0.26
		l-3.093-1.876c-0.119-0.04-0.259-0.159-0.339-0.22c-0.22-0.119-0.559-0.379-0.559-0.638v-5.267c0-0.42,0.339-0.759,0.758-0.759
		s0.758,0.339,0.758,0.759v4.927l3.133,1.815C30.967,28.213,31.146,28.692,30.887,29.031L30.887,29.031z"/>
</g>
</svg>
