<?xml version="1.0" encoding="utf-8"?>
<!-- Generator: Adobe Illustrator 16.0.0, SVG Export Plug-In . SVG Version: 6.00 Build 0)  -->
<!DOCTYPE svg PUBLIC "-//W3C//DTD SVG 1.1//EN" "http://www.w3.org/Graphics/SVG/1.1/DTD/svg11.dtd">
<svg version="1.1" id="图层_1" xmlns="http://www.w3.org/2000/svg" xmlns:xlink="http://www.w3.org/1999/xlink" x="0px" y="0px"
	 width="43px" height="43px" viewBox="0 0 43 43" enable-background="new 0 0 43 43" xml:space="preserve">
<g transform="matrix(1 0 0 1 -400 -130 )">
	
		<linearGradient id="SVGID_1_" gradientUnits="userSpaceOnUse" x1="821.5156" y1="508.6992" x2="821.5156" y2="466.1292" gradientTransform="matrix(1 0 0 -1 -400.0151 638.6992)">
		<stop  offset="0" style="stop-color:#64D5D1"/>
		<stop  offset="1" style="stop-color:#55B6D2"/>
	</linearGradient>
	<path fill="url(#SVGID_1_)" d="M421.5,130c12.04,0,21.501,9.46,21.501,21.5S433.54,173,421.5,173s-21.5-9.46-21.5-21.5
		S409.46,130,421.5,130z"/>
</g>
<g>
	<path fill="#FFFFFF" d="M16.579,26.955h11.223v0.442c0.295-0.147,0.59-0.258,0.959-0.332v0.517
		c-1.732,0.553-2.359,1.843-2.322,3.649h-0.553v-0.59h-1.971v0.258c0,0.111,0.037,0.222,0.037,0.332l-0.516,0.036
		c-0.074-0.663-0.186-1.326-0.369-1.916c-0.147-0.553-0.369-1.032-0.59-1.512h-4.166c-0.295,0.406-0.553,0.922-0.773,1.475
		c-0.221,0.554-0.369,1.217-0.443,1.917l-0.405-0.037l-0.405,0.037c-0.073-0.663-0.184-1.327-0.369-1.917
		c-0.146-0.553-0.367-1.032-0.589-1.512h-4.202c-0.295,0.406-0.553,0.922-0.775,1.475c-0.221,0.554-0.367,1.217-0.441,1.917
		l-0.258-0.037H9.391v-0.589H8.654v-2.212h1.032v-1.475h2.985"/>
	<path fill="#FFFFFF" d="M36.243,26.771l-0.295-0.405v-0.037h0.147l0.368-0.774l-0.037-1.512h0.029v-0.221h-0.029
		c-0.258-1.512-0.662-2.986-1.474-4.461h-6.414l-0.442,0.848v6.157h1.032v1.179c2.653-0.331,4.055,1.29,4.055,3.502h0.479v-0.368
		h2.139l0.699-0.848v-0.295L36.243,26.771z M30.086,20.394h3.318v1.364c0,0.11,0.073,0.185,0.184,0.185h0.664
		c0.11,0,0.184-0.074,0.184-0.185v-1.106c0.443,0.922,0.701,1.88,0.774,2.913L30.086,22.9V20.394L30.086,20.394z M12.192,30.899
		c-0.073,0-0.146,0.074-0.146,0.147c0,0.074,0.073,0.147,0.146,0.147c0.074,0,0.148-0.073,0.148-0.147
		C12.303,30.974,12.266,30.899,12.192,30.899z M12.34,31.6c0.073-0.073,0.146-0.073,0.221,0c0.074,0.074,0.074,0.148,0,0.222
		c-0.074,0.074-0.147,0.074-0.221,0C12.303,31.748,12.303,31.674,12.34,31.6z M12.966,31.969c0-0.073,0.074-0.147,0.147-0.147
		s0.147,0.074,0.147,0.147s-0.074,0.147-0.147,0.147S12.966,32.042,12.966,31.969z M13.667,31.821c-0.074-0.073-0.074-0.147,0-0.222
		c0.074-0.073,0.148-0.073,0.221,0c0.074,0.074,0.074,0.148,0,0.222C13.815,31.858,13.741,31.858,13.667,31.821z M14.036,31.194
		c0.074,0,0.147-0.073,0.147-0.147c0-0.073-0.073-0.147-0.147-0.147s-0.148,0.074-0.148,0.147
		C13.887,31.121,13.961,31.194,14.036,31.194z M13.851,30.494c0.073-0.074,0.073-0.147,0-0.221c-0.073-0.074-0.147-0.074-0.222,0
		c-0.074,0.073-0.074,0.146,0,0.221C13.704,30.531,13.815,30.531,13.851,30.494z M13.261,30.126c0-0.074-0.074-0.147-0.147-0.147
		s-0.147,0.073-0.147,0.147c0,0.073,0.074,0.147,0.147,0.147S13.261,30.199,13.261,30.126z M12.561,30.273
		c-0.074-0.074-0.147-0.074-0.221,0c-0.074,0.073-0.074,0.146,0,0.221c0.073,0.074,0.146,0.074,0.221,0
		C12.598,30.42,12.598,30.347,12.561,30.273z"/>
	<path fill="#FFFFFF" d="M15.178,28.982c-0.553-0.516-1.254-0.848-2.064-0.848s-1.549,0.332-2.064,0.848
		c-0.516,0.517-0.848,1.254-0.848,2.064c0,0.812,0.332,1.549,0.848,2.064s1.254,0.848,2.064,0.848s1.548-0.332,2.064-0.848
		c0.516-0.516,0.848-1.253,0.848-2.064C16.026,30.236,15.694,29.499,15.178,28.982z M13.961,31.896
		c-0.221,0.221-0.516,0.368-0.848,0.368s-0.627-0.147-0.848-0.368c-0.221-0.222-0.368-0.517-0.368-0.849s0.147-0.627,0.368-0.848
		c0.221-0.222,0.516-0.368,0.848-0.368s0.627,0.146,0.848,0.368c0.222,0.221,0.332,0.516,0.369,0.848
		C14.331,31.379,14.183,31.674,13.961,31.896z M19.343,30.899c-0.073,0-0.147,0.074-0.147,0.147c0,0.074,0.074,0.147,0.147,0.147
		s0.147-0.073,0.147-0.147C19.491,30.974,19.417,30.899,19.343,30.899z M19.491,31.6c0.074-0.073,0.147-0.073,0.222,0
		c0.073,0.074,0.073,0.148,0,0.222c-0.074,0.074-0.147,0.074-0.222,0C19.454,31.748,19.454,31.674,19.491,31.6z M20.118,31.969
		c0-0.073,0.074-0.147,0.147-0.147s0.147,0.074,0.147,0.147s-0.074,0.147-0.147,0.147S20.118,32.042,20.118,31.969z M20.819,31.821
		c-0.074-0.073-0.074-0.147,0-0.222c0.073-0.073,0.146-0.073,0.221,0c0.074,0.074,0.074,0.148,0,0.222
		C20.965,31.858,20.892,31.858,20.819,31.821z M21.186,31.194c0.074,0,0.148-0.073,0.148-0.147c0-0.073-0.074-0.147-0.148-0.147
		c-0.072,0-0.146,0.074-0.146,0.147C21.04,31.121,21.114,31.194,21.186,31.194z M21.04,30.494c0.074-0.074,0.074-0.147,0-0.221
		c-0.074-0.074-0.147-0.074-0.221,0c-0.074,0.073-0.074,0.146,0,0.221C20.892,30.531,20.965,30.531,21.04,30.494z M20.413,30.126
		c0-0.074-0.074-0.147-0.147-0.147s-0.147,0.073-0.147,0.147c0,0.073,0.074,0.147,0.147,0.147S20.413,30.199,20.413,30.126z
		 M19.712,30.273c-0.074-0.074-0.147-0.074-0.222,0c-0.074,0.073-0.074,0.146,0,0.221s0.147,0.074,0.222,0
		C19.749,30.42,19.749,30.347,19.712,30.273z"/>
	<path fill="#FFFFFF" d="M22.33,28.982c-0.517-0.516-1.253-0.848-2.064-0.848s-1.548,0.332-2.064,0.848
		c-0.517,0.517-0.848,1.254-0.848,2.064c0,0.812,0.331,1.549,0.848,2.064s1.253,0.848,2.064,0.848s1.548-0.332,2.064-0.848
		s0.848-1.253,0.848-2.064C23.177,30.236,22.846,29.499,22.33,28.982z M21.114,31.896c-0.222,0.221-0.517,0.368-0.849,0.368
		s-0.627-0.147-0.849-0.368c-0.221-0.222-0.368-0.517-0.368-0.849s0.147-0.627,0.368-0.848c0.222-0.222,0.517-0.368,0.849-0.368
		s0.627,0.146,0.849,0.368c0.221,0.221,0.367,0.516,0.367,0.848S21.334,31.674,21.114,31.896z M28.833,30.899
		c-0.073,0-0.146,0.074-0.146,0.147c0,0.074,0.073,0.147,0.146,0.147c0.074,0,0.148-0.073,0.148-0.147
		C28.981,30.974,28.944,30.899,28.833,30.899z M29.018,31.6c0.074-0.073,0.146-0.073,0.221,0c0.074,0.074,0.074,0.148,0,0.222
		c-0.074,0.074-0.146,0.074-0.221,0C28.981,31.748,28.981,31.674,29.018,31.6z M29.644,31.969c0-0.073,0.074-0.147,0.147-0.147
		c0.074,0,0.147,0.074,0.147,0.147s-0.073,0.147-0.147,0.147C29.718,32.116,29.644,32.042,29.644,31.969z M30.344,31.821
		c-0.072-0.073-0.072-0.147,0-0.222c0.074-0.073,0.148-0.073,0.222,0c0.074,0.074,0.074,0.148,0,0.222
		C30.493,31.858,30.381,31.858,30.344,31.821z M30.713,31.194c0.073,0,0.147-0.073,0.147-0.147c0-0.073-0.074-0.147-0.147-0.147
		s-0.147,0.074-0.147,0.147C30.566,31.121,30.64,31.194,30.713,31.194z M30.529,30.494c0.074-0.074,0.074-0.147,0-0.221
		c-0.073-0.074-0.147-0.074-0.221,0c-0.073,0.073-0.073,0.146,0,0.221C30.381,30.531,30.493,30.531,30.529,30.494z M29.939,30.126
		c0-0.074-0.073-0.147-0.147-0.147c-0.073,0-0.147,0.073-0.147,0.147c0,0.073,0.074,0.147,0.147,0.147
		C29.866,30.273,29.939,30.199,29.939,30.126z M29.239,30.273c-0.074-0.074-0.146-0.074-0.221,0c-0.037,0.073-0.037,0.146,0,0.221
		c0.074,0.074,0.146,0.074,0.221,0C29.276,30.42,29.276,30.347,29.239,30.273z"/>
	<path fill="#FFFFFF" d="M31.856,28.982c-0.553-0.516-1.253-0.848-2.064-0.848c-0.811,0-1.548,0.332-2.064,0.848
		c-0.516,0.517-0.848,1.254-0.848,2.064c0,0.812,0.332,1.549,0.848,2.064c0.517,0.516,1.254,0.848,2.064,0.848
		c0.812,0,1.549-0.332,2.064-0.848s0.848-1.253,0.848-2.064C32.704,30.236,32.372,29.499,31.856,28.982z M30.64,31.896
		c-0.222,0.221-0.517,0.368-0.849,0.368c-0.331,0-0.627-0.147-0.848-0.368c-0.221-0.222-0.369-0.517-0.369-0.849
		s0.148-0.627,0.369-0.848c0.221-0.222,0.517-0.368,0.848-0.368c0.332,0,0.627,0.146,0.849,0.368
		c0.221,0.221,0.331,0.516,0.368,0.848C31.008,31.379,30.861,31.674,30.64,31.896z M16.612,27.984c-0.342,0-0.621-0.289-0.61-0.632
		l-4.569-17.67c0-0.354,0.288-0.633,0.633-0.633h2.367c0.291,0,0.548,0.204,0.612,0.483l7.029,17.571
		c0.075,0.345-0.129,0.688-0.472,0.764c-0.344,0.074-0.687-0.13-0.763-0.473l-6.911-17.08h-1.252l4.57,17.037
		C17.247,27.707,16.956,27.984,16.612,27.984L16.612,27.984z"/>
	<path fill="#FFFFFF" d="M12.961,14.028c-0.228,0-0.415-0.279-0.422-0.634c0-0.354,0.194-0.633,0.422-0.633h2.881
		c0.236,0,0.423,0.289,0.423,0.633c0,0.354-0.194,0.634-0.423,0.634H12.961z M14.178,18.834c-0.254,0-0.463-0.289-0.47-0.633
		c0-0.354,0.216-0.634,0.47-0.634h3.588c0.262,0,0.469,0.29,0.469,0.634c0,0.354-0.215,0.633-0.469,0.633H14.178z M15.557,23.63
		c-0.223,0-0.402-0.279-0.41-0.633c0-0.354,0.188-0.634,0.41-0.634h4.26c0.229,0,0.41,0.291,0.41,0.634
		c0,0.354-0.188,0.633-0.41,0.633H15.557z M26.784,34.065L14.335,9.146l0.193-0.212l12.447,24.918L26.784,34.065z M6.801,32.135
		L6.5,32.098l4.781-22.434l0.301,0.037L6.801,32.135z"/>
	<path fill="#FFFFFF" d="M34.145,33.789L14.208,9.213l0.256-0.129l19.936,24.575L34.145,33.789z"/>
</g>
</svg>
