<?xml version="1.0" encoding="utf-8"?>
<!-- Generator: Adobe Illustrator 16.0.0, SVG Export Plug-In . SVG Version: 6.00 Build 0)  -->
<!DOCTYPE svg PUBLIC "-//W3C//DTD SVG 1.1//EN" "http://www.w3.org/Graphics/SVG/1.1/DTD/svg11.dtd">
<svg version="1.1" id="图层_1" xmlns="http://www.w3.org/2000/svg" xmlns:xlink="http://www.w3.org/1999/xlink" x="0px" y="0px"
	 width="43px" height="43px" viewBox="0 0 43 43" enable-background="new 0 0 43 43" xml:space="preserve">
<g transform="matrix(1 0 0 1 -177 -130 )">
	
		<linearGradient id="SVGID_1_" gradientUnits="userSpaceOnUse" x1="375.5156" y1="694.6992" x2="375.5156" y2="652.1292" gradientTransform="matrix(1 0 0 -1 -177.0151 824.6992)">
		<stop  offset="0" style="stop-color:#77A0F6"/>
		<stop  offset="1" style="stop-color:#4772E9"/>
	</linearGradient>
	<path fill="url(#SVGID_1_)" d="M198.5,130c12.04,0,21.501,9.46,21.501,21.5S210.54,173,198.5,173s-21.5-9.46-21.5-21.5
		S186.46,130,198.5,130z"/>
</g>
<path fill="#FFFFFF" d="M29.568,10.789l-3.43-3.43c-0.479-0.479-1.236-0.479-1.675,0l-4.986,4.986c-0.479,0.479-0.479,1.237,0,1.675
	l1.356,1.356l-0.679,0.678l-0.438-0.438c-0.639-0.639-1.476-0.917-2.274-0.917c-1.077-0.877-2.473-0.998-3.271-0.2
	c-0.797,0.798-0.678,2.194,0.2,3.271c0,0.838,0.279,1.636,0.917,2.274l0.439,0.438L15.05,21.16l-1.356-1.356
	c-0.479-0.479-1.236-0.479-1.675,0L7.033,24.79c-0.479,0.479-0.479,1.237,0,1.675l3.43,3.431c0.479,0.479,1.236,0.479,1.675,0
	l4.986-4.986c0.479-0.479,0.479-1.237,0-1.675l-1.156-1.157l0.678-0.678l1.516,1.516c0.399-0.917,1.038-1.834,1.835-2.632
	c0.798-0.798,1.715-1.436,2.632-1.835l-1.516-1.516l0.678-0.678l1.157,1.157c0.479,0.479,1.237,0.479,1.675,0l4.986-4.985
	C30.047,11.986,30.047,11.228,29.568,10.789z M28.412,19.405c-0.08-0.08-0.199-0.16-0.279-0.2c0,0-0.04,0-0.04-0.04
	c-0.08-0.04-0.12-0.08-0.2-0.12h-0.04c-1.955-1.077-4.986-0.319-7.22,1.914c-2.273,2.274-2.992,5.265-1.915,7.22
	c0.04,0.08,0.08,0.12,0.12,0.2c0,0,0,0.04,0.04,0.04c0.08,0.12,0.16,0.2,0.199,0.279c0.837,0.559,2.712-0.159,4.707-1.755
	l-0.997-0.798c-1.197,0.958-2.154,1.476-2.434,1.236c-0.359-0.358,0.838-2.154,2.672-3.988c1.835-1.835,3.63-3.031,3.989-2.673
	c0.239,0.239-0.199,1.078-1.037,2.154l0.797,0.997C28.292,21.958,28.97,20.202,28.412,19.405L28.412,19.405z M23.625,24.75
	c-0.319-0.239-0.319-0.678-0.04-0.957l0.12-0.12c0.279-0.279,0.718-0.239,0.958,0.04l1.077,1.316c0.24,0.319,0.24,0.798-0.04,1.077
	l0.358-0.359c-0.279,0.279-0.757,0.319-1.077,0.04L23.625,24.75z M26.207,25.287c-0.508,0-0.931,0.423-0.959,0.903
	c0,0.508,0.395,0.903,0.959,0.903c0.507,0,0.958-0.395,0.958-0.903C27.138,25.654,26.714,25.287,26.207,25.287 M28.576,25.287
	c0,0.847-0.339,1.636-0.987,2.229c-0.621,0.62-1.438,0.931-2.341,0.931v1.298c2.595,0,4.654-2.003,4.682-4.457H28.576 M30.973,25.26
	c0,2.989-2.567,5.443-5.725,5.443V32c3.892,0,7.079-3.018,7.079-6.741L30.973,25.26"/>
</svg>
