<?xml version="1.0" encoding="utf-8"?>
<!-- Generator: Adobe Illustrator 16.0.0, SVG Export Plug-In . SVG Version: 6.00 Build 0)  -->
<!DOCTYPE svg PUBLIC "-//W3C//DTD SVG 1.1//EN" "http://www.w3.org/Graphics/SVG/1.1/DTD/svg11.dtd">
<svg version="1.1" id="图层_1" xmlns="http://www.w3.org/2000/svg" xmlns:xlink="http://www.w3.org/1999/xlink" x="0px" y="0px"
	 width="43px" height="43px" viewBox="0 0 43 43" enable-background="new 0 0 43 43" xml:space="preserve">
<g transform="matrix(1 0 0 1 -517 -130 )">
	
		<linearGradient id="SVGID_1_" gradientUnits="userSpaceOnUse" x1="1055.5146" y1="694.6992" x2="1055.5146" y2="652.1292" gradientTransform="matrix(1 0 0 -1 -517.0156 824.6992)">
		<stop  offset="0" style="stop-color:#ED6F58"/>
		<stop  offset="1" style="stop-color:#E2915E"/>
	</linearGradient>
	<path fill="url(#SVGID_1_)" d="M538.5,130c12.04,0,21.5,9.46,21.5,21.5s-9.46,21.5-21.5,21.5s-21.5-9.46-21.5-21.5
		S526.46,130,538.5,130z"/>
</g>
<g>
	<path fill="#FFFFFF" d="M22.926,10.714v12.355l0.025,0.031l-8.303,8.165c2.027,1.707,4.643,2.735,7.5,2.735
		c6.438,0,11.656-5.219,11.656-11.658C33.805,16.166,29.002,11.114,22.926,10.714z"/>
	<path fill="#FFFFFF" d="M9.775,22.714c0.182,2.785,1.344,5.303,3.146,7.214l9.143-7.214H9.775z M21.629,9
		C14.762,9,9.195,14.567,9.195,21.435h12.434V9z"/>
	<path fill="#FFFFFF" d="M22.926,23.069l-0.021-0.024l-0.096,0.074h0.117V23.069L22.926,23.069z"/>
</g>
</svg>
