<?xml version="1.0" encoding="utf-8"?>
<!-- Generator: Adobe Illustrator 16.0.0, SVG Export Plug-In . SVG Version: 6.00 Build 0)  -->
<!DOCTYPE svg PUBLIC "-//W3C//DTD SVG 1.1//EN" "http://www.w3.org/Graphics/SVG/1.1/DTD/svg11.dtd">
<svg version="1.1" id="图层_1" xmlns="http://www.w3.org/2000/svg" xmlns:xlink="http://www.w3.org/1999/xlink" x="0px" y="0px"
	 width="43px" height="43px" viewBox="0 0 43 43" enable-background="new 0 0 43 43" xml:space="preserve">
<g transform="matrix(1 0 0 1 -289 -130 )">
	
		<linearGradient id="SVGID_1_" gradientUnits="userSpaceOnUse" x1="599.5146" y1="-421.3008" x2="599.5146" y2="-463.8708" gradientTransform="matrix(1 0 0 -1 -289.0151 -291.3008)">
		<stop  offset="0" style="stop-color:#F4B56D"/>
		<stop  offset="1" style="stop-color:#F19C45"/>
	</linearGradient>
	<path fill="url(#SVGID_1_)" d="M310.5,130c12.038,0,21.499,9.46,21.499,21.5S322.538,173,310.5,173c-12.041,0-21.5-9.46-21.5-21.5
		S298.459,130,310.5,130z"/>
</g>
<path fill="#FFFFFF" d="M25.1,9.5c0.662,0,1.2,0.538,1.2,1.2l0,0h1.199c1.326,0,2.4,1.074,2.4,2.4v6.808
	c-0.759-0.361-1.567-0.604-2.399-0.724l-0.001-6.084H13.101v17.998h5.608c0.427,0.899,1.01,1.712,1.714,2.401l-7.323-0.003
	c-1.325,0-2.4-1.073-2.4-2.398V13.101c0-1.326,1.075-2.4,2.4-2.4l0,0h1.2c0-0.662,0.538-1.2,1.2-1.2s1.2,0.538,1.2,1.2h7.199
	C23.899,10.038,24.436,9.5,25.1,9.5L25.1,9.5z M27.396,21.499c0.462,0,0.861,0.328,0.934,0.797l0.153,1.052
	c0.138,0.069,0.272,0.145,0.404,0.229l1.074-0.418c0.422-0.143,0.887,0.03,1.115,0.413l1.109,1.868
	c0.22,0.404,0.113,0.909-0.251,1.19l-0.858,0.652c0.007,0.144,0.007,0.287,0,0.43l0.842,0.648c0.385,0.281,0.493,0.809,0.249,1.219
	l-1.091,1.836c-0.232,0.403-0.723,0.577-1.157,0.41L28.88,31.42c-0.133,0.083-0.267,0.159-0.404,0.228l-0.149,1.024
	c-0.05,0.475-0.455,0.832-0.931,0.825h-2.193c-0.456,0-0.837-0.317-0.935-0.796l-0.152-1.053c-0.139-0.068-0.273-0.146-0.404-0.228
	l-1.074,0.417c-0.423,0.144-0.888-0.028-1.115-0.413l-1.108-1.867c-0.22-0.405-0.114-0.909,0.25-1.19l0.859-0.653
	c-0.007-0.145-0.006-0.29,0.001-0.435l-0.844-0.643c-0.385-0.281-0.492-0.81-0.248-1.219l1.092-1.836
	c0.232-0.403,0.722-0.577,1.156-0.41l1.037,0.405c0.132-0.084,0.266-0.159,0.403-0.229l0.155-1.058
	c0.069-0.458,0.463-0.795,0.926-0.792H27.396L27.396,21.499z M26.299,25.498c-1.104,0.002-1.999,0.896-2,2.001c0,1.101,0.9,2,2,2
	c1.104-0.003,1.998-0.896,2-2C28.297,26.395,27.403,25.5,26.299,25.498z M17.984,26.298c-0.113,0.797-0.113,1.605,0.001,2.401
	L16.7,28.698c-0.663-0.001-1.2-0.538-1.199-1.2c0-0.663,0.537-1.199,1.199-1.2H17.984z M21.104,20.898
	c-0.839,0.661-1.545,1.476-2.081,2.4H16.7c-0.663,0-1.2-0.537-1.2-1.2c0-0.662,0.537-1.2,1.2-1.2H21.104z M23.899,15.5
	c0.663,0,1.2,0.537,1.2,1.199c0,0.663-0.538,1.2-1.2,1.2H16.7c-0.663,0-1.2-0.537-1.2-1.2c0-0.662,0.537-1.199,1.2-1.199H23.899z"/>
</svg>
