<?xml version="1.0" encoding="utf-8"?>
<!-- Generator: Adobe Illustrator 16.0.0, SVG Export Plug-In . SVG Version: 6.00 Build 0)  -->
<!DOCTYPE svg PUBLIC "-//W3C//DTD SVG 1.1//EN" "http://www.w3.org/Graphics/SVG/1.1/DTD/svg11.dtd">
<svg version="1.1" id="图层_1" xmlns="http://www.w3.org/2000/svg" xmlns:xlink="http://www.w3.org/1999/xlink" x="0px" y="0px"
	 width="43px" height="43px" viewBox="0 0 43 43" enable-background="new 0 0 43 43" xml:space="preserve">
<g transform="matrix(1 0 0 1 -177 -130 )">
	
		<linearGradient id="SVGID_1_" gradientUnits="userSpaceOnUse" x1="375.5146" y1="694.6992" x2="375.5146" y2="652.1292" gradientTransform="matrix(1 0 0 -1 -177.0151 824.6992)">
		<stop  offset="0" style="stop-color:#77A0F6"/>
		<stop  offset="1" style="stop-color:#4772E9"/>
	</linearGradient>
	<path fill="url(#SVGID_1_)" d="M198.5,130c12.039,0,21.5,9.46,21.5,21.5s-9.461,21.5-21.5,21.5c-12.041,0-21.5-9.46-21.5-21.5
		S186.459,130,198.5,130z"/>
</g>
<g>
	<path fill="#FFFFFF" d="M31.046,14.564v9.832C32.735,24.019,34,22.512,34,20.709v-2.458C33.999,16.447,32.735,14.942,31.046,14.564
		z M11.883,14.583C10.229,14.985,9,16.473,9,18.251v2.458c0,1.778,1.229,3.266,2.883,3.668V14.583z M30.177,14.47H16.232v-0.757
		h0.152c0.345,0,0.622-0.192,0.622-0.428v-0.278c0-0.236-0.277-0.428-0.622-0.428h-2.858c-0.344,0-0.621,0.192-0.621,0.428v0.278
		c0,0.236,0.278,0.428,0.621,0.428h0.153v0.757h-0.897c-0.049,0-0.095,0.004-0.143,0.006v10.007
		c0.048,0.002,0.094,0.007,0.143,0.007h17.395c0.024,0,0.048-0.004,0.071-0.004V14.473C30.225,14.473,30.201,14.47,30.177,14.47z"/>
	<path fill="#FFFFFF" d="M27.463,15.297v1.607h-2.127v-1.607h-0.804v8.366h0.804v-2.411h2.127v2.411h0.804v-8.366H27.463
		L27.463,15.297z M27.463,20.449h-2.127V19.48h2.127V20.449z M27.463,18.677h-2.127v-0.97h2.127V18.677z M33.076,25.248H9.883v1.362
		h1.442c-0.646,0.331-1.091,1.002-1.091,1.778c0,1.104,0.895,1.999,1.998,1.999c1.104,0,1.998-0.895,1.998-1.999
		c0-0.776-0.443-1.448-1.09-1.778h2.182c-0.647,0.331-1.091,1.002-1.091,1.778c0,1.104,0.895,1.999,1.999,1.999
		c1.104,0,1.999-0.895,1.999-1.999c0-0.776-0.444-1.448-1.091-1.778h1.486v1.45h6.014v-1.45h1.32
		c-0.686,0.316-1.162,1.008-1.162,1.813c0,1.104,0.896,1.999,1.999,1.999c1.103,0,1.998-0.895,1.998-1.999
		c0-0.805-0.477-1.498-1.162-1.813h2.324c-0.686,0.316-1.162,1.008-1.162,1.813c0,1.104,0.895,1.999,1.999,1.999s2-0.895,2-1.999
		c0-0.805-0.478-1.498-1.163-1.813h1.447L33.076,25.248L33.076,25.248z"/>
</g>
</svg>
