<?xml version="1.0" encoding="utf-8"?>
<!-- Generator: Adobe Illustrator 16.0.0, SVG Export Plug-In . SVG Version: 6.00 Build 0)  -->
<!DOCTYPE svg PUBLIC "-//W3C//DTD SVG 1.1//EN" "http://www.w3.org/Graphics/SVG/1.1/DTD/svg11.dtd">
<svg version="1.1" id="图层_1" xmlns="http://www.w3.org/2000/svg" xmlns:xlink="http://www.w3.org/1999/xlink" x="0px" y="0px"
	 width="43px" height="43px" viewBox="0 0 43 43" enable-background="new 0 0 43 43" xml:space="preserve">
<g transform="matrix(1 0 0 1 -400 -130 )">
	
		<linearGradient id="SVGID_1_" gradientUnits="userSpaceOnUse" x1="821.5146" y1="694.6992" x2="821.5146" y2="652.1292" gradientTransform="matrix(1 0 0 -1 -400.0151 824.6992)">
		<stop  offset="0" style="stop-color:#64D5D1"/>
		<stop  offset="1" style="stop-color:#55B6D2"/>
	</linearGradient>
	<path fill="url(#SVGID_1_)" d="M421.499,130c12.04,0,21.501,9.46,21.501,21.5s-9.461,21.5-21.501,21.5s-21.5-9.46-21.5-21.5
		S409.458,130,421.499,130z"/>
</g>
<path fill="#FFFFFF" d="M26.988,32.312H13.257v-1.408h13.731V32.312L26.988,32.312z M30.457,28.399h-7.084l-3.542-5.957l3.542-5.957
	h7.084l3.542,5.957L30.457,28.399L30.457,28.399z M26.915,19.774c-1.473,0.032-2.642,1.251-2.61,2.725
	c0.032,1.473,1.251,2.642,2.725,2.61c1.451-0.031,2.61-1.216,2.61-2.667c-0.017-1.489-1.237-2.683-2.727-2.667H26.915z
	 M21.763,28.252H8.999V10.688H30.66v4.272h-7.969l-0.936,1.5H14.27v-1.295h-1.332v1.295h-1.665v1.333h1.665v1.295h1.332v-1.295
	h6.655l-2.82,4.524l0.359,0.583h-1.545v-1.295h-1.332v1.295h-4.315v1.333h4.315v1.296h1.332v-1.296h2.365l2.474,4.017L21.763,28.252
	z"/>
</svg>
