<?xml version="1.0" encoding="utf-8"?>
<!-- Generator: Adobe Illustrator 16.0.0, SVG Export Plug-In . SVG Version: 6.00 Build 0)  -->
<!DOCTYPE svg PUBLIC "-//W3C//DTD SVG 1.1//EN" "http://www.w3.org/Graphics/SVG/1.1/DTD/svg11.dtd">
<svg version="1.1" id="图层_1" xmlns="http://www.w3.org/2000/svg" xmlns:xlink="http://www.w3.org/1999/xlink" x="0px" y="0px"
	 width="43px" height="43px" viewBox="0 0 43 43" enable-background="new 0 0 43 43" xml:space="preserve">
<g transform="matrix(1 0 0 1 -177 -130 )">
	
		<linearGradient id="SVGID_1_" gradientUnits="userSpaceOnUse" x1="375.5176" y1="-464.3008" x2="375.5176" y2="-421.7308" gradientTransform="matrix(1 0 0 -1 -177.0151 -291.3008)">
		<stop  offset="0" style="stop-color:#A368F6"/>
		<stop  offset="1" style="stop-color:#FF77CA"/>
	</linearGradient>
	<path fill="url(#SVGID_1_)" d="M198.502,130c12.039,0,21.5,9.46,21.5,21.5s-9.461,21.5-21.5,21.5c-12.041,0-21.5-9.46-21.5-21.5
		S186.461,130,198.502,130z"/>
</g>
<g>
	<path fill="#FFFFFF" d="M11.301,32.114l2.011-11.543h-2.628v1.402H9.866v-2.226l3.533-2.849v-1.687h-2.715v1.403H9.866v-2.224
		l3.533-2.852v-0.594c0-0.738,0.627-1.235,1.328-1.24l3.138-0.004c0.703,0,1.341,0.507,1.341,1.244v0.602l3.536,2.852v2.217h-0.821
		v-1.402h-2.715v1.69l3.536,2.849v1.432h-0.821v-0.616h-2.628l0.108,0.616h-2.187l0.614-0.616h-3.054l1.525,1.521l0.476-0.469v1.428
		l-0.475-0.237l-2.129,2.119l2.129,2.519l0.675-0.797h0.18v0.578l-0.519,0.612l0.519,0.613v0.791l-0.854-1.006l-3.273,3.872h4.648
		V21.621h14.355v10.492h1.47v1.184h-24v-1.183H11.301z M13.928,25.435l-1.058,6.076l3.098-3.666L13.928,25.435L13.928,25.435z
		 M14.67,21.188l-0.533,3.059l1.804-1.795L14.67,21.188z M14.843,19.072l1.158-1.641l-1.158-1.642V19.072z M16.313,16.986
		l1.249-1.771h-2.499L16.313,16.986L16.313,16.986z M17.761,15.82l-1.135,1.61l1.136,1.61L17.761,15.82L17.761,15.82z
		 M16.313,17.873l-1.32,1.875h2.643L16.313,17.873z M14.843,13.821l1.107-1.11l-1.107-1.109V13.821z M16.313,12.348l1.194-1.197
		l-2.393-0.003L16.313,12.348L16.313,12.348z M17.761,11.624l-1.085,1.088l1.086,1.088L17.761,11.624L17.761,11.624z M16.313,13.074
		l-1.314,1.317h2.628L16.313,13.074z M19.207,17.89v1.859h2.305L19.207,17.89L19.207,17.89z M11.085,19.748h2.313v-1.864
		L11.085,19.748L11.085,19.748z M19.207,12.534v1.857h2.304L19.207,12.534L19.207,12.534z M11.088,14.392h2.31v-1.862L11.088,14.392
		L11.088,14.392z M19.636,32.229h3.977v-5.902h-3.978L19.636,32.229L19.636,32.229z M27.532,26.325h-2.03v2.018h2.03V26.325z
		 M30.199,26.325h-2.03v2.018h2.029L30.199,26.325L30.199,26.325z M27.532,29.006h-2.03v2.019h2.03V29.006L27.532,29.006z
		 M30.199,29.006h-2.03v2.019h2.029L30.199,29.006L30.199,29.006z M31.089,23.645H19.144v0.677h11.945V23.645z M31.089,22.572
		H19.144v0.677h11.945V22.572L31.089,22.572z"/>
</g>
</svg>
