<?xml version="1.0" encoding="utf-8"?>
<!-- Generator: Adobe Illustrator 16.0.0, SVG Export Plug-In . SVG Version: 6.00 Build 0)  -->
<!DOCTYPE svg PUBLIC "-//W3C//DTD SVG 1.1//EN" "http://www.w3.org/Graphics/SVG/1.1/DTD/svg11.dtd">
<svg version="1.1" id="图层_1" xmlns="http://www.w3.org/2000/svg" xmlns:xlink="http://www.w3.org/1999/xlink" x="0px" y="0px"
	 width="43px" height="43px" viewBox="0 0 43 43" enable-background="new 0 0 43 43" xml:space="preserve">
<g transform="matrix(1 0 0 1 -289 -130 )">
	
		<linearGradient id="SVGID_1_" gradientUnits="userSpaceOnUse" x1="599.5166" y1="136.6992" x2="599.5166" y2="94.1292" gradientTransform="matrix(1 0 0 -1 -289.0151 266.6992)">
		<stop  offset="0" style="stop-color:#F4B56D"/>
		<stop  offset="1" style="stop-color:#F19C45"/>
	</linearGradient>
	<path fill="url(#SVGID_1_)" d="M310.502,130c12.039,0,21.5,9.46,21.5,21.5s-9.461,21.5-21.5,21.5c-12.041,0-21.5-9.46-21.5-21.5
		S298.461,130,310.502,130z"/>
</g>
<g>
	<path fill="#FFFFFF" d="M19.864,14.961v-0.374c0-0.297,0.199-0.539,0.444-0.539h2.662c0.245,0,0.441,0.242,0.441,0.539v0.374
		H19.864z M27.978,14.961h-3.549v-0.374c0-0.297,0.197-0.539,0.443-0.539h2.661c0.245,0,0.444,0.242,0.444,0.539V14.961
		L27.978,14.961z M32.542,14.961h-3.551v-0.374c0-0.297,0.199-0.539,0.443-0.539h2.663c0.245,0,0.444,0.242,0.444,0.539V14.961
		L32.542,14.961z M22.668,23.394h-2.109v-1.44h2.109V23.394z M22.668,21.523h-2.109v-1.439h2.109V21.523z M22.668,24.249h-2.109
		v-0.423h2.109V24.249z M22.668,19.654h-2.109v-1.44h2.109V19.654z M22.668,17.784h-2.109v-1.441h2.109V17.784z"/>
	<path fill="#FFFFFF" d="M19.421,15.458c-2.049,0-2.577,1.87-2.578,3.95v0.891c0,2.08,0.528,3.95,2.578,3.95h0.787v-8.676h0.352
		v0.341h2.109v-0.341h0.352v8.676h9.962c2.052,0,2.579-1.868,2.579-3.949v-0.892c0-2.08-0.527-3.95-2.579-3.95H19.421z"/>
	<path fill="#FFFFFF" d="M20.56,18.214h-0.171v-0.43h0.171V18.214z M22.668,25.265h-2.109v-0.627h2.109V25.265z"/>
	<path fill="#FFFFFF" d="M15.282,24.638v1.865h20.952v-1.865H23.021v1.152h-0.352v-0.095H20.56v0.095h-0.352v-1.152H15.282z"/>
	<path fill="#FFFFFF" d="M32.794,24.643c0.979,0,1.771,0.966,1.771,2.155c0,1.19-0.793,2.154-1.771,2.154
		c-0.977,0-1.771-0.964-1.771-2.154C31.023,25.609,31.817,24.643,32.794,24.643z M30.662,26.798c0-1.189-0.791-2.155-1.77-2.155
		s-1.771,0.966-1.771,2.155s0.792,2.153,1.771,2.153S30.662,27.987,30.662,26.798C30.662,26.798,30.662,27.988,30.662,26.798z
		 M10.542,24.643h-0.027c-0.977,0-1.771,0.966-1.771,2.155s0.794,2.153,1.771,2.153h0.03c0.979-0.027,1.752-1.014,1.729-2.204
		c-0.021-1.151-0.785-2.078-1.729-2.104H10.542z"/>
	<path fill="#FFFFFF" d="M7.039,24.53c0.001,0.256-0.273,0.439-0.27,0.667c0.014,0.723,0.43,1.306,0.43,1.306h9.121V14.756h-5.363
		l-2.949,4.168c0,0-0.708,0.443-0.858,0.895C6.938,20.449,7.033,23.336,7.039,24.53z M10.02,18.926c-0.414,0-0.602-0.171-0.28-0.697
		l1.575-2.345h4.107v3.042H10.02z M20.56,18.214h-0.171v-0.43h0.171V18.214z"/>
</g>
</svg>
