<?xml version="1.0" encoding="utf-8"?>
<!-- Generator: Adobe Illustrator 16.0.0, SVG Export Plug-In . SVG Version: 6.00 Build 0)  -->
<!DOCTYPE svg PUBLIC "-//W3C//DTD SVG 1.1//EN" "http://www.w3.org/Graphics/SVG/1.1/DTD/svg11.dtd">
<svg version="1.1" id="图层_1" xmlns="http://www.w3.org/2000/svg" xmlns:xlink="http://www.w3.org/1999/xlink" x="0px" y="0px"
	 width="43px" height="43px" viewBox="0 0 43 43" enable-background="new 0 0 43 43" xml:space="preserve">
<g transform="matrix(1 0 0 1 -636 -130 )">
	
		<linearGradient id="SVGID_1_" gradientUnits="userSpaceOnUse" x1="1293.5166" y1="322.6992" x2="1293.5166" y2="280.1297" gradientTransform="matrix(1 0 0 -1 -636.0156 452.6992)">
		<stop  offset="0" style="stop-color:#93D68A"/>
		<stop  offset="1" style="stop-color:#61B86E"/>
	</linearGradient>
	<path fill="url(#SVGID_1_)" d="M657.502,130c12.041,0,21.5,9.46,21.5,21.5s-9.459,21.5-21.5,21.5c-12.039,0-21.5-9.46-21.5-21.5
		S645.463,130,657.502,130z"/>
</g>
<g>
	<path fill="#FFFFFF" d="M13.902,14.75l0.535-1.053c0.176-0.442,0.773-0.773,1.307-0.773h11.539c0.533,0,1.07,0.331,1.307,0.773
		l0.477,1.053c0.418,0.886-0.059,1.549-1.131,1.549H15.033C14.021,16.299,13.549,15.581,13.902,14.75z M28.758,17.184H14.246
		c-0.297,0-0.477,0.221-0.477,0.442v10.736c0,0.942,0.834,1.715,1.844,1.715h11.777c1.01,0,1.844-0.773,1.844-1.715V17.628
		C29.234,17.352,28.998,17.184,28.758,17.184z M21.502,28.58c-1.934,0-3.508-1.63-3.508-3.636c0-1.474,2.154-4.214,3.508-5.693
		c1.355,1.479,3.51,4.219,3.51,5.693C25.012,26.95,23.438,28.58,21.502,28.58z"/>
	<path fill="#FFFFFF" d="M23.996,25.411c0,1.394-1.098,2.492-2.492,2.492c-1.393,0-2.492-1.099-2.492-2.492
		c1.354,0.338,1.605,0,2.492-0.506C22.391,24.356,23.996,24.018,23.996,25.411L23.996,25.411z"/>
</g>
<path fill="#FFFFFF" d="M21.502,36.5c-8.271,0-15-6.729-15-15s6.729-15,15-15s15,6.729,15,15S29.773,36.5,21.502,36.5z M21.502,8.5
	c-7.168,0-13,5.832-13,13s5.832,13,13,13s13-5.832,13-13S28.67,8.5,21.502,8.5z"/>
</svg>
