<?xml version="1.0" encoding="utf-8"?>
<!-- Generator: Adobe Illustrator 16.0.0, SVG Export Plug-In . SVG Version: 6.00 Build 0)  -->
<!DOCTYPE svg PUBLIC "-//W3C//DTD SVG 1.1//EN" "http://www.w3.org/Graphics/SVG/1.1/DTD/svg11.dtd">
<svg version="1.1" id="图层_1" xmlns="http://www.w3.org/2000/svg" xmlns:xlink="http://www.w3.org/1999/xlink" x="0px" y="0px"
	 width="43px" height="43px" viewBox="0 0 43 43" enable-background="new 0 0 43 43" xml:space="preserve">
<g transform="matrix(1 0 0 1 -177 -130 )">
	
		<linearGradient id="SVGID_1_" gradientUnits="userSpaceOnUse" x1="375.5176" y1="-278.3008" x2="375.5176" y2="-235.7308" gradientTransform="matrix(1 0 0 -1 -177.0151 -105.3008)">
		<stop  offset="0" style="stop-color:#A368F6"/>
		<stop  offset="1" style="stop-color:#FF77CA"/>
	</linearGradient>
	<path fill="url(#SVGID_1_)" d="M198.502,130c12.039,0,21.5,9.46,21.5,21.5s-9.461,21.5-21.5,21.5c-12.041,0-21.5-9.46-21.5-21.5
		S186.461,130,198.502,130z"/>
</g>
<g>
	<path fill="#FFFFFF" d="M33.502,21.629l-3.691,0.794v4.615l-6.463-1.846v-1.847h0.925V21.5l3.492-0.754l2.009-1.886l-0.642-3.966
		L17.18,16.793c-0.086-0.299-0.19-0.573-0.31-0.814l13.373-2.125l-2.175-3.8L26.606,9.5l-12.505,1.986l-1.182,0.188l-1.346,0.214
		l-2.072,0.329l0.075,1.891l2.312,2.522l1.044-0.146l-0.506-3.13l-1.954,0.311l-0.027-0.679l2.838-0.451l0.162,0.062l1.994,2.364
		c-0.625,0.252-0.945,1.474-0.722,2.858c0.239,1.487,1.016,2.6,1.731,2.485c0.34-0.054,0.607-0.376,0.767-0.857l0.19,1.177
		l-1.978,2.084l5.15-1.207v1.846h0.924v2.77l8.308,2.77v3.691l3.691,0.924V21.629z M15.827,16.447
		c0.311-0.05,0.646,0.433,0.75,1.076c0.103,0.644-0.063,1.205-0.374,1.255c-0.309,0.05-0.646-0.433-0.75-1.076
		C15.351,17.058,15.517,16.497,15.827,16.447z M15.926,22.186l-0.689,0.623l-2.325-1.432l-0.688-4.269l0.902-0.143l0.623,3.863
		L15.926,22.186z"/>
</g>
</svg>
