<?xml version="1.0" encoding="utf-8"?>
<!-- Generator: Adobe Illustrator 16.0.0, SVG Export Plug-In . SVG Version: 6.00 Build 0)  -->
<!DOCTYPE svg PUBLIC "-//W3C//DTD SVG 1.1//EN" "http://www.w3.org/Graphics/SVG/1.1/DTD/svg11.dtd">
<svg version="1.1" id="图层_1" xmlns="http://www.w3.org/2000/svg" xmlns:xlink="http://www.w3.org/1999/xlink" x="0px" y="0px"
	 width="43px" height="43px" viewBox="0 0 43 43" enable-background="new 0 0 43 43" xml:space="preserve">
<g transform="matrix(1 0 0 1 -289 -130 )">
	
		<linearGradient id="SVGID_1_" gradientUnits="userSpaceOnUse" x1="599.5137" y1="-49.3008" x2="599.5137" y2="-91.8708" gradientTransform="matrix(1 0 0 -1 -289.0151 80.6992)">
		<stop  offset="0" style="stop-color:#F4B56D"/>
		<stop  offset="1" style="stop-color:#F19C45"/>
	</linearGradient>
	<path fill="url(#SVGID_1_)" d="M310.5,130c12.039,0,21.5,9.46,21.5,21.5s-9.461,21.5-21.5,21.5c-12.041,0-21.5-9.46-21.5-21.5
		S298.458,130,310.5,130z"/>
</g>
<g>
	<path fill="#FFFFFF" d="M14.407,9.5c-1.32,0-2.4,1.08-2.4,2.4V31.1c0,1.32,1.08,2.4,2.4,2.4h16.584v-24H14.407z M17.174,10.733
		h4.001v9.134l-2.001-1.398l-2,1.398V10.733z M29.327,32.203H15.208c-0.991,0-1.801-0.811-1.801-1.801
		c0-0.989,0.81-1.801,1.801-1.801h14.119V32.203z"/>
</g>
</svg>
