<?xml version="1.0" encoding="utf-8"?>
<!-- Generator: Adobe Illustrator 16.0.0, SVG Export Plug-In . SVG Version: 6.00 Build 0)  -->
<!DOCTYPE svg PUBLIC "-//W3C//DTD SVG 1.1//EN" "http://www.w3.org/Graphics/SVG/1.1/DTD/svg11.dtd">
<svg version="1.1" id="图层_1" xmlns="http://www.w3.org/2000/svg" xmlns:xlink="http://www.w3.org/1999/xlink" x="0px" y="0px"
	 width="43px" height="43px" viewBox="0 0 43 43" enable-background="new 0 0 43 43" xml:space="preserve">
<g transform="matrix(1 0 0 1 -289 -130 )">
	
		<linearGradient id="SVGID_1_" gradientUnits="userSpaceOnUse" x1="599.5146" y1="694.6992" x2="599.5146" y2="652.1292" gradientTransform="matrix(1 0 0 -1 -289.0151 824.6992)">
		<stop  offset="0" style="stop-color:#F4B56D"/>
		<stop  offset="1" style="stop-color:#F19C45"/>
	</linearGradient>
	<path fill="url(#SVGID_1_)" d="M310.5,130c12.039,0,21.5,9.46,21.5,21.5s-9.461,21.5-21.5,21.5c-12.041,0-21.5-9.46-21.5-21.5
		S298.459,130,310.5,130z"/>
</g>
<g>
	<path fill="#FFFFFF" d="M33.766,27.508l-4.708-4.708c-0.289-0.287-0.755-0.287-1.045,0l-4.708,4.708
		c-0.288,0.289-0.288,0.755,0,1.043l4.708,4.746c0.29,0.287,0.756,0.287,1.045,0l4.708-4.709c0.298-0.279,0.314-0.748,0.035-1.045
		C33.789,27.531,33.777,27.52,33.766,27.508L33.766,27.508z M26.438,27.508l-0.526,0.526c-0.29,0.287-0.756,0.287-1.044,0
		c-0.287-0.289-0.287-0.755,0-1.043l0.524-0.526c0.29-0.288,0.756-0.288,1.046,0c0.288,0.287,0.291,0.753,0.006,1.043H26.438z
		 M29.575,28.551l-1.569,1.57c-0.289,0.287-0.755,0.287-1.044,0c-0.287-0.289-0.287-0.755,0-1.044l1.569-1.57
		c0.267-0.311,0.733-0.347,1.044-0.081s0.347,0.734,0.08,1.044C29.631,28.5,29.604,28.527,29.575,28.551z M15.968,20.179
		l4.708-4.709c0.287-0.289,0.287-0.755,0-1.044l-4.708-4.723c-0.289-0.287-0.756-0.287-1.044,0l-4.709,4.716
		c-0.286,0.289-0.286,0.755,0,1.044l4.709,4.708C15.211,20.46,15.678,20.463,15.968,20.179z M16.494,18.609
		c-0.312,0.266-0.778,0.229-1.045-0.081c-0.237-0.277-0.237-0.686,0-0.963c0.289-0.288,0.756-0.288,1.045,0
		C16.78,17.854,16.78,18.32,16.494,18.609z M13.355,16.514c-0.288-0.289-0.288-0.755,0-1.044l1.568-1.569
		c0.288-0.287,0.755-0.287,1.044,0c0.287,0.289,0.287,0.755,0,1.043l-1.569,1.57C14.109,16.801,13.643,16.801,13.355,16.514z
		 M30.108,17.558c0.289,0.288,0.755,0.288,1.044,0l1.555-1.555c0.147-0.141,0.23-0.336,0.229-0.541
		c-0.001-0.194-0.077-0.38-0.214-0.519l-4.191-4.19c-0.284-0.294-0.753-0.303-1.047-0.02c-0.007,0.007-0.013,0.013-0.019,0.02
		l-1.555,1.555c-0.288,0.289-0.288,0.755,0,1.044L30.108,17.558z M29.058,18.609l-4.19-4.191c-0.289-0.287-0.755-0.287-1.045,0
		L11.044,27.197c-0.155,0.156-0.234,0.373-0.215,0.592l0.371,3.82c0.033,0.353,0.313,0.633,0.666,0.667l3.82,0.37
		c0.22,0.02,0.437-0.059,0.593-0.215l12.778-12.778C29.345,19.364,29.345,18.897,29.058,18.609L29.058,18.609z"/>
</g>
</svg>
