<?xml version="1.0" encoding="utf-8"?>
<!-- Generator: Adobe Illustrator 16.0.0, SVG Export Plug-In . SVG Version: 6.00 Build 0)  -->
<!DOCTYPE svg PUBLIC "-//W3C//DTD SVG 1.1//EN" "http://www.w3.org/Graphics/SVG/1.1/DTD/svg11.dtd">
<svg version="1.1" id="图层_1" xmlns="http://www.w3.org/2000/svg" xmlns:xlink="http://www.w3.org/1999/xlink" x="0px" y="0px"
	 width="43px" height="43px" viewBox="0 0 43 43" enable-background="new 0 0 43 43" xml:space="preserve">
<g transform="matrix(1 0 0 1 -400 -130 )">
	
		<linearGradient id="SVGID_1_" gradientUnits="userSpaceOnUse" x1="821.5156" y1="136.6992" x2="821.5156" y2="94.1292" gradientTransform="matrix(1 0 0 -1 -400.0151 266.6992)">
		<stop  offset="0" style="stop-color:#64D5D1"/>
		<stop  offset="1" style="stop-color:#55B6D2"/>
	</linearGradient>
	<path fill="url(#SVGID_1_)" d="M421.501,130c12.04,0,21.501,9.46,21.501,21.5s-9.461,21.5-21.501,21.5s-21.5-9.46-21.5-21.5
		S409.461,130,421.501,130z"/>
</g>
<path fill="#FFFFFF" d="M33.501,28.437c-0.308-0.122-0.504-0.5-0.879-0.447c-0.954,0.136-1.017-0.391-0.994-1.151
	c0.05-1.686,0.002-3.374,0.021-5.061c0.009-0.878-0.401-1.226-1.259-1.219c-2.374,0.021-4.749-0.026-7.123,0.029
	c-0.734,0.017-0.95-0.219-0.835-0.888c0.005-0.03,0-0.063,0.001-0.094c0.017-0.872-0.28-1.973,0.141-2.552
	c0.407-0.56,1.574-0.149,2.406-0.178c0.728-0.025,1.133-0.36,1.141-1.071c0.023-1.749,0.002-3.499,0.01-5.249
	c0.002-0.442-0.301-0.722-0.504-1.057h-8.251c-0.392,0.434-0.527,0.937-0.516,1.525c0.028,1.499-0.001,2.999,0.013,4.498
	c0.01,1.054,0.291,1.321,1.335,1.345c0.063,0.002,0.125-0.004,0.188,0.002c0.705,0.061,1.904-0.277,2.026,0.146
	c0.302,1.038,0.16,2.218,0.114,3.337c-0.018,0.385-0.462,0.205-0.706,0.207c-2.343,0.014-4.685,0.008-7.028,0.009
	c-1.188,0-1.44,0.241-1.443,1.399c-0.005,1.78-0.016,3.562,0.008,5.342c0.007,0.469-0.099,0.72-0.614,0.649
	c-0.502-0.07-0.873,0.221-1.253,0.479v4.5c0.188,0.188,0.375,0.375,0.563,0.563h5.437c0.344-0.423,0.483-0.899,0.466-1.45
	c-0.027-0.936,0.007-1.873-0.011-2.809c-0.02-1.008-0.276-1.247-1.301-1.285c-1.445-0.053-1.445-0.053-1.445-1.491
	c0-1.154,0.019-2.31-0.009-3.463c-0.01-0.45,0.135-0.584,0.583-0.581c2.09,0.021,4.181,0.02,6.271,0.001
	c0.419-0.003,0.527,0.14,0.523,0.538c-0.02,1.466-0.021,2.934,0,4.4c0.005,0.42-0.079,0.585-0.556,0.609
	c-2.229,0.114-2.229,0.132-2.229,2.42c0,0.531,0.028,1.063-0.008,1.591c-0.039,0.593,0.12,1.093,0.528,1.519h6.376
	c0.409-0.426,0.555-0.926,0.529-1.519c-0.036-0.872,0-1.747-0.012-2.621c-0.013-1.108-0.283-1.375-1.382-1.404
	c-1.392-0.037-1.392-0.037-1.392-1.438c0-1.154,0.021-2.31-0.012-3.463c-0.013-0.482,0.115-0.642,0.62-0.635
	c2.06,0.028,4.119,0.023,6.179,0.002c0.447-0.004,0.589,0.13,0.582,0.58c-0.024,1.466-0.027,2.934,0,4.399
	c0.009,0.482-0.2,0.545-0.612,0.564c-2.148,0.095-2.148,0.106-2.148,2.306c0,0.562,0.023,1.125-0.006,1.685
	c-0.031,0.58,0.09,1.095,0.465,1.544h5.437c0.188-0.188,0.376-0.375,0.563-0.563V28.437L33.501,28.437z"/>
</svg>
