<?xml version="1.0" encoding="utf-8"?>
<!-- Generator: Adobe Illustrator 16.0.0, SVG Export Plug-In . SVG Version: 6.00 Build 0)  -->
<!DOCTYPE svg PUBLIC "-//W3C//DTD SVG 1.1//EN" "http://www.w3.org/Graphics/SVG/1.1/DTD/svg11.dtd">
<svg version="1.1" id="图层_1" xmlns="http://www.w3.org/2000/svg" xmlns:xlink="http://www.w3.org/1999/xlink" x="0px" y="0px"
	 width="43px" height="43px" viewBox="0 0 43 43" enable-background="new 0 0 43 43" xml:space="preserve">
<g transform="matrix(1 0 0 1 -179 -469 )">
	
		<linearGradient id="SVGID_1_" gradientUnits="userSpaceOnUse" x1="379.5166" y1="-421.3008" x2="379.5166" y2="-463.8708" gradientTransform="matrix(1 0 0 -1 -179.0151 47.6992)">
		<stop  offset="0" style="stop-color:#A383F7"/>
		<stop  offset="1" style="stop-color:#735FF2"/>
	</linearGradient>
	<path fill="url(#SVGID_1_)" d="M200.502,469c12.039,0,21.5,9.46,21.5,21.5s-9.461,21.5-21.5,21.5c-12.041,0-21.5-9.46-21.5-21.5
		S188.461,469,200.502,469z"/>
</g>
<path fill="#FFFFFF" d="M13.502,11.101c-0.879,0-1.601,0.719-1.601,1.6v17.6c0,0.878,0.719,1.6,1.601,1.6c0.878,0,1.6-0.719,1.6-1.6
	V12.7C15.102,11.819,14.383,11.101,13.502,11.101z M17.501,11.101h-0.137c-0.879,0-1.601,0.719-1.601,1.6v17.6
	c0,0.878,0.719,1.6,1.601,1.6h0.137c0.879,0,1.601-0.719,1.601-1.6V12.7C19.102,11.819,18.383,11.101,17.501,11.101z M21.501,11.101
	c-0.879,0-1.601,0.719-1.601,1.6v17.6c0,0.878,0.719,1.6,1.601,1.6c0.879,0,1.6-0.719,1.6-1.6V12.7
	C23.101,11.819,22.382,11.101,21.501,11.101z M25.5,11.101c-0.879,0-1.6,0.719-1.6,1.6v17.6c0,0.878,0.719,1.6,1.6,1.6
	c0.879,0,1.601-0.719,1.601-1.6V12.7C27.101,11.819,26.382,11.101,25.5,11.101z M29.5,11.101c-0.879,0-1.601,0.719-1.601,1.6v17.6
	c0,0.878,0.719,1.6,1.601,1.6c0.879,0,1.601-0.719,1.601-1.6V12.7C31.101,11.819,30.381,11.101,29.5,11.101z M9.502,17.499
	c0,0.879,0.719,1.601,1.601,1.601v-3.201C10.224,15.898,9.502,16.62,9.502,17.499z M9.502,26.3c0,0.879,0.719,1.601,1.601,1.601
	v-3.201C10.224,24.699,9.502,25.418,9.502,26.3z M31.901,24.699V27.9c0.879,0,1.601-0.72,1.601-1.601
	C33.499,25.418,32.78,24.699,31.901,24.699L31.901,24.699z M31.901,15.898V19.1c0.879,0,1.601-0.719,1.601-1.601
	C33.499,16.62,32.78,15.898,31.901,15.898z"/>
</svg>
