<?xml version="1.0" encoding="utf-8"?>
<!-- Generator: Adobe Illustrator 16.0.0, SVG Export Plug-In . SVG Version: 6.00 Build 0)  -->
<!DOCTYPE svg PUBLIC "-//W3C//DTD SVG 1.1//EN" "http://www.w3.org/Graphics/SVG/1.1/DTD/svg11.dtd">
<svg version="1.1" id="图层_1" xmlns="http://www.w3.org/2000/svg" xmlns:xlink="http://www.w3.org/1999/xlink" x="0px" y="0px"
	 width="43px" height="43px" viewBox="0 0 43 43" enable-background="new 0 0 43 43" xml:space="preserve">
<g transform="matrix(1 0 0 1 -289 -130 )">
	
		<linearGradient id="SVGID_1_" gradientUnits="userSpaceOnUse" x1="599.5146" y1="-235.3008" x2="599.5146" y2="-277.8708" gradientTransform="matrix(1 0 0 -1 -289.0151 -105.3008)">
		<stop  offset="0" style="stop-color:#F4B56D"/>
		<stop  offset="1" style="stop-color:#F19C45"/>
	</linearGradient>
	<path fill="url(#SVGID_1_)" d="M310.5,130c12.039,0,21.5,9.46,21.5,21.5s-9.461,21.5-21.5,21.5c-12.041,0-21.5-9.46-21.5-21.5
		S298.459,130,310.5,130z"/>
</g>
<g>
	<path fill="#FFFFFF" d="M33.5,28.412V10.031h-24v18.381h6.836v1.215H15.12v1.215h-1.063v1.215h-1.215v0.912h17.164v-1.216h-1.215
		v-1.215h-1.215v-1.216H26.36v-0.91H33.5z M11.778,26.133V12.311h19.443v13.822H11.778z"/>
	<path fill="#FFFFFF" d="M25.146,17.627h1.367v1.822h-3.038v-1.822h0.911v-4.405h-3.038v1.671h-0.911v-1.671h-3.189v4.405h1.367
		v5.164h-1.367v-2.127h-3.038v4.558h3.038v-1.823h2.126v-5.771h1.063V15.5h0.911v2.127h1.367v2.43h4.405v-2.43h1.063v-4.405h-3.038
		V17.627z"/>
</g>
</svg>
