<?xml version="1.0" encoding="utf-8"?>
<!-- Generator: Adobe Illustrator 16.0.0, SVG Export Plug-In . SVG Version: 6.00 Build 0)  -->
<!DOCTYPE svg PUBLIC "-//W3C//DTD SVG 1.1//EN" "http://www.w3.org/Graphics/SVG/1.1/DTD/svg11.dtd">
<svg version="1.1" id="图层_1" xmlns="http://www.w3.org/2000/svg" xmlns:xlink="http://www.w3.org/1999/xlink" x="0px" y="0px"
	 width="43px" height="43px" viewBox="0 0 43 43" enable-background="new 0 0 43 43" xml:space="preserve">
<g transform="matrix(1 0 0 1 -636 -130 )">
	
		<linearGradient id="SVGID_1_" gradientUnits="userSpaceOnUse" x1="1293.5146" y1="-235.3008" x2="1293.5146" y2="-277.8708" gradientTransform="matrix(1 0 0 -1 -636.0156 -105.3008)">
		<stop  offset="0" style="stop-color:#93D68A"/>
		<stop  offset="1" style="stop-color:#61B86E"/>
	</linearGradient>
	<path fill="url(#SVGID_1_)" d="M657.5,130c12.04,0,21.5,9.46,21.5,21.5s-9.46,21.5-21.5,21.5s-21.5-9.46-21.5-21.5
		S645.46,130,657.5,130z"/>
</g>
<g>
	<path fill="#FFFFFF" d="M12.586,14.3c-0.379,0-0.686,0.307-0.686,0.686l0,0v8.229c0,0.379,0.307,0.687,0.686,0.687l0,0h1.371
		c0.379,0,0.686-0.308,0.686-0.687l0,0V14.3H12.586z M30.414,9.5H16.7c-0.379,0-0.686,0.307-0.686,0.686l0,0v13.028
		c0,0.379,0.307,0.687,0.686,0.687l0,0h0.727c0.362,0.021,0.646,0.321,0.645,0.686v1.371c0,0.379,0.308,0.686,0.686,0.686l0,0h5.486
		c0.379,0,0.686-0.307,0.686-0.686l0,0v-1.371c0-0.364,0.282-0.664,0.645-0.686h4.841c0.379,0,0.687-0.308,0.687-0.687l0,0V10.186
		C31.101,9.807,30.793,9.5,30.414,9.5L30.414,9.5z M26.985,19.1h-6.856c-0.379,0-0.687-0.307-0.687-0.686l0,0
		c0-0.378,0.308-0.686,0.687-0.686l0,0h6.856c0.379,0,0.687,0.308,0.687,0.686l0,0C27.672,18.793,27.364,19.1,26.985,19.1
		L26.985,19.1z M26.985,15.672h-6.856c-0.379,0-0.687-0.308-0.687-0.687l0,0c0-0.379,0.308-0.686,0.687-0.686l0,0h6.856
		c0.379,0,0.687,0.307,0.687,0.686l0,0C27.672,15.364,27.364,15.672,26.985,15.672L26.985,15.672z M31.82,25.271h-4.835
		c-0.378,0-0.686,0.307-0.686,0.686l0,0v0.617c-0.003,0.794-0.646,1.437-1.439,1.44h-6.728c-0.791,0-1.433-0.642-1.433-1.434v-0.624
		c0-0.379-0.308-0.686-0.686-0.686l0,0h-4.801c-0.378,0-0.686,0.307-0.686,0.686v6.857c0,0.362,0.282,0.664,0.645,0.686h20.654
		c0.362-0.021,0.645-0.323,0.645-0.686v-6.857C32.472,25.592,32.186,25.289,31.82,25.271z"/>
</g>
</svg>
