<?xml version="1.0" encoding="utf-8"?>
<!-- Generator: Adobe Illustrator 16.0.0, SVG Export Plug-In . SVG Version: 6.00 Build 0)  -->
<!DOCTYPE svg PUBLIC "-//W3C//DTD SVG 1.1//EN" "http://www.w3.org/Graphics/SVG/1.1/DTD/svg11.dtd">
<svg version="1.1" id="图层_1" xmlns="http://www.w3.org/2000/svg" xmlns:xlink="http://www.w3.org/1999/xlink" x="0px" y="0px"
	 width="43px" height="43px" viewBox="0 0 43 43" enable-background="new 0 0 43 43" xml:space="preserve">
<g transform="matrix(1 0 0 1 -177 -130 )">
	
		<linearGradient id="SVGID_1_" gradientUnits="userSpaceOnUse" x1="375.5151" y1="-607.3008" x2="375.5151" y2="-649.8708" gradientTransform="matrix(1 0 0 -1 -177.0151 -477.3008)">
		<stop  offset="0" style="stop-color:#77A0F6"/>
		<stop  offset="1" style="stop-color:#4772E9"/>
	</linearGradient>
	<path fill="url(#SVGID_1_)" d="M198.5,130c12.04,0,21.5,9.46,21.5,21.5S210.54,173,198.5,173c-12.041,0-21.5-9.46-21.5-21.5
		S186.459,130,198.5,130z"/>
</g>
<g>
	<path fill="#FFFFFF" d="M29.5,13.5H18.25c-0.65-1.75-2.3-3-4.25-3c-2.15,0-4,1.55-4.4,3.6C9.55,14.4,9.5,14.7,9.5,15v13.5
		c0,2.2,1.8,4,4,4h16c2.2,0,4-1.8,4-4v-11C33.5,15.3,31.7,13.5,29.5,13.5z M31.5,17.5v7.25l-6.1-2.15l1.85-7.1h2.25
		C30.6,15.5,31.5,16.4,31.5,17.5z M25.2,15.5L23.5,22l-5-1.75V15.5H25.2L25.2,15.5z M11.5,15.5V15c0-0.55,0.2-1.1,0.5-1.5
		c0.45-0.6,1.15-1,2-1s1.55,0.4,2,1c0.3,0.4,0.5,0.95,0.5,1.5v9.65c-0.7-0.5-1.6-0.75-2.5-0.75s-1.8,0.3-2.5,0.75V15.5z M29.5,30.5
		h-16c-1.1,0-2-0.9-2-2v-0.15c0-1.399,1.1-2.5,2.5-2.5s2.5,1.101,2.5,2.5c0,0.551,0.45,1,1,1s1-0.449,1-1v-6l13,4.551v1.6
		C31.5,29.6,30.6,30.5,29.5,30.5z"/>
</g>
</svg>
