<?xml version="1.0" encoding="utf-8"?>
<!-- Generator: Adobe Illustrator 16.0.0, SVG Export Plug-In . SVG Version: 6.00 Build 0)  -->
<!DOCTYPE svg PUBLIC "-//W3C//DTD SVG 1.1//EN" "http://www.w3.org/Graphics/SVG/1.1/DTD/svg11.dtd">
<svg version="1.1" id="图层_1" xmlns="http://www.w3.org/2000/svg" xmlns:xlink="http://www.w3.org/1999/xlink" x="0px" y="0px"
	 width="43px" height="43px" viewBox="0 0 43 43" enable-background="new 0 0 43 43" xml:space="preserve">
<g transform="matrix(1 0 0 1 -289 -130 )">
	
		<linearGradient id="SVGID_1_" gradientUnits="userSpaceOnUse" x1="599.5166" y1="322.6992" x2="599.5166" y2="280.1297" gradientTransform="matrix(1 0 0 -1 -289.0151 452.6992)">
		<stop  offset="0" style="stop-color:#F4B56D"/>
		<stop  offset="1" style="stop-color:#F19C45"/>
	</linearGradient>
	<path fill="url(#SVGID_1_)" d="M310.502,130c12.039,0,21.5,9.46,21.5,21.5s-9.461,21.5-21.5,21.5c-12.041,0-21.5-9.46-21.5-21.5
		S298.461,130,310.502,130z"/>
</g>
<g>
	<path fill="#FFFFFF" d="M18.188,24.428c-0.744,0-1.348,0.604-1.348,1.35s0.604,1.348,1.348,1.348s1.352-0.603,1.352-1.348
		S18.933,24.428,18.188,24.428z M18.188,24.802c0.33,0,0.619,0.161,0.797,0.409l-0.53,0.306c-0.067-0.068-0.162-0.111-0.267-0.111
		c-0.104,0-0.197,0.043-0.265,0.112l-0.528-0.305C17.573,24.965,17.862,24.802,18.188,24.802z M17.215,25.778
		c0-0.103,0.017-0.202,0.046-0.294l0.56,0.323c0.011,0.139,0.097,0.256,0.218,0.31v0.624C17.573,26.668,17.215,26.264,17.215,25.778
		z M18.343,26.741v-0.625c0.121-0.055,0.209-0.172,0.219-0.311l0.559-0.323c0.03,0.094,0.047,0.192,0.047,0.296
		C19.167,26.264,18.812,26.667,18.343,26.741z"/>
	<path fill="#FFFFFF" d="M24.89,24.428c-0.744,0-1.352,0.604-1.352,1.35s0.607,1.348,1.352,1.348s1.348-0.603,1.348-1.348
		S25.634,24.428,24.89,24.428z M24.89,24.802c0.328,0,0.616,0.162,0.793,0.409l-0.527,0.306c-0.067-0.069-0.161-0.112-0.266-0.112
		c-0.104,0-0.197,0.043-0.266,0.111l-0.529-0.306C24.272,24.964,24.563,24.802,24.89,24.802z M23.912,25.778
		c0-0.104,0.017-0.202,0.046-0.296l0.56,0.324c0.011,0.138,0.097,0.254,0.218,0.309v0.625
		C24.271,26.666,23.912,26.263,23.912,25.778z M25.038,26.742v-0.623c0.123-0.054,0.211-0.173,0.221-0.314l0.559-0.322
		c0.03,0.094,0.046,0.192,0.046,0.296C25.863,26.266,25.505,26.67,25.038,26.742z"/>
	<path fill="#FFFFFF" d="M29.29,24.623c-0.631,0-1.139,0.509-1.139,1.135c0,0.628,0.508,1.137,1.139,1.137
		c0.628,0,1.135-0.508,1.135-1.137C30.425,25.132,29.918,24.623,29.29,24.623z M29.29,24.938c0.275,0,0.52,0.136,0.668,0.344
		l-0.445,0.258c-0.057-0.058-0.136-0.094-0.223-0.094c-0.089,0-0.168,0.036-0.226,0.094l-0.445-0.256
		C28.769,25.074,29.013,24.938,29.29,24.938z M28.467,25.758c0-0.086,0.014-0.17,0.038-0.249l0.471,0.271
		c0.008,0.119,0.082,0.219,0.188,0.264v0.523C28.768,26.508,28.467,26.169,28.467,25.758z M29.417,26.568v-0.524
		c0.102-0.046,0.175-0.145,0.184-0.262l0.473-0.273c0.025,0.079,0.039,0.163,0.039,0.249C30.112,26.168,29.81,26.507,29.417,26.568z
		"/>
	<path fill="#FFFFFF" d="M13.692,24.623c-0.627,0-1.135,0.509-1.135,1.135c0,0.628,0.508,1.137,1.135,1.137
		c0.628,0,1.136-0.508,1.136-1.137C14.828,25.132,14.32,24.623,13.692,24.623z M13.692,24.938c0.275,0,0.52,0.136,0.67,0.344
		l-0.446,0.258c-0.057-0.058-0.136-0.094-0.224-0.094c-0.086,0-0.166,0.037-0.223,0.094l-0.445-0.258
		C13.174,25.074,13.418,24.938,13.692,24.938z M12.87,25.758c0-0.087,0.014-0.17,0.039-0.249l0.473,0.273
		c0.01,0.117,0.082,0.216,0.185,0.262v0.523C13.173,26.508,12.87,26.169,12.87,25.758z M13.819,26.568v-0.523
		c0.103-0.046,0.176-0.145,0.185-0.262l0.474-0.273c0.025,0.078,0.039,0.162,0.039,0.248C14.517,26.169,14.213,26.508,13.819,26.568
		z"/>
	<path fill="#FFFFFF" d="M18.188,18.703c0.744,0,1.352-0.604,1.352-1.349c0-0.745-0.607-1.35-1.352-1.35s-1.348,0.605-1.348,1.35
		C16.841,18.099,17.444,18.703,18.188,18.703z M18.343,18.316v-0.625c0.121-0.055,0.209-0.172,0.219-0.311l0.559-0.323
		c0.03,0.093,0.047,0.192,0.047,0.295C19.167,17.84,18.812,18.243,18.343,18.316z M18.188,16.379c0.33,0,0.619,0.161,0.797,0.408
		l-0.529,0.305c-0.068-0.069-0.163-0.112-0.268-0.112s-0.198,0.043-0.266,0.113l-0.527-0.305
		C17.573,16.541,17.862,16.379,18.188,16.379z M17.261,17.059l0.56,0.323c0.011,0.139,0.097,0.257,0.218,0.311v0.623
		c-0.465-0.072-0.823-0.476-0.823-0.963C17.215,17.25,17.231,17.152,17.261,17.059z"/>
	<path fill="#FFFFFF" d="M24.89,18.703c0.744,0,1.348-0.604,1.348-1.349c0-0.745-0.604-1.35-1.348-1.35s-1.352,0.605-1.352,1.35
		C23.538,18.099,24.146,18.703,24.89,18.703z M25.038,18.318v-0.623c0.123-0.054,0.211-0.173,0.221-0.314l0.559-0.323
		c0.03,0.094,0.046,0.193,0.046,0.296C25.863,17.842,25.505,18.246,25.038,18.318z M24.89,16.379c0.328,0,0.617,0.161,0.793,0.408
		l-0.527,0.306c-0.067-0.07-0.161-0.113-0.266-0.113c-0.104,0-0.198,0.043-0.266,0.112l-0.529-0.305
		C24.272,16.54,24.563,16.379,24.89,16.379z M23.958,17.058l0.56,0.323c0.011,0.139,0.097,0.255,0.218,0.311v0.625
		c-0.465-0.074-0.823-0.477-0.823-0.963C23.912,17.25,23.929,17.151,23.958,17.058z"/>
	<path fill="#FFFFFF" d="M21.478,14.714c-0.6,0-1.087,0.485-1.087,1.087c0,0.6,0.487,1.086,1.087,1.086
		c0.601,0,1.088-0.486,1.088-1.086C22.565,15.2,22.078,14.714,21.478,14.714z M21.478,15.014c0.266,0,0.498,0.131,0.64,0.331
		l-0.426,0.246c-0.054-0.056-0.13-0.091-0.214-0.091s-0.159,0.035-0.213,0.091l-0.427-0.246
		C20.98,15.145,21.213,15.014,21.478,15.014z M20.692,15.801c0-0.083,0.013-0.163,0.037-0.239l0.451,0.26
		c0.008,0.113,0.078,0.208,0.177,0.251v0.503C20.979,16.52,20.692,16.194,20.692,15.801z M21.598,16.578v-0.503
		c0.099-0.043,0.169-0.139,0.177-0.251l0.452-0.26c0.023,0.075,0.036,0.155,0.036,0.237C22.263,16.194,21.976,16.52,21.598,16.578z"
		/>
	<path fill="#FFFFFF" d="M21.478,20.523c-0.744,0-1.348,0.603-1.348,1.348c0,0.746,0.604,1.35,1.348,1.35
		c0.748,0,1.352-0.604,1.352-1.35C22.829,21.126,22.226,20.523,21.478,20.523z M21.478,20.896c0.329,0,0.619,0.161,0.795,0.408
		l-0.529,0.305c-0.067-0.067-0.161-0.11-0.266-0.11c-0.103,0-0.196,0.042-0.264,0.111l-0.529-0.305
		C20.862,21.058,21.152,20.896,21.478,20.896z M20.503,21.871c0-0.103,0.017-0.203,0.047-0.295l0.559,0.324
		c0.012,0.139,0.098,0.256,0.219,0.311v0.624C20.862,22.762,20.503,22.358,20.503,21.871z M21.632,22.834V22.21
		c0.121-0.056,0.207-0.172,0.219-0.31l0.559-0.323c0.029,0.092,0.045,0.191,0.045,0.293C22.454,22.357,22.1,22.76,21.632,22.834z"/>
	<path fill="#FFFFFF" d="M20.497,14.654h0.055v0.461c0.217-0.28,0.549-0.46,0.926-0.46c0.381,0,0.717,0.18,0.93,0.46v-0.461h0.055
		c0.25,0,0.452-0.203,0.452-0.452V14.08c0-0.25-0.202-0.451-0.452-0.451h-0.055v-0.58h-1.855v0.58h-0.055
		c-0.247,0-0.449,0.202-0.449,0.451v0.122C20.048,14.451,20.25,14.654,20.497,14.654z"/>
	<path fill="#FFFFFF" d="M23.484,25.783c0-0.123,0.016-0.245,0.048-0.363h-1.125V25h0.418c0.343,0,0.621-0.278,0.621-0.621v-0.168
		c0-0.343-0.278-0.62-0.621-0.62h-0.418v-0.626c-0.251,0.215-0.572,0.344-0.93,0.344c-0.354,0-0.676-0.129-0.926-0.344v0.626h-0.418
		c-0.344,0-0.618,0.277-0.618,0.62v0.168c0,0.343,0.274,0.621,0.618,0.621h0.418v0.42h-0.991c0.032,0.119,0.048,0.24,0.048,0.363
		c0,0.201-0.041,0.391-0.117,0.564h0.555c-0.301,0.042-0.53,0.299-0.53,0.613v0.168c0,0.342,0.274,0.62,0.618,0.62h0.418v2.203
		h1.855v-2.203h0.418c0.343,0,0.621-0.278,0.621-0.62V26.96c0-0.314-0.232-0.571-0.534-0.613h0.688
		C23.528,26.174,23.484,25.984,23.484,25.783z"/>
	<path fill="#FFFFFF" d="M31.398,25.445c-0.134-0.112-0.36-0.135-0.36-0.135h-0.627c0.062,0.143,0.092,0.299,0.092,0.463
		c0,0.165-0.03,0.322-0.092,0.464h0.164v3.713h0.927v-4.068C31.502,25.883,31.502,25.533,31.398,25.445z"/>
	<path fill="#FFFFFF" d="M28.182,25.311h-0.194v-2.507h0.788c0.178,0,0.322-0.143,0.322-0.321v-0.087c0-0.177-0.145-0.32-0.322-0.32
		h-0.788v-6.369h-0.93v1.309h-0.771c0.031,0.119,0.048,0.241,0.047,0.363c0,0.201-0.041,0.392-0.115,0.563h0.84v7.371h-0.8
		c0.049,0.146,0.075,0.301,0.075,0.463c0,0.163-0.026,0.318-0.075,0.464h1.924c-0.058-0.144-0.089-0.3-0.089-0.464
		C28.093,25.61,28.124,25.454,28.182,25.311z"/>
	<path fill="#FFFFFF" d="M12.585,25.311h-1.083v0.927h1.083c-0.061-0.143-0.092-0.3-0.092-0.464
		C12.493,25.61,12.524,25.454,12.585,25.311z"/>
	<path fill="#FFFFFF" d="M15.978,25.311V17.94h0.898c-0.076-0.171-0.117-0.362-0.117-0.563c0-0.126,0.018-0.247,0.049-0.363h-0.83
		c0,0-0.539-0.01-0.738,0.146c-0.209,0.156-0.188,0.779-0.188,0.779v7.371h-0.239c0.061,0.143,0.092,0.299,0.092,0.463
		c0,0.165-0.031,0.321-0.092,0.464h2.026c-0.053-0.149-0.079-0.306-0.079-0.464c0-0.158,0.026-0.314,0.079-0.463H15.978z"/>
	<path fill="#FFFFFF" d="M19.491,17.94h1.061v0.978h-0.055c-0.247,0-0.449,0.204-0.449,0.453v0.123c0,0.249,0.202,0.452,0.449,0.452
		h0.055v0.859c0.25-0.214,0.572-0.344,0.926-0.344c0.357,0,0.679,0.13,0.93,0.344v-0.859h0.055c0.25,0,0.452-0.203,0.452-0.452
		v-0.123c0-0.25-0.202-0.453-0.452-0.453h-0.055V17.94h1.193c-0.072-0.171-0.116-0.362-0.116-0.563
		c-0.001-0.122,0.016-0.245,0.048-0.363h-1.125V16.53c-0.213,0.278-0.549,0.458-0.93,0.458c-0.377,0-0.709-0.18-0.926-0.458v0.484
		h-0.991c0.032,0.119,0.048,0.241,0.048,0.363C19.608,17.578,19.567,17.769,19.491,17.94z"/>
</g>
<path fill="#FFFFFF" d="M21.502,36.5c-8.271,0-15-6.729-15-15s6.729-15,15-15s15,6.729,15,15S29.773,36.5,21.502,36.5z M21.502,8.5
	c-7.168,0-13,5.832-13,13s5.832,13,13,13s13-5.832,13-13S28.67,8.5,21.502,8.5z"/>
</svg>
