<?xml version="1.0" encoding="utf-8"?>
<!-- Generator: Adobe Illustrator 16.0.0, SVG Export Plug-In . SVG Version: 6.00 Build 0)  -->
<!DOCTYPE svg PUBLIC "-//W3C//DTD SVG 1.1//EN" "http://www.w3.org/Graphics/SVG/1.1/DTD/svg11.dtd">
<svg version="1.1" id="图层_1" xmlns="http://www.w3.org/2000/svg" xmlns:xlink="http://www.w3.org/1999/xlink" x="0px" y="0px"
	 width="43px" height="43px" viewBox="0 0 43 43" enable-background="new 0 0 43 43" xml:space="preserve">
<g transform="matrix(1 0 0 1 -400 -130 )">
	
		<linearGradient id="SVGID_1_" gradientUnits="userSpaceOnUse" x1="821.5166" y1="-49.3008" x2="821.5166" y2="-91.8708" gradientTransform="matrix(1 0 0 -1 -400.0151 80.6992)">
		<stop  offset="0" style="stop-color:#64D5D1"/>
		<stop  offset="1" style="stop-color:#55B6D2"/>
	</linearGradient>
	<path fill="url(#SVGID_1_)" d="M421.502,130c12.039,0,21.5,9.46,21.5,21.5s-9.461,21.5-21.5,21.5c-12.041,0-21.5-9.46-21.5-21.5
		S409.461,130,421.502,130z"/>
</g>
<path fill="#FFFFFF" d="M28.765,15.446h3.027c0.665,0,1.21-0.544,1.21-1.209V11.21c0-0.665-0.545-1.21-1.21-1.21h-3.027
	c-0.665,0-1.21,0.545-1.21,1.21v0.606h-5.568c-0.545,0-1.09,0.241-1.513,0.604l-2.301,2.301c-0.061,0.06-0.121,0.06-0.242,0.06
	h-1.876V11.21c0-0.665-0.545-1.21-1.211-1.21h-3.632c-0.665,0-1.21,0.545-1.21,1.21v20.58c0,0.665,0.545,1.21,1.21,1.21h3.632
	c0.666,0,1.211-0.545,1.211-1.21v-3.935h5.508c0.061,0,0.181,0.061,0.242,0.12l2.3,2.784c0.424,0.485,0.969,0.787,1.635,0.787h1.815
	v0.243c0,0.665,0.545,1.21,1.21,1.21h3.027c0.665,0,1.21-0.545,1.21-1.21v-3.027c0-0.665-0.545-1.21-1.21-1.21h-3.027
	c-0.665,0-1.21,0.545-1.21,1.21v0.908h-1.877c-0.06,0-0.181-0.061-0.242-0.121l-2.3-2.784c-0.424-0.484-0.968-0.787-1.634-0.787
	h-5.447v-3.873h11.5v0.605c0,0.664,0.545,1.21,1.21,1.21h3.027c0.665,0,1.21-0.546,1.21-1.21v-3.027c0-0.666-0.545-1.21-1.21-1.21
	h-3.027c-0.665,0-1.21,0.544-1.21,1.21v0.606h-11.5v-3.633h1.938c0.544,0,1.089-0.241,1.513-0.604l2.3-2.3
	c0.06-0.062,0.121-0.062,0.242-0.062h5.508v0.605C27.555,14.902,28.1,15.446,28.765,15.446z"/>
</svg>
