<?xml version="1.0" encoding="utf-8"?>
<!-- Generator: Adobe Illustrator 16.0.0, SVG Export Plug-In . SVG Version: 6.00 Build 0)  -->
<!DOCTYPE svg PUBLIC "-//W3C//DTD SVG 1.1//EN" "http://www.w3.org/Graphics/SVG/1.1/DTD/svg11.dtd">
<svg version="1.1" id="图层_1" xmlns="http://www.w3.org/2000/svg" xmlns:xlink="http://www.w3.org/1999/xlink" x="0px" y="0px"
	 width="43px" height="43px" viewBox="0 0 43 43" enable-background="new 0 0 43 43" xml:space="preserve">
<g transform="matrix(1 0 0 1 -177 -130 )">
	
		<linearGradient id="SVGID_1_" gradientUnits="userSpaceOnUse" x1="375.5151" y1="-421.3008" x2="375.5151" y2="-463.8708" gradientTransform="matrix(1 0 0 -1 -177.0151 -291.3008)">
		<stop  offset="0" style="stop-color:#77A0F6"/>
		<stop  offset="1" style="stop-color:#4772E9"/>
	</linearGradient>
	<path fill="url(#SVGID_1_)" d="M198.5,130c12.039,0,21.5,9.46,21.5,21.5s-9.461,21.5-21.5,21.5c-12.041,0-21.5-9.46-21.5-21.5
		S186.459,130,198.5,130z"/>
</g>
<g>
	<path fill="#FFFFFF" d="M22.203,23.281h0.003v3.703l0.289-0.217c0.972-0.738,2.239-0.906,3.348-0.509h1.43v0.876l0.374,0.283
		l0.857-0.65c0.232-0.175,0.479-0.316,0.735-0.428v-2.999l3.962,0.033v-4.477l-2.029-0.019v-6.458l-1.12-3.005h-8.59l-1.065,3.011
		v8.145h1.807V23.281z M27.272,25.479h-3.101V24.75h3.101V25.479z M27.272,23.974h-3.101v-0.678l3.101,0.027V23.974z M31.394,20.688
		v0.864l-7.386-0.063v-0.864L31.394,20.688z M22.738,11.223h6.062l0.46,1.234h-6.961L22.738,11.223z M22.2,18.768V14.23h7.165v4.537
		h-2.191v-2.472h-2.683v2.472H22.2z M27.643,33.584c-0.578,0.001-1.142-0.188-1.603-0.536l-0.894-0.678
		c-0.302-0.229-0.72-0.226-1.018,0l-0.895,0.678c-0.942,0.713-2.258,0.717-3.2,0L19.14,32.37c-0.301-0.229-0.72-0.226-1.018,0
		l-0.895,0.678c-0.941,0.713-2.258,0.717-3.2,0l-0.894-0.678c-0.302-0.226-0.72-0.226-1.019,0l-1.168,0.886
		c-0.397,0.301-0.963,0.223-1.265-0.175c-0.301-0.397-0.223-0.964,0.175-1.265l1.168-0.885c0.942-0.714,2.262-0.714,3.201,0
		l0.894,0.677c0.302,0.226,0.72,0.226,1.018,0l0.895-0.677c0.942-0.714,2.258-0.717,3.2,0l0.895,0.677
		c0.301,0.226,0.72,0.226,1.018,0l0.895-0.677c0.942-0.714,2.258-0.717,3.2,0l0.894,0.677c0.302,0.226,0.72,0.226,1.019,0
		l0.894-0.677c0.942-0.714,2.258-0.717,3.2,0l0.895,0.677c0.397,0.301,0.476,0.867,0.175,1.265s-0.867,0.476-1.265,0.175l0,0
		l-0.895-0.678c-0.301-0.226-0.719-0.226-1.018,0l-0.894,0.678C28.784,33.397,28.221,33.585,27.643,33.584z"/>
	<path fill="#FFFFFF" d="M33.143,28.164l-0.894-0.678c-0.942-0.716-2.259-0.713-3.201,0l-0.894,0.678
		c-0.302,0.226-0.72,0.226-1.018,0l-0.895-0.678c-0.942-0.716-2.258-0.713-3.2,0l-0.895,0.678c-0.301,0.226-0.72,0.226-1.018,0
		l-0.895-0.678c-0.942-0.716-2.258-0.713-3.2,0l-0.895,0.678c-0.301,0.226-0.719,0.226-1.018,0l-0.894-0.678
		c-0.235-0.178-0.499-0.315-0.78-0.406c-0.515,0.729-1.36,1.207-2.318,1.207c-0.331,0-0.646-0.06-0.942-0.165l-0.328,0.25
		c-0.397,0.301-0.476,0.867-0.174,1.265c0.301,0.397,0.866,0.476,1.264,0.175l0,0l1.169-0.886c0.301-0.226,0.719-0.226,1.018,0
		l0.894,0.678c0.942,0.717,2.259,0.713,3.2,0l0.895-0.678c0.298-0.226,0.72-0.229,1.018,0l0.892,0.678
		c0.942,0.717,2.258,0.713,3.2,0l0.895-0.678c0.301-0.226,0.72-0.229,1.018,0l0.894,0.678c0.461,0.349,1.024,0.537,1.603,0.536
		c0.565,0,1.129-0.178,1.602-0.536l0.894-0.678c0.302-0.226,0.72-0.226,1.018,0l0.895,0.678c0.397,0.301,0.964,0.223,1.265-0.175
		C33.619,29.031,33.541,28.465,33.143,28.164L33.143,28.164z M17.241,16.458v1.234h-1.807v-1.505h1.454v-2.261h-5.143v2.261h1.428
		v1.577c-1.921,0.358-3.366,2.057-3.366,4.047v0.47h2.598v-0.47c0-0.837,0.681-1.521,1.521-1.521h3.315v1.484h2.261v-5.317H17.241z
		 M11.125,22.667l-0.4,0.653c-0.28,0.457-0.93,1.58-0.93,2.128c0,0.734,0.596,1.331,1.33,1.331s1.331-0.597,1.331-1.331
		c0-0.548-0.65-1.671-0.931-2.128L11.125,22.667z"/>
</g>
</svg>
