<?xml version="1.0" encoding="utf-8"?>
<!-- Generator: Adobe Illustrator 16.0.0, SVG Export Plug-In . SVG Version: 6.00 Build 0)  -->
<!DOCTYPE svg PUBLIC "-//W3C//DTD SVG 1.1//EN" "http://www.w3.org/Graphics/SVG/1.1/DTD/svg11.dtd">
<svg version="1.1" id="图层_1" xmlns="http://www.w3.org/2000/svg" xmlns:xlink="http://www.w3.org/1999/xlink" x="0px" y="0px"
	 width="43px" height="43px" viewBox="0 0 43 43" enable-background="new 0 0 43 43" xml:space="preserve">
<g transform="matrix(1 0 0 1 -177 -130 )">
	
		<linearGradient id="SVGID_1_" gradientUnits="userSpaceOnUse" x1="375.5161" y1="136.6992" x2="375.5161" y2="94.1292" gradientTransform="matrix(1 0 0 -1 -177.0151 266.6992)">
		<stop  offset="0" style="stop-color:#77A0F6"/>
		<stop  offset="1" style="stop-color:#4772E9"/>
	</linearGradient>
	<path fill="url(#SVGID_1_)" d="M198.501,130c12.039,0,21.5,9.46,21.5,21.5s-9.461,21.5-21.5,21.5c-12.041,0-21.5-9.46-21.5-21.5
		S186.46,130,198.501,130z"/>
</g>
<g>
	<path fill="#FFFFFF" d="M23.229,20.915c0.172,1.312-1.421,2.343-2.53,1.671c-1.25-0.547-1.25-2.53-0.031-3.093
		C21.715,18.852,23.229,19.696,23.229,20.915z M24.964,20.586c-0.281-2.218-2.796-3.686-4.843-2.765
		c-1.296,0.577-2.171,1.952-2.108,3.405c0.078,1.905,1.891,3.468,3.795,3.295C23.715,24.35,25.199,22.492,24.964,20.586
		L24.964,20.586z M28.697,12.12c-0.688-0.905-1.858-1.062-2.89-1.233c-2.921-0.469-5.919-0.484-8.841,0.031
		c-0.969,0.156-2.062,0.328-2.67,1.202c1,0.938,2.42,1.078,3.701,1.234c2.311,0.297,4.686,0.313,6.998,0.016
		C26.291,13.214,27.727,13.089,28.697,12.12L28.697,12.12z M29.587,28.287c-0.438,1.531-0.188,3.593-1.812,4.483
		c-2.796,1.547-6.186,1.719-9.263,1.172c-1.625-0.297-3.529-0.812-4.42-2.344c-0.391-1.5-0.641-3.03-0.891-4.561l0.094-0.25
		l0.281-0.141c4.654,3.077,11.167,3.077,15.838,0C30.148,26.865,29.602,27.755,29.587,28.287L29.587,28.287z M32.415,13.276
		c-0.531,3.421-1.141,6.826-1.734,10.23c-0.172,1-1.141,1.563-1.953,1.983c-2.92,1.469-6.325,1.719-9.527,1.375
		c-2.171-0.234-4.389-0.812-6.153-2.171c-0.828-0.641-0.828-1.733-0.984-2.655c-0.547-3.202-1.171-6.404-1.563-9.638
		c0.187-1.405,1.766-2.015,2.937-2.452c1.563-0.578,3.233-0.844,4.889-1c3.53-0.344,7.139-0.219,10.56,0.781
		c1.219,0.358,2.53,0.858,3.358,1.905c0.375,0.484,0.25,1.094,0.172,1.641L32.415,13.276z"/>
</g>
</svg>
