<?xml version="1.0" encoding="utf-8"?>
<!-- Generator: Adobe Illustrator 16.0.0, SVG Export Plug-In . SVG Version: 6.00 Build 0)  -->
<!DOCTYPE svg PUBLIC "-//W3C//DTD SVG 1.1//EN" "http://www.w3.org/Graphics/SVG/1.1/DTD/svg11.dtd">
<svg version="1.1" id="图层_1" xmlns="http://www.w3.org/2000/svg" xmlns:xlink="http://www.w3.org/1999/xlink" x="0px" y="0px"
	 width="43px" height="43px" viewBox="0 0 43 43" enable-background="new 0 0 43 43" xml:space="preserve">
<g transform="matrix(1 0 0 1 -636 -130 )">
	
		<linearGradient id="SVGID_1_" gradientUnits="userSpaceOnUse" x1="1293.5166" y1="508.6992" x2="1293.5166" y2="466.1292" gradientTransform="matrix(1 0 0 -1 -636.0156 638.6992)">
		<stop  offset="0" style="stop-color:#93D68A"/>
		<stop  offset="1" style="stop-color:#61B86E"/>
	</linearGradient>
	<path fill="url(#SVGID_1_)" d="M657.502,130c12.04,0,21.5,9.46,21.5,21.5s-9.46,21.5-21.5,21.5s-21.5-9.46-21.5-21.5
		S645.462,130,657.502,130z"/>
</g>
<path fill="#FFFFFF" d="M20.132,24.063l-4.798-2.68c-0.212-0.123-0.473-0.123-0.686,0l-4.797,2.68
	c-0.215,0.121-0.35,0.349-0.35,0.596v5.325c0,0.247,0.135,0.475,0.35,0.596l4.797,2.68c0.213,0.122,0.474,0.122,0.686,0l4.798-2.68
	c0.216-0.121,0.349-0.349,0.349-0.596v-5.318C20.483,24.417,20.349,24.186,20.132,24.063z M19.247,25.817l-3.563,2.008v3.941
	c0,0.378-0.307,0.685-0.685,0.685c-0.379,0-0.687-0.307-0.687-0.685l0,0v-4.743l4.263-2.399c0.33-0.189,0.75-0.075,0.939,0.254
	c0.188,0.329,0.075,0.75-0.253,0.938H19.247z M27.334,18.341v-5.325c0-0.248-0.134-0.476-0.35-0.597l-4.797-2.68
	c-0.212-0.122-0.473-0.122-0.686,0l-4.797,2.68c-0.216,0.121-0.35,0.349-0.35,0.597v5.325c0,0.247,0.134,0.475,0.35,0.596
	l4.797,2.68c0.213,0.123,0.474,0.123,0.686,0l4.797-2.68C27.2,18.816,27.334,18.588,27.334,18.341z M26.101,14.174l-3.563,2.001
	v3.941c0,0.378-0.307,0.686-0.686,0.686s-0.686-0.307-0.686-0.686v-4.742l4.263-2.399c0.329-0.189,0.75-0.076,0.938,0.253
	c0.189,0.33,0.077,0.75-0.253,0.939l0,0L26.101,14.174z M33.152,24.063l-4.797-2.68c-0.212-0.123-0.474-0.123-0.686,0l-4.798,2.68
	c-0.216,0.121-0.349,0.349-0.349,0.596v5.325c0,0.247,0.133,0.475,0.349,0.596l4.798,2.68c0.212,0.123,0.474,0.123,0.686,0
	l4.797-2.68c0.215-0.121,0.35-0.349,0.35-0.596v-5.318C33.504,24.417,33.371,24.186,33.152,24.063z M32.269,25.817l-3.563,2.008
	v3.941c0,0.378-0.307,0.685-0.686,0.685s-0.686-0.307-0.686-0.685v-4.743l4.264-2.399c0.328-0.189,0.749-0.075,0.938,0.253
	c0.19,0.33,0.076,0.75-0.253,0.939H32.269z"/>
</svg>
