<?xml version="1.0" encoding="utf-8"?>
<!-- Generator: Adobe Illustrator 16.0.0, SVG Export Plug-In . SVG Version: 6.00 Build 0)  -->
<!DOCTYPE svg PUBLIC "-//W3C//DTD SVG 1.1//EN" "http://www.w3.org/Graphics/SVG/1.1/DTD/svg11.dtd">
<svg version="1.1" id="图层_1" xmlns="http://www.w3.org/2000/svg" xmlns:xlink="http://www.w3.org/1999/xlink" x="0px" y="0px"
	 width="43px" height="43px" viewBox="0 0 43 43" enable-background="new 0 0 43 43" xml:space="preserve">
<g transform="matrix(1 0 0 1 -636 -130 )">
	
		<linearGradient id="SVGID_1_" gradientUnits="userSpaceOnUse" x1="1293.5166" y1="-421.3008" x2="1293.5166" y2="-463.8708" gradientTransform="matrix(1 0 0 -1 -636.0156 -291.3008)">
		<stop  offset="0" style="stop-color:#93D68A"/>
		<stop  offset="1" style="stop-color:#61B86E"/>
	</linearGradient>
	<path fill="url(#SVGID_1_)" d="M657.502,130c12.041,0,21.5,9.46,21.5,21.5s-9.459,21.5-21.5,21.5c-12.039,0-21.5-9.46-21.5-21.5
		S645.463,130,657.502,130z"/>
</g>
<g>
	<path fill="#FFFFFF" d="M27.84,13.394c-0.049-0.243-0.263-0.415-0.511-0.415h-2.868c-0.288,0-0.523,0.235-0.523,0.523v2.049
		c0,0.287-0.234,0.522-0.522,0.522h-1.437c-0.288,0-0.523-0.235-0.523-0.522v-2.049c0-0.288-0.235-0.523-0.522-0.523h-2.87
		c-0.248,0-0.46,0.172-0.513,0.415l-5.658,19.599c0,0.003,0.003,0.008,0.005,0.008h9.036c0.287,0,0.522-0.234,0.522-0.523v-5.139
		c0-0.287,0.235-0.521,0.523-0.521h1.437c0.288,0,0.522,0.234,0.522,0.521v5.139c0,0.289,0.235,0.523,0.523,0.523h9.035
		c0.004,0,0.006-0.002,0.006-0.008L27.84,13.394z M23.938,23.156c0,0.288-0.234,0.522-0.522,0.522h-1.437
		c-0.288,0-0.523-0.234-0.523-0.522v-3.423c0-0.288,0.235-0.523,0.523-0.523h1.437c0.288,0,0.522,0.235,0.522,0.523V23.156z
		 M16.599,13.248c-0.013-1.835-1.558-3.312-3.391-3.246c-1.754,0.063-3.154,1.503-3.154,3.27c0,0.402,0.073,0.786,0.204,1.143
		h-0.019l0.057,0.099c0.113,0.272,0.26,0.523,0.436,0.753l1.522,2.638c0.478,0.823,1.663,0.823,2.138,0l1.507-2.608
		c0.191-0.244,0.351-0.516,0.465-0.809l0.042-0.07h-0.014C16.528,14.051,16.601,13.658,16.599,13.248z M13.356,14.785
		c-0.767,0-1.389-0.622-1.389-1.392c0-0.768,0.622-1.39,1.389-1.39c0.77,0,1.392,0.622,1.392,1.39
		C14.748,14.163,14.124,14.785,13.356,14.785z"/>
</g>
</svg>
