<?xml version="1.0" encoding="utf-8"?>
<!-- Generator: Adobe Illustrator 16.0.0, SVG Export Plug-In . SVG Version: 6.00 Build 0)  -->
<!DOCTYPE svg PUBLIC "-//W3C//DTD SVG 1.1//EN" "http://www.w3.org/Graphics/SVG/1.1/DTD/svg11.dtd">
<svg version="1.1" id="图层_1" xmlns="http://www.w3.org/2000/svg" xmlns:xlink="http://www.w3.org/1999/xlink" x="0px" y="0px"
	 width="43px" height="43px" viewBox="0 0 43 43" enable-background="new 0 0 43 43" xml:space="preserve">
<g transform="matrix(1 0 0 1 -177 -130 )">
	
		<linearGradient id="SVGID_1_" gradientUnits="userSpaceOnUse" x1="375.5146" y1="-235.3008" x2="375.5146" y2="-277.8708" gradientTransform="matrix(1 0 0 -1 -177.0151 -105.3008)">
		<stop  offset="0" style="stop-color:#77A0F6"/>
		<stop  offset="1" style="stop-color:#4772E9"/>
	</linearGradient>
	<path fill="url(#SVGID_1_)" d="M198.5,130c12.039,0,21.5,9.46,21.5,21.5s-9.461,21.5-21.5,21.5c-12.041,0-21.5-9.46-21.5-21.5
		S186.459,130,198.5,130z"/>
</g>
<path fill="#FFFFFF" d="M31.785,19.786C31.785,14.107,27.18,9.5,21.5,9.5c-5.678,0-10.285,4.607-10.285,10.286
	c0,5.163,3.814,9.451,8.786,10.178l-0.107,1.822h-5.25V33.5h13.713v-1.714h-5.207l-0.105-1.822
	C27.992,29.214,31.785,24.949,31.785,19.786z M21.5,28.357c-4.736,0-8.571-3.836-8.571-8.571s3.835-8.572,8.571-8.572
	c4.735,0,8.573,3.837,8.573,8.572S26.234,28.357,21.5,28.357z M21.5,13.357c-3.557,0-6.428,2.872-6.428,6.429
	s2.872,6.429,6.428,6.429c3.557,0,6.428-2.872,6.428-6.429S25.057,13.357,21.5,13.357z M18.929,21.5
	c-1.415,0-2.572-1.157-2.572-2.571s1.157-2.571,2.572-2.571c1.414,0,2.571,1.157,2.571,2.571S20.342,21.5,18.929,21.5z"/>
</svg>
