<?xml version="1.0" encoding="utf-8"?>
<!-- Generator: Adobe Illustrator 16.0.0, SVG Export Plug-In . SVG Version: 6.00 Build 0)  -->
<!DOCTYPE svg PUBLIC "-//W3C//DTD SVG 1.1//EN" "http://www.w3.org/Graphics/SVG/1.1/DTD/svg11.dtd">
<svg version="1.1" id="图层_1" xmlns="http://www.w3.org/2000/svg" xmlns:xlink="http://www.w3.org/1999/xlink" x="0px" y="0px"
	 width="43px" height="43px" viewBox="0 0 43 43" enable-background="new 0 0 43 43" xml:space="preserve">
<g transform="matrix(1 0 0 1 -400 -130 )">
	
		<linearGradient id="SVGID_1_" gradientUnits="userSpaceOnUse" x1="821.5166" y1="-235.3008" x2="821.5166" y2="-277.8708" gradientTransform="matrix(1 0 0 -1 -400.0151 -105.3008)">
		<stop  offset="0" style="stop-color:#64D5D1"/>
		<stop  offset="1" style="stop-color:#55B6D2"/>
	</linearGradient>
	<path fill="url(#SVGID_1_)" d="M421.502,130c12.039,0,21.5,9.46,21.5,21.5s-9.461,21.5-21.5,21.5c-12.041,0-21.5-9.46-21.5-21.5
		S409.461,130,421.502,130z"/>
</g>
<g>
	<path fill="#FFFFFF" d="M11.315,26.934v0.453c0.058,1.368,1.197,2.44,2.566,2.414c1.369,0.026,2.508-1.046,2.565-2.414v-0.453
		c0.02-0.166-0.036-0.332-0.151-0.453c-0.313-0.716-0.917-1.265-1.66-1.509c-0.231-0.122-0.493-0.174-0.754-0.15
		c-0.262-0.04-0.528,0.014-0.755,0.15c-0.743,0.244-1.347,0.793-1.66,1.509C11.352,26.602,11.296,26.768,11.315,26.934z
		 M12.825,27.387c-0.021-0.166,0.035-0.332,0.15-0.453l0.453-0.453c0.168-0.138,0.39-0.193,0.604-0.15
		c0.213-0.022,0.427,0.031,0.604,0.15l0.453,0.453c0,0.151,0.15,0.302,0.15,0.453c0.018,0.566-0.428,1.039-0.995,1.056
		c-0.021,0.001-0.04,0.001-0.061,0c-0.612,0.126-1.211-0.269-1.337-0.881C12.835,27.504,12.828,27.445,12.825,27.387z"/>
	<path fill="#FFFFFF" d="M9.505,24.52v2.414c-0.026,0.224,0.133,0.426,0.356,0.453c0.032,0.004,0.064,0.004,0.097,0h0.604v-0.453
		c-0.021-0.166,0.035-0.332,0.15-0.453c0.209-0.589,0.574-1.11,1.057-1.509c0.23-0.184,0.484-0.336,0.755-0.452
		c0.177-0.12,0.391-0.174,0.604-0.151h1.207c0.205,0.032,0.407,0.082,0.604,0.151c0.271,0.116,0.524,0.269,0.755,0.452
		c0.436,0.439,0.793,0.949,1.057,1.509c0.197,0.058,0.324,0.249,0.302,0.453v0.453h7.244v-0.453
		c-0.021-0.166,0.035-0.332,0.15-0.453c0.209-0.589,0.574-1.11,1.057-1.509c0.146-0.187,0.367-0.297,0.604-0.302h-9.658l-0.151-0.15
		v-7.848c-0.058-0.197-0.248-0.325-0.452-0.303H11.92c-0.122-0.016-0.242,0.044-0.302,0.151c-1.293,1.014-2.022,2.584-1.962,4.226
		v3.622C9.656,24.217,9.505,24.368,9.505,24.52L9.505,24.52z M10.712,19.991c0.075-1.05,0.563-2.026,1.358-2.716h3.32v2.716H10.712z
		 M25.049,26.934v0.453c0,1.417,1.148,2.565,2.566,2.565c1.416,0,2.565-1.148,2.565-2.565v-0.453
		c0.02-0.166-0.036-0.332-0.151-0.453c-0.313-0.716-0.917-1.265-1.66-1.509c-0.231-0.122-0.493-0.174-0.754-0.15
		c-0.262-0.04-0.529,0.014-0.755,0.15c-0.743,0.244-1.347,0.793-1.66,1.509C25.085,26.602,25.029,26.768,25.049,26.934
		L25.049,26.934z M26.559,27.387c-0.021-0.166,0.035-0.332,0.15-0.453l0.453-0.453c0.168-0.138,0.39-0.193,0.604-0.15
		c0.213-0.022,0.427,0.031,0.604,0.15l0.453,0.453c0,0.151,0.15,0.302,0.15,0.453c0.018,0.566-0.429,1.039-0.995,1.056
		c-0.021,0.001-0.041,0.001-0.061,0c-0.613,0.126-1.211-0.269-1.337-0.881C26.568,27.504,26.562,27.445,26.559,27.387L26.559,27.387
		z M29.124,24.67c-0.116-0.011-0.224-0.064-0.302-0.15h3.471v2.414c0.026,0.224-0.133,0.426-0.356,0.453
		c-0.032,0.004-0.064,0.004-0.097,0h-1.056v-0.453c0.02-0.166-0.035-0.332-0.151-0.453c-0.209-0.589-0.574-1.11-1.057-1.509
		C29.496,24.793,29.32,24.676,29.124,24.67z"/>
	<path fill="#FFFFFF" d="M17.201,23.161v-9.357c-0.025-0.391,0.271-0.729,0.661-0.754c0.031-0.002,0.063-0.002,0.094,0h14.79
		c0.391-0.026,0.729,0.27,0.754,0.66c0.003,0.031,0.003,0.063,0,0.094v9.357c0.026,0.391-0.27,0.729-0.66,0.754
		c-0.031,0.002-0.063,0.002-0.094,0h-14.79c-0.391,0.026-0.729-0.27-0.755-0.66C17.199,23.224,17.199,23.192,17.201,23.161z"/>
</g>
</svg>
