<?xml version="1.0" encoding="utf-8"?>
<!-- Generator: Adobe Illustrator 16.0.0, SVG Export Plug-In . SVG Version: 6.00 Build 0)  -->
<!DOCTYPE svg PUBLIC "-//W3C//DTD SVG 1.1//EN" "http://www.w3.org/Graphics/SVG/1.1/DTD/svg11.dtd">
<svg version="1.1" id="图层_1" xmlns="http://www.w3.org/2000/svg" xmlns:xlink="http://www.w3.org/1999/xlink" x="0px" y="0px"
	 width="43px" height="43px" viewBox="0 0 43 43" enable-background="new 0 0 43 43" xml:space="preserve">
<g transform="matrix(1 0 0 1 -179 -469 )">
	
		<linearGradient id="SVGID_1_" gradientUnits="userSpaceOnUse" x1="379.5166" y1="322.6992" x2="379.5166" y2="280.1292" gradientTransform="matrix(1 0 0 -1 -179.0151 791.6992)">
		<stop  offset="0" style="stop-color:#A383F7"/>
		<stop  offset="1" style="stop-color:#735FF2"/>
	</linearGradient>
	<path fill="url(#SVGID_1_)" d="M200.502,469c12.039,0,21.5,9.46,21.5,21.5s-9.461,21.5-21.5,21.5s-21.5-9.46-21.5-21.5
		S188.463,469,200.502,469z"/>
</g>
<g>
	<path fill="#FFFFFF" d="M28.458,29.292H14.582c-0.307,0-0.555-0.249-0.555-0.556c0-0.306,0.249-0.554,0.555-0.554h13.866
		c0.304,0,0.554,0.25,0.554,0.555c0.008,0.299-0.229,0.547-0.528,0.555C28.468,29.292,28.463,29.292,28.458,29.292L28.458,29.292z
		 M28.393,25.225h-2.443c-0.481,0.811-1.355,1.307-2.298,1.304c-0.94-0.001-1.813-0.497-2.297-1.304h-6.826
		c-0.307,0.017-0.542,0.278-0.525,0.585c0.015,0.283,0.242,0.51,0.525,0.525h6.272l-0.01-0.01c0.716,0.835,1.761,1.315,2.86,1.313
		c1.101,0.001,2.146-0.479,2.86-1.313l-0.01,0.01h1.883c0.304,0,0.553-0.25,0.553-0.554c0.006-0.301-0.232-0.55-0.532-0.556
		C28.4,25.225,28.396,25.225,28.393,25.225L28.393,25.225z M20.688,26.205C20.688,26.205,20.698,26.215,20.688,26.205
		C20.698,26.215,20.688,26.205,20.688,26.205z M20.183,25.364c0.008,0.018,0.008,0.028,0.018,0.047
		C20.2,25.392,20.192,25.383,20.183,25.364z M20.247,25.503l0.026,0.055L20.247,25.503z M20.32,25.642l0.028,0.055L20.32,25.642z
		 M20.395,25.781c0.01,0.018,0.019,0.026,0.028,0.046C20.413,25.808,20.403,25.799,20.395,25.781z M20.486,25.919
		c0.01,0.01,0.02,0.027,0.028,0.037C20.496,25.946,20.486,25.929,20.486,25.919z M26.612,26.205
		C26.612,26.205,26.604,26.215,26.612,26.205C26.604,26.215,26.612,26.205,26.612,26.205z M27.12,25.364
		c-0.01,0.018-0.01,0.028-0.019,0.047C27.102,25.392,27.11,25.383,27.12,25.364z M27.055,25.503l-0.026,0.055L27.055,25.503z
		 M26.98,25.642l-0.028,0.055L26.98,25.642z M26.907,25.781c-0.009,0.018-0.019,0.026-0.028,0.046
		C26.888,25.808,26.898,25.799,26.907,25.781z M26.814,25.919c-0.01,0.01-0.019,0.027-0.026,0.037
		C26.806,25.946,26.814,25.929,26.814,25.919z M24.592,17.406c0.063,0.067,0.063,0.171,0,0.239l-0.737,0.74
		c-0.047,0.046-0.084,0.064-0.13,0.064c-0.045,0-0.083-0.018-0.128-0.064l-0.24-0.241l-5.332,5.344
		c-0.415,0.43-0.99,0.668-1.587,0.658c-0.314,0-0.628-0.065-0.923-0.193c-0.298-0.132-0.56-0.332-0.766-0.584
		c-0.382-0.43-0.569-0.999-0.517-1.571c0.04-0.589,0.297-1.142,0.719-1.553l5.239-5.251l-0.239-0.259
		c-0.029-0.029-0.046-0.069-0.046-0.111c0-0.046,0.019-0.084,0.046-0.129l0.739-0.74c0.036-0.028,0.083-0.046,0.129-0.046
		c0.047,0,0.083,0.018,0.13,0.046L24.592,17.406z M21.124,18.931l1.512-1.498l-1.706-1.72l-3.201,3.217H21.124z M23.604,19.652
		c-1.069,1.608-1.78,2.597-1.78,3.595c0.004,0.979,0.801,1.77,1.78,1.766c0.977,0.007,1.773-0.779,1.78-1.755
		c0-0.003,0-0.008,0-0.011C25.384,22.277,24.703,21.26,23.604,19.652z"/>
</g>
<path fill="#FFFFFF" d="M21.502,36.5c-8.271,0-15-6.729-15-15s6.729-15,15-15s15,6.729,15,15S29.773,36.5,21.502,36.5z M21.502,8.5
	c-7.168,0-13,5.832-13,13s5.832,13,13,13s13-5.832,13-13S28.67,8.5,21.502,8.5z"/>
</svg>
