<?xml version="1.0" encoding="utf-8"?>
<!-- Generator: Adobe Illustrator 16.0.0, SVG Export Plug-In . SVG Version: 6.00 Build 0)  -->
<!DOCTYPE svg PUBLIC "-//W3C//DTD SVG 1.1//EN" "http://www.w3.org/Graphics/SVG/1.1/DTD/svg11.dtd">
<svg version="1.1" id="图层_1" xmlns="http://www.w3.org/2000/svg" xmlns:xlink="http://www.w3.org/1999/xlink" x="0px" y="0px"
	 width="43px" height="43px" viewBox="0 0 43 43" enable-background="new 0 0 43 43" xml:space="preserve">
<g transform="matrix(1 0 0 1 -179 -469 )">
	
		<linearGradient id="SVGID_1_" gradientUnits="userSpaceOnUse" x1="379.5151" y1="322.6992" x2="379.5151" y2="280.1292" gradientTransform="matrix(1 0 0 -1 -179.0151 791.6992)">
		<stop  offset="0" style="stop-color:#A383F7"/>
		<stop  offset="1" style="stop-color:#735FF2"/>
	</linearGradient>
	<path fill="url(#SVGID_1_)" d="M200.5,469c12.039,0,21.5,9.46,21.5,21.5s-9.461,21.5-21.5,21.5c-12.04,0-21.5-9.46-21.5-21.5
		S188.46,469,200.5,469z"/>
</g>
<path fill="#FFFFFF" d="M12.026,13.928c-0.631,0.948-1.105,2.053-1.422,3.316h0.316v1.737c-0.158,0-0.158,0.158-0.316,0.316h0.159
	l0.948,0.316h0.158l-0.158,9.158h-0.315c-0.316,0-0.475,0.158-0.475,0.316c0,0.158,0.158,0.315,0.475,0.315h0.158v0.79
	c-0.158,0-0.158,0-0.158,0.158c0,0,0,0.158,0.158,0.158v0.158h-0.158c-0.159,0-0.316,0-0.316,0.158c-0.158,0-0.316,0-0.316,0.158
	c0,0,0.158,0.158,0.474,0.158v0.632H9.5l0.315,0.474h21.158l2.526-3.158l-1.421-1.737c0,0-0.316-0.789-1.421-0.473v-2.369h0.158
	v-0.474l0.316-0.158V23.56h-0.316v-0.474h-0.631v0.474l-1.896,0.158v-0.316c0.158,0,0.315-0.158,0.315-0.315V21.98
	c0-0.158-0.158-0.315-0.315-0.315v-0.158l-10.894-8.053l0.631-2.684c0,0-2.842-0.316-5.211,2.053L12.5,12.507
	c0,0-0.158-0.158-0.315-0.158h-0.158l-1.58,0.316c0,0-0.158,0-0.158,0.158v0.158L12.026,13.928z M11.553,18.98h-0.316v-1.737h0.316
	V18.98z M11.553,29.244c-0.158,0-0.316,0-0.316-0.158l0.159-0.158h0.158V29.244L11.553,29.244z M11.711,17.244h0.315v1.737h-0.315
	V17.244z M11.869,28.928c0.316,0,0.316,0,0.316,0.158c0,0.158-0.158,0.158-0.158,0.158L11.869,28.928z M17.869,31.612h-0.315
	l0.315-0.632h0.316L17.869,31.612z M18.185,30.823h-0.316l0.316-1.263h0.473L18.185,30.823z M18.185,29.401l0.315-1.263h0.789
	l-0.631,1.263H18.185z M19.921,21.823h0.948l-0.158,0.631h-0.948L19.921,21.823z M19.921,20.875c-0.158,0-0.316,0-0.316-0.158
	c-0.158,0-0.158-0.158-0.158-0.158s0.158-0.158,0.632-0.158L19.921,20.875z M21.026,20.56C21.026,20.56,20.869,20.56,21.026,20.56
	c-0.315,0-0.631-0.158-0.79-0.158l0.159-0.315l0.631-0.158V20.56z M21.185,20.875h0.631l-1.262,3.315L21.185,20.875z M20.711,20.717
	C20.869,20.717,20.869,20.717,20.711,20.717c0,0.158-0.158,0.316-0.474,0.316h-0.158v-0.316
	C20.396,20.56,20.553,20.717,20.711,20.717z M20.237,21.033h0.632v0.632h-0.948l0.158-0.474
	C20.079,21.033,20.237,21.033,20.237,21.033z M20.553,22.612v0.631h-0.949l0.159-0.631H20.553z M20.553,23.401l-0.158,0.947h-1.106
	l0.158-0.947H20.553z M20.396,24.507l-0.159,0.79h-1.105l0.158-0.79H20.396z M20.079,25.454l-0.475,1.263h-0.789l0.316-1.263H20.079
	z M19.604,26.875l-0.473,1.263H18.5l0.315-1.263H19.604z M24.974,26.875L24.5,24.191l0.315,0.158v0.632h0.158V26.875z
	 M29.237,24.665l0.948-0.316v0.158h0.158v2.21h-1.105c0,0-1.421-0.631-2.21,0.631c-0.79,0-1.263,0-1.58,0.158v-2.842h0.158v-0.158
	l0.949,0.316L29.237,24.665z M27.5,22.928c-0.315,0-0.631,0.158-0.631,0.474v0.316l-1.422,0.158v-0.474h-0.631v0.474h-0.473
	l-0.631-3.474L27.5,22.928L27.5,22.928z M23.079,23.244l1.579,7.263c-0.158,0-0.789,0.474-2.053,1.105L23.079,23.244z
	 M21.815,31.612h-2.842l3.631-10.105L21.815,31.612z M15.5,15.033l6.789,4.579l-0.158,0.474l-0.316,0.631h-0.631l0.158-0.947
	l-1.263,0.158l-0.158,0.474c-0.474,0-0.79,0.158-0.79,0.316c0,0.158,0.158,0.158,0.315,0.316c0.158,0,0.316,0,0.474,0.158
	L17.553,31.77h-5.211v-0.632H12.5c0.315,0,0.474,0,0.474-0.158c0,0-0.158,0-0.316-0.158c0,0-0.158-0.158-0.315-0.158h-0.316v-0.158
	c0.158,0,0.158,0,0.158-0.158l-0.158-0.158v-0.79c0.316,0,0.474-0.158,0.474-0.315c0-0.158-0.158-0.316-0.474-0.316h-0.158
	l0.158-9.158l0.474-0.158V18.98h-0.158v-1.737h0.473L15.5,15.033z M12.026,12.507h0.158l0.631,0.316
	c-0.158,0.315-0.473,0.631-0.789,0.947l-1.422-0.947L12.026,12.507z"/>
</svg>
