<?xml version="1.0" encoding="utf-8"?>
<!-- Generator: Adobe Illustrator 16.0.0, SVG Export Plug-In . SVG Version: 6.00 Build 0)  -->
<!DOCTYPE svg PUBLIC "-//W3C//DTD SVG 1.1//EN" "http://www.w3.org/Graphics/SVG/1.1/DTD/svg11.dtd">
<svg version="1.1" id="图层_1" xmlns="http://www.w3.org/2000/svg" xmlns:xlink="http://www.w3.org/1999/xlink" x="0px" y="0px"
	 width="43px" height="43px" viewBox="0 0 43 43" enable-background="new 0 0 43 43" xml:space="preserve">
<g transform="matrix(1 0 0 1 -400 -130 )">
	
		<linearGradient id="SVGID_1_" gradientUnits="userSpaceOnUse" x1="821.5166" y1="508.6992" x2="821.5166" y2="466.1292" gradientTransform="matrix(1 0 0 -1 -400.0151 638.6992)">
		<stop  offset="0" style="stop-color:#64D5D1"/>
		<stop  offset="1" style="stop-color:#55B6D2"/>
	</linearGradient>
	<path fill="url(#SVGID_1_)" d="M421.502,130c12.039,0,21.5,9.46,21.5,21.5s-9.461,21.5-21.5,21.5c-12.041,0-21.5-9.46-21.5-21.5
		S409.461,130,421.502,130z"/>
</g>
<path fill="#FFFFFF" d="M32.836,10.833H10.169c-0.368,0-0.667,0.298-0.667,0.667v16c0,0.368,0.299,0.667,0.667,0.667l0,0h22.667
	c0.367,0,0.666-0.298,0.666-0.667l0,0v-16C33.502,11.132,33.203,10.833,32.836,10.833L32.836,10.833z M16.169,23.5
	c0,0.368-0.298,0.667-0.667,0.667l0,0h-0.667c-0.367,0-0.666-0.298-0.666-0.667l0,0v-6c0-0.368,0.299-0.667,0.666-0.667l0,0h0.667
	c0.369,0,0.667,0.298,0.667,0.667l0,0V23.5z M20.169,23.5c0,0.368-0.298,0.667-0.667,0.667l0,0h-0.667
	c-0.367,0-0.666-0.298-0.666-0.667l0,0v-2.667c0-0.369,0.299-0.667,0.666-0.667l0,0h0.667c0.369,0,0.667,0.298,0.667,0.667l0,0V23.5
	z M24.168,23.5c0,0.368-0.298,0.667-0.666,0.667l0,0h-0.666c-0.368,0-0.668-0.298-0.668-0.667l0,0v-4.667
	c0-0.369,0.299-0.667,0.667-0.667h0.001h0.666c0.368,0,0.666,0.298,0.666,0.667l0,0V23.5z M28.168,23.5
	c0,0.368-0.298,0.667-0.666,0.667l0,0h-0.666c-0.368,0-0.668-0.298-0.668-0.667l0,0v-8c0-0.368,0.3-0.667,0.667-0.667
	c0.001,0,0.001,0,0.001,0h0.666c0.368,0,0.666,0.298,0.666,0.667l0,0V23.5z M28.615,30.833H13.949c-0.369,0-0.668,0.298-0.668,0.667
	s0.299,0.667,0.668,0.667h14.666c0.368,0,0.666-0.298,0.666-0.667S28.983,30.833,28.615,30.833L28.615,30.833z"/>
</svg>
