<?xml version="1.0" encoding="utf-8"?>
<!-- Generator: Adobe Illustrator 16.0.0, SVG Export Plug-In . SVG Version: 6.00 Build 0)  -->
<!DOCTYPE svg PUBLIC "-//W3C//DTD SVG 1.1//EN" "http://www.w3.org/Graphics/SVG/1.1/DTD/svg11.dtd">
<svg version="1.1" id="图层_1" xmlns="http://www.w3.org/2000/svg" xmlns:xlink="http://www.w3.org/1999/xlink" x="0px" y="0px"
	 width="43px" height="43px" viewBox="0 0 43 43" enable-background="new 0 0 43 43" xml:space="preserve">
<g transform="matrix(1 0 0 1 -177 -130 )">
	
		<linearGradient id="SVGID_1_" gradientUnits="userSpaceOnUse" x1="375.5166" y1="136.6992" x2="375.5166" y2="94.1292" gradientTransform="matrix(1 0 0 -1 -177.0151 266.6992)">
		<stop  offset="0" style="stop-color:#77A0F6"/>
		<stop  offset="1" style="stop-color:#4772E9"/>
	</linearGradient>
	<path fill="url(#SVGID_1_)" d="M198.502,130c12.039,0,21.5,9.46,21.5,21.5s-9.461,21.5-21.5,21.5c-12.041,0-21.5-9.46-21.5-21.5
		S186.461,130,198.502,130z"/>
</g>
<path fill="#FFFFFF" d="M28.05,18.165c-0.117,0.117-0.146,0.297-0.065,0.443c0.41,0.748,0.643,1.605,0.643,2.518
	c0,1.317-0.485,2.522-1.287,3.445c-0.105,0.12-0.12,0.295-0.042,0.432l0.918,1.591c0.078,0.134,0.226,0.204,0.378,0.183
	c0.141-0.019,0.283-0.028,0.429-0.028c1.644,0.012,3,1.399,2.979,3.04c-0.021,1.634-1.346,2.951-2.979,2.963
	c-1.662,0.012-3.021-1.338-3.021-3c0-0.893,0.392-1.694,1.011-2.246l-0.867-1.5c-0.099-0.171-0.313-0.234-0.49-0.15
	c-0.687,0.333-1.46,0.521-2.278,0.521c-0.626,0-1.226-0.11-1.781-0.31c-0.171-0.061-0.361,0.007-0.452,0.164l-0.584,1.01
	c-0.072,0.126-0.065,0.284,0.019,0.403c0.352,0.497,0.556,1.104,0.551,1.76c-0.017,1.629-1.348,2.958-2.977,2.972
	c-1.679,0.014-3.043-1.353-3.026-3.033c0.019-1.634,1.359-2.965,2.996-2.967c0.281,0,0.556,0.037,0.815,0.11
	c0.164,0.047,0.34-0.026,0.427-0.173l0.509-0.881c0.086-0.15,0.059-0.342-0.068-0.459c-0.787-0.731-1.348-1.702-1.57-2.794
	c-0.035-0.176-0.188-0.302-0.368-0.302h-2.156c-0.162,0-0.308,0.105-0.356,0.26c-0.394,1.198-1.521,2.06-2.851,2.06
	c-1.664,0-3.012-1.354-3-3.021c0.01-1.655,1.374-2.996,3.028-2.979c1.271,0.012,2.354,0.816,2.777,1.941
	c0.055,0.145,0.195,0.239,0.35,0.239h2.206c0.178,0,0.333-0.125,0.368-0.298c0.258-1.271,0.973-2.375,1.969-3.132
	c0.149-0.115,0.192-0.323,0.099-0.487l-0.052-0.089c-0.082-0.141-0.242-0.211-0.401-0.181c-0.206,0.042-0.422,0.063-0.642,0.059
	c-1.63-0.023-2.975-1.409-2.954-3.038c0.021-1.648,1.369-2.975,3.024-2.96c1.624,0.014,2.953,1.336,2.977,2.958
	c0.009,0.741-0.249,1.423-0.687,1.95c-0.102,0.122-0.117,0.293-0.038,0.429l0.155,0.267c0.084,0.146,0.253,0.218,0.414,0.176
	c0.411-0.103,0.84-0.157,1.28-0.157c1.226,0,2.354,0.419,3.249,1.125c0.149,0.117,0.363,0.105,0.497-0.028l0.566-0.567
	c0.11-0.11,0.141-0.277,0.078-0.417c-0.172-0.377-0.266-0.797-0.266-1.237c0-1.657,1.344-3,3.001-3c1.654,0,3,1.345,3,3
	c0,1.657-1.343,3-3,3c-0.485,0-0.942-0.115-1.348-0.319c-0.146-0.072-0.321-0.047-0.438,0.068L28.05,18.165L28.05,18.165z"/>
</svg>
