<?xml version="1.0" encoding="utf-8"?>
<!-- Generator: Adobe Illustrator 16.0.0, SVG Export Plug-In . SVG Version: 6.00 Build 0)  -->
<!DOCTYPE svg PUBLIC "-//W3C//DTD SVG 1.1//EN" "http://www.w3.org/Graphics/SVG/1.1/DTD/svg11.dtd">
<svg version="1.1" id="图层_1" xmlns="http://www.w3.org/2000/svg" xmlns:xlink="http://www.w3.org/1999/xlink" x="0px" y="0px"
	 width="43px" height="43px" viewBox="0 0 43 43" enable-background="new 0 0 43 43" xml:space="preserve">
<g transform="matrix(1 0 0 1 -177 -130 )">
	
		<linearGradient id="SVGID_1_" gradientUnits="userSpaceOnUse" x1="375.5151" y1="93.6992" x2="375.5151" y2="136.2692" gradientTransform="matrix(1 0 0 -1 -177.0151 266.6992)">
		<stop  offset="0" style="stop-color:#A368F6"/>
		<stop  offset="1" style="stop-color:#FF77CA"/>
	</linearGradient>
	<path fill="url(#SVGID_1_)" d="M198.5,130c12.039,0,21.5,9.46,21.5,21.5s-9.461,21.5-21.5,21.5c-12.041,0-21.5-9.46-21.5-21.5
		S186.459,130,198.5,130z"/>
</g>
<g>
	<path fill="#FFFFFF" d="M18.21,23.423c-0.743,0-1.346,0.603-1.346,1.347c0,0.744,0.603,1.345,1.346,1.345
		c0.743,0,1.349-0.602,1.349-1.345C19.56,24.026,18.953,23.423,18.21,23.423z M18.21,23.796c0.329,0,0.618,0.161,0.794,0.408
		l-0.529,0.305c-0.068-0.068-0.162-0.111-0.266-0.111c-0.104,0-0.198,0.042-0.265,0.112l-0.527-0.304
		C17.595,23.959,17.885,23.796,18.21,23.796z M17.238,24.771c0-0.103,0.017-0.202,0.046-0.294l0.559,0.323
		c0.01,0.138,0.096,0.255,0.217,0.309v0.623C17.596,25.659,17.238,25.256,17.238,24.771z M18.364,25.731v-0.624
		c0.121-0.055,0.208-0.172,0.218-0.31l0.558-0.323c0.03,0.094,0.046,0.192,0.046,0.296C19.187,25.255,18.832,25.658,18.364,25.731z"
		/>
	<path fill="#FFFFFF" d="M24.899,23.423c-0.743,0-1.349,0.603-1.349,1.347c0,0.744,0.606,1.345,1.349,1.345
		c0.743,0,1.346-0.602,1.346-1.345C26.245,24.026,25.643,23.423,24.899,23.423z M24.899,23.796c0.327,0,0.615,0.162,0.791,0.409
		l-0.526,0.306c-0.067-0.069-0.161-0.112-0.265-0.112s-0.197,0.042-0.266,0.111l-0.528-0.305
		C24.283,23.958,24.573,23.796,24.899,23.796z M23.923,24.771c0-0.104,0.017-0.202,0.046-0.296l0.558,0.324
		c0.011,0.138,0.097,0.254,0.218,0.309v0.624C24.281,25.657,23.923,25.255,23.923,24.771z M25.047,25.732V25.11
		c0.123-0.054,0.211-0.173,0.221-0.314l0.558-0.322c0.03,0.094,0.045,0.192,0.045,0.296C25.871,25.257,25.514,25.662,25.047,25.732z
		"/>
	<path fill="#FFFFFF" d="M29.292,23.618c-0.629,0-1.137,0.508-1.137,1.133c0,0.627,0.507,1.135,1.137,1.135
		c0.627,0,1.134-0.508,1.134-1.135C30.425,24.126,29.919,23.618,29.292,23.618z M29.292,23.932c0.275,0,0.519,0.136,0.667,0.344
		l-0.445,0.257c-0.056-0.058-0.135-0.094-0.222-0.094c-0.088,0-0.167,0.036-0.225,0.093l-0.445-0.256
		C28.771,24.067,29.015,23.932,29.292,23.932z M28.47,24.751c0-0.086,0.014-0.169,0.038-0.248l0.469,0.271
		c0.009,0.118,0.083,0.218,0.188,0.264v0.522C28.771,25.499,28.47,25.161,28.47,24.751z M29.418,25.56v-0.523
		c0.101-0.045,0.175-0.144,0.183-0.261l0.473-0.273c0.025,0.079,0.039,0.163,0.039,0.249C30.113,25.161,29.811,25.499,29.418,25.56z
		"/>
	<path fill="#FFFFFF" d="M13.722,23.618c-0.626,0-1.133,0.508-1.133,1.133c0,0.627,0.507,1.135,1.133,1.135
		c0.626,0,1.133-0.508,1.133-1.135C14.855,24.126,14.349,23.618,13.722,23.618z M13.722,23.932c0.275,0,0.519,0.136,0.668,0.344
		l-0.445,0.257c-0.057-0.058-0.136-0.094-0.223-0.094c-0.086,0-0.166,0.036-0.223,0.094l-0.445-0.257
		C13.204,24.067,13.448,23.932,13.722,23.932z M12.9,24.751c0-0.087,0.015-0.17,0.04-0.249l0.472,0.273
		c0.009,0.117,0.082,0.216,0.184,0.262v0.522C13.204,25.499,12.9,25.161,12.9,24.751z M13.849,25.56v-0.522
		c0.102-0.046,0.175-0.145,0.184-0.261l0.473-0.272c0.025,0.078,0.039,0.161,0.039,0.248C14.544,25.161,14.241,25.499,13.849,25.56z
		"/>
	<path fill="#FFFFFF" d="M18.21,17.708c0.743,0,1.349-0.603,1.349-1.347c0-0.744-0.606-1.347-1.349-1.347
		c-0.743,0-1.346,0.604-1.346,1.347C16.865,17.105,17.467,17.708,18.21,17.708z M18.364,17.322v-0.623
		c0.121-0.055,0.208-0.171,0.218-0.31l0.558-0.323c0.03,0.093,0.046,0.192,0.046,0.295C19.187,16.846,18.832,17.249,18.364,17.322z
		 M18.21,15.388c0.329,0,0.618,0.161,0.794,0.408L18.477,16.1c-0.068-0.069-0.163-0.112-0.266-0.112
		c-0.105,0-0.198,0.043-0.266,0.112l-0.526-0.304C17.595,15.549,17.885,15.388,18.21,15.388z M17.284,16.067l0.559,0.322
		c0.01,0.139,0.096,0.257,0.217,0.311v0.622c-0.463-0.072-0.822-0.475-0.822-0.961C17.238,16.258,17.254,16.16,17.284,16.067z"/>
	<path fill="#FFFFFF" d="M24.899,17.708c0.743,0,1.346-0.603,1.346-1.347c0-0.744-0.603-1.347-1.346-1.347
		c-0.743,0-1.349,0.604-1.349,1.347C23.55,17.105,24.157,17.708,24.899,17.708z M25.047,17.323v-0.622
		c0.123-0.053,0.211-0.173,0.221-0.314l0.558-0.322c0.03,0.094,0.045,0.193,0.045,0.296C25.871,16.848,25.514,17.252,25.047,17.323z
		 M24.899,15.388c0.327,0,0.616,0.161,0.791,0.408l-0.526,0.305c-0.067-0.069-0.161-0.112-0.265-0.112s-0.198,0.043-0.266,0.112
		l-0.528-0.305C24.283,15.548,24.573,15.388,24.899,15.388z M23.97,16.066l0.558,0.323c0.01,0.139,0.097,0.255,0.218,0.31v0.623
		c-0.465-0.074-0.822-0.476-0.822-0.961C23.923,16.258,23.94,16.159,23.97,16.066z"/>
	<path fill="#FFFFFF" d="M21.494,13.726c-0.6,0-1.085,0.485-1.085,1.085c0,0.599,0.486,1.084,1.085,1.084
		c0.599,0,1.085-0.485,1.085-1.084C22.579,14.211,22.093,13.726,21.494,13.726z M21.494,14.026c0.264,0,0.497,0.13,0.638,0.33
		l-0.425,0.246c-0.054-0.056-0.129-0.091-0.213-0.091c-0.084,0-0.159,0.035-0.213,0.091l-0.426-0.246
		C20.997,14.156,21.229,14.026,21.494,14.026z M20.709,14.812c0-0.083,0.013-0.163,0.037-0.239l0.45,0.26
		c0.009,0.112,0.079,0.207,0.177,0.251v0.502C20.996,15.528,20.709,15.203,20.709,14.812z M21.613,15.586v-0.501
		c0.098-0.043,0.168-0.139,0.177-0.251l0.451-0.259c0.023,0.075,0.037,0.155,0.037,0.237C22.277,15.203,21.99,15.528,21.613,15.586z
		"/>
	<path fill="#FFFFFF" d="M21.494,19.525c-0.743,0-1.345,0.602-1.345,1.345c0,0.744,0.602,1.347,1.345,1.347
		c0.746,0,1.349-0.603,1.349-1.347C22.842,20.127,22.24,19.525,21.494,19.525z M21.494,19.897c0.328,0,0.617,0.161,0.793,0.408
		l-0.528,0.305c-0.068-0.067-0.161-0.11-0.265-0.11c-0.103,0-0.196,0.042-0.264,0.111l-0.527-0.305
		C20.879,20.059,21.168,19.897,21.494,19.897z M20.521,20.871c0-0.103,0.016-0.202,0.046-0.295l0.558,0.324
		c0.011,0.139,0.098,0.256,0.218,0.311v0.623C20.879,21.759,20.521,21.356,20.521,20.871z M21.647,21.833v-0.624
		c0.12-0.055,0.207-0.171,0.218-0.309l0.558-0.323c0.029,0.092,0.045,0.191,0.045,0.293C22.468,21.356,22.114,21.758,21.647,21.833z
		"/>
	<path fill="#FFFFFF" d="M20.514,13.666h0.055v0.46c0.216-0.28,0.548-0.459,0.925-0.459c0.38,0,0.715,0.18,0.928,0.459v-0.46h0.055
		c0.25,0,0.451-0.202,0.451-0.451v-0.123c0-0.249-0.202-0.45-0.451-0.45h-0.055v-0.579h-1.853v0.579h-0.055
		c-0.247,0-0.448,0.202-0.448,0.45v0.123C20.066,13.463,20.268,13.666,20.514,13.666z"/>
	<path fill="#FFFFFF" d="M23.497,24.776c0-0.123,0.016-0.245,0.047-0.362h-1.123v-0.42h0.417c0.342,0,0.62-0.277,0.62-0.619v-0.167
		c0-0.343-0.277-0.62-0.62-0.62h-0.417v-0.625c-0.25,0.214-0.572,0.343-0.928,0.343c-0.353,0-0.675-0.129-0.925-0.343v0.625h-0.417
		c-0.342,0-0.617,0.277-0.617,0.62v0.167c0,0.342,0.274,0.619,0.617,0.619h0.417v0.42H19.58c0.032,0.118,0.047,0.24,0.047,0.362
		c0,0.2-0.041,0.39-0.116,0.563h0.554c-0.3,0.042-0.53,0.299-0.53,0.612v0.168c0,0.341,0.274,0.619,0.617,0.619h0.417v2.199h1.853
		v-2.199h0.417c0.342,0,0.62-0.277,0.62-0.619v-0.168c0-0.313-0.232-0.57-0.533-0.612h0.687
		C23.54,25.166,23.497,24.976,23.497,24.776z"/>
	<path fill="#FFFFFF" d="M31.396,24.438c-0.133-0.112-0.359-0.135-0.359-0.135h-0.626c0.062,0.143,0.092,0.299,0.092,0.462
		c0,0.164-0.03,0.321-0.092,0.463h0.165v3.707H31.5v-4.062C31.5,24.875,31.5,24.525,31.396,24.438z"/>
	<path fill="#FFFFFF" d="M11.604,24.438c0.133-0.112,0.359-0.135,0.359-0.135h0.626c-0.062,0.143-0.092,0.299-0.092,0.462
		c0,0.164,0.03,0.321,0.092,0.463h-0.165v3.707H11.5v-4.062C11.5,24.875,11.5,24.525,11.604,24.438z"/>
	<path fill="#FFFFFF" d="M28.186,24.304h-0.194v-2.502h0.787c0.177,0,0.322-0.143,0.322-0.321v-0.087c0-0.177-0.145-0.32-0.322-0.32
		h-0.787v-6.357h-0.928v1.306h-0.77c0.032,0.119,0.048,0.241,0.047,0.363c0,0.2-0.041,0.391-0.116,0.562h0.838v7.357h-0.798
		c0.049,0.146,0.075,0.3,0.075,0.462s-0.026,0.318-0.075,0.463h1.92c-0.058-0.143-0.088-0.299-0.088-0.463
		C28.097,24.603,28.127,24.447,28.186,24.304z"/>
	<path fill="#FFFFFF" d="M16.002,24.304v-7.357h0.897c-0.076-0.171-0.117-0.361-0.117-0.562c0-0.126,0.018-0.247,0.049-0.363h-0.829
		c0,0-0.538-0.01-0.736,0.146c-0.209,0.155-0.188,0.778-0.188,0.778v7.357h-0.239c0.061,0.143,0.092,0.299,0.092,0.462
		c0,0.164-0.031,0.32-0.092,0.463h2.023c-0.053-0.149-0.08-0.306-0.08-0.463c0-0.157,0.027-0.314,0.08-0.462H16.002z"/>
	<path fill="#FFFFFF" d="M19.511,16.946h1.058v0.976h-0.055c-0.247,0-0.448,0.204-0.448,0.453v0.122
		c0,0.249,0.202,0.452,0.448,0.452h0.055v0.858c0.25-0.214,0.572-0.343,0.925-0.343c0.356,0,0.677,0.129,0.928,0.343v-0.858h0.055
		c0.25,0,0.451-0.203,0.451-0.452v-0.122c0-0.249-0.202-0.453-0.451-0.453h-0.055v-0.976h1.191
		c-0.072-0.171-0.116-0.361-0.116-0.562c-0.001-0.122,0.016-0.244,0.047-0.363h-1.123v-0.483c-0.212,0.278-0.548,0.458-0.928,0.458
		c-0.377,0-0.708-0.18-0.925-0.458v0.483H19.58c0.032,0.119,0.047,0.241,0.047,0.363C19.627,16.585,19.586,16.775,19.511,16.946z"/>
</g>
<path fill="#FFFFFF" d="M21.5,36.5c-8.271,0-15-6.729-15-15s6.729-15,15-15s15,6.729,15,15S29.771,36.5,21.5,36.5z M21.5,8.5
	c-7.168,0-13,5.832-13,13s5.832,13,13,13s13-5.832,13-13S28.668,8.5,21.5,8.5z"/>
</svg>
