<?xml version="1.0" encoding="utf-8"?>
<!-- Generator: Adobe Illustrator 16.0.0, SVG Export Plug-In . SVG Version: 6.00 Build 0)  -->
<!DOCTYPE svg PUBLIC "-//W3C//DTD SVG 1.1//EN" "http://www.w3.org/Graphics/SVG/1.1/DTD/svg11.dtd">
<svg version="1.1" id="图层_1" xmlns="http://www.w3.org/2000/svg" xmlns:xlink="http://www.w3.org/1999/xlink" x="0px" y="0px"
	 width="43px" height="43px" viewBox="0 0 43 43" enable-background="new 0 0 43 43" xml:space="preserve">
<g transform="matrix(1 0 0 1 -636 -130 )">
	
		<linearGradient id="SVGID_1_" gradientUnits="userSpaceOnUse" x1="1293.5166" y1="-235.3008" x2="1293.5166" y2="-277.8708" gradientTransform="matrix(1 0 0 -1 -636.0156 -105.3008)">
		<stop  offset="0" style="stop-color:#93D68A"/>
		<stop  offset="1" style="stop-color:#61B86E"/>
	</linearGradient>
	<path fill="url(#SVGID_1_)" d="M657.502,130c12.041,0,21.5,9.46,21.5,21.5s-9.459,21.5-21.5,21.5c-12.039,0-21.5-9.46-21.5-21.5
		S645.463,130,657.502,130z"/>
</g>
<g>
	<path fill="#FFFFFF" d="M17.272,16.357h-4.506c-0.317,0.001-0.588,0.229-0.645,0.54l-1.012,5.55l10.282,1.29
		C19.675,21.538,17.848,18.772,17.272,16.357z M29.755,24.787l2.445,0.306l-0.289-1.586l-0.223-1.222
		C31.075,23.142,30.43,23.977,29.755,24.787z M28.584,26.151c-0.313,0.352-0.631,0.699-0.953,1.042l-0.545,0.575l-1.09,1.151
		l-1.09-1.151l-0.545-0.575c-0.545-0.578-1.075-1.168-1.592-1.771l-5.784-0.726l1.901,6.804h13.696
		c0.365-0.002,0.658-0.3,0.655-0.663c0-0.04-0.004-0.078-0.011-0.116l-0.744-4.081L28.584,26.151z M15.399,24.497l-4.56-0.572
		l-1.239,6.796c-0.066,0.358,0.17,0.702,0.528,0.769c0.038,0.007,0.076,0.011,0.115,0.011h7.084l-1.92-6.872
		C15.401,24.584,15.398,24.541,15.399,24.497z M25.996,17.775c1.657,0,3-1.344,3-3c0-1.657-1.343-3.001-3-3.001
		c-1.656,0-3,1.344-3,3.001C22.998,16.431,24.34,17.772,25.996,17.775z M25.996,13.274c0.829,0,1.501,0.672,1.501,1.501
		c0,0.828-0.672,1.5-1.501,1.5c-0.828,0-1.5-0.672-1.5-1.5l0,0C24.497,13.947,25.169,13.275,25.996,13.274z"/>
	<path fill="#FFFFFF" d="M25.996,26.737l0.545-0.575c0.703-0.743,6.873-7.376,6.873-11.245c0-4.096-3.321-7.417-7.418-7.417
		s-7.417,3.321-7.417,7.417l0,0c0,3.869,6.169,10.502,6.872,11.245L25.996,26.737z M25.996,9c3.267,0.004,5.913,2.651,5.918,5.917
		c0,2.526-3.87,7.346-5.918,9.622c-2.049-2.276-5.918-7.096-5.918-9.622C20.082,11.65,22.729,9.004,25.996,9z"/>
</g>
</svg>
