<?xml version="1.0" encoding="utf-8"?>
<!-- Generator: Adobe Illustrator 16.0.0, SVG Export Plug-In . SVG Version: 6.00 Build 0)  -->
<!DOCTYPE svg PUBLIC "-//W3C//DTD SVG 1.1//EN" "http://www.w3.org/Graphics/SVG/1.1/DTD/svg11.dtd">
<svg version="1.1" id="图层_1" xmlns="http://www.w3.org/2000/svg" xmlns:xlink="http://www.w3.org/1999/xlink" x="0px" y="0px"
	 width="43px" height="43px" viewBox="0 0 43 43" enable-background="new 0 0 43 43" xml:space="preserve">
<g transform="matrix(1 0 0 1 -289 -130 )">
	
		<linearGradient id="SVGID_1_" gradientUnits="userSpaceOnUse" x1="599.5156" y1="322.6992" x2="599.5156" y2="280.1297" gradientTransform="matrix(1 0 0 -1 -289.0151 452.6992)">
		<stop  offset="0" style="stop-color:#F4B56D"/>
		<stop  offset="1" style="stop-color:#F19C45"/>
	</linearGradient>
	<path fill="url(#SVGID_1_)" d="M310.501,130c12.039,0,21.5,9.46,21.5,21.5s-9.461,21.5-21.5,21.5c-12.041,0-21.5-9.46-21.5-21.5
		S298.46,130,310.501,130z"/>
</g>
<path fill="#FFFFFF" d="M33.231,15.949l-0.367-2.521c-0.684-1.453-1.742-2.879-3.177-4.278l-2.047-1.654l-1.574,1.313l0.734,2.862
	l-15.934,8.793c-1.645,1.016-1.803,2.967-0.473,5.854c0.647,1.417,1.471,2.748,2.467,3.99c0.718,1.05,1.401,1.076,2.048,0.079
	c0.315-0.49,0.586-1.077,0.814-1.759c0.91-1.61,0.726-2.31-0.551-2.101l-2.231,0.841h-0.026c-0.682-1.208-0.963-2.293-0.84-3.256
	l0.473-1.208l7.167-3.964l0.026,0.761l-0.683,0.289l-4.278,13.361h-3.125v2.153h18.35v-2.153h-3.02l-4.488-13.466l-0.604-0.315
	v-1.785l6.458-3.15l3.254,4.96c0.735,0.98,1.261,1.295,1.575,0.945c0.175-0.158,0.281-0.402,0.316-0.734v-0.053
	C33.529,19.037,33.44,17.768,33.231,15.949z M23.767,27.615l1.589,4.852l-6.106-4.85h4.479
	C23.741,27.616,23.754,27.616,23.767,27.615z M18.063,26.59l0.972-3.239l3.409,3.239H18.063z M16.404,32.17l0.787-2.782l0.158-0.419
	l0.372-1.257l7.101,5.64h-8.811L16.404,32.17z M22.757,24.532l0.447,1.366l-3.84-3.648l0.532-1.786l1.47-0.21L22.757,24.532
	L22.757,24.532z"/>
</svg>
