<?xml version="1.0" encoding="utf-8"?>
<!-- Generator: Adobe Illustrator 16.0.0, SVG Export Plug-In . SVG Version: 6.00 Build 0)  -->
<!DOCTYPE svg PUBLIC "-//W3C//DTD SVG 1.1//EN" "http://www.w3.org/Graphics/SVG/1.1/DTD/svg11.dtd">
<svg version="1.1" id="图层_1" xmlns="http://www.w3.org/2000/svg" xmlns:xlink="http://www.w3.org/1999/xlink" x="0px" y="0px"
	 width="43px" height="43px" viewBox="0 0 43 43" enable-background="new 0 0 43 43" xml:space="preserve">
<g transform="matrix(1 0 0 1 -517 -130 )">
	
		<linearGradient id="SVGID_1_" gradientUnits="userSpaceOnUse" x1="1055.5146" y1="322.6992" x2="1055.5146" y2="280.1297" gradientTransform="matrix(1 0 0 -1 -517.0156 452.6992)">
		<stop  offset="0" style="stop-color:#ED6F58"/>
		<stop  offset="1" style="stop-color:#E2915E"/>
	</linearGradient>
	<path fill="url(#SVGID_1_)" d="M538.5,130c12.04,0,21.5,9.46,21.5,21.5s-9.46,21.5-21.5,21.5s-21.5-9.46-21.5-21.5
		S526.46,130,538.5,130z"/>
</g>
<path fill="#FFFFFF" d="M21.216,19.221L17.5,16.518v-0.838c0-0.1,0.08-0.181,0.18-0.181h3.641c0.099,0,0.18,0.081,0.18,0.181v3.395
	C21.5,19.222,21.334,19.308,21.216,19.221L21.216,19.221z M24.619,16.824h0.701c0.046,0,0.091,0.015,0.127,0.043l1.061,0.793
	c0.054,0.041,0.086,0.105,0.086,0.173v0.576c0,0.12-0.096,0.215-0.213,0.215h-1.762c-0.118,0-0.214-0.097-0.213-0.215l0,0V17.04
	C24.406,16.92,24.502,16.825,24.619,16.824L24.619,16.824z M17.5,28.269V26.96c0-0.059,0.027-0.113,0.074-0.147l3.642-2.648
	c0.118-0.086,0.284-0.001,0.284,0.147v3.957c0,0.1-0.08,0.181-0.18,0.181H17.68C17.58,28.45,17.5,28.369,17.5,28.269
	C17.5,28.27,17.5,28.269,17.5,28.269z M17.784,19.217l3.204,2.329c0.081,0.059,0.1,0.172,0.041,0.254
	c-0.012,0.016-0.025,0.03-0.041,0.042l-3.204,2.328c-0.08,0.058-0.192,0.041-0.25-0.04c-0.022-0.031-0.035-0.069-0.034-0.108v-4.657
	C17.5,19.217,17.665,19.13,17.784,19.217z M16.938,9.65l-0.49,1.785c-0.008,0.03-0.035,0.05-0.065,0.05h-3.851
	c-0.074,0-0.095-0.103-0.025-0.131l4.342-1.785c0.034-0.014,0.074,0.004,0.087,0.039C16.941,9.622,16.942,9.637,16.938,9.65z
	 M27.959,11.485h-5.406c-0.031,0-0.058-0.021-0.065-0.051l-0.552-2.156c-0.01-0.036,0.012-0.073,0.049-0.083
	c0.013-0.003,0.026-0.002,0.039,0.002l5.958,2.155C28.053,11.379,28.035,11.485,27.959,11.485L27.959,11.485z M31.011,20.412
	l0.492-0.5c0.01-0.01,0.026-0.011,0.036-0.001c0.001,0,0.001,0,0.002,0.001l0.492,0.5c0.017,0.018,0.005,0.046-0.019,0.046h-0.985
	C31.006,20.458,30.994,20.43,31.011,20.412z M31.315,11.485l-9.68-3.504c-0.021-0.008-0.037-0.025-0.042-0.047l-0.131-0.506
	c-0.008-0.03-0.034-0.05-0.065-0.05H17.61c-0.03,0-0.057,0.02-0.064,0.049l-0.228,0.828c-0.006,0.02-0.021,0.037-0.039,0.045
	l-7.748,3.185H9.5v3.602c0,0.227,0.181,0.41,0.405,0.41h5.414c0.1,0,0.18,0.082,0.18,0.182V28.27c0,0.1-0.08,0.181-0.18,0.181
	h-0.313c-0.829-0.001-1.503,0.669-1.506,1.498v1.662h-3.272c-0.401,0-0.728,0.329-0.728,0.736v2.541
	c0,0.406,0.326,0.735,0.728,0.735h22.545c0.404-0.003,0.729-0.332,0.728-0.735v-2.542c0-0.406-0.326-0.735-0.728-0.735h-7.304
	v-1.662c0-0.827-0.663-1.498-1.481-1.498H23.5v-6.714c-0.001-0.112,0.089-0.204,0.201-0.205c0.001,0,0.001,0,0.002,0h3.496
	c0.167,0,0.302-0.136,0.302-0.304v-3.466c0-0.065-0.029-0.127-0.08-0.168l-1.862-1.511c-0.037-0.031-0.084-0.048-0.133-0.048H23.5
	v-0.537h7.524l0.011,2.496h-0.504v1.421h0.047l-1.021,1.042h-0.025v2.79c0,0.152,0.122,0.275,0.272,0.275h3.425
	c0.149,0,0.271-0.123,0.271-0.275v-2.79h-0.013l-1.021-1.042h0.065v-1.421h-0.497l-0.009-2.496h1.068
	c0.225,0,0.406-0.184,0.406-0.41v-3.192c0.001-0.225-0.181-0.409-0.406-0.41L31.315,11.485L31.315,11.485z"/>
</svg>
