<?xml version="1.0" encoding="utf-8"?>
<!-- Generator: Adobe Illustrator 16.0.0, SVG Export Plug-In . SVG Version: 6.00 Build 0)  -->
<!DOCTYPE svg PUBLIC "-//W3C//DTD SVG 1.1//EN" "http://www.w3.org/Graphics/SVG/1.1/DTD/svg11.dtd">
<svg version="1.1" id="图层_1" xmlns="http://www.w3.org/2000/svg" xmlns:xlink="http://www.w3.org/1999/xlink" x="0px" y="0px"
	 width="43px" height="43px" viewBox="0 0 43 43" enable-background="new 0 0 43 43" xml:space="preserve">
<g transform="matrix(1 0 0 1 -517 -130 )">
	
		<linearGradient id="SVGID_1_" gradientUnits="userSpaceOnUse" x1="1055.5166" y1="-235.3008" x2="1055.5166" y2="-277.8708" gradientTransform="matrix(1 0 0 -1 -517.0156 -105.3008)">
		<stop  offset="0" style="stop-color:#ED6F58"/>
		<stop  offset="1" style="stop-color:#E2915E"/>
	</linearGradient>
	<path fill="url(#SVGID_1_)" d="M538.502,130c12.041,0,21.5,9.46,21.5,21.5s-9.459,21.5-21.5,21.5c-12.039,0-21.5-9.46-21.5-21.5
		S526.463,130,538.502,130z"/>
</g>
<g>
	<path fill="#FFFFFF" d="M32.836,10.834H10.168c-0.367,0-0.666,0.298-0.666,0.666v16c0,0.368,0.299,0.666,0.666,0.666l0,0h22.668
		c0.367,0,0.666-0.298,0.666-0.666l0,0v-16C33.502,11.132,33.203,10.834,32.836,10.834L32.836,10.834z M28.836,20.834h-4
		c-0.178,0.001-0.348-0.069-0.474-0.194l-2.474-2.473c-0.244-0.245-0.635-0.262-0.9-0.04l-3.066,2.553
		c-0.118,0.099-0.267,0.152-0.42,0.154h-3.334c-0.367,0-0.666-0.3-0.666-0.667c0-0.368,0.299-0.667,0.666-0.667h2.854
		c0.155,0,0.306-0.054,0.427-0.153l3.626-3.027c0.265-0.222,0.655-0.204,0.9,0.041l2.939,2.939c0.126,0.125,0.296,0.195,0.474,0.193
		h3.447c0.367,0,0.666,0.299,0.666,0.667s-0.299,0.667-0.666,0.667V20.834z M28.615,30.834c0.09,0,0.178,0.018,0.26,0.053
		C28.793,30.852,28.705,30.834,28.615,30.834z M29.281,31.5c0,0.089-0.018,0.178-0.053,0.26c0.07-0.166,0.07-0.354,0-0.52
		C29.264,31.322,29.281,31.41,29.281,31.5z M28.615,32.166c0.09,0,0.178-0.018,0.26-0.053
		C28.793,32.148,28.705,32.166,28.615,32.166z M13.949,32.166c-0.09,0-0.179-0.018-0.261-0.053
		C13.771,32.148,13.859,32.166,13.949,32.166z M13.688,30.887c-0.159,0.067-0.286,0.193-0.353,0.354
		C13.402,31.08,13.529,30.954,13.688,30.887z M13.949,30.834c-0.09,0-0.179,0.018-0.261,0.053
		C13.771,30.852,13.859,30.834,13.949,30.834z M13.336,31.76c0.066,0.159,0.193,0.286,0.353,0.354
		C13.529,32.046,13.402,31.919,13.336,31.76z M13.336,31.24c-0.07,0.166-0.07,0.354,0,0.52
		C13.266,31.594,13.266,31.406,13.336,31.24z M29.229,31.24c-0.104-0.246-0.346-0.406-0.613-0.406H13.949
		c-0.369,0-0.668,0.298-0.668,0.666s0.299,0.666,0.668,0.666h14.666c0.368,0,0.666-0.299,0.666-0.667
		C29.281,31.41,29.264,31.322,29.229,31.24z"/>
</g>
</svg>
