<?xml version="1.0" encoding="utf-8"?>
<!-- Generator: Adobe Illustrator 16.0.0, SVG Export Plug-In . SVG Version: 6.00 Build 0)  -->
<!DOCTYPE svg PUBLIC "-//W3C//DTD SVG 1.1//EN" "http://www.w3.org/Graphics/SVG/1.1/DTD/svg11.dtd">
<svg version="1.1" id="图层_1" xmlns="http://www.w3.org/2000/svg" xmlns:xlink="http://www.w3.org/1999/xlink" x="0px" y="0px"
	 width="43px" height="43px" viewBox="0 0 43 43" enable-background="new 0 0 43 43" xml:space="preserve">
<g transform="matrix(1 0 0 1 -289 -130 )">
	
		<linearGradient id="SVGID_1_" gradientUnits="userSpaceOnUse" x1="599.5166" y1="508.6992" x2="599.5166" y2="466.1292" gradientTransform="matrix(1 0 0 -1 -289.0151 638.6992)">
		<stop  offset="0" style="stop-color:#F4B56D"/>
		<stop  offset="1" style="stop-color:#F19C45"/>
	</linearGradient>
	<path fill="url(#SVGID_1_)" d="M310.502,130c12.039,0,21.5,9.46,21.5,21.5s-9.461,21.5-21.5,21.5c-12.041,0-21.5-9.46-21.5-21.5
		S298.461,130,310.502,130z"/>
</g>
<g>
	<path fill="#FFFFFF" d="M32.745,26.646h-2.12c-0.142-0.003-0.255-0.118-0.257-0.259v-1.177c-0.002-0.141-0.115-0.255-0.257-0.258
		h-1.975c-0.14,0.003-0.254,0.117-0.257,0.258v1.177c-0.001,0.141-0.115,0.255-0.256,0.259h-0.93
		c-0.141,0.003-0.253,0.117-0.256,0.259v7.098c0.003,0.141,0.115,0.256,0.256,0.26h0.93c0.141,0.002,0.254,0.116,0.256,0.257v1.176
		c0.003,0.141,0.117,0.254,0.257,0.258h1.975c0.142-0.004,0.254-0.117,0.257-0.258V34.52c0.003-0.141,0.115-0.255,0.257-0.257h2.12
		V34.26c0.142-0.003,0.254-0.117,0.257-0.259v-7.097C32.999,26.763,32.887,26.649,32.745,26.646z"/>
	<path fill="#FFFFFF" d="M24.753,26.665h-0.323c-0.14-0.003-0.253-0.118-0.257-0.258v-2.073c0-0.027-0.003-0.053-0.013-0.079h-0.007
		c3.631-1.184,6.085-4.576,6.077-8.396c0-4.866-3.91-8.813-8.729-8.813c-4.819,0-8.729,3.947-8.73,8.813
		c-0.01,3.884,2.526,7.316,6.243,8.448c-0.001,0.009-0.001,0.017,0,0.026v2.075c-0.002,0.141-0.116,0.255-0.258,0.258h-0.354
		c-0.142,0.003-0.255,0.117-0.257,0.259v7.092c0.002,0.141,0.115,0.254,0.257,0.258h0.354c0.142,0.002,0.255,0.117,0.258,0.258
		v0.299c0.002,0.142,0.115,0.257,0.257,0.26h4.646c0.142-0.002,0.254-0.118,0.256-0.26v-0.286c0.003-0.14,0.117-0.256,0.257-0.258
		h0.323c0.14-0.005,0.254-0.119,0.257-0.259v-7.107C25.008,26.782,24.895,26.667,24.753,26.665L24.753,26.665z M23.734,21.427
		c-2.256,0.929-4.852,0.402-6.569-1.332c-1.717-1.734-2.218-4.333-1.269-6.581c0.951-2.249,3.165-3.701,5.605-3.677
		c1.589,0.006,3.112,0.645,4.23,1.774c1.118,1.13,1.742,2.658,1.733,4.248C27.465,18.3,25.993,20.499,23.734,21.427z"/>
	<path fill="#FFFFFF" d="M26.869,16.546c0-0.261-0.199-0.48-0.46-0.506h-1.175l-0.763-2.064c-0.065-0.188-0.244-0.212-0.44-0.212
		c-0.197-0.007-0.375,0.114-0.44,0.298l-1.094,3.134l-0.946-1.911c-0.075-0.156-0.232-0.253-0.404-0.251h-0.01
		c-0.169,0-0.324-0.005-0.408,0.144l-0.542,0.869h-3.695c-0.261,0.025-0.459,0.246-0.459,0.507s0.198,0.48,0.459,0.507h3.963
		c0.159,0.018,0.316-0.056,0.404-0.19l0.251-0.379l1.045,2.124c0.078,0.159,0.24,0.26,0.417,0.261h0.028
		c0.189-0.015,0.352-0.142,0.411-0.322l1.024-2.946l0.427,1.213c0.011,0,0.011-0.009,0.011,0v-0.004
		c0.079,0.162,0.25,0.257,0.428,0.237h1.505C26.669,17.027,26.869,16.809,26.869,16.546L26.869,16.546z M16.447,26.644h-0.791
		c-0.14-0.003-0.254-0.117-0.256-0.258v-1.455c-0.003-0.142-0.117-0.256-0.258-0.26h-1.975c-0.142,0.004-0.254,0.118-0.257,0.26
		v1.455h0.001c-0.004,0.14-0.117,0.252-0.257,0.255h-2.396c-0.143,0.003-0.258,0.121-0.257,0.264V34
		c0.002,0.141,0.116,0.254,0.257,0.258h2.396c0.141,0.004,0.254,0.117,0.257,0.259v0.917c0.002,0.141,0.116,0.255,0.257,0.259h1.974
		c0.141-0.004,0.254-0.119,0.258-0.259v-0.917c0.002-0.142,0.116-0.255,0.256-0.259h0.791c0.142-0.004,0.255-0.118,0.257-0.258
		v-7.098C16.702,26.761,16.588,26.646,16.447,26.644z"/>
</g>
</svg>
