<?xml version="1.0" encoding="utf-8"?>
<!-- Generator: Adobe Illustrator 16.0.0, SVG Export Plug-In . SVG Version: 6.00 Build 0)  -->
<!DOCTYPE svg PUBLIC "-//W3C//DTD SVG 1.1//EN" "http://www.w3.org/Graphics/SVG/1.1/DTD/svg11.dtd">
<svg version="1.1" id="图层_1" xmlns="http://www.w3.org/2000/svg" xmlns:xlink="http://www.w3.org/1999/xlink" x="0px" y="0px"
	 width="43px" height="43px" viewBox="0 0 43 43" enable-background="new 0 0 43 43" xml:space="preserve">
<g transform="matrix(1 0 0 1 -400 -130 )">
	
		<linearGradient id="SVGID_1_" gradientUnits="userSpaceOnUse" x1="821.5146" y1="-607.3008" x2="821.5146" y2="-649.8708" gradientTransform="matrix(1 0 0 -1 -400.0151 -477.3008)">
		<stop  offset="0" style="stop-color:#64D5D1"/>
		<stop  offset="1" style="stop-color:#55B6D2"/>
	</linearGradient>
	<path fill="url(#SVGID_1_)" d="M421.5,130c12.039,0,21.5,9.46,21.5,21.5s-9.461,21.5-21.5,21.5c-12.041,0-21.5-9.46-21.5-21.5
		S409.459,130,421.5,130z"/>
</g>
<path fill="#FFFFFF" d="M13.609,22.839l5.164-5.163v-4.964c0-0.669-0.543-1.212-1.212-1.212h-4.848c-0.67,0-1.212,0.543-1.212,1.212
	v10.163c0,0.169,0.137,0.303,0.305,0.303c0.039-0.001,0.077-0.008,0.113-0.023c0.255-0.093,0.523-0.14,0.794-0.14h0.467
	C13.341,23.016,13.495,22.952,13.609,22.839z M15.664,22.501c-0.117,0.118-0.115,0.311,0.004,0.428
	c0.056,0.053,0.13,0.085,0.208,0.086h9.302c0.161,0.001,0.317-0.063,0.431-0.176l4.073-4.066c0.473-0.473,0.474-1.241,0.001-1.714
	c0,0-0.001,0-0.001,0l-3.431-3.437c-0.473-0.474-1.24-0.475-1.714-0.002c0,0,0,0-0.001,0.002l-4.551,4.544l-0.606,0.606
	l-0.605,0.605L15.664,22.501z M30.288,24.227H12.713c-0.301,0.001-0.59,0.113-0.812,0.314l-0.085,0.086
	c-0.202,0.222-0.314,0.51-0.315,0.813v4.849c0,0.669,0.542,1.212,1.212,1.212h4.848c0.094-0.002,0.188-0.015,0.279-0.037
	L17.803,31.5h12.484c0.669,0,1.212-0.543,1.212-1.212v-4.849C31.5,24.769,30.957,24.227,30.288,24.227z M16.349,28.468
	c0,0.335-0.271,0.607-0.606,0.607l0,0H14.53c-0.334,0-0.605-0.272-0.605-0.607l0,0v-1.212c0-0.334,0.271-0.605,0.605-0.605l0,0
	h1.212c0.335,0,0.606,0.271,0.606,0.605l0,0V28.468z"/>
</svg>
