<?xml version="1.0" encoding="utf-8"?>
<!-- Generator: Adobe Illustrator 16.0.0, SVG Export Plug-In . SVG Version: 6.00 Build 0)  -->
<!DOCTYPE svg PUBLIC "-//W3C//DTD SVG 1.1//EN" "http://www.w3.org/Graphics/SVG/1.1/DTD/svg11.dtd">
<svg version="1.1" id="图层_1" xmlns="http://www.w3.org/2000/svg" xmlns:xlink="http://www.w3.org/1999/xlink" x="0px" y="0px"
	 width="43px" height="43px" viewBox="0 0 43 43" enable-background="new 0 0 43 43" xml:space="preserve">
<g transform="matrix(1 0 0 1 -177 -130 )">
	
		<linearGradient id="SVGID_1_" gradientUnits="userSpaceOnUse" x1="375.5166" y1="322.6992" x2="375.5166" y2="280.1297" gradientTransform="matrix(1 0 0 -1 -177.0151 452.6992)">
		<stop  offset="0" style="stop-color:#77A0F6"/>
		<stop  offset="1" style="stop-color:#4772E9"/>
	</linearGradient>
	<path fill="url(#SVGID_1_)" d="M198.502,130c12.039,0,21.5,9.46,21.5,21.5s-9.461,21.5-21.5,21.5c-12.041,0-21.5-9.46-21.5-21.5
		S186.461,130,198.502,130z"/>
</g>
<g>
	<path fill="#FFFFFF" d="M18.512,17.594h6.013v7.058h-6.013V17.594z M20.472,15.224h2.091v2.15h-2.091V15.224z M8.502,26.395v5.311
		h3.748v-5.661c0-1.456,0.94-2.646,2.091-2.646h3.747v-4.558H14.47C11.188,18.841,8.502,22.24,8.502,26.395L8.502,26.395z
		 M28.532,18.841h-3.616v4.558h3.747c1.151,0,2.091,1.19,2.091,2.646v5.661h3.748v-5.311C34.501,22.24,31.815,18.841,28.532,18.841z
		 M17.835,12.554l0.078,0.073c0.033,0.04,0.07,0.076,0.111,0.106l2.308,2.174h2.362l2.246-2.201c0.021-0.018,0.041-0.038,0.062-0.06
		l0.094-0.092h-0.022c0.088-0.133,0.139-0.304,0.139-0.489c0-0.425-0.274-0.772-0.608-0.772H18.33c-0.335,0-0.609,0.347-0.609,0.772
		c0,0.185,0.053,0.356,0.139,0.489L17.835,12.554L17.835,12.554z M22.563,13.817l-0.215-0.359h-1.685l-0.19,0.359L19.58,13.1h3.737
		L22.563,13.817L22.563,13.817z M18.495,11.709h3.408c0.085,0,0.155,0.088,0.155,0.196c0,0.107-0.069,0.196-0.155,0.196h-3.408
		c-0.085,0-0.155-0.088-0.155-0.196C18.339,11.798,18.409,11.709,18.495,11.709z"/>
</g>
</svg>
