<?xml version="1.0" encoding="utf-8"?>
<!-- Generator: Adobe Illustrator 16.0.0, SVG Export Plug-In . SVG Version: 6.00 Build 0)  -->
<!DOCTYPE svg PUBLIC "-//W3C//DTD SVG 1.1//EN" "http://www.w3.org/Graphics/SVG/1.1/DTD/svg11.dtd">
<svg version="1.1" id="图层_1" xmlns="http://www.w3.org/2000/svg" xmlns:xlink="http://www.w3.org/1999/xlink" x="0px" y="0px"
	 width="43px" height="43px" viewBox="0 0 43 43" enable-background="new 0 0 43 43" xml:space="preserve">
<g transform="matrix(1 0 0 1 -400 -130 )">
	
		<linearGradient id="SVGID_1_" gradientUnits="userSpaceOnUse" x1="821.5156" y1="-49.3008" x2="821.5156" y2="-91.8708" gradientTransform="matrix(1 0 0 -1 -400.0151 80.6992)">
		<stop  offset="0" style="stop-color:#64D5D1"/>
		<stop  offset="1" style="stop-color:#55B6D2"/>
	</linearGradient>
	<path fill="url(#SVGID_1_)" d="M421.501,130c12.039,0,21.5,9.46,21.5,21.5s-9.461,21.5-21.5,21.5c-12.041,0-21.5-9.46-21.5-21.5
		S409.46,130,421.501,130z"/>
</g>
<g>
	<path fill="#FFFFFF" d="M20.65,22.422c-0.119-0.131-0.186-0.302-0.186-0.479V11.488c0-0.395-0.321-0.715-0.715-0.715l0,0h-0.043
		c-6.305,0.407-11.087,5.85-10.68,12.155c0.348,5.374,4.396,9.779,9.723,10.577c0.577,0.093,1.16,0.144,1.745,0.15
		c2.599,0.011,5.123-0.87,7.151-2.496c0.298-0.259,0.33-0.71,0.071-1.009c-0.022-0.024-0.045-0.049-0.071-0.07L20.65,22.422z
		 M22.638,20.784h10.012c0.395,0.002,0.716-0.316,0.718-0.712c0-0.022-0.001-0.045-0.003-0.067
		c-0.378-5.722-4.934-10.28-10.655-10.662h-0.072c-0.395,0-0.715,0.32-0.715,0.715l0,0v10.012
		C21.922,20.465,22.243,20.784,22.638,20.784L22.638,20.784z M33.314,22.215h-9.082c-0.396,0.001-0.714,0.321-0.714,0.717
		c0,0.176,0.066,0.347,0.184,0.478l6.086,6.672c0.265,0.292,0.718,0.313,1.01,0.048c0.017-0.016,0.033-0.031,0.048-0.048
		c1.854-1.928,2.972-4.446,3.153-7.115c0.021-0.395-0.283-0.73-0.677-0.751C33.32,22.215,33.316,22.215,33.314,22.215z"/>
</g>
</svg>
