<?xml version="1.0" encoding="utf-8"?>
<!-- Generator: Adobe Illustrator 16.0.0, SVG Export Plug-In . SVG Version: 6.00 Build 0)  -->
<!DOCTYPE svg PUBLIC "-//W3C//DTD SVG 1.1//EN" "http://www.w3.org/Graphics/SVG/1.1/DTD/svg11.dtd">
<svg version="1.1" id="图层_1" xmlns="http://www.w3.org/2000/svg" xmlns:xlink="http://www.w3.org/1999/xlink" x="0px" y="0px"
	 width="43px" height="43px" viewBox="0 0 43 43" enable-background="new 0 0 43 43" xml:space="preserve">
<g transform="matrix(1 0 0 1 -177 -130 )">
	
		<linearGradient id="SVGID_1_" gradientUnits="userSpaceOnUse" x1="375.5166" y1="508.6992" x2="375.5166" y2="466.1292" gradientTransform="matrix(1 0 0 -1 -177.0151 638.6992)">
		<stop  offset="0" style="stop-color:#77A0F6"/>
		<stop  offset="1" style="stop-color:#4772E9"/>
	</linearGradient>
	<path fill="url(#SVGID_1_)" d="M198.502,130c12.039,0,21.5,9.46,21.5,21.5s-9.461,21.5-21.5,21.5c-12.041,0-21.5-9.46-21.5-21.5
		S186.461,130,198.502,130z"/>
</g>
<path fill="#FFFFFF" d="M14.399,8.996c0.124,0,0.247,0.025,0.36,0.075l16.733,3.494h0.008c0.493,0.001,0.892,0.403,0.889,0.896
	c-0.001,0.25-0.106,0.488-0.291,0.656l-3.271,7.307c0.269,0.105,0.494,0.293,0.647,0.536l4.32,6.864
	c0.394,0.627,0.205,1.454-0.422,1.848c-0.213,0.133-0.459,0.205-0.71,0.205h-8.641c-0.739,0.001-1.34-0.598-1.341-1.337
	c0-0.254,0.071-0.503,0.207-0.717l4.322-6.857c0.151-0.243,0.379-0.43,0.646-0.533l-3.562-7.078h-4.498v3.57
	c0,0.643-0.347,1.236-0.905,1.553v12.74h1.811c0.493,0.002,0.892,0.403,0.89,0.896c-0.002,0.45-0.339,0.829-0.785,0.883h-3.71
	v-2.157l-1.8,1.035v1.132h-3.604c-0.493,0-0.893-0.399-0.893-0.893s0.399-0.893,0.893-0.893h1.812V19.712h-0.17
	c-0.472,0-0.924-0.186-1.259-0.518L9.53,16.663c-0.338-0.334-0.528-0.791-0.528-1.267v-1.94c0-0.493,0.399-0.893,0.893-0.893l0,0
	H13.5V9.901C13.5,9.403,13.901,8.999,14.399,8.996z M15.297,27.368v3.434l1.801-1.035v-1.364L15.297,27.368z M28.345,27.756
	c-0.493,0.004-0.89,0.406-0.886,0.899c0.003,0.493,0.406,0.89,0.899,0.886c0.489-0.003,0.886-0.402,0.886-0.893
	C29.243,28.155,28.841,27.755,28.345,27.756L28.345,27.756z M28.345,23.292c-0.446,0-0.813,0.354-0.828,0.8v0.097l0.175,2.078
	c0.006,0.357,0.3,0.642,0.657,0.636c0.314-0.004,0.581-0.236,0.629-0.547l0.013-0.089l0.175-2.078
	c0.039-0.455-0.298-0.855-0.753-0.894c-0.001,0-0.002,0-0.003,0c-0.022-0.001-0.045-0.001-0.068,0L28.345,23.292z M17.099,22.914
	l-1.8,1.035v1.37l1.8,1.035V22.914z M17.099,19.719h-1.8v2.162l1.8-1.035V19.719z M31.094,14.353h-5.896l3.12,6.199L31.094,14.353z
	 M15.299,10.076v2.492h11.922L15.299,10.076z"/>
</svg>
