<?xml version="1.0" encoding="utf-8"?>
<svg version="1.1" xmlns:xlink="http://www.w3.org/1999/xlink" width="15px" height="14px" xmlns="http://www.w3.org/2000/svg">
  <g transform="matrix(1 0 0 1 -821 -30 )">
    <path d="M 14.9669122626726 6.12758648632812  C 14.9887310421966 5.76890063476562  14.9338689816497 5.13458337109375  14.8033820971112 4.22526358789063  L 14.5748895348837 2.96559759179687  C 14.1493466172329 2.23947610742187  13.4899628735919 1.526492953125  12.5962273630541 0.827085615234375  L 11.3214210801235 0.000273423828124689  L 10.3408703102289 0.65628737890625  L 10.7981279637536 2.08664225  L 0.876304500136265 6.4816787109375  C -0.14790087890625 6.98923368554688  -0.246179068631904 7.96450484375  0.582049004133357 9.40777928125  C 0.985228101153707 10.1161688085938  1.49773957576308 10.780946203125  2.11851036178234 11.4021251367187  C 2.56563361305414 11.9269062226563  2.99080182026708 11.9399351777344  3.39358915674964 11.4414580820312  C 3.59012853720022 11.1964918789063  3.75870035428779 10.9032242265625  3.90049688862645 10.5622703320313  C 4.46718911814135 9.75748295703125  4.35269585755814 9.40777929492188  3.55735776821403 9.51251675390625  L 2.16776867959666 9.9327654453125  L 2.15140034520349 9.9327654453125  C 1.72636840252544 9.32889465429688  1.55193736373547 8.78660034765625  1.62810722883358 8.30565014453125  L 1.92237975790334 7.70199808984375  L 6.38501077625363 5.72069486132812  L 6.40125989621185 6.10118677929688  L 5.97622795353379 6.24558532226563  L 3.31208807798874 12.9238604003906  L 1.36658841865007 12.9238604003906  L 1.36658841865007 14  L 12.7927667435047 14  L 12.7927667435047 12.9238604003906  L 10.9126382574037 12.9238604003906  L 8.11801149732013 6.19320975  L 7.74198239348656 6.035782265625  L 7.74198239348656 5.143674921875  L 11.7632301678325 3.5692496328125  L 13.7898221123274 6.04881120703125  C 14.2473522949219 6.53864791015625  14.574617005814 6.69607539453125  14.770372882222 6.52121672070313  C 14.8792964662064 6.44244145507813  14.9450764500818 6.32017710351562  14.9669122626726 6.1539861796875  L 14.9669122626726 6.12758648632812  Z M 8.88604629587573 10.0571762265625  C 8.89403459983648 10.0571762265625  8.90200585369731 10.0567524121094  8.90973867868823 10.0563149257812  L 9.89907827261991 12.4813681699219  L 6.09700624545785 10.0571762265625  L 8.88604629587573 10.0571762265625  Z M 8.08631379451308 9.54437138867188  L 5.35826753838118 9.54437138867188  L 5.96318096498002 7.92537696289063  L 8.08631379451308 9.54437138867188  Z M 4.08025914107921 12.9240518066406  L 4.3252563192678 12.3334560507812  L 4.81554022074855 10.94276225  L 4.91380137740734 10.7330685683594  L 5.14535982353743 10.105040203125  L 9.56619280296148 12.9240518066406  L 4.08025914107921 12.9240518066406  Z M 7.4148369140625 6.37670881640625  L 8.28125211777798 8.51556257617187  L 8.5595480559593 9.19808559960937  L 6.16837290493278 7.37452430859375  L 6.49940183843568 6.48177440039062  L 7.4148369140625 6.37670881640625  Z " fill-rule="nonzero" fill="currentColor" stroke="none" transform="matrix(1 0 0 1 821 30 )" />
  </g>
</svg>
