<?xml version="1.0" encoding="utf-8"?>
<svg version="1.1" xmlns:xlink="http://www.w3.org/1999/xlink" width="18px" height="14px" xmlns="http://www.w3.org/2000/svg">
  <g transform="matrix(1 0 0 1 -1265 -31 )">
    <path d="M 17.71875 9.58854166666667  C 17.90625 9.75868055555555  18 9.96527777777778  18 10.2083333333333  L 18 13.125  C 18 13.3680555555556  17.90625 13.5746527777778  17.71875 13.7447916666667  C 17.53125 13.9149305555556  17.3035714285714 14  17.0357142857143 14  L 13.8214285714286 14  C 13.5535714285714 14  13.3258928571429 13.9149305555556  13.1383928571429 13.7447916666667  C 12.9508928571429 13.5746527777778  12.8571428571429 13.3680555555556  12.8571428571429 13.125  L 12.8571428571429 10.2083333333333  C 12.8571428571429 9.96527777777778  12.9508928571429 9.75868055555555  13.1383928571429 9.58854166666667  C 13.3258928571429 9.41840277777778  13.5535714285714 9.33333333333333  13.8214285714286 9.33333333333333  L 14.7857142857143 9.33333333333333  L 14.7857142857143 7.58333333333333  L 9.64285714285714 7.58333333333333  L 9.64285714285714 9.33333333333333  L 10.6071428571429 9.33333333333333  C 10.875 9.33333333333333  11.1026785714286 9.41840277777778  11.2901785714286 9.58854166666667  C 11.4776785714286 9.75868055555555  11.5714285714286 9.96527777777778  11.5714285714286 10.2083333333333  L 11.5714285714286 13.125  C 11.5714285714286 13.3680555555556  11.4776785714286 13.5746527777778  11.2901785714286 13.7447916666667  C 11.1026785714286 13.9149305555556  10.875 14  10.6071428571429 14  L 7.39285714285714 14  C 7.125 14  6.89732142857143 13.9149305555556  6.70982142857143 13.7447916666667  C 6.52232142857143 13.5746527777778  6.42857142857143 13.3680555555556  6.42857142857143 13.125  L 6.42857142857143 10.2083333333333  C 6.42857142857143 9.96527777777778  6.52232142857143 9.75868055555555  6.70982142857143 9.58854166666667  C 6.89732142857143 9.41840277777778  7.125 9.33333333333333  7.39285714285714 9.33333333333333  L 8.35714285714286 9.33333333333333  L 8.35714285714286 7.58333333333333  L 3.21428571428571 7.58333333333333  L 3.21428571428571 9.33333333333333  L 4.17857142857143 9.33333333333333  C 4.44642857142857 9.33333333333333  4.67410714285714 9.41840277777778  4.86160714285714 9.58854166666667  C 5.04910714285714 9.75868055555555  5.14285714285714 9.96527777777778  5.14285714285714 10.2083333333333  L 5.14285714285714 13.125  C 5.14285714285714 13.3680555555556  5.04910714285714 13.5746527777778  4.86160714285714 13.7447916666667  C 4.67410714285714 13.9149305555556  4.44642857142857 14  4.17857142857143 14  L 0.964285714285714 14  C 0.696428571428572 14  0.46875 13.9149305555556  0.28125 13.7447916666667  C 0.09375 13.5746527777778  0 13.3680555555556  0 13.125  L 0 10.2083333333333  C 0 9.96527777777778  0.09375 9.75868055555555  0.28125 9.58854166666667  C 0.46875 9.41840277777778  0.696428571428572 9.33333333333333  0.964285714285714 9.33333333333333  L 1.92857142857143 9.33333333333333  L 1.92857142857143 7.58333333333333  C 1.92857142857143 7.26736111111111  2.05580357142857 6.99392361111111  2.31026785714286 6.76302083333333  C 2.56473214285714 6.53211805555555  2.86607142857143 6.41666666666667  3.21428571428571 6.41666666666667  L 8.35714285714286 6.41666666666667  L 8.35714285714286 4.66666666666667  L 7.39285714285714 4.66666666666667  C 7.125 4.66666666666667  6.89732142857143 4.58159722222222  6.70982142857143 4.41145833333333  C 6.52232142857143 4.24131944444444  6.42857142857143 4.03472222222222  6.42857142857143 3.79166666666667  L 6.42857142857143 0.875  C 6.42857142857143 0.631944444444444  6.52232142857143 0.42534722222222  6.70982142857143 0.255208333333333  C 6.89732142857143 0.0850694444444438  7.125 0  7.39285714285714 0  L 10.6071428571429 0  C 10.875 0  11.1026785714286 0.0850694444444438  11.2901785714286 0.255208333333333  C 11.4776785714286 0.42534722222222  11.5714285714286 0.631944444444444  11.5714285714286 0.875  L 11.5714285714286 3.79166666666667  C 11.5714285714286 4.03472222222222  11.4776785714286 4.24131944444444  11.2901785714286 4.41145833333333  C 11.1026785714286 4.58159722222222  10.875 4.66666666666667  10.6071428571429 4.66666666666667  L 9.64285714285714 4.66666666666667  L 9.64285714285714 6.41666666666667  L 14.7857142857143 6.41666666666667  C 15.1339285714286 6.41666666666667  15.4352678571429 6.53211805555555  15.6897321428571 6.76302083333333  C 15.9441964285714 6.99392361111111  16.0714285714286 7.26736111111111  16.0714285714286 7.58333333333333  L 16.0714285714286 9.33333333333333  L 17.0357142857143 9.33333333333333  C 17.3035714285714 9.33333333333333  17.53125 9.41840277777778  17.71875 9.58854166666667  Z " fill-rule="nonzero" fill="currentColor" stroke="none" transform="matrix(1 0 0 1 1265 31 )" />
  </g>
</svg>
