<?xml version="1.0" encoding="utf-8"?>
<svg version="1.1" xmlns:xlink="http://www.w3.org/1999/xlink" width="16px" height="15px" xmlns="http://www.w3.org/2000/svg">
  <g transform="matrix(1 0 0 1 -677 -31 )">
    <path d="M 4.76141948084677 1.151171875  L 4.76141948084677 0.00729166666666667  L 9.65927419354839 0.00729166666666667  L 9.65927419354839 1.151171875  L 4.76141948084677 1.151171875  Z M 0.0141129032258065 13.9829671223958  L 14.9684349798387 13.9829813639323  L 14.9684349798387 12.945741780599  L 12.8370085685484 12.945741780599  L 11.0604838709677 2.28199259440104  L 11.4583385836694 2.28199259440104  L 11.4583385836694 1.43980509440104  L 3.23588709677419 1.43980509440104  L 3.23588709677419 2.28199259440104  L 3.7775642641129 2.28199259440104  L 2.00099231350806 12.9457275390625  L 0.0141129032258065 12.9457275390625  L 0.0141129032258065 13.9829671223958  Z M 10.3279517389113 6.0769775390625  L 8.11123361895161 4.47890625  L 9.8518302671371 3.223828125  L 10.3279832409274 6.07699178059896  Z M 7.76277406754032 5.219921875  L 10.3578629032258 7.09083251953125  L 7.76277406754032 8.9617431640625  L 7.76277406754032 5.219921875  Z M 7.7624275453629 3.73910115559896  L 7.7624275453629 2.28199259440104  L 9.69589528729838 2.28199259440104  L 9.70531439012097 2.33818969726563  L 7.7624275453629 3.73910115559896  Z M 10.8407258064516 12.9457275390625  L 7.7624275453629 12.9457275390625  L 7.7624275453629 10.7260416666667  L 10.8407258064516 12.945741780599  Z M 4.50806451612903 6.08579305013021  L 4.98588709677419 3.21804606119792  L 6.73588709677419 4.4801025390625  L 4.50806451612903 6.08579305013021  Z M 3.52016129032258 12.0212239583333  L 4.16733870967742 8.13385416666667  L 6.53999180947581 9.84404907226562  L 3.52016129032258 12.0212239583333  Z M 7.03629032258065 12.945741780599  L 3.93346774193548 12.945741780599  L 7.03629032258064 10.7084248860677  L 7.03629032258064 12.9457275390625  Z M 7.03629032258065 5.25425821940104  L 7.03629032258065 8.98029988606771  L 4.45229019657258 7.11727905273438  L 7.03629032258065 5.25425821940104  Z M 7.03629032258065 3.70355428059896  L 5.13341103830645 2.33212280273437  L 5.14145980342742 2.28290405273437  L 7.03595955141129 2.28290405273437  L 7.03595955141129 3.70355428059896  Z M 11.3272901965726 12.0737752278646  L 8.23454826108871 9.84436238606771  L 10.6636372227823 8.09283854166667  L 11.3272901965726 12.0737752278646  Z " fill-rule="nonzero" fill="currentColor" stroke="none" transform="matrix(1 0 0 1 677 31 )" />
  </g>
</svg>
