<?xml version="1.0" encoding="utf-8"?>
<svg version="1.1" xmlns:xlink="http://www.w3.org/1999/xlink" width="15px" height="13px" xmlns="http://www.w3.org/2000/svg">
  <g transform="matrix(1 0 0 1 -1694 -33 )">
    <path d="M 1.15384615384615 9.98214285714286  L 1.15384615384615 12.0714285714286  L 3.75 12.0714285714286  L 3.75 9.98214285714286  L 1.15384615384615 9.98214285714286  Z M 4.32692307692308 9.98214285714286  L 4.32692307692308 12.0714285714286  L 7.21153846153846 12.0714285714286  L 7.21153846153846 9.98214285714286  L 4.32692307692308 9.98214285714286  Z M 1.15384615384615 7.19642857142857  L 1.15384615384615 9.51785714285714  L 3.75 9.51785714285714  L 3.75 7.19642857142857  L 1.15384615384615 7.19642857142857  Z M 4.32692307692308 7.19642857142857  L 4.32692307692308 9.51785714285714  L 7.21153846153846 9.51785714285714  L 7.21153846153846 7.19642857142857  L 4.32692307692308 7.19642857142857  Z M 1.15384615384615 4.64285714285714  L 1.15384615384615 6.73214285714286  L 3.75 6.73214285714286  L 3.75 4.64285714285714  L 1.15384615384615 4.64285714285714  Z M 7.78846153846154 9.98214285714286  L 7.78846153846154 12.0714285714286  L 10.6730769230769 12.0714285714286  L 10.6730769230769 9.98214285714286  L 7.78846153846154 9.98214285714286  Z M 4.32692307692308 4.64285714285714  L 4.32692307692308 6.73214285714286  L 7.21153846153846 6.73214285714286  L 7.21153846153846 4.64285714285714  L 4.32692307692308 4.64285714285714  Z M 11.25 9.98214285714286  L 11.25 12.0714285714286  L 13.8461538461538 12.0714285714286  L 13.8461538461538 9.98214285714286  L 11.25 9.98214285714286  Z M 7.78846153846154 7.19642857142857  L 7.78846153846154 9.51785714285714  L 10.6730769230769 9.51785714285714  L 10.6730769230769 7.19642857142857  L 7.78846153846154 7.19642857142857  Z M 4.52974759615385 3.41322544642857  C 4.58683894230769 3.36728050595238  4.61538461538462 3.31287202380952  4.61538461538462 3.25  L 4.61538461538462 1.16071428571429  C 4.61538461538462 1.09784226190476  4.58683894230769 1.0434337797619  4.52974759615385 0.997488839285714  C 4.47265625 0.951543898809523  4.40504807692308 0.928571428571428  4.32692307692308 0.928571428571428  L 3.75 0.928571428571428  C 3.671875 0.928571428571428  3.60426682692308 0.951543898809523  3.54717548076923 0.997488839285714  C 3.49008413461538 1.0434337797619  3.46153846153846 1.09784226190476  3.46153846153846 1.16071428571429  L 3.46153846153846 3.25  C 3.46153846153846 3.31287202380952  3.49008413461538 3.36728050595238  3.54717548076923 3.41322544642857  C 3.60426682692308 3.45917038690476  3.671875 3.48214285714286  3.75 3.48214285714286  L 4.32692307692308 3.48214285714286  C 4.40504807692308 3.48214285714286  4.47265625 3.45917038690476  4.52974759615385 3.41322544642857  Z M 11.25 7.19642857142857  L 11.25 9.51785714285714  L 13.8461538461538 9.51785714285714  L 13.8461538461538 7.19642857142857  L 11.25 7.19642857142857  Z M 7.78846153846154 4.64285714285714  L 7.78846153846154 6.73214285714286  L 10.6730769230769 6.73214285714286  L 10.6730769230769 4.64285714285714  L 7.78846153846154 4.64285714285714  Z M 11.25 4.64285714285714  L 11.25 6.73214285714286  L 13.8461538461538 6.73214285714286  L 13.8461538461538 4.64285714285714  L 11.25 4.64285714285714  Z M 11.4528245192308 3.41322544642857  C 11.5099158653846 3.36728050595238  11.5384615384615 3.31287202380952  11.5384615384615 3.25  L 11.5384615384615 1.16071428571429  C 11.5384615384615 1.09784226190476  11.5099158653846 1.0434337797619  11.4528245192308 0.997488839285714  C 11.3957331730769 0.951543898809523  11.328125 0.928571428571428  11.25 0.928571428571428  L 10.6730769230769 0.928571428571428  C 10.5949519230769 0.928571428571428  10.52734375 0.951543898809523  10.4702524038462 0.997488839285714  C 10.4131610576923 1.0434337797619  10.3846153846154 1.09784226190476  10.3846153846154 1.16071428571429  L 10.3846153846154 3.25  C 10.3846153846154 3.31287202380952  10.4131610576923 3.36728050595238  10.4702524038462 3.41322544642857  C 10.52734375 3.45917038690476  10.5949519230769 3.48214285714286  10.6730769230769 3.48214285714286  L 11.25 3.48214285714286  C 11.328125 3.48214285714286  11.3957331730769 3.45917038690476  11.4528245192308 3.41322544642857  Z M 14.6574519230769 2.1328125  C 14.8858173076923 2.31659226190476  15 2.53422619047619  15 2.78571428571429  L 15 12.0714285714286  C 15 12.3229166666667  14.8858173076923 12.5405505952381  14.6574519230769 12.7243303571429  C 14.4290865384615 12.9081101190476  14.1586538461538 13  13.8461538461538 13  L 1.15384615384615 13  C 0.841346153846154 13  0.570913461538462 12.9081101190476  0.342548076923077 12.7243303571429  C 0.114182692307692 12.5405505952381  0 12.3229166666667  0 12.0714285714286  L 0 2.78571428571429  C 0 2.53422619047619  0.114182692307692 2.31659226190476  0.342548076923077 2.1328125  C 0.570913461538462 1.94903273809524  0.841346153846154 1.85714285714286  1.15384615384615 1.85714285714286  L 2.30769230769231 1.85714285714286  L 2.30769230769231 1.16071428571429  C 2.30769230769231 0.841517857142858  2.44891826923077 0.568266369047618  2.73137019230769 0.340959821428572  C 3.01382211538462 0.113653273809524  3.35336538461538 0  3.75 0  L 4.32692307692308 0  C 4.72355769230769 0  5.06310096153846 0.113653273809524  5.34555288461538 0.340959821428572  C 5.62800480769231 0.568266369047618  5.76923076923077 0.841517857142858  5.76923076923077 1.16071428571429  L 5.76923076923077 1.85714285714286  L 9.23076923076923 1.85714285714286  L 9.23076923076923 1.16071428571429  C 9.23076923076923 0.841517857142858  9.37199519230769 0.568266369047618  9.65444711538462 0.340959821428572  C 9.93689903846154 0.113653273809524  10.2764423076923 0  10.6730769230769 0  L 11.25 0  C 11.6466346153846 0  11.9861778846154 0.113653273809524  12.2686298076923 0.340959821428572  C 12.5510817307692 0.568266369047618  12.6923076923077 0.841517857142858  12.6923076923077 1.16071428571429  L 12.6923076923077 1.85714285714286  L 13.8461538461538 1.85714285714286  C 14.1586538461538 1.85714285714286  14.4290865384615 1.94903273809524  14.6574519230769 2.1328125  Z " fill-rule="nonzero" fill="currentColor" stroke="none" transform="matrix(1 0 0 1 1694 33 )" />
  </g>
</svg>
