<?xml version="1.0" encoding="utf-8"?>
<!-- Generator: Adobe Illustrator 26.0.0, SVG Export Plug-In . SVG Version: 6.00 Build 0)  -->
<svg version="1.1" id="图层_1" xmlns="http://www.w3.org/2000/svg" xmlns:xlink="http://www.w3.org/1999/xlink" x="0px" y="0px"
	 viewBox="0 0 20 11" style="enable-background:new 0 0 20 11;" xml:space="preserve">
<style type="text/css">
	.st0{fill:currentColor;}
</style>
<path class="st0" d="M8.9,2.9V2.7c0-0.2,0.1-0.3,0.3-0.3H11c0.2,0,0.3,0.1,0.3,0.3v0.2C11.3,2.9,8.9,2.9,8.9,2.9z M14.4,2.9H12V2.7
	c0-0.2,0.1-0.3,0.3-0.3h1.8c0.2,0,0.3,0.1,0.3,0.3L14.4,2.9L14.4,2.9z M17.5,2.9h-2.4V2.7c0-0.2,0.1-0.3,0.3-0.3h1.8
	c0.2,0,0.3,0.1,0.3,0.3V2.9L17.5,2.9z M10.8,7.6H9.4V6.8h1.4C10.8,6.8,10.8,7.6,10.8,7.6z M10.8,6.6H9.4V5.8h1.4
	C10.8,5.8,10.8,6.6,10.8,6.6z M10.8,8.1H9.4V7.9h1.4C10.8,7.9,10.8,8.1,10.8,8.1z M10.8,5.5H9.4V4.7h1.4C10.8,4.7,10.8,5.5,10.8,5.5
	z M10.8,4.5H9.4V3.7h1.4C10.8,3.7,10.8,4.5,10.8,4.5z"/>
<path class="st0" d="M8.6,3.2c-1.4,0-1.7,1-1.7,2.2v0.5c0,1.2,0.4,2.2,1.7,2.2h0.5V3.3h0.2v0.2h1.4V3.3H11v4.8h6.8
	c1.4,0,1.7-1,1.7-2.2V5.4c0-1.2-0.4-2.2-1.7-2.2H8.6z"/>
<path class="st0" d="M9.4,4.7H9.2V4.5h0.1L9.4,4.7L9.4,4.7z M10.8,8.7H9.4V8.4h1.4C10.8,8.4,10.8,8.7,10.8,8.7z"/>
<path class="st0" d="M5.8,8.3v1H20v-1h-9V9h-0.2V8.9H9.4V9H9.1V8.4L5.8,8.3L5.8,8.3z"/>
<path class="st0" d="M17.7,8.3c0.7,0,1.2,0.5,1.2,1.2s-0.5,1.2-1.2,1.2s-1.2-0.5-1.2-1.2S17,8.3,17.7,8.3z M16.2,9.5
	c0-0.7-0.5-1.2-1.2-1.2s-1.2,0.5-1.2,1.2s0.5,1.2,1.2,1.2C15.7,10.7,16.2,10.2,16.2,9.5C16.2,9.5,16.2,10.2,16.2,9.5z M2.6,8.3
	L2.6,8.3c-0.7,0-1.2,0.5-1.2,1.2s0.5,1.2,1.2,1.2l0,0c0.7,0,1.2-0.6,1.2-1.2C3.7,8.9,3.2,8.3,2.6,8.3L2.6,8.3z"/>
<path class="st0" d="M0.2,8.3C0.2,8.4,0,8.5,0,8.7c0,0.4,0.3,0.7,0.3,0.7h6.2V2.8H2.8l-2,2.3c0,0-0.5,0.2-0.6,0.5
	C0.1,6,0.2,7.6,0.2,8.3z M2.2,5.1C1.9,5.1,1.8,5,2,4.7l1.1-1.3h2.8v1.7C5.9,5.1,2.2,5.1,2.2,5.1z M9.4,4.7H9.2V4.5h0.1L9.4,4.7
	L9.4,4.7z"/>
</svg>
